<?xml version="1.0" encoding="utf-8"?>
<!-- Generator: Adobe Illustrator 21.0.0, SVG Export Plug-In . SVG Version: 6.00 Build 0)  -->
<svg version="1.1" id="Layer_1" xmlns="http://www.w3.org/2000/svg" xmlns:xlink="http://www.w3.org/1999/xlink" x="0px" y="0px"
	 width="280px" height="280px" viewBox="0 0 280 280" style="enable-background:new 0 0 280 280;" xml:space="preserve">
<style type="text/css">
	.st0{fill:#F7F7F7;}
	.st1{fill:url(#SVGID_1_);}
	.st2{fill:url(#SVGID_2_);}
	.st3{fill:#FF6C4E;}
	.st4{fill:#2C39B0;}
	.st5{fill:#FFFFFF;}
	.st6{fill:#E2F4A3;}
	.st7{fill:url(#SVGID_3_);}
	.st8{fill:url(#SVGID_4_);}
	.st9{opacity:0.21;fill:#7A7F65;}
	.st10{fill:url(#SVGID_5_);}
	.st11{fill:url(#SVGID_6_);}
	.st12{fill:#88F2D4;}
</style>
<g>
	<polygon class="st0" points="245,215.9 147.5,273.9 50,213 146,157.9 	"/>
	<g>
		<linearGradient id="SVGID_1_" gradientUnits="userSpaceOnUse" x1="49.352" y1="198.1625" x2="234.7136" y2="198.1625">
			<stop  offset="0" style="stop-color:#2C39B0"/>
			<stop  offset="1" style="stop-color:#72F2E0"/>
		</linearGradient>
		<polygon class="st1" points="234.7,202.3 148.7,251.9 49.4,194.6 49.5,192.2 136.3,144.4 220.4,193 		"/>
		<polygon class="st0" points="234.7,198.7 148.7,248.3 48.7,190.6 135.6,140.5 220.4,189.4 		"/>
		<linearGradient id="SVGID_2_" gradientUnits="userSpaceOnUse" x1="49.4568" y1="192.4186" x2="234.7136" y2="192.4186">
			<stop  offset="0" style="stop-color:#2C39B0"/>
			<stop  offset="1" style="stop-color:#72F2E0"/>
		</linearGradient>
		<polygon class="st2" points="234.7,196.3 148.7,246 49.7,189 49.5,185.7 136.6,138.8 220.4,187 		"/>
		<path class="st3" d="M50.1,186.5l-6.7-3.9c-7.3-4.2-8.8-10.2-3.4-13.3l79.2-45.7c5.4-3.1,15.8-2.2,23,1.9l6.7,3.9L50.1,186.5z"/>
		<path class="st4" d="M148.6,255.2c-0.1,0-0.3,0-0.4-0.1l-99.1-57.2c-0.2-0.1-0.4-0.4-0.4-0.6v-10.3c0-0.4,0.3-0.8,0.8-0.8
			s0.8,0.3,0.8,0.8v9.9l98.4,56.8l84.1-48.6l9.7-5.8l-2.9-2c-0.3-0.2-0.4-0.7-0.2-1s0.7-0.4,1-0.2l3.8,2.7c0.2,0.1,0.3,0.4,0.3,0.6
			c0,0.3-0.1,0.5-0.4,0.6l-10.7,6.4l-84.5,48.8C148.8,255.1,148.7,255.2,148.6,255.2z"/>
		<path class="st4" d="M148.6,250.2c-0.1,0-0.3,0-0.4-0.1l-99.1-57.2c-0.2-0.1-0.4-0.4-0.4-0.6v-6.5c0-0.4,0.3-0.8,0.8-0.8
			s0.8,0.3,0.8,0.8v6l98.4,56.8l84.1-48.6l9.7-5.8l-13.1-9.2c-0.3-0.2-0.4-0.7-0.2-1c0.2-0.3,0.7-0.4,1-0.2l14,9.9
			c0.2,0.1,0.3,0.4,0.3,0.6c0,0.3-0.1,0.5-0.4,0.6l-10.7,6.4l-84.5,48.8C148.8,250.1,148.7,250.2,148.6,250.2z"/>
		<path class="st4" d="M51.1,198.9c-0.1,0-0.3,0-0.4-0.1l-6.7-3.9c-1.6-0.9-6.9-4.3-6.9-7.6c0-0.4,0.3-0.8,0.8-0.8s0.8,0.3,0.8,0.8
			c0,1.9,3.1,4.6,6.2,6.3l6.7,3.9c0.4,0.2,0.5,0.7,0.3,1C51.6,198.8,51.4,198.9,51.1,198.9z"/>
		<path class="st4" d="M37.8,188c-0.4,0-0.8-0.3-0.8-0.8v-12.4c0-0.4,0.3-0.8,0.8-0.8s0.8,0.3,0.8,0.8v12.4
			C38.6,187.7,38.3,188,37.8,188z"/>
		<g>
			<g>
				<polyline class="st5" points="188,151.5 225.2,173 233,194.2 148.5,242.9 49.4,185.7 114.3,148.3 				"/>
				<polygon class="st6" points="210.5,181.1 219.5,186.5 145.3,229.3 61.9,181.1 148.8,131 222.4,173.9 				"/>
				<g>
					<path class="st5" d="M61.3,168.2c1.8,1,2.2,2.5,0.8,3.3s-3.9,0.6-5.7-0.5c-1.8-1-2.2-2.5-0.8-3.3S59.5,167.1,61.3,168.2z"/>
					<path class="st5" d="M81.8,156.3c1.8,1,2.2,2.5,0.8,3.3c-1.3,0.8-3.9,0.6-5.7-0.5c-1.8-1-2.2-2.5-0.8-3.3S80,155.3,81.8,156.3z
						"/>
					<path class="st5" d="M102.3,144.5c1.8,1,2.2,2.5,0.8,3.3c-1.3,0.8-3.9,0.6-5.7-0.5c-1.8-1-2.2-2.5-0.8-3.3
						S100.5,143.5,102.3,144.5z"/>
				</g>
				<path class="st4" d="M233.7,193.9l-7.8-21.1c-0.1-0.2-0.2-0.3-0.3-0.4l-37.2-21.5c-0.4-0.2-0.8-0.1-1,0.3
					c-0.2,0.4-0.1,0.8,0.3,1l35.8,20.7l-4.7,2.7c-0.1-0.2-0.2-0.3-0.3-0.4l-30.6-17.7c-0.4-0.2-0.8-0.1-1,0.3
					c-0.2,0.4-0.1,0.8,0.3,1l25.4,14.7l-15.5,8.9l-14.1-8.1c-0.4-0.2-0.8-0.1-1,0.3c-0.2,0.4-0.1,0.8,0.3,1l13.3,7.7l-16.5,9.5
					l-20-11.5l9.9-5.7c0.4-0.2,0.5-0.7,0.3-1c-0.2-0.4-0.7-0.5-1-0.3l-10.7,6.2l-15.8-9.1c-0.4-0.2-0.8-0.1-1,0.3
					c-0.2,0.4-0.1,0.8,0.3,1l15,8.7l-34.6,20l-7.2-4.1c-0.4-0.2-0.8-0.1-1,0.3s-0.1,0.8,0.3,1l6.4,3.7l-14.3,8.3l-20-11.5l14.7-8.5
					c0,0,0,0,0,0l4.2-2.4c0.4-0.2,0.5-0.7,0.3-1s-0.7-0.5-1-0.3l-3.8,2.2l-19.8-11.4l16.5-9.5l8.6,5c0.1,0.1,0.2,0.1,0.4,0.1
					c0.3,0,0.5-0.1,0.6-0.4c0.2-0.4,0.1-0.8-0.3-1l-7.9-4.6l14.4-8.3c0.4-0.2,0.5-0.7,0.3-1s-0.7-0.5-1-0.3l-49.4,28.5
					c-0.2,0.1-0.4,0.4-0.4,0.6s0.1,0.5,0.4,0.6l21.3,12.3c0,0,0,0,0,0l62.2,35.9c0.1,0.1,0.2,0.1,0.4,0.1s0.3,0,0.4-0.1l15.8-9.1
					c0,0,0,0,0,0l18-10.4c0,0,0,0,0,0l44.3-25.6l1.2,0.7l-3.7,2.1c-0.4,0.2-0.5,0.7-0.3,1c0.1,0.2,0.4,0.4,0.7,0.4
					c0.1,0,0.3,0,0.4-0.1l4.5-2.6l1.2,0.7l-5.3,3.1c-0.4,0.2-0.5,0.7-0.3,1c0.1,0.2,0.4,0.4,0.7,0.4c0.1,0,0.3,0,0.4-0.1l6-3.5
					l1.2,0.7l-83,47.9l-97.6-56.4l63.7-36.8c0.4-0.2,0.5-0.7,0.3-1c-0.2-0.4-0.7-0.5-1-0.3l-64.5,37.2l-4.7-2.7
					c-3.9-2.3-6.2-5.2-6.2-7.8c0-1.7,1-3.1,2.9-4.2l8.5-4.9l4.5,2.6c-0.2,0.3-0.3,0.7-0.3,1.1c0,1,0.7,2,2,2.7c1.2,0.7,2.7,1,4,1
					c1,0,1.8-0.2,2.5-0.6c0.8-0.4,1.2-1.1,1.2-1.9c0-1-0.7-2-2-2.7c-1.9-1.1-4.4-1.3-6-0.7l-4.3-2.5l19-11l4.5,2.6
					c-0.2,0.3-0.3,0.7-0.3,1.1c0,1,0.7,2,2,2.7c1.2,0.7,2.7,1,4,1c1,0,1.8-0.2,2.5-0.6c0.8-0.4,1.2-1.1,1.2-1.9c0-1-0.7-2-2-2.7
					c-1.9-1.1-4.4-1.3-6-0.7l-4.3-2.5l19-11l4.5,2.6c-0.2,0.3-0.3,0.7-0.3,1.1c0,1,0.7,2,2,2.7c1.2,0.7,2.7,1,4,1
					c0.9,0,1.8-0.2,2.5-0.6c0.8-0.4,1.2-1.1,1.2-1.9c0-1-0.7-2-2-2.7c-1.9-1.1-4.4-1.3-6-0.7l-4.3-2.5l13.7-7.9
					c0.4-0.2,0.5-0.7,0.3-1c-0.2-0.4-0.7-0.5-1-0.3l-14.5,8.4l-1.1-0.6c-0.4-0.2-0.8-0.1-1,0.3c-0.2,0.4-0.1,0.8,0.3,1l0.3,0.2
					l-19,11l-1.1-0.6c-0.4-0.2-0.8-0.1-1,0.3s-0.1,0.8,0.3,1l0.3,0.2l-19,11l-1.1-0.6c-0.4-0.2-0.8-0.1-1,0.3
					c-0.2,0.4-0.1,0.8,0.3,1l0.3,0.2l-7.8,4.5c-2.3,1.3-3.6,3.3-3.6,5.5c0,3.2,2.5,6.5,7,9.1l6.7,3.9l97.4,56.3
					c0.1,0.1,0.2,0.1,0.4,0.1s0.3,0,0.4-0.1l84.5-48.8C233.7,194.6,233.9,194.2,233.7,193.9z M64.3,186.6l14.3-8.3l19.8,11.4
					L84.1,198L64.3,186.6z M57.7,167.9c1.1,0,2.3,0.3,3.3,0.9c0.9,0.5,1.3,1.1,1.3,1.4c0,0.2-0.1,0.4-0.4,0.6
					c-1.1,0.6-3.4,0.4-5-0.5c-0.9-0.5-1.3-1.1-1.3-1.4c0-0.1,0-0.2,0.1-0.3l0.8,0.4c0.1,0.1,0.2,0.1,0.4,0.1c0.3,0,0.5-0.1,0.6-0.4
					c0.1-0.3,0.1-0.5,0-0.8C57.5,168,57.6,167.9,57.7,167.9z M78.2,156.1c1.1,0,2.3,0.3,3.3,0.9c0.9,0.5,1.3,1.1,1.3,1.4
					c0,0.2-0.1,0.4-0.4,0.6c-1.1,0.6-3.4,0.4-5-0.5c-0.9-0.5-1.3-1.1-1.3-1.4c0-0.1,0-0.2,0.1-0.3l0.8,0.4c0.1,0.1,0.2,0.1,0.4,0.1
					c0.3,0,0.5-0.1,0.6-0.4c0.1-0.3,0.1-0.5,0-0.8C78,156.1,78.1,156.1,78.2,156.1z M98.7,144.3c1.1,0,2.3,0.3,3.3,0.9
					c0.9,0.5,1.3,1.1,1.3,1.4c0,0.2-0.1,0.4-0.4,0.6c-1.1,0.6-3.4,0.4-5-0.5c-0.9-0.5-1.3-1.1-1.3-1.4c0-0.1,0-0.2,0.1-0.3l0.8,0.4
					c0.1,0.1,0.2,0.1,0.4,0.1c0.3,0,0.5-0.1,0.6-0.4c0.1-0.3,0.1-0.5,0-0.8C98.5,144.3,98.6,144.3,98.7,144.3z M157.4,182.1l20,11.5
					l-16.5,9.5l-20-11.5L157.4,182.1z M139.4,192.5l20,11.5l-16.5,9.5l-20-11.5L139.4,192.5z M107.1,211.2l14.3-8.3l20,11.5
					l-14.3,8.3L107.1,211.2z M146.3,233.9l-17.8-10.3l14.3-8.3l17.8,10.3L146.3,233.9z M162.1,224.7l-17.8-10.3l16.5-9.5l17.8,10.3
					L162.1,224.7z M180.2,214.3l-17.8-10.3l16.5-9.5l17.8,10.3L180.2,214.3z M198.2,203.9l-17.8-10.3l16.5-9.5l17.8,10.3
					L198.2,203.9z M216.2,193.5l-17.8-10.3l15.5-8.9l3.4,2l-7.3,4.2c-0.2,0.1-0.4,0.4-0.4,0.6s0.1,0.5,0.4,0.6l13.2,7.6L216.2,193.5
					z M212,181.1l12.7-7.3l6.9,18.7L212,181.1z"/>
			</g>
			<g>
				<path class="st4" d="M77.8,181.4l0.4-0.2l3.3,1.9l-0.5,0.3l-2.4-1.4l-0.1,0.6l-0.7-0.2L77.8,181.4z"/>
			</g>
			<g>
				<path class="st4" d="M97.1,173.4l-0.2-1c0-0.2-0.2-0.4-0.4-0.6c-0.3-0.2-0.6-0.2-0.8-0.1c-0.2,0.1-0.1,0.3,0.3,0.6l-0.6,0.2
					c-0.7-0.4-0.9-0.9-0.3-1.2c0.5-0.3,1.3-0.2,1.9,0.1c0.4,0.2,0.6,0.5,0.7,0.9l0.1,0.6l0.9-0.5l0.6,0.4l-1.6,0.9L97.1,173.4z"/>
			</g>
			<g>
				<path class="st4" d="M134.8,151.6l0.6,0.3l-0.5,0.3l-0.6-0.3l-1.1,0.6l-0.5-0.3l-1.3-1.8l0.7-0.4l2.1,1.2l0.3-0.2l0.5,0.3
					L134.8,151.6z M133.7,151.6l-1.4-0.8l0.8,1.1L133.7,151.6z"/>
			</g>
			<g>
				<path class="st4" d="M149.4,142.1l-1.7-1.1l1.3-0.8l0.6,0.4l-0.9,0.5l0.6,0.4l0.1-0.1c0.5-0.3,1.1-0.3,1.8,0
					c0.8,0.4,0.8,0.9,0.2,1.2c-0.3,0.2-0.8,0.3-0.9,0.3l-0.5-0.4c0.2,0,0.5-0.1,0.7-0.2s0.3-0.3-0.1-0.5c-0.3-0.2-0.6-0.1-0.8,0
					L149.4,142.1L149.4,142.1z"/>
			</g>
			<g>
				<path class="st4" d="M101.1,195.4c-0.1-0.1-0.1-0.3,0.2-0.5c0.5-0.3,1.1-0.2,1.8,0.2c0.7,0.4,0.8,0.9,0.3,1.2
					c-0.6,0.4-1.6,0.2-2.6-0.4c-1-0.6-1.3-1.2-0.7-1.5c0.3-0.2,0.8-0.3,1-0.3l0.4,0.4c-0.2,0-0.5,0.1-0.7,0.2
					C100.4,194.8,100.7,195.1,101.1,195.4z M101.8,195.8c0.4,0.2,0.8,0.3,1,0.2c0.2-0.1,0.1-0.3-0.2-0.5c-0.3-0.2-0.6-0.2-0.8-0.1
					C101.6,195.4,101.7,195.6,101.8,195.8z"/>
			</g>
			<g>
				<path class="st4" d="M118.4,184.5l-1,0.6l-0.6-0.4l1.6-0.9l0.5,0.3l2,2.1l-0.6,0.3l-0.1,0L118.4,184.5z"/>
			</g>
			<g>
				<path class="st4" d="M136.7,176c-0.5-0.3-0.6-0.5-0.4-0.7c-0.3,0.1-0.7,0-1-0.2c-0.6-0.3-0.6-0.7-0.1-1c0.5-0.3,1.1-0.3,1.7,0
					c0.3,0.2,0.5,0.4,0.4,0.6c0.4-0.1,0.8,0,1.2,0.2c0.6,0.3,0.6,0.7,0,1.1C138,176.3,137.3,176.3,136.7,176z M135.9,174.8
					c0.2,0.1,0.5,0.2,0.7,0.1c0.2-0.1,0.1-0.3-0.1-0.4c-0.3-0.1-0.5-0.2-0.7-0.1C135.6,174.5,135.6,174.7,135.9,174.8z M137.1,175.6
					c0.3,0.2,0.6,0.2,0.9,0.1c0.2-0.1,0.2-0.3-0.1-0.5c-0.2-0.1-0.6-0.2-0.8,0C136.8,175.3,136.9,175.5,137.1,175.6z"/>
			</g>
			<g>
				<path class="st4" d="M156.1,164.2c0.1,0.1,0.1,0.3-0.2,0.5c-0.5,0.3-1.2,0.2-1.8-0.2c-0.7-0.4-0.8-0.9-0.3-1.2
					c0.6-0.4,1.6-0.2,2.6,0.4c1,0.6,1.3,1.2,0.7,1.5c-0.3,0.2-0.8,0.3-1,0.3l-0.4-0.4c0.2,0,0.5-0.1,0.7-0.2
					C156.8,164.8,156.6,164.5,156.1,164.2z M155.5,163.9c-0.4-0.2-0.8-0.3-1-0.2c-0.2,0.1-0.1,0.3,0.2,0.5c0.3,0.2,0.6,0.2,0.8,0.1
					C155.6,164.2,155.6,164,155.5,163.9z"/>
			</g>
			<g>
				<path class="st4" d="M169.8,154.2l0.4-0.2l3.3,1.9l-0.5,0.3l-2.4-1.4l-0.1,0.6l-0.7-0.2L169.8,154.2z"/>
				<path class="st4" d="M171.5,153.1c0.6-0.4,1.6-0.2,2.6,0.4c1,0.6,1.4,1.1,0.8,1.5c-0.6,0.3-1.6,0.1-2.6-0.4
					C171.2,154,170.9,153.5,171.5,153.1z M174.2,154.7c0.3-0.2,0-0.5-0.6-0.8c-0.6-0.4-1.1-0.5-1.5-0.4c-0.3,0.2,0,0.5,0.6,0.8
					C173.4,154.7,173.9,154.8,174.2,154.7z"/>
			</g>
			<g>
				<path class="st4" d="M120.6,207l0.4-0.2l3.3,1.9l-0.5,0.3l-2.4-1.4l-0.1,0.6l-0.7-0.2L120.6,207z"/>
				<path class="st4" d="M122.2,206.1l0.4-0.2l3.3,1.9l-0.5,0.3l-2.4-1.4l-0.1,0.6l-0.7-0.2L122.2,206.1z"/>
			</g>
			<g>
				<path class="st4" d="M137.9,197l0.4-0.2l3.3,1.9l-0.5,0.3l-2.4-1.4l-0.1,0.6l-0.7-0.2L137.9,197z"/>
				<path class="st4" d="M141.5,198.1l-0.2-1c0-0.2-0.2-0.4-0.4-0.6c-0.3-0.2-0.6-0.2-0.8-0.1c-0.2,0.1-0.1,0.3,0.3,0.6l-0.6,0.2
					c-0.7-0.4-0.9-0.9-0.3-1.2c0.5-0.3,1.3-0.2,1.9,0.1c0.4,0.2,0.6,0.5,0.7,0.9l0.1,0.6l0.9-0.5l0.6,0.4l-1.6,0.9L141.5,198.1z"/>
			</g>
			<g>
				<path class="st4" d="M155.6,186.8l0.4-0.2l3.3,1.9l-0.5,0.3l-2.4-1.4l-0.1,0.6l-0.7-0.2L155.6,186.8z"/>
				<path class="st4" d="M158.5,186.7c0.2-0.1,0.2-0.3,0-0.4c-0.3-0.2-0.5-0.1-0.8,0s-0.3,0.3-0.3,0.4l-0.7-0.3
					c0-0.1,0.2-0.4,0.5-0.5c0.6-0.3,1.2-0.3,1.8,0c0.3,0.2,0.5,0.4,0.4,0.6c0.4-0.1,0.8,0,1.2,0.2c0.6,0.3,0.6,0.7,0,1.1
					c-0.3,0.2-0.7,0.3-0.9,0.3l-0.5-0.4c0.2,0,0.5-0.1,0.7-0.2c0.2-0.1,0.3-0.3,0-0.5c-0.3-0.2-0.5-0.1-0.7,0l-0.5,0.3l-0.6-0.3
					L158.5,186.7z"/>
			</g>
			<g>
				<path class="st4" d="M174.2,176.1l0.4-0.2l3.3,1.9l-0.5,0.3l-2.4-1.4l-0.1,0.6l-0.7-0.2L174.2,176.1z"/>
				<path class="st4" d="M179.2,176.3l0.6,0.3l-0.5,0.3l-0.6-0.3l-1.1,0.6l-0.5-0.3l-1.3-1.8l0.7-0.4l2.1,1.2l0.3-0.2l0.5,0.3
					L179.2,176.3z M178.1,176.3l-1.4-0.8l0.8,1.1L178.1,176.3z"/>
			</g>
			<g>
				<path class="st4" d="M191.1,166.3l0.4-0.2l3.3,1.9l-0.5,0.3l-2.4-1.4l-0.1,0.6l-0.7-0.2L191.1,166.3z"/>
				<path class="st4" d="M193.8,166.8l-1.7-1.1l1.3-0.8l0.6,0.4l-0.9,0.5l0.6,0.4l0.1-0.1c0.5-0.3,1.1-0.3,1.8,0
					c0.8,0.4,0.8,0.9,0.2,1.2c-0.3,0.2-0.8,0.3-0.9,0.3l-0.5-0.4c0.2,0,0.5-0.1,0.7-0.2c0.2-0.1,0.3-0.3-0.1-0.5
					c-0.3-0.2-0.6-0.1-0.8,0L193.8,166.8L193.8,166.8z"/>
			</g>
			<g>
				<path class="st4" d="M142.2,219.8l0.4-0.2l3.3,1.9l-0.5,0.3l-2.4-1.4l-0.1,0.6l-0.7-0.2L142.2,219.8z"/>
				<path class="st4" d="M144.9,219.8c-0.1-0.1-0.1-0.3,0.2-0.5c0.5-0.3,1.1-0.2,1.8,0.2c0.7,0.4,0.8,0.9,0.3,1.2
					c-0.6,0.4-1.6,0.2-2.6-0.4c-1-0.6-1.3-1.2-0.7-1.5c0.3-0.2,0.8-0.3,1-0.3l0.4,0.4c-0.2,0-0.5,0.1-0.7,0.2
					C144.2,219.2,144.5,219.5,144.9,219.8z M145.6,220.1c0.4,0.2,0.8,0.3,1,0.2c0.2-0.1,0.1-0.3-0.2-0.5c-0.3-0.2-0.6-0.2-0.8-0.1
					C145.4,219.8,145.5,220,145.6,220.1z"/>
			</g>
			<g>
				<path class="st4" d="M159.8,209.5l0.4-0.2l3.3,1.9l-0.5,0.3l-2.4-1.4l-0.1,0.6l-0.7-0.2L159.8,209.5z"/>
				<path class="st4" d="M162.2,208.9l-1,0.6l-0.6-0.4l1.6-0.9l0.5,0.3l2,2.1l-0.6,0.3l-0.1,0L162.2,208.9z"/>
			</g>
			<g>
				<path class="st4" d="M177.3,199.5l0.4-0.2l3.3,1.9l-0.5,0.3L178,200l-0.1,0.6l-0.7-0.2L177.3,199.5z"/>
				<path class="st4" d="M180.5,200.3c-0.5-0.3-0.6-0.5-0.4-0.7c-0.3,0.1-0.7,0-1-0.2c-0.6-0.3-0.6-0.7-0.1-1c0.5-0.3,1.1-0.3,1.7,0
					c0.3,0.2,0.5,0.4,0.4,0.6c0.4-0.1,0.8,0,1.2,0.2c0.6,0.3,0.6,0.7,0,1.1C181.8,200.7,181.1,200.7,180.5,200.3z M179.7,199.2
					c0.2,0.1,0.5,0.2,0.7,0.1c0.2-0.1,0.1-0.3-0.1-0.4c-0.3-0.1-0.5-0.2-0.7-0.1C179.4,198.9,179.4,199,179.7,199.2z M180.9,200
					c0.3,0.2,0.6,0.2,0.9,0.1c0.2-0.1,0.2-0.3-0.1-0.5c-0.2-0.1-0.6-0.2-0.8,0C180.6,199.6,180.7,199.8,180.9,200z"/>
			</g>
			<g>
				<path class="st4" d="M196,188.7l0.4-0.2l3.3,1.9l-0.5,0.3l-2.4-1.4l-0.1,0.6l-0.7-0.2L196,188.7z"/>
				<path class="st4" d="M199.9,188.6c0.1,0.1,0.1,0.3-0.2,0.5c-0.5,0.3-1.1,0.2-1.8-0.2c-0.7-0.4-0.8-0.9-0.3-1.2
					c0.6-0.4,1.6-0.2,2.6,0.4c1,0.6,1.3,1.2,0.7,1.5c-0.3,0.2-0.8,0.3-1,0.3l-0.4-0.4c0.2,0,0.5-0.1,0.7-0.2
					C200.6,189.1,200.4,188.9,199.9,188.6z M199.3,188.2c-0.4-0.2-0.8-0.3-1-0.2c-0.2,0.1-0.1,0.3,0.2,0.5c0.3,0.2,0.6,0.2,0.8,0.1
					C199.4,188.5,199.4,188.3,199.3,188.2z"/>
			</g>
		</g>
	</g>
	<linearGradient id="SVGID_3_" gradientUnits="userSpaceOnUse" x1="45.4289" y1="70.007" x2="80.9677" y2="70.007">
		<stop  offset="0" style="stop-color:#72F2E0"/>
		<stop  offset="1" style="stop-color:#E2F4A3"/>
	</linearGradient>
	<path class="st7" d="M79.9,58.4L79.9,58.4c-1.5-1.8-4.2-1.9-5.9-0.4L57.8,73.3L52,68.6c-1.9-1.3-4.6-0.8-5.8,1.2
		c-1.3,1.9-0.8,4.6,1.2,5.8l8,6.4c0.1,0.1,0.1,0.1,0.2,0.2l0.1,0.1c0.1,0.1,0.2,0.1,0.3,0.1c0.1,0.1,0.2,0.1,0.3,0.2
		c0.1,0.1,0.3,0.1,0.4,0.2c0.1,0,0.2,0.1,0.3,0.1c0.1,0,0.3,0.1,0.4,0.1c0.1,0,0.2,0,0.4,0c0.1,0,0.3,0,0.4,0c0.2,0,0.3,0,0.4,0
		c0.1,0,0.2,0,0.3-0.1c0.2,0,0.3-0.1,0.5-0.1c0.1,0,0.2-0.1,0.3-0.1c0.2-0.1,0.3-0.2,0.5-0.2c0.1-0.1,0.2-0.1,0.3-0.2
		c0.1-0.1,0.2-0.1,0.3-0.2l18.8-17.6C81.3,62.9,81.5,60.2,79.9,58.4z"/>
	<linearGradient id="SVGID_4_" gradientUnits="userSpaceOnUse" x1="45.4289" y1="100.6823" x2="80.9677" y2="100.6823">
		<stop  offset="0" style="stop-color:#72F2E0"/>
		<stop  offset="1" style="stop-color:#E2F4A3"/>
	</linearGradient>
	<path class="st8" d="M79.9,89.1L79.9,89.1c-1.5-1.8-4.2-1.9-5.9-0.4l-16.2,15.2L52,99.3c-1.9-1.3-4.6-0.8-5.8,1.2
		c-1.3,1.9-0.8,4.6,1.2,5.8l8,6.4c0.1,0.1,0.1,0.1,0.2,0.2l0.1,0.1c0.1,0.1,0.2,0.1,0.3,0.1c0.1,0.1,0.2,0.1,0.3,0.2
		c0.1,0.1,0.3,0.1,0.4,0.2c0.1,0,0.2,0.1,0.3,0.1c0.1,0,0.3,0.1,0.4,0.1c0.1,0,0.2,0,0.4,0c0.1,0,0.3,0,0.4,0c0.2,0,0.3,0,0.4,0
		c0.1,0,0.2,0,0.3-0.1c0.2,0,0.3-0.1,0.5-0.1c0.1,0,0.2-0.1,0.3-0.1c0.2-0.1,0.3-0.2,0.5-0.2c0.1-0.1,0.2-0.1,0.3-0.2
		c0.1-0.1,0.2-0.1,0.3-0.2l18.8-17.6C81.3,93.5,81.5,90.9,79.9,89.1z"/>
	<g>
		<path class="st9" d="M142.8,197l-10.2-5.8c-1.4-0.8-3.2-0.8-4.6,0L108.1,203c-1.4,0.8-2.2,2.3-2.2,4c0,1.6,0.9,3.1,2.3,3.9
			l10.2,5.8c0.7,0.4,1.5,0.6,2.3,0.6c0.8,0,1.6-0.2,2.3-0.6l19.9-11.8c1.4-0.8,2.2-2.3,2.2-4C145.1,199.3,144.2,197.8,142.8,197z"/>
		<path class="st9" d="M191.8,169.2l-10.2-5.8c-1.4-0.8-3.2-0.8-4.6,0l-19.9,11.8c-1.4,0.8-2.2,2.3-2.2,4c0,1.6,0.9,3.1,2.3,3.9
			l10.2,5.8c0.7,0.4,1.5,0.6,2.3,0.6c0.8,0,1.6-0.2,2.3-0.6l19.9-11.8c1.4-0.8,2.2-2.3,2.2-4C194.1,171.5,193.2,170,191.8,169.2z"/>
		<polygon class="st5" points="122.8,149.4 110.6,195.7 123.2,188.5 130.4,200.4 142.5,157.5 139.6,156.2 130.6,158.7 125.3,150.6 
					"/>
		<g>
			<polyline class="st5" points="182.1,119.6 193.5,148.3 180.9,155.6 173.7,175.8 162.8,149.5 			"/>
			<g>
				<g>
					<path class="st4" d="M176.9,174.7c-0.1,0-0.2,0-0.3-0.1l-7.4-3.3c-0.2-0.1-0.3-0.2-0.4-0.4l-8.4-20.1c-0.2-0.4,0-0.8,0.4-1
						c0.4-0.2,0.8,0,1,0.4l8.2,19.8l7.1,3.2c0.4,0.2,0.5,0.6,0.4,1C177.5,174.6,177.2,174.7,176.9,174.7z"/>
					<path class="st4" d="M133.5,199.8c-0.1,0-0.2,0-0.3-0.1l-7.4-3.3c-0.1-0.1-0.3-0.2-0.3-0.3l-3.8-6.3c-0.2-0.4-0.1-0.8,0.3-1
						c0.4-0.2,0.8-0.1,1,0.3l3.7,6.1l7.2,3.2c0.4,0.2,0.5,0.6,0.4,1C134.1,199.6,133.8,199.8,133.5,199.8z"/>
					<path class="st4" d="M113.8,195.1c-0.1,0-0.2,0-0.3-0.1l-7.4-3.3c-0.3-0.2-0.5-0.5-0.4-0.9l11.9-43.8c0.1-0.4,0.5-0.6,0.9-0.5
						c0.4,0.1,0.6,0.5,0.5,0.9l-11.8,43.2l6.8,3.1c0.4,0.2,0.5,0.6,0.4,1C114.3,194.9,114.1,195.1,113.8,195.1z"/>
					<path class="st4" d="M148.3,18.4c-0.2,0-0.4-0.1-0.6-0.3c-0.3-0.3-0.2-0.8,0.1-1.1l8.5-7.5c0.2-0.2,0.5-0.2,0.8-0.1l7.6,3.2
						c0.4,0.2,0.6,0.6,0.4,1c-0.2,0.4-0.6,0.6-1,0.4l-7.1-3l-8.1,7.2C148.6,18.4,148.4,18.4,148.3,18.4z"/>
					<path class="st4" d="M175.8,16.5c-0.3,0-0.5-0.1-0.6-0.4l-2.6-4.1l-8,2.2c-0.4,0.1-0.8-0.1-0.9-0.5c-0.1-0.4,0.1-0.8,0.5-0.9
						l8.5-2.4c0.3-0.1,0.7,0,0.8,0.3l2.9,4.6c0.2,0.4,0.1,0.8-0.2,1C176.1,16.5,175.9,16.5,175.8,16.5z"/>
					<path class="st4" d="M117.8,147.7c-0.1,0-0.2,0-0.3-0.1l-7.4-3.3c-0.2-0.1-0.4-0.3-0.4-0.6l-1.8-12.6c-0.1-0.4,0.2-0.8,0.6-0.8
						c0.4-0.1,0.8,0.2,0.8,0.6l1.8,12.2l7,3.2c0.4,0.2,0.5,0.6,0.4,1C118.3,147.5,118.1,147.7,117.8,147.7z"/>
					<path class="st4" d="M108.4,131.7c-0.3,0-0.5-0.1-0.7-0.4l-4.6-8.8c-0.1-0.1-0.1-0.3-0.1-0.4l1.9-14.7c0.1-0.4,0.4-0.7,0.8-0.6
						c0.4,0.1,0.7,0.4,0.6,0.8l-1.9,14.5l4.4,8.6c0.2,0.4,0,0.8-0.3,1C108.7,131.7,108.5,131.7,108.4,131.7z"/>
					<path class="st4" d="M105.7,108.1c-0.4,0-0.7-0.3-0.7-0.6l-1.7-12.2c0-0.1,0-0.2,0-0.3l4.8-14.6c0.1-0.4,0.6-0.6,0.9-0.5
						c0.4,0.1,0.6,0.6,0.5,0.9l-4.8,14.4l1.7,12c0.1,0.4-0.2,0.8-0.6,0.8C105.7,108.1,105.7,108.1,105.7,108.1z"/>
					<path class="st4" d="M108.9,80.9C108.9,80.9,108.9,80.9,108.9,80.9c-0.5-0.1-0.8-0.4-0.7-0.8l1.9-14.7c0-0.1,0-0.2,0.1-0.3
						l7.2-11.6c0.2-0.4,0.7-0.5,1-0.2c0.4,0.2,0.5,0.7,0.2,1l-7.1,11.5l-1.9,14.6C109.6,80.6,109.3,80.9,108.9,80.9z"/>
					<path class="st4" d="M118,54.4c-0.1,0-0.2,0-0.3,0c-0.4-0.1-0.6-0.6-0.5-1l5.1-14.4c0-0.1,0.1-0.2,0.2-0.3l8.5-7.6
						c0.3-0.3,0.8-0.2,1.1,0.1c0.3,0.3,0.2,0.8-0.1,1.1l-8.3,7.4l-5.1,14.2C118.6,54.2,118.3,54.4,118,54.4z"/>
					<path class="st4" d="M131.9,32.5c-0.1,0-0.3,0-0.4-0.1c-0.3-0.2-0.4-0.7-0.2-1l7.7-11.7c0.1-0.2,0.3-0.3,0.5-0.3l8.5-2
						c0.4-0.1,0.8,0.2,0.9,0.6c0.1,0.4-0.2,0.8-0.6,0.9l-8.2,2l-7.5,11.5C132.4,32.4,132.2,32.5,131.9,32.5z"/>
				</g>
			</g>
			<linearGradient id="SVGID_5_" gradientUnits="userSpaceOnUse" x1="113.8485" y1="88.9818" x2="202.61" y2="88.9818">
				<stop  offset="0" style="stop-color:#2C39B0"/>
				<stop  offset="1" style="stop-color:#72F2E0"/>
			</linearGradient>
			<polygon class="st10" points="202.6,76.8 201.1,64.5 201,63.9 202.3,49.3 197.4,41.2 197.2,41.2 195.4,28.6 188.3,25.1 
				188.1,25.2 182.9,16.8 174.4,19.2 174.3,19 166.7,15.8 158.2,23.3 158,23.7 149.6,25.7 141.9,37.5 141.6,37.3 133.1,44.9 
				128,59.3 128,59.5 120.8,71.1 118.9,85.8 118.8,86.3 114,100.9 115.7,113 115.7,113.2 113.8,127.9 118.4,136.7 118.6,136.7 
				120.4,149.3 127.5,152.7 127.9,152.9 133.2,161.1 141.7,158.4 142.1,158.9 149.3,162.1 158.2,154.6 158.2,154.4 166.7,152.1 
				174.3,140.2 174.5,139.9 183.3,131.8 188.1,117.9 188.2,117.7 195.7,105.7 197.7,91.5 197.7,91.3 			"/>
			<g>
				<g>
					<path class="st4" d="M200.7,74.4l-1.6-12.3c0-0.1-0.1-0.2-0.1-0.3c0,0,0-0.1,0-0.1l1.4-14.6c0-0.2,0-0.3-0.1-0.5l-5-8.1
						c0,0,0,0-0.1-0.1l-1.8-12.3c0-0.2-0.2-0.5-0.4-0.6l-7.1-3.5c-0.1,0-0.1,0-0.2,0l-4.9-7.9c-0.2-0.3-0.5-0.4-0.8-0.3l-8,2.3
						c0,0-0.1,0-0.1,0c0,0,0,0-0.1,0l-7.6-3.2c-0.3-0.1-0.6-0.1-0.8,0.1l-8.5,7.5c0,0,0,0,0,0c0,0-0.1,0.1-0.1,0.1
						c0,0-0.1,0.1-0.1,0.1c0,0,0,0,0,0l-8.1,1.9c-0.2,0-0.3,0.2-0.5,0.3L139,34.3c-0.2,0-0.4,0.1-0.5,0.2L130,42
						c-0.1,0.1-0.2,0.2-0.2,0.3l-5.1,14.4c0,0.1,0,0.1,0,0.2l-7.1,11.4c-0.1,0.1-0.1,0.2-0.1,0.3l-1.9,14.7c0,0.1,0,0.1,0,0.2
						c0,0-0.1,0.1-0.1,0.1l-4.8,14.6c0,0.1,0,0.2,0,0.3l1.7,12.2c0,0.1,0,0.1,0,0.1l-1.9,14.5c0,0.2,0,0.3,0.1,0.4l4.6,8.8
						c0,0.1,0.1,0.1,0.2,0.2L117,147c0,0.2,0.2,0.5,0.4,0.6l6.9,3.4L113,194.2c-0.1,0.3,0,0.6,0.3,0.8s0.6,0.2,0.8,0.1l11.9-6.9
						l6.8,11.3c0.1,0.2,0.4,0.4,0.6,0.4c0,0,0.1,0,0.1,0c0.3,0,0.5-0.3,0.6-0.5l11-39.2l1.1,0.5c0.1,0,0.2,0.1,0.3,0.1
						c0.2,0,0.3-0.1,0.5-0.2l8.9-7.6c0,0,0.1-0.1,0.1-0.1l8.2-2.2c0.2,0,0.3-0.2,0.4-0.3l0.9-1.4l10.6,25.5c0.1,0.3,0.4,0.5,0.7,0.5
						c0,0,0,0,0,0c0.3,0,0.6-0.2,0.7-0.5l7.1-19.9l12.3-7.2c0.3-0.2,0.5-0.6,0.3-0.9L186,117.4c0-0.1-0.1-0.2-0.2-0.3l0.5-1.4
						c0-0.1,0-0.1,0-0.2l7.5-11.8c0.1-0.1,0.1-0.2,0.1-0.3l2-14.2c0-0.1,0-0.2,0-0.3l4.9-14.3C200.8,74.6,200.8,74.5,200.7,74.4z
						 M199,47.2l-1.3,14.2c-0.1,0-0.1,0-0.2,0.1l-7.7,4.4c-0.1-6.4-0.9-12.1-2.5-17l7.2-8.9L199,47.2z M180.1,129l-7.8,7.2l-2.9-9.3
						c3.8-4.7,7.2-10.2,10.1-16.3l5.2,5.1L180.1,129z M168.8,125.3l-11.5-36.2l21.1,20.5C175.6,115.4,172.3,120.7,168.8,125.3z
						 M139,155.4C139,155.4,138.9,155.4,139,155.4l-8.1,2.5l-4.7-7.3c0.1-0.1,0.2-0.2,0.3-0.3l5.8-12.3c1,0.8,2,1.6,3.1,2.2
						c2.1,1.2,4.3,1.9,6.7,2.2L139,155.4z M154.9,81.6L145.1,51c3-3.7,6.3-6.7,9.8-8.9V81.6z M154,83.8L135.7,66
						c2.4-5,5.2-9.6,8.3-13.6L154,83.8z M153.7,85.6l-24.4-1.5c1.4-5.8,3.3-11.4,5.7-16.7L153.7,85.6z M153.1,87l-26.2,15.1
						c0.1-5.5,0.8-11.1,2-16.6L153.1,87z M179.5,37.5c2.6,2.8,4.7,6.6,6.1,11.1l-26.7,32.7L179.5,37.5z M157.9,79.8l11-47.8
						c2.2,0.2,4.3,0.9,6.3,2c1.1,0.6,2.2,1.4,3.1,2.4L157.9,79.8z M156.4,79.8V35.1c3.8-2.1,7.5-3.2,10.9-3.2c0,0,0.1,0,0.1,0
						L156.4,79.8z M154.9,40.3c-3.6,2.2-7.1,5.2-10.3,9l-1-3.1c3.5-4.2,7.3-7.7,11.3-10.2V40.3z M143.4,50.7
						c-3.3,4.1-6.3,9-8.9,14.2l-1.7-1.6c2.8-5.8,6-11.1,9.6-15.7L143.4,50.7z M133.9,66.4c-2.6,5.5-4.7,11.5-6.1,17.7l-2.1-0.1
						c1.6-6.6,3.8-13.1,6.6-19.1L133.9,66.4z M127.5,85.5c-1.3,5.8-2,11.7-2,17.5l-2.4,1.4c0.1-6.3,0.9-12.7,2.3-19.1L127.5,85.5z
						 M152.5,89.1l-27.3,33.4c-1.4-4.8-2.1-10.3-2.1-16.4L152.5,89.1z M152.4,91.6l-20.6,43.8c-2.6-2.8-4.7-6.6-6.1-11.1L152.4,91.6
						z M136.1,138.9c-1.1-0.6-2.2-1.4-3.1-2.4l20.4-43.4l-11,47.8C140.1,140.7,138,140,136.1,138.9z M154.9,93v44.7
						c-3.8,2.1-7.5,3.2-11,3.2L154.9,93z M156.4,91.3l11.3,35.4c-3.5,4.2-7.3,7.7-11.3,10.2V91.3z M157.6,87.3l24.3,1.5
						c-0.7,2.8-1.5,5.6-2.4,8.3c-0.1,0.4,0.1,0.8,0.5,1c0.1,0,0.2,0,0.2,0c0.3,0,0.6-0.2,0.7-0.5c1-2.9,1.8-5.8,2.5-8.7l2.1,0.1
						c-1.6,6.6-3.8,13.1-6.6,19.1L157.6,87.3z M158.2,85.8l26.2-15.1c-0.1,5.4-0.8,11-2,16.6L158.2,85.8z M183.8,87.4
						c1.3-5.9,2-11.9,2-17.5l2.4-1.4c-0.1,6.3-0.9,12.7-2.3,19.1L183.8,87.4z M158.8,83.7l27.3-33.4c1.4,4.8,2.1,10.3,2.1,16.4
						L158.8,83.7z M193.8,38.5l-7.1,8.7c-1.6-4.6-3.8-8.3-6.6-11.1l5.8-12.3l6.2,3L193.8,38.5z M184.7,22.9l-5.6,12
						c-1-0.8-2-1.6-3.1-2.2c-2.1-1.2-4.3-1.9-6.7-2.2l3-12.9l7.7-2.2L184.7,22.9z M164.3,14.4l6.6,2.7l-3.1,13.3
						c-3.6-0.1-7.4,0.9-11.4,3V21.3L164.3,14.4z M147.4,24.1l7.4-1.8v12c-4.2,2.5-8.1,6-11.8,10.3l-3-9.3L147.4,24.1z M131.1,43
						l7.7-6.9l3.1,9.8c-3.8,4.7-7.2,10.2-10.1,16.3l-5.5-5.4c0,0-0.1,0-0.1-0.1L131.1,43z M118.9,69l6.7-10.8l5.6,5.4
						c-2.9,6.3-5.3,13.1-7,20.1l-7.1-0.4L118.9,69z M112.1,98.6l4.6-13.7l7.1,0.4c-1.5,6.6-2.3,13.4-2.3,20l-7.8,4.5L112.1,98.6z
						 M112,125.4l1.8-13.9l7.7-4.4c0.1,6.4,0.9,12.1,2.5,17l-7.7,9.5L112,125.4z M116.8,134.9c0.2,0,0.3-0.1,0.4-0.2l7.3-8.9
						c1.6,4.6,3.8,8.3,6.6,11.1l-6,12.8c0,0,0,0,0,0l-6.6-3.2L116.8,134.9z M133.3,197.2l-6.3-10.4c-0.2-0.3-0.7-0.5-1-0.3l-11,6.3
						l10.6-40.4l4.4,6.7c0.1,0.2,0.4,0.3,0.6,0.3c0.1,0,0.1,0,0.2,0l8.1-2.5c0.1,0.1,0.2,0.2,0.3,0.2l4.7,2.1L133.3,197.2z
						 M146.6,158.9l-6.2-2.8l3.1-13.6c0.2,0,0.3,0,0.5,0c3.5,0,7.1-1,10.9-3v12.3L146.6,158.9z M163.6,149.1l-7.3,2v-12.4
						c4.2-2.5,8.1-6,11.8-10.3l2.9,9.1c0,0,0,0,0,0L163.6,149.1z M195.7,146.2l-12,7c-0.2,0.1-0.3,0.2-0.3,0.4l-6.5,18.3l-10.2-24.5
						c0-0.1-0.1-0.1-0.1-0.1l5.7-9c0,0,0-0.1,0-0.1c0,0,0.1,0,0.1-0.1l8.8-8.1c0.1-0.1,0.2-0.2,0.2-0.3l3.6-10.5L195.7,146.2z
						 M192.4,103.1l-7.1,11.2l-5.2-5.1c2.9-6.3,5.3-13.1,7-20.1l7.2,0.4L192.4,103.1z M194.6,88l-7.1-0.4c1.5-6.6,2.3-13.4,2.3-20
						l8-4.6l1.5,11.4L194.6,88z"/>
					<linearGradient id="SVGID_6_" gradientUnits="userSpaceOnUse" x1="116.9297" y1="118.9151" x2="194.3182" y2="53.9784">
						<stop  offset="0" style="stop-color:#72F2E0"/>
						<stop  offset="1" style="stop-color:#E2F4A3"/>
					</linearGradient>
					<path class="st11" d="M189,67.2c0,28.6-15,60.4-33.4,71.1s-33.4-3.9-33.4-32.5s15-60.4,33.4-71.1S189,38.6,189,67.2z"/>
					<path class="st4" d="M144,142.7c-3.1,0-6.1-0.8-8.8-2.4c-8.9-5.1-14-17.8-14-34.7c0-28.9,15.2-61.2,33.9-71.9
						c7.6-4.4,14.8-4.8,20.9-1.3c8.9,5.1,14,17.8,14,34.7c0,28.9-15.2,61.2-33.9,71.9C151.9,141.5,147.8,142.7,144,142.7z
						 M167.3,32.2c-3.5,0-7.3,1.1-11.2,3.4c-18.1,10.5-32.9,42-32.9,70.2c0,15.9,4.8,28.2,13,32.9c5.5,3.2,12,2.7,18.9-1.3
						c18.1-10.5,32.9-42,32.9-70.2c0-15.9-4.8-28.2-13-32.9C172.7,32.9,170,32.2,167.3,32.2z"/>
					<path class="st4" d="M147.9,110c-0.1,0-0.3,0-0.4-0.1l-2.5-1.4c-0.3-0.1-0.4-0.4-0.4-0.7l1.4-13.7l-5.9-5.6
						c-0.2-0.1-0.2-0.4-0.2-0.6c0-0.2,0.1-0.4,0.3-0.6l8.4-6.7l3.8-14c0.1-0.2,0.2-0.4,0.4-0.5c0.2-0.1,0.5-0.1,0.7,0l2.5,1.4
						c0.4,0.2,0.5,0.7,0.3,1c-0.2,0.4-0.7,0.5-1,0.3l-1.6-0.9L150,81.2c0,0.2-0.1,0.3-0.3,0.4l-7.9,6.4l5.6,5.2
						c0.2,0.2,0.3,0.4,0.2,0.6l-1.4,13.6l2,1.2c0.4,0.2,0.5,0.7,0.3,1C148.5,109.8,148.2,110,147.9,110z"/>
					<path class="st4" d="M159.1,76.5c-0.3,0-0.6-0.2-0.7-0.5c-0.1-0.4,0.1-0.8,0.5-1l6.5-2.3c0.2-0.1,0.4-0.1,0.6,0.1l2.5,1.4
						c0.4,0.2,0.5,0.7,0.3,1c-0.2,0.4-0.7,0.5-1,0.3l-2.2-1.3l-6.1,2.2C159.3,76.5,159.2,76.5,159.1,76.5z"/>
					<g>
						<polygon class="st12" points="155.6,98.5 147.9,109.2 149.4,95.1 143.2,89.3 151.8,82.4 155.6,68.1 159.5,78 168.1,74.9 
							161.8,87.9 163.3,100.3 						"/>
						<path class="st4" d="M147.9,110c-0.1,0-0.2,0-0.3,0c-0.3-0.1-0.5-0.4-0.5-0.8l1.4-13.7l-5.9-5.6c-0.2-0.1-0.2-0.4-0.2-0.6
							c0-0.2,0.1-0.4,0.3-0.6l8.4-6.7l3.8-14c0.1-0.3,0.4-0.5,0.7-0.6c0.3,0,0.6,0.2,0.7,0.5l3.6,9.2l7.9-2.8c0.3-0.1,0.6,0,0.8,0.2
							c0.2,0.2,0.2,0.6,0.1,0.8l-6.1,12.8l1.4,12.2c0,0.2-0.1,0.5-0.2,0.6c-0.2,0.2-0.4,0.2-0.7,0.2l-7.2-1.7l-7.4,10.3
							C148.4,109.9,148.2,110,147.9,110z M144.3,89.3l5.6,5.2c0.2,0.2,0.3,0.4,0.2,0.6l-1.2,11.3l6-8.4c0.2-0.2,0.5-0.4,0.8-0.3
							l6.6,1.6L161.1,88c0-0.1,0-0.3,0.1-0.4l5.4-11.4l-6.9,2.4c-0.4,0.1-0.8-0.1-0.9-0.4l-3-7.7l-3.2,12.1c0,0.2-0.1,0.3-0.3,0.4
							L144.3,89.3z"/>
					</g>
				</g>
				<path class="st4" d="M117.1,193.2c-0.1,0-0.1,0-0.2,0c-0.4-0.1-0.6-0.5-0.5-0.9l5.1-16.6c0.1-0.4,0.5-0.6,0.9-0.5
					c0.4,0.1,0.6,0.5,0.5,0.9l-5.1,16.6C117.8,193,117.5,193.2,117.1,193.2z"/>
				<path class="st4" d="M120.7,191.1c-0.1,0-0.1,0-0.2,0c-0.4-0.1-0.6-0.5-0.5-0.9l2.9-9.4c0.1-0.4,0.5-0.6,0.9-0.5
					c0.4,0.1,0.6,0.5,0.5,0.9l-2.9,9.4C121.3,190.9,121,191.1,120.7,191.1z"/>
				<path class="st4" d="M124.5,188.9c-0.1,0-0.1,0-0.2,0c-0.4-0.1-0.6-0.5-0.5-0.9l3.2-10.4c0.1-0.4,0.5-0.6,0.9-0.5
					c0.4,0.1,0.6,0.5,0.5,0.9l-3.2,10.4C125.1,188.7,124.8,188.9,124.5,188.9z"/>
				<path class="st4" d="M193.3,149.2c-0.3,0-0.5-0.2-0.7-0.4l-5.1-10.7c-0.2-0.4,0-0.8,0.4-1c0.4-0.2,0.8,0,1,0.4l5.1,10.7
					c0.2,0.4,0,0.8-0.4,1C193.5,149.2,193.4,149.2,193.3,149.2z"/>
				<path class="st4" d="M189.8,151.2c-0.3,0-0.5-0.2-0.7-0.4l-2.9-6.1c-0.2-0.4,0-0.8,0.4-1c0.4-0.2,0.8,0,1,0.4l2.9,6.1
					c0.2,0.4,0,0.8-0.4,1C190,151.2,189.9,151.2,189.8,151.2z"/>
				<path class="st4" d="M185.9,153.4c-0.3,0-0.5-0.2-0.7-0.4l-3.2-6.7c-0.2-0.4,0-0.8,0.4-1c0.4-0.2,0.8,0,1,0.4l3.2,6.7
					c0.2,0.4,0,0.8-0.4,1C186.2,153.4,186.1,153.4,185.9,153.4z"/>
			</g>
			<path class="st4" d="M155.6,21.8c-0.1,0-0.2,0-0.3-0.1l-7.4-3.3c-0.4-0.2-0.5-0.6-0.4-1c0.2-0.4,0.6-0.5,1-0.4l7.4,3.3
				c0.4,0.2,0.5,0.6,0.4,1C156.2,21.6,155.9,21.8,155.6,21.8z"/>
			<path class="st4" d="M139.4,36.2c-0.1,0-0.2,0-0.3-0.1l-7.8-3.7c-0.4-0.2-0.5-0.6-0.4-1c0.2-0.4,0.6-0.5,1-0.4l7.8,3.7
				c0.4,0.2,0.5,0.6,0.4,1C139.9,36,139.7,36.2,139.4,36.2z"/>
			<path class="st4" d="M130.5,43.3c-0.1,0-0.2,0-0.3-0.1l-7.4-3.3c-0.4-0.2-0.5-0.6-0.4-1c0.2-0.4,0.6-0.5,1-0.4l7.4,3.3
				c0.4,0.2,0.5,0.6,0.4,1C131,43.2,130.8,43.3,130.5,43.3z"/>
			<path class="st4" d="M125.8,58.2c-0.1,0-0.2,0-0.3-0.1l-7.8-3.6c-0.4-0.2-0.5-0.6-0.4-1c0.2-0.4,0.6-0.5,1-0.4l7.8,3.6
				c0.4,0.2,0.5,0.6,0.4,1C126.3,58,126.1,58.2,125.8,58.2z"/>
			<path class="st4" d="M118.2,69.5c-0.1,0-0.2,0-0.3-0.1l-7.4-3.3c-0.4-0.2-0.5-0.6-0.4-1c0.2-0.4,0.6-0.5,1-0.4l7.4,3.3
				c0.4,0.2,0.5,0.6,0.4,1C118.8,69.4,118.5,69.5,118.2,69.5z"/>
			<path class="st4" d="M116.3,84.3c-0.1,0-0.2,0-0.3,0l-7.5-2.9c-0.4-0.1-0.6-0.6-0.4-1c0.1-0.4,0.6-0.6,1-0.4l7.5,2.9
				c0.4,0.1,0.6,0.6,0.4,1C116.9,84.1,116.6,84.3,116.3,84.3z"/>
			<path class="st4" d="M111.4,99.3c-0.1,0-0.2,0-0.3-0.1l-7.4-3.3c-0.4-0.2-0.5-0.6-0.4-1c0.2-0.4,0.6-0.5,1-0.4l7.4,3.3
				c0.4,0.2,0.5,0.6,0.4,1C111.9,99.1,111.6,99.3,111.4,99.3z"/>
			<path class="st4" d="M113.4,111.6c-0.1,0-0.2,0-0.3-0.1l-7.7-3.3c-0.4-0.2-0.6-0.6-0.4-1c0.2-0.4,0.6-0.6,1-0.4l7.7,3.3
				c0.4,0.2,0.6,0.6,0.4,1C114,111.4,113.7,111.6,113.4,111.6z"/>
			<path class="st4" d="M111.2,126.3c-0.1,0-0.2,0-0.3-0.1l-7.4-3.3c-0.4-0.2-0.5-0.6-0.4-1c0.2-0.4,0.6-0.5,1-0.4l7.4,3.3
				c0.4,0.2,0.5,0.6,0.4,1C111.8,126.1,111.5,126.3,111.2,126.3z"/>
			<path class="st4" d="M116.7,134.9c-0.1,0-0.2,0-0.3-0.1l-8.1-3.1c-0.4-0.1-0.6-0.6-0.4-1c0.1-0.4,0.6-0.6,1-0.4l8.1,3.1
				c0.4,0.1,0.6,0.6,0.4,1C117.2,134.7,117,134.9,116.7,134.9z"/>
		</g>
		<path class="st4" d="M154.6,71.2c-0.1,0-0.3,0-0.4-0.1l-2-1.2c-0.4-0.2-0.5-0.7-0.3-1c0.2-0.4,0.7-0.5,1-0.3l2,1.2
			c0.4,0.2,0.5,0.7,0.3,1C155.1,71.1,154.9,71.2,154.6,71.2z"/>
		<path class="st4" d="M153.8,74c-0.1,0-0.3,0-0.4-0.1l-2-1.2c-0.4-0.2-0.5-0.7-0.3-1c0.2-0.4,0.7-0.5,1-0.3l2,1.2
			c0.4,0.2,0.5,0.7,0.3,1C154.3,73.9,154.1,74,153.8,74z"/>
		<path class="st4" d="M153,76.8c-0.1,0-0.3,0-0.4-0.1l-2-1.2c-0.4-0.2-0.5-0.7-0.3-1c0.2-0.4,0.7-0.5,1-0.3l2,1.2
			c0.4,0.2,0.5,0.7,0.3,1C153.5,76.7,153.3,76.8,153,76.8z"/>
		<path class="st4" d="M152.2,79.6c-0.1,0-0.3,0-0.4-0.1l-2-1.2c-0.4-0.2-0.5-0.7-0.3-1c0.2-0.4,0.7-0.5,1-0.3l2,1.2
			c0.4,0.2,0.5,0.7,0.3,1C152.7,79.5,152.5,79.6,152.2,79.6z"/>
		<path class="st4" d="M151.6,82.5c-0.1,0-0.3,0-0.4-0.1l-2-1.2c-0.4-0.2-0.5-0.7-0.3-1c0.2-0.4,0.7-0.5,1-0.3l2,1.2
			c0.4,0.2,0.5,0.7,0.3,1C152.1,82.4,151.9,82.5,151.6,82.5z"/>
		<path class="st4" d="M163.6,76.9c-0.1,0-0.3,0-0.4-0.1l-2-1.2c-0.4-0.2-0.5-0.7-0.3-1c0.2-0.4,0.7-0.5,1-0.3l2,1.2
			c0.4,0.2,0.5,0.7,0.3,1C164.1,76.8,163.8,76.9,163.6,76.9z"/>
		<path class="st4" d="M149.6,84.6c-0.1,0-0.3,0-0.4-0.1l-2-1.2c-0.4-0.2-0.5-0.7-0.3-1c0.2-0.4,0.7-0.5,1-0.3l2,1.2
			c0.4,0.2,0.5,0.7,0.3,1C150.1,84.5,149.8,84.6,149.6,84.6z"/>
		<path class="st4" d="M147.3,86.6c-0.1,0-0.3,0-0.4-0.1l-2-1.2c-0.4-0.2-0.5-0.7-0.3-1c0.2-0.4,0.7-0.5,1-0.3l2,1.2
			c0.4,0.2,0.5,0.7,0.3,1C147.8,86.5,147.6,86.6,147.3,86.6z"/>
		<path class="st4" d="M144.9,88.4c-0.1,0-0.3,0-0.4-0.1l-2-1.2c-0.4-0.2-0.5-0.7-0.3-1c0.2-0.4,0.7-0.5,1-0.3l2,1.2
			c0.4,0.2,0.5,0.7,0.3,1C145.4,88.2,145.2,88.4,144.9,88.4z"/>
		<path class="st4" d="M148,106.7c-0.1,0-0.3,0-0.4-0.1l-2-1.2c-0.4-0.2-0.5-0.7-0.3-1c0.2-0.4,0.7-0.5,1-0.3l2,1.2
			c0.4,0.2,0.5,0.7,0.3,1C148.5,106.5,148.2,106.7,148,106.7z"/>
		<path class="st4" d="M148.2,103.8c-0.1,0-0.3,0-0.4-0.1l-2-1.2c-0.4-0.2-0.5-0.7-0.3-1c0.2-0.4,0.7-0.5,1-0.3l2,1.2
			c0.4,0.2,0.5,0.7,0.3,1C148.7,103.7,148.4,103.8,148.2,103.8z"/>
		<path class="st4" d="M148.5,101c-0.1,0-0.3,0-0.4-0.1l-2-1.2c-0.4-0.2-0.5-0.7-0.3-1c0.2-0.4,0.7-0.5,1-0.3l2,1.2
			c0.4,0.2,0.5,0.7,0.3,1C149,100.8,148.7,101,148.5,101z"/>
		<path class="st4" d="M148.7,98.1c-0.1,0-0.3,0-0.4-0.1l-2-1.2c-0.4-0.2-0.5-0.7-0.3-1s0.7-0.5,1-0.3l2,1.2c0.4,0.2,0.5,0.7,0.3,1
			C149.2,97.9,148.9,98.1,148.7,98.1z"/>
	</g>
	<ellipse class="st0" cx="224.6" cy="133.8" rx="4.5" ry="2.4"/>
	<path class="st3" d="M229.1,119.5c0,2.9-2,4.1-4.5,2.7c-2.5-1.4-4.5-4.9-4.5-7.8c0-2.9,2-4.1,4.5-2.7
		C227.1,113.1,229.1,116.6,229.1,119.5z"/>
</g>
</svg>
