<?xml version="1.0" encoding="UTF-8" standalone="no"?>
<svg width="59px" height="51px" viewBox="0 0 59 51" version="1.1" xmlns="http://www.w3.org/2000/svg" xmlns:xlink="http://www.w3.org/1999/xlink">
    <!-- Generator: Sketch 42 (36781) - http://www.bohemiancoding.com/sketch -->
    <title>icon-presencia</title>
    <desc>Created with Sketch.</desc>
    <defs>
        <polygon id="path-1" points="0.8953 50.72 58.1433 50.72 58.1433 0.7212 0.8953 0.7212"></polygon>
        <polygon id="path-3" points="0.8953 50.72 58.1433 50.72 58.1433 0.7212 0.8953 0.7212"></polygon>
        <polygon id="path-5" points="0.8953 50.72 58.1433 50.72 58.1433 0.7212 0.8953 0.7212"></polygon>
    </defs>
    <g id="Page-1" stroke="none" stroke-width="1" fill="none" fill-rule="evenodd">
        <g id="icon-presencia">
            <g id="Page-1">
                <g id="Artboard">
                    <g id="Page-1">
                        <g id="Rectangle-Clipped">
                            <mask id="mask-2" fill="white">
                                <use xlink:href="#path-1"></use>
                            </mask>
                            <g id="path-1"></g>
                            <rect id="Rectangle" fill="#FFFFFF" fill-rule="nonzero" mask="url(#mask-2)" x="3" y="11" width="54" height="39"></rect>
                        </g>
                        <g id="Path-2-Clipped">
                            <mask id="mask-4" fill="white">
                                <use xlink:href="#path-3"></use>
                            </mask>
                            <g id="path-1"></g>
                            <path d="M2.88327978,11.4490001 L56.5001764,11.713305 C56.5001764,11.713305 57.1226087,5.04923682 56.8113925,4.61521234 C56.5001764,4.18118787 53.9639174,1.55110636 53.1427797,1.55110636 C52.321642,1.55110636 24.0299589,1.62318951 24.0299589,1.62318951 L8.52025843,1.55110636 L4.94966343,2.27460761 L2.42065088,5.4329175 L2.23485713,11.25882 L2.88327978,11.4490001 Z" id="Path-2" fill="#FFFFFF" fill-rule="nonzero" mask="url(#mask-4)"></path>
                        </g>
                        <g id="Fill-1-Clipped">
                            <mask id="mask-6" fill="white">
                                <use xlink:href="#path-5"></use>
                            </mask>
                            <g id="path-1"></g>
                            <path d="M38.7173,29.0522 C40.0823,30.7782 40.9733,32.9222 41.2103,35.2432 L44.7733,35.2432 C44.5363,31.7922 43.1103,28.6962 40.9733,26.1962 L38.7173,29.0522 Z M42.4573,24.3512 C45.4263,27.5052 47.2083,31.7922 47.2083,36.4342 C47.2083,37.0882 46.6733,37.6252 46.0193,37.6252 L40.0823,37.6252 C39.4293,37.6252 38.8943,37.0882 38.8943,36.4342 C38.8943,34.4112 38.2423,32.5062 37.1733,30.9572 L31.5913,37.9232 C31.7103,38.1602 31.7703,38.4582 31.7703,38.7562 C31.7703,40.0652 30.7003,41.1352 29.3963,41.1352 C28.0893,41.1352 27.0193,40.0652 27.0193,38.7562 C27.0193,37.4462 28.0893,36.3742 29.3963,36.3742 C29.5143,36.3742 29.6333,36.4342 29.7523,36.4342 L35.5703,29.1712 C33.9073,27.8032 31.7703,26.9102 29.3963,26.9102 C24.1703,26.9102 19.8953,31.1972 19.8953,36.4342 C19.8953,37.0882 19.3613,37.6252 18.7073,37.6252 C18.0533,37.6252 17.5193,37.0882 17.5193,36.4342 C17.5193,29.8872 22.8633,24.5282 29.3963,24.5282 C32.3053,24.5282 34.9753,25.6002 37.0543,27.3262 L39.3103,24.5282 C36.6383,22.3252 33.1933,20.9582 29.4543,20.9582 C20.9633,20.9582 14.0163,27.9222 14.0163,36.4342 C14.0163,37.0882 13.4813,37.6252 12.8303,37.6252 C12.1773,37.6252 11.6423,37.0882 11.6423,36.4342 C11.6423,26.6122 19.6583,18.5762 29.4543,18.5762 C33.7283,18.5762 37.7083,20.1252 40.7943,22.6842 L42.7543,20.2442 C43.1713,19.7672 43.8823,19.6482 44.4173,20.0652 C44.8913,20.4812 45.0103,21.1952 44.5943,21.7302 L42.4573,24.3512 Z M3.2693,48.3382 L55.5193,48.3382 L55.5193,12.6242 L3.2693,12.6242 L3.2693,48.3382 Z M55.5203,6.6722 C55.5203,4.7072 53.9173,3.1002 51.9573,3.1002 L6.8323,3.1002 C4.8723,3.1002 3.2693,4.7072 3.2693,6.6722 L3.2693,10.2432 L55.5203,10.2432 L55.5203,6.6722 Z M58.1433,49.5292 C58.1433,50.1832 57.6113,50.7202 56.9573,50.7202 L2.0833,50.7202 C1.4303,50.7202 0.8953,50.1832 0.8953,49.5292 L0.8953,6.6722 C0.8953,3.3982 3.5673,0.7212 6.8323,0.7212 L51.9573,0.7212 C55.2223,0.7212 57.8943,3.3982 57.8943,6.6722 L57.8943,48.8342 C58.0393,49.0332 58.1433,49.2652 58.1433,49.5292 L58.1433,49.5292 Z M19.3943,7.7042 C18.5673,7.7042 17.8943,7.0382 17.8943,6.2172 C17.8943,5.3992 18.5673,4.7342 19.3943,4.7342 C20.2223,4.7342 20.8953,5.3992 20.8953,6.2172 C20.8953,7.0382 20.2223,7.7042 19.3943,7.7042 L19.3943,7.7042 Z M13.3943,7.7042 C12.5663,7.7042 11.8963,7.0382 11.8963,6.2172 C11.8963,5.3992 12.5663,4.7342 13.3943,4.7342 C14.2223,4.7342 14.8953,5.3992 14.8953,6.2172 C14.8953,7.0382 14.2223,7.7042 13.3943,7.7042 L13.3943,7.7042 Z M7.3943,7.7042 C6.5663,7.7042 5.8963,7.0382 5.8963,6.2172 C5.8963,5.3992 6.5663,4.7342 7.3943,4.7342 C8.2243,4.7342 8.8943,5.3992 8.8943,6.2172 C8.8943,7.0382 8.2243,7.7042 7.3943,7.7042 L7.3943,7.7042 Z" id="Fill-1" fill="#E4744E" fill-rule="nonzero" mask="url(#mask-6)"></path>
                        </g>
                    </g>
                </g>
            </g>
        </g>
    </g>
</svg>