<?xml version="1.0" encoding="UTF-8" standalone="no"?>
<svg width="63px" height="63px" viewBox="0 0 63 63" version="1.1" xmlns="http://www.w3.org/2000/svg" xmlns:xlink="http://www.w3.org/1999/xlink">
    <!-- Generator: Sketch 42 (36781) - http://www.bohemiancoding.com/sketch -->
    <title>icon-marketing</title>
    <desc>Created with Sketch.</desc>
    <defs></defs>
    <g id="Page-1" stroke="none" stroke-width="1" fill="none" fill-rule="evenodd">
        <g id="icon-marketing" fill-rule="nonzero">
            <g id="Page-1">
                <g id="Artboard-2">
                    <g id="Group">
                        <path d="M27.4105134,26.6964714 L32.8692903,15.9396244 L41.5039926,8.1901212 L54.5375661,2.28597394 C54.5375661,2.28597394 61.218997,1.84322852 61.218997,2.06460123 C61.218997,2.28597394 60.5190043,10.0882682 60.5190043,10.0882682 L54.9108956,23.0223844 L45.9466133,32.5037864 L39.3593898,35.0325102 L34.9132691,35.0325102 L27.4105134,26.6964714 Z" id="Path-2" fill="#FFFFFF"></path>
                        <path d="M17.2229725,42.0565 L10.7440951,48.4855399 C10.5229411,48.703579 10.2311839,48.8146751 9.94254165,48.8146751 C9.65078451,48.8146751 9.36214222,48.703579 9.13787338,48.4855399 C8.69556541,48.0453084 8.69556541,47.3340855 9.13787338,46.8938541 L15.6167508,40.4658525 C16.0621736,40.0256211 16.7785879,40.0256211 17.2229725,40.4658525 C17.6652805,40.9050456 17.6652805,41.6162686 17.2229725,42.0565 L17.2229725,42.0565 Z M23.565835,41.3473536 L14.990667,49.8467271 C14.7705513,50.0678811 14.4808707,50.1769006 14.1891135,50.1769006 C13.8983947,50.1769006 13.6087141,50.0678811 13.3875601,49.8467271 C12.9431756,49.4096105 12.9431756,48.696311 13.3875601,48.2560796 L21.9627281,39.7567062 C22.4050361,39.317513 23.1214504,39.317513 23.565835,39.7567062 C24.008143,40.1969376 24.008143,40.9081605 23.565835,41.3473536 L23.565835,41.3473536 Z M25.3506411,45.1474644 L21.899393,48.570679 C21.678239,48.7887181 21.3895967,48.8998142 21.0978395,48.8998142 C20.8091972,48.8998142 20.5174401,48.7887181 20.2962861,48.570679 C19.8519016,48.1304475 19.8519016,47.4192246 20.2962861,46.9800315 L23.7444194,43.5568169 C24.1867274,43.1165855 24.9052183,43.1165855 25.3506411,43.5568169 C25.7929491,43.9960101 25.7929491,44.7082713 25.3506411,45.1474644 L25.3506411,45.1474644 Z M30.3634648,45.7257873 L22.2212603,53.8274989 C22.0001063,54.0486529 21.7083491,54.1566341 21.4176303,54.1566341 C21.1279497,54.1566341 20.8361926,54.0486529 20.6160769,53.8274989 C20.1737689,53.3903823 20.1737689,52.6770828 20.6160769,52.2368514 L28.7582814,44.1351398 C29.202666,43.6949084 29.9190803,43.6949084 30.3634648,44.1351398 C30.8057728,44.5743329 30.8057728,45.2855559 30.3634648,45.7257873 L30.3634648,45.7257873 Z M12.7895099,62.6061701 C12.2267612,62.6061701 11.768879,62.1514027 11.768879,61.5907307 C11.768879,61.0331734 12.2267612,60.5784061 12.7895099,60.5784061 C13.3553734,60.5784061 13.8122173,61.0331734 13.8122173,61.5907307 C13.8122173,62.1514027 13.3553734,62.6061701 12.7895099,62.6061701 L12.7895099,62.6061701 Z M18.6931793,51.173651 C18.1273158,51.173651 17.6725484,50.7219985 17.6725484,50.1613264 C17.6725484,49.6037692 18.1273158,49.1510784 18.6931793,49.1510784 C19.2559279,49.1510784 19.7127718,49.6037692 19.7127718,50.1613264 C19.7127718,50.7219985 19.2559279,51.173651 18.6931793,51.173651 L18.6931793,51.173651 Z M12.0855549,57.728323 C11.5228063,57.728323 11.0659624,57.2735556 11.0659624,56.7149601 C11.0659624,56.1553263 11.5228063,55.7026355 12.0855549,55.7026355 C12.6493419,55.7026355 13.1061858,56.1553263 13.1061858,56.7149601 C13.1061858,57.2735556 12.6493419,57.728323 12.0855549,57.728323 L12.0855549,57.728323 Z M8.23872149,56.3858248 C7.84105962,56.7803718 7.19524844,56.7803718 6.79551002,56.3858248 C6.39680987,55.9892012 6.39680987,55.350658 6.79343345,54.9540344 C7.19317188,54.5594874 7.83898306,54.5594874 8.23872149,54.9540344 C8.63845992,55.3485815 8.63845992,55.9912778 8.23872149,56.3858248 L8.23872149,56.3858248 Z M11.7823767,52.452814 C11.2185898,52.452814 10.7617459,51.9980466 10.7617459,51.4404894 C10.7617459,50.8798173 11.2185898,50.4281648 11.7823767,50.4281648 C12.3472019,50.4281648 12.8019693,50.8798173 12.8019693,51.4404894 C12.8019693,51.9980466 12.3472019,52.452814 11.7823767,52.452814 L11.7823767,52.452814 Z M7.53476654,51.0885119 C6.97201789,51.0885119 6.51413569,50.6358211 6.51413569,50.0782639 C6.51413569,49.5175918 6.97201789,49.0659393 7.53476654,49.0659393 C8.09751519,49.0659393 8.55539739,49.5175918 8.55539739,50.0782639 C8.55539739,50.6358211 8.09751519,51.0885119 7.53476654,51.0885119 L7.53476654,51.0885119 Z M19.7335375,56.1345607 C19.333799,56.5322225 18.6879879,56.5322225 18.2882494,56.1376755 C17.8916258,55.7431285 17.8916258,55.0993939 18.2882494,54.7048469 C18.6879879,54.3102998 19.333799,54.3082233 19.7335375,54.7048469 C20.1332759,55.0993939 20.1332759,55.7431285 19.7335375,56.1345607 L19.7335375,56.1345607 Z M1.78683941,56.7907547 C1.22409076,56.7907547 0.767246843,56.3380639 0.767246843,55.7784301 C0.767246843,55.2198345 1.22409076,54.768182 1.78683941,54.768182 C2.35062634,54.768182 2.80747026,55.2198345 2.80747026,55.7784301 C2.80747026,56.3380639 2.35062634,56.7907547 1.78683941,56.7907547 L1.78683941,56.7907547 Z M31.5782544,20.3408396 C30.2855937,22.3384934 29.4144754,24.4950044 28.9846268,26.7594966 C29.3885184,27.3720828 29.8235584,27.9659799 30.2814406,28.5411879 C33.8115982,24.1627543 37.9211169,20.6678983 38.1921084,20.4363615 C38.5139757,20.1643317 38.9459008,20.0646567 39.3560221,20.1643317 C39.5242237,20.2048247 41.0193493,20.5889889 42.0929325,21.6272705 C43.112525,22.6125998 43.5807901,24.1025339 43.6306276,24.268659 C43.7562597,24.6808568 43.6659292,25.1252414 43.3949376,25.4574915 C43.1706688,25.7336744 39.7505691,29.8826478 35.4198964,33.4896382 C36.0137935,33.9267548 36.6191117,34.3482971 37.2472721,34.7334996 C39.5221471,34.2506986 41.6776198,33.3307811 43.6607377,32.0038572 C58.1208861,22.3083833 59.923343,7.95102483 60.1164634,3.31925046 C55.4452343,3.62865839 40.9965071,5.77997793 31.5782544,20.3408396 L31.5782544,20.3408396 Z M52.6782137,27.8528072 C52.5847684,28.2847324 50.3005488,38.5813713 40.3185092,47.0900893 C39.8512824,47.4877512 39.1701697,47.5095551 38.6769859,47.1451183 C38.6271484,47.110855 38.5845788,47.0724386 38.5420093,47.0329839 C38.1526537,46.6581642 38.0311747,46.0746499 38.2554436,45.5721216 C39.3529072,43.1165855 40.8262289,38.9447699 41.0016985,36.3168791 C39.7879472,36.7892972 38.5368179,37.1506193 37.2524635,37.389424 C36.940979,37.444453 36.6159969,37.389424 36.3429288,37.2284904 C35.2766135,36.6055214 34.2611741,35.9098727 33.2862276,35.1550419 C31.2833824,36.6127894 29.1777472,37.8296554 27.1593277,38.4297822 C26.7024838,38.5657971 26.2051469,38.4453564 25.862514,38.1131063 C25.5188427,37.7818945 25.3849044,37.2939021 25.5084599,36.8391348 C26.0639406,34.8259067 27.2371988,32.7130035 28.6554916,30.694584 C27.8684741,29.7497478 27.1416769,28.755074 26.4885978,27.7167923 C26.3203962,27.4478774 26.2549844,27.1312015 26.3027454,26.819717 C26.5083251,25.55509 26.8384987,24.3184965 27.2776918,23.1172047 C24.623844,23.3736602 20.4873299,24.9269296 18.0494447,26.0680011 C17.5500312,26.3047293 16.9592489,26.1988246 16.568855,25.8240049 C16.5262855,25.7835119 16.4868308,25.7388658 16.4515292,25.6931814 C16.0694416,25.2134953 16.0767095,24.5396505 16.4660652,24.0672324 C24.8003518,13.9678669 35.1364455,11.4417277 35.5714855,11.3410144 C46.6468357,1.04749024 59.7198398,0.665402601 61.4433873,0.663326037 C62.1598016,0.660211193 62.7453925,1.22815125 62.7630433,1.93418276 C62.8035362,3.6390412 62.7526604,16.556303 52.7000177,27.649304 C52.6958645,27.7167923 52.6927497,27.7822041 52.6782137,27.8528072 Z M48.9912757,11.5621684 C48.16688,12.4021382 48.1845308,13.7539809 49.0359218,14.5752617 C49.8862744,15.3944659 51.2505765,15.3799299 52.0770487,14.5399601 C52.9014443,13.7010285 52.8837935,12.3491858 52.0344791,11.5268668 C51.1851648,10.7076626 49.8177478,10.7232368 48.9912757,11.5621684 Z M53.9615298,16.3600678 C52.1248096,18.2248216 49.091989,18.2601232 47.2023164,16.4348241 C45.3116055,14.6136781 45.2721508,11.6099293 47.1088711,9.74309893 C48.9455913,7.87523027 51.9763354,7.84304354 53.8670462,9.66730438 C55.7567188,11.4894886 55.7992883,14.4921991 53.9615298,16.3600678 L53.9615298,16.3600678 Z" id="Page-1" fill="#E4744E"></path>
                    </g>
                </g>
            </g>
        </g>
    </g>
</svg>