<?xml version="1.0" encoding="UTF-8"?>
<svg width="150px" height="32px" viewBox="0 0 150 32" version="1.1" xmlns="http://www.w3.org/2000/svg" xmlns:xlink="http://www.w3.org/1999/xlink">
    <!-- Generator: Sketch 43.1 (39012) - http://www.bohemiancoding.com/sketch -->
    <title>logo</title>
    <desc>Created with Sketch.</desc>
    <defs></defs>
    <g id="Page-1" stroke="none" stroke-width="1" fill="none" fill-rule="evenodd">
        <g id="logo" fill-rule="nonzero" fill="#B3DC20">
            <path d="M12.1857411,0.337711069 C13.8742965,0.337711069 15.5909944,0.478424015 17.2795498,0.759849906 C18.968105,1.0412758 20.5159475,1.66041276 21.8667918,2.5891182 C23.2457786,3.51782364 24.3433396,4.84052533 25.2157598,6.58536585 C26.0881801,8.33020638 26.5103189,10.6097561 26.5103189,13.4803002 L26.5103189,30.7598499 C25.4971858,30.9568481 24.5966229,31.0694184 23.7804878,31.1257035 C22.9643527,31.1819887 22.260788,31.2101313 21.641651,31.2101313 C20.9943715,31.2101313 20.2626641,31.1819887 19.4465291,31.1257035 C18.630394,31.0694184 17.7298311,30.9287055 16.7166979,30.7598499 L16.7166979,14.521576 C16.7166979,12.467167 16.3227017,11.0037524 15.5628518,10.1313321 C14.8030018,9.25891184 13.6210131,8.80863041 12.0450281,8.80863041 C11.6228893,8.80863041 11.1726079,8.836773 10.6941838,8.92120078 C10.2157598,9.00562849 9.90619135,9.09005627 9.79362097,9.14634146 L9.79362097,30.7879925 C8.78048781,30.9849906 7.87992495,31.0975609 7.06378986,31.1538461 C6.24765478,31.2101313 5.54409006,31.2382739 4.9249531,31.2382739 C4.27767354,31.2382739 3.54596623,31.2101313 2.72983114,31.1538461 C1.91369606,31.0975609 1.01313321,30.9568481 1.15223146e-14,30.7879925 L1.15223146e-14,2.36397748 C1.35084428,1.91369606 2.98311444,1.43527205 4.9249531,1.01313321 C6.86679174,0.562851782 9.28705443,0.337711069 12.1857411,0.337711069 Z" id="Shape"></path>
            <path d="M41.0881801,18.968105 C41.5103189,20.5440901 42.2420263,21.6697936 43.3114446,22.3170731 C44.380863,22.9643527 45.7598499,23.3020638 47.5046904,23.3020638 C48.630394,23.3020638 49.8686679,23.1613508 51.2757974,22.9080675 C52.6547843,22.6266417 54.0337711,22.2326454 55.3846154,21.6979362 C55.9193246,22.7110694 56.3977486,23.8930582 56.7917449,25.272045 C57.1857411,26.6510319 57.4108818,28.1144466 57.467167,29.6060038 C54.0337711,30.8724203 50.5159475,31.5196998 46.9418386,31.5196998 C44.1557223,31.5196998 41.7917449,31.1257035 39.793621,30.3658536 C37.7954972,29.6060038 36.1913696,28.5365854 34.9249531,27.1575985 C33.6585366,25.7786116 32.7579737,24.1463415 32.1388368,22.260788 C31.5478424,20.3752345 31.2382739,18.3208255 31.2382739,16.0694184 C31.2382739,13.8742965 31.5478424,11.8198875 32.1669794,9.87804876 C32.7861163,7.93621014 33.7148218,6.27579737 34.9530957,4.84052533 C36.1913696,3.40525328 37.739212,2.27954972 39.5684803,1.46341464 C41.4258912,0.64727955 43.5647279,0.225140713 46.0412758,0.225140713 C48.0956848,0.225140713 49.8968105,0.562851782 51.5009381,1.26641651 C53.1050657,1.96998124 54.4559099,2.92682927 55.5816135,4.1369606 C56.7073171,5.34709194 57.5515948,6.81050657 58.1425891,8.52720454 C58.7335835,10.2439024 59.0431519,12.1013133 59.0431519,14.0994371 C59.0431519,15.140713 58.9868668,16.0694184 58.9024391,16.913696 C58.8180113,17.7298311 58.7054409,18.4333959 58.6491557,18.968105 L41.0881801,18.968105 Z M45.7317073,7.57035647 C44.4934334,7.57035647 43.424015,7.96435272 42.5515948,8.72420262 C41.6510319,9.48405251 41.1444653,10.6941838 41.0037524,12.2983114 L50.2626641,12.2983114 C50.1782364,10.9474672 49.7842402,9.82176357 49.0243902,8.92120078 C48.2363977,8.0206379 47.1388368,7.57035647 45.7317073,7.57035647 Z" id="Shape"></path>
            <path d="M106.969982,22.6829269 L117.889306,22.6829269 C118.086304,23.4427768 118.198875,24.1744841 118.255159,24.8217636 C118.311444,25.4690432 118.339588,26.1163227 118.339588,26.7354597 C118.339588,27.3545966 118.311444,28.0018762 118.255159,28.6772983 C118.198875,29.3527205 118.058162,30.0844278 117.889306,30.8442777 L99.0619135,30.8442777 C98.0206378,30.8442777 97.2045024,30 97.2045024,28.9868668 L97.2607881,0.95684803 C98.1050659,0.759849906 98.949343,0.61913696 99.7654784,0.562851782 C100.581614,0.478424015 101.397748,0.450281426 102.157598,0.450281426 C102.889306,0.450281426 103.677298,0.478424015 104.521576,0.562851782 C105.365854,0.64727955 106.210131,0.787992495 106.998124,0.95684803 L106.969982,22.6829269 Z" id="Shape"></path>
            <path d="M91.2664168,9.00562849 C89.7185741,5.88180113 86.9606003,5.99437148 85.2439022,6.52908067 C83.0487803,7.20450281 81.6416514,9.23076924 82.1482176,11.9324578 C82.3733586,13.0581614 82.6266414,14.6341464 82.6266414,16.0412758 C82.6266414,18.4615385 82.2045024,20.3470919 81.3883678,21.641651 C80.5722327,22.9643527 79.3058162,23.6116322 77.5891182,23.6116322 C75.9005629,23.6116322 74.6341464,22.9643527 73.8180113,21.641651 C73.0018762,20.3189493 72.6078799,18.4615385 72.6078799,16.0412758 C72.6078799,13.5647279 73.0018762,11.8761726 73.8180113,10.5816135 C74.5497186,9.39962473 75.619137,8.66791743 77.0825516,8.55534705 L77.0825516,8.55534705 C79.9530957,8.33020638 81.0225141,6.36022514 81.0225141,3.96810507 C81.0225141,2.44840525 79.7842402,0.281425891 77.054409,0.225140713 C74.6341464,0.140712945 73.0300188,0.64727955 71.1726079,1.40712945 C69.315197,2.16697936 67.7673546,3.23639775 66.5290806,4.61538461 C65.2626641,5.99437148 64.3339588,7.68292683 63.6866792,9.62476549 C63.0393996,11.5666041 62.7298311,13.7335835 62.7298311,16.0694184 C62.7298311,18.3771107 63.0393996,20.4878049 63.6866792,22.4015009 C64.3339588,24.315197 65.2626641,25.9474672 66.5290806,27.326454 C67.7954972,28.7054409 69.3433396,29.7467167 71.1726079,30.478424 C73.0300188,31.2101313 75.1688556,31.575985 77.5891182,31.575985 C80.0656661,31.575985 82.2045024,31.2101313 84.0619135,30.478424 C85.9193246,29.7467167 87.4671673,28.7054409 88.7054408,27.326454 C89.9437151,25.9474672 90.9005627,24.315197 91.5478427,22.4015009 C92.1951219,20.4878049 92.5046903,18.3771107 92.5046903,16.0694184 C92.5046903,13.6772983 92.0262665,10.5534709 91.2664168,9.00562849 Z" id="Shape"></path>
            <path d="M148.621014,9.00562849 C147.073171,5.88180113 144.315197,5.99437148 142.598499,6.52908067 C140.403377,7.20450281 138.996247,9.23076924 139.502814,11.9324578 C139.727955,13.0581614 139.981238,14.6341464 139.981238,16.0412758 C139.981238,18.4615385 139.559099,20.3470919 138.742965,21.641651 C137.926829,22.9643527 136.660412,23.6116322 134.943715,23.6116322 C133.255159,23.6116322 131.988743,22.9643527 131.172608,21.641651 C130.356473,20.3189493 129.962476,18.4615385 129.962476,16.0412758 C129.962476,13.5647279 130.356473,11.8761726 131.172608,10.5816135 C131.904315,9.39962473 132.973734,8.66791743 134.437148,8.55534705 L134.437148,8.55534705 C137.307692,8.33020638 138.377111,6.36022514 138.377111,3.96810507 C138.377111,2.44840525 137.138837,0.281425891 134.409006,0.225140713 C131.988743,0.140712945 130.384615,0.64727955 128.527205,1.40712945 C126.669794,2.16697936 125.121951,3.23639775 123.883678,4.61538461 C122.617261,5.99437148 121.688556,7.68292683 121.041276,9.62476549 C120.393996,11.5666041 120.084428,13.7335835 120.084428,16.0694184 C120.084428,18.3771107 120.393996,20.4878049 121.041276,22.4015009 C121.688556,24.315197 122.617261,25.9474672 123.883678,27.326454 C125.150094,28.7054409 126.697936,29.7467167 128.527205,30.478424 C130.384615,31.2101313 132.523452,31.575985 134.943715,31.575985 C137.420263,31.575985 139.559099,31.2101313 141.41651,30.478424 C143.273921,29.7467167 144.821763,28.7054409 146.060038,27.326454 C147.298311,25.9474672 148.255159,24.315197 148.902439,22.4015009 C149.549719,20.4878049 149.859287,18.3771107 149.859287,16.0694184 C149.887429,13.6772983 149.409006,10.5534709 148.621014,9.00562849 Z" id="Shape"></path>
        </g>
    </g>
</svg>