<?xml version="1.0" encoding="UTF-8" standalone="no"?>
<svg width="249px" height="44px" viewBox="0 0 249 44" version="1.1" xmlns="http://www.w3.org/2000/svg" xmlns:xlink="http://www.w3.org/1999/xlink">
    <!-- Generator: Sketch 42 (36781) - http://www.bohemiancoding.com/sketch -->
    <title>logo</title>
    <desc>Created with Sketch.</desc>
    <defs></defs>
    <g id="Page-1" stroke="none" stroke-width="1" fill="none" fill-rule="evenodd">
        <g id="logo" fill-rule="nonzero">
            <g id="Page-1">
                <g id="Imported-Layers">
                    <path d="M37.6445509,28.9845522 C37.6445509,20.7958931 43.7284841,14.1864203 52.2680736,14.1864203 C60.7503159,14.1864203 66.4242598,20.5040218 66.4242598,29.6872688 L66.4242598,31.4419203 L45.4240767,31.4419203 C45.9513281,34.8930203 48.7587705,37.7595218 53.5553887,37.7595218 C55.9536978,37.7595218 59.2293326,36.7649339 61.0421872,35.0102824 L64.3768811,39.9241626 C61.5694386,42.4970809 57.1237508,43.843455 52.736266,43.843455 C44.1376175,43.843455 37.6445509,38.052249 37.6445509,28.9845522 L37.6445509,28.9845522 Z M52.2680736,20.2703535 C47.6477765,20.2703535 45.6586008,23.4869294 45.3667295,26.2952278 L59.2883916,26.2952278 C59.0538674,23.6033355 57.1819538,20.2703535 52.2680736,20.2703535 L52.2680736,20.2703535 Z" id="Fill-1" fill="#B3DC1F"></path>
                    <path d="M67.0670615,28.9845522 C67.0670615,20.9722141 72.6828023,14.1864203 81.9833114,14.1864203 C91.3428795,14.1864203 96.9577644,20.9722141 96.9577644,28.9845522 C96.9577644,36.9994581 91.3428795,43.843455 81.9833114,43.843455 C72.6828023,43.843455 67.0670615,36.9994581 67.0670615,28.9845522 L67.0670615,28.9845522 Z M89.2364417,28.9845522 C89.2364417,24.5979234 86.6626675,20.7958931 81.9833114,20.7958931 C77.3621584,20.7958931 74.7883841,24.5979234 74.7883841,28.9845522 C74.7883841,33.431096 77.3621584,37.2331263 81.9833114,37.2331263 C86.6626675,37.2331263 89.2364417,33.431096 89.2364417,28.9845522 L89.2364417,28.9845522 Z" id="Fill-2" fill="#B3DC1F"></path>
                    <polygon id="Fill-3" fill="#B3DC1F" points="99.5905976 4.12499159 107.019193 4.12499159 107.019193 43.1407385 99.5905976 43.1407385"></polygon>
                    <path d="M109.650314,28.9845522 C109.650314,20.9722141 115.266055,14.1864203 124.566564,14.1864203 C133.926132,14.1864203 139.541017,20.9722141 139.541017,28.9845522 C139.541017,36.9994581 133.926132,43.843455 124.566564,43.843455 C115.266055,43.843455 109.650314,36.9994581 109.650314,28.9845522 L109.650314,28.9845522 Z M131.819695,28.9845522 C131.819695,24.5979234 129.24592,20.7958931 124.566564,20.7958931 C119.945411,20.7958931 117.371637,24.5979234 117.371637,28.9845522 C117.371637,33.431096 119.945411,37.2331263 124.566564,37.2331263 C129.24592,37.2331263 131.819695,33.431096 131.819695,28.9845522 L131.819695,28.9845522 Z" id="Fill-4" fill="#B3DC1F"></path>
                    <path d="M141.996674,40.5087612 C141.996674,38.7541096 143.458598,37.2913294 145.214105,37.2913294 C146.968757,37.2913294 148.431537,38.7541096 148.431537,40.5087612 C148.431537,42.2634127 146.968757,43.7261929 145.214105,43.7261929 C143.458598,43.7261929 141.996674,42.2634127 141.996674,40.5087612" id="Fill-5" fill="#4C4C4C"></path>
                    <path d="M151.414445,28.9845522 C151.414445,20.6204279 157.088389,14.1864203 165.511572,14.1864203 C170.659121,14.1864203 173.701087,16.2920021 175.864872,19.1003005 L172.941023,21.7314219 C171.068254,19.1585036 168.670801,18.1048568 165.746096,18.1048568 C159.779425,18.1048568 155.976539,22.7260098 155.976539,28.9845522 C155.976539,35.2439506 159.779425,39.9241626 165.746096,39.9241626 C168.670801,39.9241626 171.068254,38.7541096 172.941023,36.2385385 L175.864872,38.9304307 C173.701087,41.7370172 170.659121,43.843455 165.511572,43.843455 C157.088389,43.843455 151.414445,37.3503884 151.414445,28.9845522" id="Fill-6" fill="#4C4C4C"></path>
                    <path d="M177.502262,28.9845522 C177.502262,20.7958931 182.883478,14.1864203 191.482127,14.1864203 C200.080775,14.1864203 205.462848,20.7958931 205.462848,28.9845522 C205.462848,37.1749232 200.080775,43.843455 191.482127,43.843455 C182.883478,43.843455 177.502262,37.1749232 177.502262,28.9845522 L177.502262,28.9845522 Z M200.840839,28.9845522 C200.840839,23.2524052 197.507001,18.1048568 191.482127,18.1048568 C185.457252,18.1048568 182.122559,23.2524052 182.122559,28.9845522 C182.122559,34.7757582 185.457252,39.9241626 191.482127,39.9241626 C197.507001,39.9241626 200.840839,34.7757582 200.840839,28.9845522 L200.840839,28.9845522 Z" id="Fill-7" fill="#4C4C4C"></path>
                    <path d="M243.775878,43.1407385 L243.775878,23.9542658 C243.775878,20.3867597 242.254039,18.1048568 238.570127,18.1048568 C235.645422,18.1048568 232.544396,20.1530915 231.082472,22.4332825 L231.082472,43.1407385 L226.694987,43.1407385 L226.694987,23.9542658 C226.694987,20.3867597 225.233063,18.1048568 221.489236,18.1048568 C218.622734,18.1048568 215.580768,20.2112945 214.06064,22.4914856 L214.06064,43.1407385 L209.673156,43.1407385 L209.673156,14.8882809 L214.06064,14.8882809 L214.06064,18.9830385 C215.28804,17.1693279 219.031868,14.1864203 223.243887,14.1864203 C227.51411,14.1864203 229.970622,16.5256704 230.789745,19.4512308 C232.368931,16.8766007 236.170962,14.1864203 240.265719,14.1864203 C245.413268,14.1864203 248.163363,17.0520658 248.163363,22.7260098 L248.163363,43.1407385 L243.775878,43.1407385" id="Fill-8" fill="#4C4C4C"></path>
                    <path d="M33.5369544,15.6902851 C33.4864547,15.3093973 33.0738976,11.8677125 30.9041212,8.39692615 C27.8193582,3.45993586 22.8755205,0.741509871 16.8925867,0.741509871 C10.9105089,0.741509871 5.94184926,3.45993586 2.85623033,8.39692615 C0.687309847,11.8677125 0.135236558,15.3093973 0.0838809028,15.6902851 L0,16.0181053 L0,42.9404514 L10.271131,42.9404514 L10.271131,16.7944316 C10.271131,16.7944316 10.4251979,10.5983719 17.1382379,10.5983719 C24.027599,10.5983719 23.9659722,16.7944316 23.9659722,16.7944316 L23.9659722,42.9404514 L33.3811756,42.9404514 L33.3811756,16.0181053 L33.5369544,15.6902851" id="Fill-9" fill="#B3DC1F"></path>
                    <path d="M82.5122746,24.4113312 C82.5122746,26.7865302 84.4372558,28.7106554 86.8133107,28.7106554 C89.1867979,28.7106554 91.112635,26.7865302 91.112635,24.4113312 C91.112635,22.0361321 89.1867979,20.111151 86.8133107,20.111151 C84.4372558,20.111151 82.5122746,22.0361321 82.5122746,24.4113312" id="Fill-10" fill="#B3DC1F"></path>
                    <path d="M124.555437,24.4113312 C124.555437,26.7865302 126.480418,28.7106554 128.855618,28.7106554 C131.229105,28.7106554 133.154942,26.7865302 133.154942,24.4113312 C133.154942,22.0361321 131.229105,20.111151 128.855618,20.111151 C126.480418,20.111151 124.555437,22.0361321 124.555437,24.4113312" id="Fill-11" fill="#B3DC1F"></path>
                </g>
            </g>
        </g>
    </g>
</svg>