<?xml version="1.0" encoding="UTF-8"?>
<svg width="185px" height="39px" viewBox="0 0 185 39" version="1.1" xmlns="http://www.w3.org/2000/svg" xmlns:xlink="http://www.w3.org/1999/xlink">
    <!-- Generator: Sketch 43.1 (39012) - http://www.bohemiancoding.com/sketch -->
    <title>Artboard</title>
    <desc>Created with Sketch.</desc>
    <defs></defs>
    <g id="Page-1" stroke="none" stroke-width="1" fill="none" fill-rule="evenodd">
        <g id="Artboard" fill-rule="nonzero" fill="#B3DC20">
            <g id="neolo-logo-verde">
                <path d="M15.0290807,0.416510319 C17.1116323,0.416510319 19.2288931,0.590056285 21.3114447,0.937148218 C23.3939962,1.28424015 25.3030019,2.0478424 26.9690432,3.19324578 C28.6697936,4.33864916 30.0234522,5.96998124 31.0994371,8.12195122 C32.1754221,10.2739212 32.69606,13.0853659 32.69606,16.6257036 L32.69606,37.9371482 C31.4465291,38.1801126 30.3358349,38.3189493 29.3292683,38.3883677 C28.3227017,38.4577861 27.4549719,38.4924953 26.6913696,38.4924953 C25.8930582,38.4924953 24.9906191,38.4577861 23.9840525,38.3883677 C22.9774859,38.3189493 21.8667917,38.1454034 20.6172608,37.9371482 L20.6172608,17.9099437 C20.6172608,15.3761726 20.1313321,13.5712946 19.1941839,12.4953096 C18.2570356,11.4193246 16.7992495,10.8639775 14.8555347,10.8639775 C14.3348968,10.8639775 13.7795497,10.8986867 13.1894934,11.0028143 C12.5994371,11.1069418 12.217636,11.2110694 12.0787992,11.2804878 L12.0787992,37.9718574 C10.8292683,38.2148218 9.71857411,38.3536585 8.7120075,38.4230769 C7.7054409,38.4924953 6.83771107,38.5272045 6.07410882,38.5272045 C5.27579737,38.5272045 4.37335835,38.4924953 3.36679174,38.4230769 C2.36022514,38.3536585 1.24953096,38.1801126 1.47974191e-14,37.9718574 L1.47974191e-14,2.91557223 C1.66604128,2.36022514 3.67917448,1.77016886 6.07410882,1.24953096 C8.46904315,0.694183865 11.4540338,0.416510319 15.0290807,0.416510319 Z" id="Shape"></path>
                <path d="M50.6754221,23.3939962 C51.19606,25.3377111 52.0984991,26.7260788 53.4174484,27.5243902 C54.7363977,28.3227017 56.4371482,28.739212 58.5891182,28.739212 C59.9774859,28.739212 61.5046904,28.565666 63.2401501,28.2532833 C64.9409006,27.9061914 66.641651,27.4202627 68.3076923,26.760788 C68.967167,28.0103189 69.5572233,29.4681051 70.043152,31.1688555 C70.5290807,32.869606 70.8067542,34.6744841 70.8761726,36.5140713 C66.641651,38.075985 62.3030019,38.8742964 57.8949343,38.8742964 C54.4587242,38.8742964 51.543152,38.3883677 49.0787992,37.4512195 C46.6144465,36.5140713 44.6360225,35.195122 43.0741088,33.4943715 C41.5121951,31.793621 40.4015009,29.7804878 39.6378987,27.4549719 C38.9090056,25.1294559 38.5272045,22.5956848 38.5272045,19.8189493 C38.5272045,17.1116323 38.9090056,14.5778612 39.6726079,12.1829268 C40.4362101,9.7879925 41.5816135,7.74015009 43.108818,5.96998124 C44.6360225,4.19981238 46.5450281,2.81144465 48.8011257,1.80487805 C51.0919325,0.798311445 53.7298311,0.277673546 56.7842402,0.277673546 C59.3180113,0.277673546 61.5393996,0.694183865 63.5178236,1.5619137 C65.4962477,2.42964353 67.1622889,3.6097561 68.5506567,5.10225141 C69.9390244,6.59474672 70.9803002,8.39962477 71.7091932,10.5168856 C72.4380863,12.6341463 72.8198874,14.9249531 72.8198874,17.3893058 C72.8198874,18.673546 72.750469,19.8189493 72.6463415,20.8602251 C72.5422139,21.8667917 72.4033771,22.7345216 72.3339587,23.3939962 L50.6754221,23.3939962 Z M56.402439,9.33677298 C54.8752345,9.33677298 53.5562852,9.82270169 52.4803002,10.7598499 C51.369606,11.6969981 50.7448405,13.1894934 50.5712946,15.1679174 L61.9906191,15.1679174 C61.8864916,13.5018762 61.4005629,12.1135084 60.4634146,11.0028143 C59.4915572,9.89212008 58.1378987,9.33677298 56.402439,9.33677298 Z" id="Shape"></path>
                <path d="M131.929644,27.9756098 L145.396811,27.9756098 C145.639775,28.912758 145.778612,29.815197 145.84803,30.6135084 C145.917448,31.4118199 145.952158,32.2101313 145.952158,32.9737336 C145.952158,33.7373358 145.917448,34.5356473 145.84803,35.3686679 C145.778612,36.2016886 145.605066,37.1041276 145.396811,38.0412758 L122.17636,38.0412758 C120.89212,38.0412758 119.885553,37 119.885553,35.750469 L119.954972,1.18011257 C120.996248,0.937148218 122.037523,0.763602251 123.04409,0.694183865 C124.050657,0.590056285 125.057223,0.555347092 125.994371,0.555347092 C126.896811,0.555347092 127.868668,0.590056285 128.909944,0.694183865 C129.95122,0.798311445 130.992495,0.971857411 131.964353,1.18011257 L131.929644,27.9756098 Z" id="Shape"></path>
                <path d="M112.561914,11.1069418 C110.652908,7.25422139 107.251407,7.39305816 105.134146,8.05253283 C102.426829,8.88555347 100.69137,11.3846154 101.316135,14.7166979 C101.593809,16.1050657 101.906191,18.0487805 101.906191,19.7842402 C101.906191,22.7692308 101.385553,25.0947467 100.378987,26.6913696 C99.3724203,28.3227017 97.8105066,29.1210131 95.6932458,29.1210131 C93.6106942,29.1210131 92.0487805,28.3227017 91.0422139,26.6913696 C90.0356473,25.0600375 89.5497186,22.7692308 89.5497186,19.7842402 C89.5497186,16.7298311 90.0356473,14.6472795 91.0422139,13.0506567 C91.9446529,11.5928705 93.2636023,10.6904315 95.0684803,10.5515947 L95.0684803,10.5515947 C98.608818,10.2739212 99.9277674,7.84427767 99.9277674,4.89399625 C99.9277674,3.01969981 98.4005629,0.347091932 95.0337711,0.277673546 C92.0487805,0.173545966 90.0703565,0.798311445 87.7795497,1.73545966 C85.488743,2.67260788 83.5797373,3.99155722 82.0525328,5.69230769 C80.4906191,7.39305816 79.3452158,9.47560976 78.5469043,11.8705441 C77.7485929,14.2654784 77.3667917,16.9380863 77.3667917,19.8189493 C77.3667917,22.6651032 77.7485929,25.2682927 78.5469043,27.6285178 C79.3452158,29.988743 80.4906191,32.0018762 82.0525328,33.7026266 C83.6144465,35.4033771 85.5234522,36.6876173 87.7795497,37.5900563 C90.0703565,38.4924953 92.7082552,38.9437148 95.6932458,38.9437148 C98.7476548,38.9437148 101.385553,38.4924953 103.67636,37.5900563 C105.967167,36.6876173 107.876173,35.4033771 109.403377,33.7026266 C110.930582,32.0018762 112.110694,29.988743 112.909006,27.6285178 C113.707317,25.2682927 114.089118,22.6651032 114.089118,19.8189493 C114.089118,16.8686679 113.499062,13.0159475 112.561914,11.1069418 Z" id="Shape"></path>
                <path d="M183.29925,11.1069418 C181.390244,7.25422139 177.988743,7.39305816 175.871482,8.05253283 C173.164165,8.88555347 171.428705,11.3846154 172.053471,14.7166979 C172.331144,16.1050657 172.643527,18.0487805 172.643527,19.7842402 C172.643527,22.7692308 172.122889,25.0947467 171.116323,26.6913696 C170.109756,28.3227017 168.547842,29.1210131 166.430582,29.1210131 C164.34803,29.1210131 162.786116,28.3227017 161.77955,26.6913696 C160.772983,25.0600375 160.287054,22.7692308 160.287054,19.7842402 C160.287054,16.7298311 160.772983,14.6472795 161.77955,13.0506567 C162.681989,11.5928705 164.000938,10.6904315 165.805816,10.5515947 L165.805816,10.5515947 C169.346154,10.2739212 170.665103,7.84427767 170.665103,4.89399625 C170.665103,3.01969981 169.137899,0.347091932 165.771107,0.277673546 C162.786116,0.173545966 160.807692,0.798311445 158.516886,1.73545966 C156.226079,2.67260788 154.317073,3.99155722 152.789869,5.69230769 C151.227955,7.39305816 150.082552,9.47560976 149.28424,11.8705441 C148.485929,14.2654784 148.104128,16.9380863 148.104128,19.8189493 C148.104128,22.6651032 148.485929,25.2682927 149.28424,27.6285178 C150.082552,29.988743 151.227955,32.0018762 152.789869,33.7026266 C154.351782,35.4033771 156.260788,36.6876173 158.516886,37.5900563 C160.807692,38.4924953 163.445591,38.9437148 166.430582,38.9437148 C169.484991,38.9437148 172.122889,38.4924953 174.413696,37.5900563 C176.704503,36.6876173 178.613508,35.4033771 180.140713,33.7026266 C181.667917,32.0018762 182.84803,29.988743 183.646341,27.6285178 C184.444653,25.2682927 184.826454,22.6651032 184.826454,19.8189493 C184.861163,16.8686679 184.271107,13.0159475 183.29925,11.1069418 Z" id="Shape"></path>
            </g>
        </g>
    </g>
</svg>