<?xml version="1.0" encoding="utf-8"?>
<!-- Generator: Adobe Illustrator 21.0.0, SVG Export Plug-In . SVG Version: 6.00 Build 0)  -->
<svg version="1.1" id="Layer_1" xmlns="http://www.w3.org/2000/svg" xmlns:xlink="http://www.w3.org/1999/xlink" x="0px" y="0px"
	 width="280px" height="280px" viewBox="0 0 280 280" style="enable-background:new 0 0 280 280;" xml:space="preserve">
<style type="text/css">
	.st0{fill:#F7F7F7;}
	.st1{fill:#FF6C4E;}
	.st2{fill:#E2F4A3;}
	.st3{fill:#66D4D8;}
	.st4{fill:url(#SVGID_1_);}
	.st5{fill:url(#SVGID_2_);}
	.st6{fill:url(#SVGID_3_);}
	.st7{fill:url(#SVGID_4_);}
	.st8{fill:#2C39B0;}
	.st9{fill:#FFFFFF;}
	.st10{fill:url(#SVGID_5_);}
	.st11{fill:#4170BE;}
</style>
<g>
	<ellipse class="st0" cx="54" cy="161.1" rx="7.5" ry="4"/>
	<ellipse class="st0" cx="231" cy="163.4" rx="4.2" ry="2.2"/>
	<path class="st1" d="M56.3,137.4c0-2.4-1.7-3.4-3.7-2.2s-3.7,4.1-3.7,6.5s1.7,3.4,3.7,2.2C54.6,142.8,56.3,139.9,56.3,137.4z"/>
	<path class="st2" d="M235.2,149.9c0,2.7-1.9,3.9-4.2,2.5c-2.3-1.3-4.2-4.7-4.2-7.4s1.9-3.9,4.2-2.5
		C233.3,143.8,235.2,147.1,235.2,149.9z"/>
	<ellipse class="st0" cx="83.2" cy="215.5" rx="2.8" ry="1.5"/>
	<path class="st3" d="M87.4,183c0,2.7-1.9,3.9-4.2,2.5c-2.3-1.3-4.2-4.7-4.2-7.4s1.9-3.9,4.2-2.5C85.5,176.9,87.4,180.2,87.4,183z"
		/>
	<ellipse class="st0" cx="145.9" cy="203.1" rx="51.7" ry="27.4"/>
	
		<linearGradient id="SVGID_1_" gradientUnits="userSpaceOnUse" x1="73.9" y1="174.3" x2="217.9" y2="174.3" gradientTransform="matrix(1 0 0 -1 0 280)">
		<stop  offset="0" style="stop-color:#2C39B0"/>
		<stop  offset="1" style="stop-color:#72F2E0"/>
	</linearGradient>
	<circle class="st4" cx="145.9" cy="105.7" r="72"/>
	
		<linearGradient id="SVGID_2_" gradientUnits="userSpaceOnUse" x1="117.8936" y1="95.726" x2="175.0678" y2="143.7009" gradientTransform="matrix(1 0 0 -1 0 280)">
		<stop  offset="0" style="stop-color:#2C39B0"/>
		<stop  offset="1" style="stop-color:#72F2E0"/>
	</linearGradient>
	<path class="st5" d="M143.8,167.3c-16,0-31.5-0.9-45.1-5.9c12.5,10.6,28.7,17,46.4,17c19,0,36.2-7.3,49.1-19.3
		C179.1,165.6,162.1,167.3,143.8,167.3z"/>
	
		<linearGradient id="SVGID_3_" gradientUnits="userSpaceOnUse" x1="92.8498" y1="226.0443" x2="205.3859" y2="161.0715" gradientTransform="matrix(1 0 0 -1 0 280)">
		<stop  offset="0" style="stop-color:#2C39B0"/>
		<stop  offset="1" style="stop-color:#72F2E0"/>
	</linearGradient>
	<path class="st6" d="M74.1,103.6c16.9,14.5,41.4,23.7,68.7,23.7c30.8,0,58.1-11.7,74.9-29.7c-4-36-34.5-63.9-71.6-63.9
		C107.1,33.7,75.3,64.8,74.1,103.6z"/>
	
		<linearGradient id="SVGID_4_" gradientUnits="userSpaceOnUse" x1="106.5623" y1="246.6102" x2="182.2852" y2="202.8916" gradientTransform="matrix(1 0 0 -1 0 280)">
		<stop  offset="0" style="stop-color:#2C39B0"/>
		<stop  offset="1" style="stop-color:#72F2E0"/>
	</linearGradient>
	<path class="st7" d="M146.1,33.7c-21.2,0-40.2,9.1-53.4,23.7c9.2,9.6,28.1,16.3,50.1,16.3c24.7,0,45.6-8.4,53-20
		C182.9,41.3,165.4,33.7,146.1,33.7z"/>
	<g>
		<path class="st2" d="M103.8,111.6c0-7.2-5.9-16.5-13.1-20.7c-2.5-1.4-4.8-2.1-6.8-2c-2.7-7.3-8.6-14.7-15.4-18.6
			c-8.9-5.2-16.3-2.5-17,5.9c-1.1-1.1-2.3-2-3.5-2.7c-5.3-3-9.5-1.2-9.5,4s4.3,12,9.5,15c0.2,0.1,0.3,0.2,0.5,0.3
			c0.2,0.1,0.3,0.2,0.5,0.3l41.8,24.1c0.3,0.2,0.5,0.3,0.8,0.4C98.4,121.1,103.8,118.6,103.8,111.6z"/>
		<path class="st8" d="M100.9,80.4c-2.3-1.3-4.6-2.1-6.6-2.1c-3-7.6-8.9-14.7-15.5-18.5c-4.5-2.6-8.8-3.4-12.2-2.2
			c-2.3,0.8-4.1,2.6-5.1,5c-1.1,0-2.1,0.1-3.1,0.4l-0.1-0.1c-2.5-1.5-5-1.9-6.9-1.3l0,0h-0.1h-0.1h-0.1l-8.3,5.5
			c-0.3,0.1-0.6,0.2-0.9,0.4c-1.7,1-2.7,3-2.7,5.5c0,5.5,4.4,12.5,9.9,15.7c0.1,0.1,0.2,0.1,0.4,0.2l0.2,0.1
			c0.1,0.1,0.3,0.2,0.4,0.3l1,0.6c0.1,0,0.1,0.1,0.2,0.1l40.6,23.4c0.3,0.2,0.6,0.3,0.8,0.4c2.1,1.1,4.2,1.6,6,1.6
			c1.4,0,2.8-0.3,3.9-1c0.4-0.2,0.7-0.5,1-0.8l0,0c0.4-0.2,9.6-4,10.8-11.9C115.5,94.3,108.4,84.7,100.9,80.4z M56.7,63.8
			c-2.2,1.3-3.7,3.6-4.3,6.6c-0.8-0.7-1.7-1.3-2.6-1.9c-1.4-0.8-2.8-1.3-4-1.5l6-4C53.2,62.6,54.9,62.9,56.7,63.8z M101.8,113.3
			c-2.1,1.3-5.1,1-8.4-0.7c-0.2-0.1-0.5-0.2-0.7-0.4L63,95.2v-5c0-0.4-0.3-0.8-0.8-0.8s-0.8,0.3-0.8,0.8v4.2l-3.7-2.2
			c0-0.1,0-0.2,0-0.2v-8c0-0.4-0.3-0.8-0.8-0.8s-0.8,0.3-0.8,0.8v7.4L52.2,89v-4.6c0-0.4-0.3-0.8-0.8-0.8s-0.8,0.3-0.8,0.8v3.8
			c-0.1-0.1-0.2-0.1-0.3-0.2L50,87.8c-0.1,0-0.2-0.1-0.3-0.2c-5-2.9-9.2-9.4-9.2-14.4c0-1.5,0.4-2.6,1-3.5l1.7-1.1
			c0.4-0.1,0.8-0.2,1.3-0.2c1.3,0,2.8,0.5,4.4,1.4c1.2,0.7,2.3,1.5,3.4,2.6c0.2,0.2,0.5,0.3,0.8,0.2c0.3-0.1,0.5-0.4,0.5-0.6
			c0.3-3.3,1.6-5.8,4-7c3-1.6,7.3-1,11.9,1.7c6.4,3.7,12.3,10.8,15,18.2c0.1,0.3,0.4,0.5,0.7,0.5c1.9-0.1,4.1,0.6,6.4,1.9
			c7,4.1,12.7,13,12.7,20C104.5,110.1,103.5,112.2,101.8,113.3z M112.9,101.6c-0.7,4.8-5,8-7.7,9.6c0.5-1.1,0.7-2.5,0.7-3.9
			c0-7.5-6.1-17-13.5-21.3c-2.3-1.3-4.6-2.1-6.6-2.1c-3-7.6-8.9-14.7-15.5-18.5c-2.5-1.4-4.9-2.3-7.2-2.6c0.8-1.8,2.2-3.1,4-3.7
			c2.9-1,6.8-0.3,11,2.1c6.4,3.7,12.3,10.8,15,18.2c0.1,0.3,0.4,0.5,0.7,0.5c1.9,0,4.1,0.6,6.4,1.9C108.8,86.7,113.8,96,112.9,101.6
			z"/>
	</g>
	<path class="st8" d="M169.7,68.8c-0.1-0.4-0.6-0.6-1-0.5c-8.4,3-18.2,4.5-28.3,4.5c-22.1,0-42.2-7.8-48.7-18.9
		c0-0.1-0.1-0.1-0.2-0.2c13.2-12.4,30.7-19.4,48.8-19.4c8,0,15.9,1.3,23.5,4c0.4,0.1,0.8-0.1,1-0.5c0.1-0.4-0.1-0.8-0.5-1
		c-7.7-2.7-15.7-4-24-4c-20.3,0-39.8,8.6-53.6,23.5c-0.3,0.3-0.3,0.8,0,1.1c0.1,0.1,0.3,0.2,0.5,0.2s0.4-0.1,0.6-0.2
		c0.8-0.9,1.7-1.8,2.5-2.6c6.9,11.7,27,19.6,49.9,19.6c10.3,0,20.3-1.6,28.8-4.6C169.6,69.6,169.8,69.2,169.7,68.8z"/>
	<path class="st8" d="M213,100.6L213,100.6c-0.8-10.9-4-21.4-9.3-30.9c-0.2-0.4-0.7-0.5-1-0.3c-0.4,0.2-0.5,0.7-0.3,1
		c5.2,9.2,8.4,19.5,9.1,30.1c-7.3,10.4-22.5,18.8-41.9,23.1c-0.4,0.1-0.7,0.5-0.6,0.9c0.1,0.4,0.4,0.6,0.7,0.6c0.1,0,0.1,0,0.2,0
		c18.8-4.2,33.9-12.2,41.7-22.2c0,1,0.1,1.9,0.1,2.9c0,26.2-14.4,50.3-37.5,62.8c-0.4,0.2-0.5,0.7-0.3,1c0.1,0.3,0.4,0.4,0.7,0.4
		c0.1,0,0.2,0,0.4-0.1c23.6-12.7,38.2-37.3,38.2-64.1C213.2,104,213.1,102.3,213,100.6z"/>
	<path class="st8" d="M137.5,177c-15.8-0.6-30.9-6.5-42.9-16.7c10.9,4.3,23.7,7,37.3,7.8l0,0c0.4,0,0.7-0.3,0.7-0.7
		s-0.3-0.8-0.7-0.8c-15.1-0.9-29.2-4.1-40.8-9.4c-0.3-0.3-0.5-0.5-0.8-0.7c-12.6-12.5-20.1-29.1-21.1-46.8c0-0.4-0.4-0.7-0.8-0.7
		s-0.7,0.4-0.7,0.8c1,18.1,8.7,35,21.6,47.8c0.2,0.2,0.3,0.3,0.5,0.5c0.1,0.2,0.2,0.3,0.4,0.4h0.1c12.8,12.2,29.5,19.3,47.1,20l0,0
		c0.4,0,0.7-0.3,0.7-0.7C138.2,177.3,137.9,177,137.5,177z"/>
	<g>
		<path class="st1" d="M193.6,31c-9.2,5.3-16.6,18.3-16.6,28.9c0,12.5,16.6,21.8,16.6,21.8s16.6-28.9,16.6-41
			C210.3,30,202.8,25.7,193.6,31z M193.6,56.3c-3,1.7-5.4,0.3-5.4-3.2s2.4-7.7,5.4-9.4s5.4-0.3,5.4,3.2S196.6,54.6,193.6,56.3z"/>
		<g>
			<path class="st8" d="M184.4,53.2c0,2,0.7,3.4,2,4.2c0.5,0.3,1.1,0.5,1.8,0.5c0.9,0,1.8-0.3,2.8-0.8c3.2-1.9,5.8-6.3,5.8-10
				c0-2-0.7-3.4-2-4.2c-1.3-0.7-2.9-0.6-4.5,0.4C186.9,45,184.4,49.4,184.4,53.2z M192.9,43.8c0.4,0,0.7,0.1,1,0.3
				c0.8,0.5,1.2,1.5,1.2,2.9c0,3.2-2.2,7.1-5,8.7c-1.2,0.7-2.3,0.8-3,0.4c-0.8-0.5-1.2-1.5-1.2-2.9c0-3.2,2.2-7.1,5-8.7
				C191.6,44,192.3,43.8,192.9,43.8z"/>
			<path class="st8" d="M207.9,40.7c0-5.5-1.9-9.6-5.3-11.5c-2-1.2-4.4-1.5-7-1c0-0.1,0-0.3-0.1-0.4c-3.3-4.3-9.1-4.8-15.2-1.2
				c-9.4,5.4-17,18.7-17,29.6c0,12.8,16.3,22,17,22.4h0.1l9.8,3.7c0.1,0,0.2,0,0.3,0l0,0l0,0l0,0c0.1,0,0.2,0,0.3-0.1l0,0
				c0.1-0.1,0.2-0.1,0.2-0.2l0,0C191.9,80.9,207.9,52.9,207.9,40.7z M201.9,30.5c2.9,1.7,4.5,5.3,4.5,10.2
				c0,10.7-13.7,35.6-16.2,39.9c-3-1.8-15.6-10.2-15.6-20.7c0-10.4,7.3-23.1,16.3-28.3c2.5-1.4,4.9-2.2,7-2.2
				C199.4,29.5,200.7,29.8,201.9,30.5z M164.9,56.2c0-10.4,7.3-23.1,16.3-28.3c5.4-3.1,10.2-2.8,13.1,0.7c-1.3,0.4-2.6,1-4,1.8
				c-9.4,5.4-17,18.7-17,29.6c0,8.2,6.6,14.9,11.6,18.8l-3.7-1.4C180.1,76.7,164.9,67.8,164.9,56.2z"/>
		</g>
	</g>
	<g>
		<polygon class="st9" points="160.2,169.1 160.2,131.9 164.2,120.3 160.4,107.5 152.5,112.1 148.2,129.9 152.3,136.5 152.3,173.7 
					"/>
		
			<linearGradient id="SVGID_5_" gradientUnits="userSpaceOnUse" x1="140.2242" y1="79.728" x2="172.2326" y2="79.728" gradientTransform="matrix(1 0 0 -1 0 280)">
			<stop  offset="0" style="stop-color:#72F2E0"/>
			<stop  offset="1" style="stop-color:#E2F4A3"/>
		</linearGradient>
		<path class="st10" d="M172.2,205.5c-0.6-7.7-4.7-27.5-5.5-31.4l0.7-0.4V165l-7.1,4.1l-7.9,4.6l-7.1,4.1v8.7l0.9-0.5
			c-0.9,4.9-5.3,29.6-5.8,38c-0.7,10.6,7.1,14.4,16,9.3C165,228.2,173,215.2,172.2,205.5z"/>
		<path class="st8" d="M148.1,235.2c-0.1,0-0.2,0-0.3-0.1l-12-6.2c-0.4-0.2-0.5-0.6-0.3-1s0.6-0.5,1-0.3l12,6.2
			c0.4,0.2,0.5,0.6,0.3,1C148.6,235,148.4,235.2,148.1,235.2z"/>
		<g>
			<path class="st8" d="M175.3,204.9c-0.7-7.9-4.8-28.1-5.6-31.7l0.4-0.2c0.2-0.1,0.4-0.4,0.4-0.6v-8.7c0-0.3-0.1-0.5-0.4-0.6
				c-0.1-0.1-0.2-0.1-0.3-0.1l-6.4-3.1v-29l4-11.5c0.1-0.1,0.1-0.3,0-0.5l-3.8-12.7l0,0c0-0.1-0.1-0.2-0.2-0.3c0,0,0,0-0.1,0
				s-0.1-0.1-0.2-0.1l-9.3-4.6c-0.2-0.1-0.5-0.1-0.7,0l-7.9,4.6c-0.2,0.1-0.3,0.3-0.4,0.5l-4.3,17.8c0,0,0,0,0,0.1v0.1v0.1v0.1v0.1
				l3.9,6.4v36.5l-6.8,3.9l0,0c-0.1,0.1-0.1,0.1-0.2,0.2c0,0,0,0-0.1,0.1l0,0c0,0.1-0.1,0.2-0.1,0.3l0,0v8.7v0.1c0,0.1,0,0.1,0,0.2
				c0,0,0,0.1,0.1,0.1c0,0,0,0.1,0.1,0.1l0.1,0.1l0.1,0.1l0.4,0.2c-0.7,4-5.1,28.8-5.7,37.3c-0.2,3.7-0.1,8.2,3.2,10.1
				c0.1,0.1,0.2,0.1,0.4,0.1c0.3,0,0.5-0.1,0.7-0.4c0.2-0.4,0.1-0.8-0.3-1c-2.6-1.5-2.7-5.4-2.5-8.7c0.5-8.2,4.7-31.7,5.6-36.7
				l7.5,3.7c0.1,0.1,0.2,0.1,0.3,0.1l0,0l0,0l0,0c0,0,0,0,0.1,0c-1.1,6.1-5.2,29.4-5.7,37.4c-0.3,5.1,1.2,9.1,4.4,11
				c1.4,0.9,3.1,1.3,4.9,1.3c2.4,0,5.1-0.8,7.8-2.3C168.5,227.9,176.1,214.6,175.3,204.9z M138.9,180.2v-7l7.8,3.8v7L138.9,180.2z
				 M153.9,135.7v35.5l-7.8-3.8v-35.5L153.9,135.7z M145.3,168.7l7.7,3.8l-5.6,3.2l-7.7-3.8L145.3,168.7z M168.5,172.2l-0.8,0.4
				v-3.1c0-0.4-0.3-0.8-0.8-0.8s-0.8,0.3-0.8,0.8v3.9l-1.8,1.1v-3.1c0-0.4-0.3-0.8-0.8-0.8s-0.8,0.3-0.8,0.8v3.9l-1.8,1.1v-3.1
				c0-0.4-0.3-0.8-0.8-0.8s-0.8,0.3-0.8,0.8v3.9l-1.8,1.1v-3.1c0-0.4-0.3-0.8-0.8-0.8s-0.8,0.3-0.8,0.8v3.9l-1.8,1.1v-3.1
				c0-0.4-0.3-0.8-0.8-0.8s-0.8,0.3-0.8,0.8v3.9l-1.8,1.1V179c0-0.4-0.3-0.8-0.8-0.8s-0.8,0.3-0.8,0.8v3.9l-1.2,0.7v-7l6.7-3.9l0,0
				l7.9-4.6l0,0l6-3.5v7L168.5,172.2L168.5,172.2z M168,163.8l-4.7,2.7v-5L168,163.8z M161.8,130.4c0,0.1,0,0.2,0,0.2v36.7l-1.2,0.7
				v-19c0-0.4-0.3-0.8-0.8-0.8s-0.8,0.3-0.8,0.8v20l-1,0.6v-11.8c0-0.4-0.3-0.8-0.8-0.8s-0.8,0.3-0.8,0.8v12.6l-1.2,0.7v-35.9
				c0-0.1,0-0.2,0-0.2l0,0c0,0,0-0.1-0.1-0.1l-3.9-6.3l4.1-17.2l6.8-3.9l3.5,11.6L161.8,130.4z M146.2,106.7l7.3-4.2l7.7,3.8
				l-6.7,3.9c-0.2,0.1-0.3,0.3-0.4,0.5l-4,16.9l-7.9-3.9L146.2,106.7z M143.3,125.9l6.8,3.3l2.6,4.2l-6.8-3.3L143.3,125.9z
				 M158.2,232.1c-4.2,2.4-8.3,2.8-11.1,1c-2.7-1.7-4-5.1-3.7-9.7c0.6-8.6,5.3-35.1,5.9-38.4l11.5-6.7l7.5-4.3
				c1,4.6,4.8,23.6,5.5,31C174.5,214.1,167.1,227,158.2,232.1z"/>
			<path class="st8" d="M161.5,213.1c-0.9-0.5-2.1-0.4-3.3,0.3c-2.3,1.3-4,4.4-4,7c0,1.4,0.5,2.5,1.5,3c0.4,0.2,0.8,0.3,1.3,0.3
				c0.6,0,1.3-0.2,2-0.6c2.3-1.3,4-4.4,4-7C163,214.8,162.5,213.7,161.5,213.1z M158.2,221.9c-0.7,0.4-1.4,0.5-1.8,0.3
				c-0.4-0.3-0.7-0.9-0.7-1.7c0-2.1,1.5-4.7,3.3-5.7c0.5-0.3,0.9-0.4,1.2-0.4c0.2,0,0.4,0,0.6,0.1c0.4,0.3,0.7,0.9,0.7,1.7
				C161.5,218.3,160,220.9,158.2,221.9z"/>
		</g>
	</g>
	<path class="st0" d="M167,252l-8.5-4.9c-1.2-0.7-2.6-0.7-3.8,0L138,257c-1.2,0.7-1.9,1.9-1.9,3.3s0.7,2.6,1.9,3.3l8.5,4.9
		c0.6,0.3,1.2,0.5,1.9,0.5s1.3-0.2,1.9-0.5l16.6-9.8c1.2-0.7,1.9-1.9,1.9-3.3C168.9,253.9,168.1,252.7,167,252z"/>
	<ellipse class="st11" cx="132.7" cy="64" rx="2.8" ry="1.5"/>
	<path class="st3" d="M136.9,53.9c0,2.7-1.9,3.9-4.2,2.5c-2.3-1.3-4.2-4.7-4.2-7.4s1.9-3.9,4.2-2.5S136.9,51.2,136.9,53.9z"/>
</g>
</svg>
