<?xml version="1.0" encoding="UTF-8"?>
<svg width="38px" height="33px" viewBox="0 0 38 33" version="1.1" xmlns="http://www.w3.org/2000/svg" xmlns:xlink="http://www.w3.org/1999/xlink">
    <!-- Generator: Sketch 44.1 (41455) - http://www.bohemiancoding.com/sketch -->
    <title>Group 26</title>
    <desc>Created with Sketch.</desc>
    <defs></defs>
    <g id="Page-1" stroke="none" stroke-width="1" fill="none" fill-rule="evenodd">
        <g id="Group-26">
            <polygon id="Fill-117" fill="#FFFFFF" points="5.54166667 12.5714286 0.791666667 10.2142857 0.791666667 21.2142857 5.54166667 18.8571429 27.7083333 30.6428571 27.7083333 0.785714286"></polygon>
            <polygon id="Fill-267" fill="#B6EAA4" points="0.791666667 15.7142857 0.791666667 21.2142857 5.54166667 18.8571429 27.7083333 30.6428571 27.7083333 15.7142857"></polygon>
            <polyline id="Stroke-573" stroke="#87CC6F" stroke-linecap="round" stroke-linejoin="round" points="10.2916667 21.3830571 10.2916667 27.1376286 19.7916667 32.2149143 19.7916667 26.4336286"></polyline>
            <path d="M32.4583333,16.5 L37.2083333,16.5" id="Stroke-575" stroke="#87CC6F" stroke-linecap="round" stroke-linejoin="round"></path>
            <path d="M32.4583333,8.97348571 L37.2083333,6.61634286" id="Stroke-577" stroke="#87CC6F" stroke-linecap="round" stroke-linejoin="round"></path>
            <path d="M32.4583333,24.6877714 L37.2083333,27.0449143" id="Stroke-579" stroke="#87CC6F" stroke-linecap="round" stroke-linejoin="round"></path>
            <path d="M5.54166667,12.5714286 L5.54166667,18.8571429" id="Stroke-581" stroke="#87CC6F" stroke-linecap="round" stroke-linejoin="round"></path>
            <polygon id="Stroke-583" stroke="#87CC6F" stroke-linecap="round" stroke-linejoin="round" points="27.7083333 30.6428571 5.54166667 18.8571429 0.791666667 21.2142857 0.791666667 10.2142857 5.54166667 12.5714286 27.7083333 0.785714286"></polygon>
        </g>
    </g>
</svg>