<?xml version="1.0" encoding="UTF-8"?>
<svg width="119px" height="204px" viewBox="0 0 119 204" version="1.1" xmlns="http://www.w3.org/2000/svg" xmlns:xlink="http://www.w3.org/1999/xlink">
    <!-- Generator: Sketch 44.1 (41455) - http://www.bohemiancoding.com/sketch -->
    <title>Group 2</title>
    <desc>Created with Sketch.</desc>
    <defs></defs>
    <g id="Page-1" stroke="none" stroke-width="1" fill="none" fill-rule="evenodd">
        <g id="Group-2" transform="translate(1.000000, 0.000000)">
            <g id="paper-plane-copy" transform="translate(57.000000, 0.000000)" fill-rule="nonzero" fill="#FFFFFF">
                <path d="M59.84,0.897 C59.622,0.629 59.284,0.504 58.947,0.544 C58.87,0.548 58.798,0.561 58.723,0.583 L0.738,16.354 C0.312,16.47 0.012,16.852 1.47993597e-16,17.293 C-0.011,17.734 0.269,18.131 0.688,18.269 L21.905,25.221 L20.007,40.403 C19.957,40.803 20.152,41.194 20.501,41.394 C20.656,41.483 20.828,41.527 20.999,41.527 C21.214,41.527 21.429,41.458 21.607,41.321 L29.372,35.375 L36.179,45.1 C36.367,45.369 36.673,45.527 36.998,45.527 C37.02,45.527 37.043,45.526 37.066,45.525 C37.416,45.501 37.727,45.296 37.887,44.983 L59.95,1.983 C60.134,1.631 60.09,1.205 59.84,0.897 Z M52.895,4.241 L22.861,23.429 L4.484,17.408 L52.895,4.241 Z M22.288,38.281 L23.67,27.228 L28.225,33.735 L22.288,38.281 Z M36.868,42.594 L24.418,24.808 L56.518,4.3 L36.868,42.594 Z" id="Shape"></path>
            </g>
            <path d="M3.76181943,203.614838 C-7.28177424,154.860307 5.99018539,121.596865 43.5776983,103.824513 C76.4827921,95.4893998 92.0256101,103.485446 90.2061523,127.81265 C74.8635757,158.338992 55.6004184,152.481385 32.4166802,110.239828 C34.0731792,70.4577093 45.598257,45.0444333 66.9919137,34" id="Path-2" stroke="#FFFFFF" stroke-width="2" stroke-dasharray="9"></path>
        </g>
    </g>
</svg>