<?xml version="1.0" encoding="UTF-8"?>
<svg width="225px" height="115px" viewBox="0 0 225 115" version="1.1" xmlns="http://www.w3.org/2000/svg" xmlns:xlink="http://www.w3.org/1999/xlink">
    <!-- Generator: Sketch 44.1 (41455) - http://www.bohemiancoding.com/sketch -->
    <title>Group</title>
    <desc>Created with Sketch.</desc>
    <defs></defs>
    <g id="Page-1" stroke="none" stroke-width="1" fill="none" fill-rule="evenodd">
        <g id="Group" transform="translate(-2.000000, -52.000000)">
            <g id="paper-plane-copy-2" transform="translate(192.500000, 149.000000) rotate(60.000000) translate(-192.500000, -149.000000) translate(162.000000, 126.000000)" fill-rule="nonzero" fill="#FFFFFF">
                <path d="M59.84,0.897 C59.622,0.629 59.284,0.504 58.947,0.544 C58.87,0.548 58.798,0.561 58.723,0.583 L0.738,16.354 C0.312,16.47 0.012,16.852 1.47993597e-16,17.293 C-0.011,17.734 0.269,18.131 0.688,18.269 L21.905,25.221 L20.007,40.403 C19.957,40.803 20.152,41.194 20.501,41.394 C20.656,41.483 20.828,41.527 20.999,41.527 C21.214,41.527 21.429,41.458 21.607,41.321 L29.372,35.375 L36.179,45.1 C36.367,45.369 36.673,45.527 36.998,45.527 C37.02,45.527 37.043,45.526 37.066,45.525 C37.416,45.501 37.727,45.296 37.887,44.983 L59.95,1.983 C60.134,1.631 60.09,1.205 59.84,0.897 Z M52.895,4.241 L22.861,23.429 L4.484,17.408 L52.895,4.241 Z M22.288,38.281 L23.67,27.228 L28.225,33.735 L22.288,38.281 Z M36.868,42.594 L24.418,24.808 L56.518,4.3 L36.868,42.594 Z" id="Shape"></path>
            </g>
            <path d="M49.7273094,178.850868 C38.6837157,130.096336 51.9556754,96.8328946 89.5431883,79.0605425 C122.448282,70.7254297 137.9911,78.7214755 136.171642,103.04868 C120.829066,133.575022 101.565908,127.717415 78.3821702,85.475858 C80.0386691,45.6937392 91.563747,20.2804632 112.957404,9.2360299" id="Path-2-Copy" stroke="#FFFFFF" stroke-width="2" stroke-dasharray="9" transform="translate(91.140067, 94.043449) scale(1, -1) rotate(42.000000) translate(-91.140067, -94.043449) "></path>
        </g>
    </g>
</svg>