<?xml version="1.0" encoding="UTF-8"?>
<svg width="136px" height="208px" viewBox="0 0 136 208" version="1.1" xmlns="http://www.w3.org/2000/svg" xmlns:xlink="http://www.w3.org/1999/xlink">
    <!-- Generator: Sketch 44.1 (41455) - http://www.bohemiancoding.com/sketch -->
    <title>Group Copy 2</title>
    <desc>Created with Sketch.</desc>
    <defs></defs>
    <g id="Page-1" stroke="none" stroke-width="1" fill="none" fill-rule="evenodd">
        <g id="Group-Copy-2" transform="translate(87.297161, 107.191323) rotate(98.000000) translate(-87.297161, -107.191323) translate(-25.702839, 11.691323)">
            <g id="paper-plane-copy-2" transform="translate(190.229918, 152.787277) rotate(60.000000) translate(-190.229918, -152.787277) translate(159.729918, 129.787277)" fill-rule="nonzero" fill="#FFFFFF">
                <path d="M59.84,0.897 C59.622,0.629 59.284,0.504 58.947,0.544 C58.87,0.548 58.798,0.561 58.723,0.583 L0.738,16.354 C0.312,16.47 0.012,16.852 1.47993597e-16,17.293 C-0.011,17.734 0.269,18.131 0.688,18.269 L21.905,25.221 L20.007,40.403 C19.957,40.803 20.152,41.194 20.501,41.394 C20.656,41.483 20.828,41.527 20.999,41.527 C21.214,41.527 21.429,41.458 21.607,41.321 L29.372,35.375 L36.179,45.1 C36.367,45.369 36.673,45.527 36.998,45.527 C37.02,45.527 37.043,45.526 37.066,45.525 C37.416,45.501 37.727,45.296 37.887,44.983 L59.95,1.983 C60.134,1.631 60.09,1.205 59.84,0.897 Z M52.895,4.241 L22.861,23.429 L4.484,17.408 L52.895,4.241 Z M22.288,38.281 L23.67,27.228 L28.225,33.735 L22.288,38.281 Z M36.868,42.594 L24.418,24.808 L56.518,4.3 L36.868,42.594 Z" id="Shape"></path>
            </g>
            <path d="M46.2856533,179.861106 C39.6975745,104.741658 55.1972915,58.2957581 92.7848044,40.523406 C125.689898,32.1882932 141.232716,40.1843389 139.413258,64.5115433 C124.070682,95.0378856 104.807524,89.1802783 81.6237863,46.9387214 C78.8247705,33.5215191 88.1220909,21.2907012 109.515748,10.246268" id="Path-2-Copy" stroke="#FFFFFF" stroke-width="2" stroke-dasharray="9" transform="translate(92.184077, 95.053687) scale(1, -1) rotate(42.000000) translate(-92.184077, -95.053687) "></path>
        </g>
    </g>
</svg>