<?xml version="1.0" encoding="utf-8"?>
<!-- Generator: Adobe Illustrator 21.0.0, SVG Export Plug-In . SVG Version: 6.00 Build 0)  -->
<svg version="1.1" id="Layer_1" xmlns="http://www.w3.org/2000/svg" xmlns:xlink="http://www.w3.org/1999/xlink" x="0px" y="0px"
	 width="280px" height="280px" viewBox="0 0 280 280" style="enable-background:new 0 0 280 280;" xml:space="preserve">
<style type="text/css">
	.st0{fill:#F7F7F7;}
	.st1{fill:url(#SVGID_1_);}
	.st2{fill:url(#SVGID_2_);}
	.st3{fill:url(#SVGID_3_);}
	.st4{fill:#2C39B0;}
	.st5{fill:#5DBED2;}
	.st6{fill:#FFFFFF;}
	.st7{fill:url(#SVGID_4_);}
	.st8{opacity:0.21;fill:#7A7F65;}
	.st9{fill:#FF6C4E;}
	.st10{fill:#DBF4A7;}
</style>
<g>
	<path class="st0" d="M47.7,145.7l1-1.9l-7.3,0.6c-0.2-0.7-1-1.1-2.3-1.1c-1.3,0.1-2.7,0.6-3.6,1.3l-7.1,0.1l-1,1.9l5.8,1.6
		l-4.1,7.8L11.2,155L9,159.2l16.1,4.5l-1.3,2.4c-0.7,1.3,0.3,2.2,2.2,2.1l0,0c1.9-0.1,3.9-1.2,4.6-2.4l1.3-2.4l21.8-6.2l2.2-4.2
		l-20,2.9l4.1-7.8L47.7,145.7z"/>
	<path class="st0" d="M160.5,275.8l-121-69.9c-5.9-3.4-5.9-12,0-15.4l70.9-40.9c2.8-1.6,6.2-1.6,8.9,0l121,69.9
		c5.9,3.4,5.9,12,0,15.4l-70.9,40.9C166.7,277.4,163.3,277.4,160.5,275.8z"/>
	<linearGradient id="SVGID_1_" gradientUnits="userSpaceOnUse" x1="28.684" y1="183.5753" x2="238.3798" y2="183.5753">
		<stop  offset="0" style="stop-color:#2C39B0"/>
		<stop  offset="1" style="stop-color:#72F2E0"/>
	</linearGradient>
	<path class="st1" d="M154.1,246.7l-121-69.9c-5.9-3.4-5.9-12,0-15.4l70.9-40.9c2.8-1.6,6.2-1.6,8.9,0l121,69.9
		c5.9,3.4,5.9,12,0,15.4L163,246.7C160.3,248.3,156.9,248.3,154.1,246.7z"/>
	<linearGradient id="SVGID_2_" gradientUnits="userSpaceOnUse" x1="66.8757" y1="173.1321" x2="197.3453" y2="173.1321">
		<stop  offset="0" style="stop-color:#2C39B0"/>
		<stop  offset="0.9986" style="stop-color:#55A6CC"/>
	</linearGradient>
	<polygon class="st2" points="197.3,204.2 188.1,209.8 66.9,142 76.2,136.5 	"/>
	<linearGradient id="SVGID_3_" gradientUnits="userSpaceOnUse" x1="94.5062" y1="165.9392" x2="220.6284" y2="165.9392">
		<stop  offset="0" style="stop-color:#2C39B0"/>
		<stop  offset="0.9986" style="stop-color:#55A6CC"/>
	</linearGradient>
	<polygon class="st3" points="220.6,198.4 215.7,201.3 94.5,133.5 99.4,130.6 	"/>
	<path class="st4" d="M254,162.3c-0.3,0-0.6-0.3-0.6-0.6V95.2c0-2.6-1.4-4.9-3.6-6.2L126.1,17.6c-2.3-1.3-4.9-1.3-7.2,0
		c-2.3,1.3-3.6,3.6-3.6,6.2c0,0.3-0.3,0.6-0.6,0.6s-0.6-0.3-0.6-0.6c0-3,1.6-5.8,4.2-7.3c2.6-1.5,5.8-1.5,8.4,0L250.4,88
		c2.6,1.5,4.2,4.3,4.2,7.3v66.5C254.6,162,254.3,162.3,254,162.3z"/>
	<path class="st4" d="M246.2,193c-1.4,0-2.9-0.4-4.2-1.1l-123.7-71.4c-2.6-1.5-4.2-4.3-4.2-7.3c0-0.3,0.3-0.6,0.6-0.6
		s0.6,0.3,0.6,0.6c0,2.6,1.4,4.9,3.6,6.2l123.7,71.4c2.3,1.3,4.9,1.3,7.2,0c2.3-1.3,3.6-3.6,3.6-6.2v-13c0-0.3,0.3-0.6,0.6-0.6
		s0.6,0.3,0.6,0.6v13c0,3-1.6,5.8-4.2,7.3C249.1,192.6,247.6,193,246.2,193z"/>
	<path class="st4" d="M247.4,165.5c-0.3,0-0.6-0.3-0.6-0.6l-0.3-69.3L122.6,24.2l0,3.2c0,0.3-0.3,0.6-0.6,0.6c0,0,0,0,0,0
		c-0.3,0-0.6-0.3-0.6-0.6l0-4.2c0-0.2,0.1-0.4,0.3-0.5c0.2-0.1,0.4-0.1,0.6,0l125.1,72.2c0.2,0.1,0.3,0.3,0.3,0.5l0.3,69.6
		C248,165.3,247.8,165.5,247.4,165.5C247.4,165.5,247.4,165.5,247.4,165.5z"/>
	<path class="st4" d="M247.5,186.4c-0.1,0-0.2,0-0.3-0.1l-125.1-72.2c-0.3-0.2-0.4-0.5-0.2-0.8c0.2-0.3,0.5-0.4,0.8-0.2l124.2,71.6
		l0-8.8c0-0.3,0.3-0.6,0.6-0.6c0,0,0,0,0,0c0.3,0,0.6,0.3,0.6,0.6l0,9.9c0,0.2-0.1,0.4-0.3,0.5C247.7,186.4,247.6,186.4,247.5,186.4
		z"/>
	<path class="st4" d="M245.4,197.2C245.4,197.2,245.4,197.2,245.4,197.2c-0.2-3.2-2-6-4.7-7.6l-121-69.9c-0.3-0.2-0.7-0.1-0.8,0.2
		c-0.2,0.3-0.1,0.7,0.2,0.8l121,69.9c2.6,1.5,4.2,4.2,4.2,7.2c0,3-1.6,5.7-4.2,7.2L169.2,246c-2.6,1.5-5.8,1.5-8.3,0l-121-69.9
		c-2.6-1.5-4.2-4.2-4.2-7.2s1.6-5.7,4.2-7.2l49.3-28.5c0.3-0.2,0.4-0.5,0.2-0.8c-0.2-0.3-0.5-0.4-0.8-0.2l-49.3,28.5
		c-2,1.2-3.5,3-4.2,5c0,0,0,0,0,0c-2.8,7,0.1,12.5,4.2,14.9l121,69.9c1.5,0.8,3.1,1.3,4.8,1.3c1.6,0,3.3-0.4,4.8-1.3l70.9-40.9
		C244.8,207.2,246.5,201.1,245.4,197.2z M240,208.6l-70.9,40.9c-2.6,1.5-5.8,1.5-8.3,0l-121-69.9c-2.2-1.3-4.3-3.7-4.7-7.2
		c0.8,1.9,2.2,3.6,4.1,4.7l121,69.9c1.5,0.8,3.1,1.3,4.8,1.3c1.6,0,3.3-0.4,4.8-1.3l70.9-40.9c1.5-0.9,2.7-2.1,3.5-3.5
		C243.5,205,242.1,207.4,240,208.6z"/>
	<g>
		<path class="st4" d="M100.8,150c-0.4,0-0.8-0.1-1.2-0.3l-7-4c-0.4-0.2-0.6-0.6-0.6-1c0-0.5,0.3-0.9,0.8-1.2
			c0.3-0.2,0.7-0.1,0.8,0.2c0.2,0.3,0.1,0.7-0.2,0.8c-0.2,0.1-0.2,0.2-0.2,0.2l7,4c0.3,0.2,1,0.2,1.4-0.1c0.3-0.2,0.7-0.1,0.8,0.2
			c0.2,0.3,0.1,0.7-0.2,0.8C101.8,149.9,101.3,150,100.8,150z"/>
		<path class="st4" d="M112.3,156.6c-0.4,0-0.9-0.1-1.2-0.3l-7-4c-0.4-0.2-0.6-0.6-0.6-1c0-0.5,0.3-0.9,0.8-1.2
			c0.3-0.2,0.7-0.1,0.8,0.2c0.2,0.3,0.1,0.7-0.2,0.8c-0.2,0.1-0.2,0.2-0.2,0.2l7,4c0.3,0.2,1,0.2,1.4-0.1c0.3-0.2,0.7-0.1,0.8,0.2
			c0.2,0.3,0.1,0.7-0.2,0.8C113.3,156.5,112.8,156.6,112.3,156.6z"/>
		<path class="st4" d="M123.8,163.3c-0.4,0-0.9-0.1-1.2-0.3l-7-4c-0.4-0.2-0.6-0.6-0.6-1c0-0.5,0.3-0.9,0.8-1.2
			c0.3-0.2,0.7-0.1,0.8,0.2c0.2,0.3,0.1,0.7-0.2,0.8c-0.2,0.1-0.2,0.2-0.2,0.2l7,4c0.3,0.2,1,0.2,1.4-0.1c0.3-0.2,0.7-0.1,0.8,0.2
			c0.2,0.3,0.1,0.7-0.2,0.8C124.8,163.1,124.3,163.3,123.8,163.3z"/>
		<path class="st4" d="M135.3,169.9c-0.4,0-0.8-0.1-1.2-0.3l-7-4c-0.4-0.2-0.6-0.6-0.6-1c0-0.5,0.3-0.9,0.8-1.2
			c0.3-0.2,0.7-0.1,0.8,0.2c0.2,0.3,0.1,0.7-0.2,0.8c-0.2,0.1-0.2,0.2-0.2,0.2l7,4c0.3,0.2,1,0.2,1.4-0.1c0.3-0.2,0.7-0.1,0.8,0.2
			c0.2,0.3,0.1,0.7-0.2,0.8C136.3,169.8,135.8,169.9,135.3,169.9z"/>
		<path class="st4" d="M146.8,176.5c-0.4,0-0.9-0.1-1.2-0.3l-7-4c-0.4-0.2-0.6-0.6-0.6-1c0-0.5,0.3-0.9,0.8-1.2
			c0.3-0.2,0.7-0.1,0.8,0.2c0.2,0.3,0.1,0.7-0.2,0.8c-0.2,0.1-0.2,0.2-0.2,0.2l7,4c0.3,0.2,1,0.2,1.4-0.1c0.3-0.2,0.7-0.1,0.8,0.2
			c0.2,0.3,0.1,0.7-0.2,0.8C147.8,176.4,147.3,176.5,146.8,176.5z"/>
		<path class="st4" d="M158.3,183.2c-0.4,0-0.8-0.1-1.2-0.3l-7-4c-0.4-0.2-0.6-0.6-0.6-1c0-0.5,0.3-0.9,0.8-1.2
			c0.3-0.2,0.7-0.1,0.8,0.2c0.2,0.3,0.1,0.7-0.2,0.8c-0.2,0.1-0.2,0.2-0.2,0.2l7,4c0.3,0.2,1,0.2,1.4-0.1c0.3-0.2,0.7-0.1,0.8,0.2
			c0.2,0.3,0.1,0.7-0.2,0.8C159.3,183,158.8,183.2,158.3,183.2z"/>
		<path class="st4" d="M169.8,189.8c-0.4,0-0.8-0.1-1.2-0.3l-7-4c-0.4-0.2-0.6-0.6-0.6-1c0-0.5,0.3-0.9,0.8-1.2
			c0.3-0.2,0.7-0.1,0.8,0.2c0.2,0.3,0.1,0.7-0.2,0.8c-0.2,0.1-0.2,0.2-0.2,0.2l7,4c0.3,0.2,1,0.2,1.4-0.1c0.3-0.2,0.7-0.1,0.8,0.2
			c0.2,0.3,0.1,0.7-0.2,0.8C170.8,189.7,170.2,189.8,169.8,189.8z"/>
		<path class="st4" d="M181.2,196.4c-0.4,0-0.9-0.1-1.2-0.3l-7-4c-0.4-0.2-0.6-0.6-0.6-1c0-0.5,0.3-0.9,0.8-1.2
			c0.3-0.2,0.7-0.1,0.8,0.2c0.2,0.3,0.1,0.7-0.2,0.8c-0.2,0.1-0.2,0.2-0.2,0.2l7,4c0.3,0.2,1,0.2,1.4-0.1c0.3-0.2,0.7-0.1,0.8,0.2
			c0.2,0.3,0.1,0.7-0.2,0.8C182.3,196.3,181.7,196.4,181.2,196.4z"/>
		<path class="st4" d="M192.7,203.1c-0.4,0-0.8-0.1-1.2-0.3l-7-4c-0.4-0.2-0.6-0.6-0.6-1c0-0.5,0.3-0.9,0.8-1.2
			c0.3-0.2,0.7-0.1,0.8,0.2c0.2,0.3,0.1,0.7-0.2,0.8c-0.2,0.1-0.2,0.2-0.2,0.2l7,4c0.3,0.2,1,0.2,1.4-0.1l9.7-5.6
			c0.3-0.2,0.7-0.1,0.8,0.2c0.2,0.3,0.1,0.7-0.2,0.8l-9.7,5.6C193.7,203,193.2,203.1,192.7,203.1z"/>
		<path class="st4" d="M204.2,209.7c-0.4,0-0.9-0.1-1.2-0.3l-7-4c-0.4-0.2-0.6-0.6-0.6-1c0-0.5,0.3-0.9,0.8-1.2l9.7-5.6
			c0.8-0.5,1.9-0.5,2.6-0.1l7,4c0.4,0.2,0.6,0.6,0.6,1c0,0.5-0.3,0.9-0.8,1.2l-9.7,5.6C205.2,209.6,204.7,209.7,204.2,209.7z
			 M207.4,198.4c-0.3,0-0.6,0.1-0.8,0.2l-9.7,5.6c-0.2,0.1-0.2,0.2-0.2,0.2l7,4l0,0c0.3,0.2,1,0.2,1.4-0.1l9.7-5.6
			c0.2-0.1,0.2-0.2,0.2-0.2l-7-4C207.8,198.5,207.6,198.4,207.4,198.4z"/>
		<path class="st4" d="M122.2,144.6c-0.4,0-0.9-0.1-1.2-0.3l-13-7.5c-0.4-0.2-0.6-0.6-0.6-1c0-0.5,0.3-0.9,0.8-1.2l9.7-5.6
			c0.8-0.5,1.9-0.5,2.6-0.1l13,7.5c0.4,0.2,0.6,0.6,0.6,1c0,0.5-0.3,0.9-0.8,1.2l-9.7,5.6C123.2,144.5,122.7,144.6,122.2,144.6z
			 M119.3,129.9c-0.3,0-0.6,0.1-0.8,0.2l-9.7,5.6c-0.2,0.1-0.2,0.2-0.2,0.2l13.1,7.5c0,0,0,0,0,0c0.3,0.2,1,0.2,1.4-0.1l9.7-5.6
			c0.2-0.1,0.2-0.2,0.2-0.2l-13.1-7.5C119.7,129.9,119.5,129.9,119.3,129.9z"/>
		<path class="st4" d="M133.7,151.3c-0.4,0-0.9-0.1-1.2-0.3l0,0l-7-4c-0.4-0.2-0.6-0.6-0.6-1c0-0.5,0.3-0.9,0.8-1.2l9.7-5.6
			c0.8-0.5,1.9-0.5,2.6-0.1l7,4c0.4,0.2,0.6,0.6,0.6,1c0,0.5-0.3,0.9-0.8,1.2l-9.7,5.6C134.7,151.1,134.2,151.3,133.7,151.3z
			 M133.1,149.9c0.3,0.2,1,0.2,1.4-0.1l9.7-5.6c0.2-0.1,0.2-0.2,0.2-0.2l-7-4c-0.3-0.2-1-0.2-1.4,0.1l-9.7,5.6
			c-0.2,0.1-0.2,0.2-0.2,0.2L133.1,149.9z"/>
		<path class="st4" d="M145.2,157.9c-0.4,0-0.8-0.1-1.2-0.3h0l-7-4c-0.4-0.2-0.6-0.6-0.6-1c0-0.5,0.3-0.9,0.8-1.2l9.7-5.6
			c0.8-0.5,1.9-0.5,2.6-0.1l7,4c0.4,0.2,0.6,0.6,0.6,1c0,0.5-0.3,0.9-0.8,1.2l-9.7,5.6C146.2,157.8,145.7,157.9,145.2,157.9z
			 M144.6,156.6c0.3,0.2,1,0.2,1.4-0.1l9.7-5.6c0.2-0.1,0.2-0.2,0.2-0.2l-7-4c-0.3-0.2-1-0.2-1.4,0.1l-9.7,5.6
			c-0.2,0.1-0.2,0.2-0.2,0.2L144.6,156.6z"/>
		<path class="st4" d="M156.7,164.5c-0.4,0-0.8-0.1-1.2-0.3l-7-4c-0.4-0.2-0.6-0.6-0.6-1c0-0.5,0.3-0.9,0.8-1.2l9.7-5.6
			c0.8-0.5,1.9-0.5,2.6-0.1l7,4c0.4,0.2,0.6,0.6,0.6,1c0,0.5-0.3,0.9-0.8,1.2l-9.7,5.6C157.7,164.4,157.2,164.5,156.7,164.5z
			 M159.8,153.3c-0.3,0-0.6,0.1-0.8,0.2l-9.7,5.6c-0.2,0.1-0.2,0.2-0.2,0.2l7,4l0,0c0.3,0.2,1,0.2,1.4-0.1l9.7-5.6
			c0.2-0.1,0.2-0.2,0.2-0.2l-7-4C160.3,153.3,160.1,153.3,159.8,153.3z"/>
		<path class="st4" d="M168.2,171.2c-0.4,0-0.8-0.1-1.2-0.3h0l-7-4c-0.4-0.2-0.6-0.6-0.6-1c0-0.5,0.3-0.9,0.8-1.2l9.7-5.6
			c0.8-0.5,1.9-0.5,2.6-0.1l7,4c0.4,0.2,0.6,0.6,0.6,1c0,0.5-0.3,0.9-0.8,1.2l-9.7,5.6C169.2,171,168.7,171.2,168.2,171.2z
			 M167.6,169.8c0.3,0.2,1,0.2,1.4-0.1l9.7-5.6c0.2-0.1,0.2-0.2,0.2-0.2l-7-4c-0.3-0.2-1-0.2-1.4,0.1l-9.7,5.6
			c-0.2,0.1-0.2,0.2-0.2,0.2L167.6,169.8z"/>
		<path class="st4" d="M179.7,177.8c-0.4,0-0.9-0.1-1.2-0.3l0,0l0,0l-7-4c-0.4-0.2-0.6-0.6-0.6-1c0-0.5,0.3-0.9,0.8-1.2l9.7-5.6
			c0.8-0.5,1.9-0.5,2.6-0.1l7,4c0.4,0.2,0.6,0.6,0.6,1c0,0.5-0.3,0.9-0.8,1.2l-9.7,5.6C180.7,177.7,180.2,177.8,179.7,177.8z
			 M182.8,166.5c-0.3,0-0.6,0.1-0.8,0.2l-9.7,5.6c-0.2,0.1-0.2,0.2-0.2,0.2l7,4l0,0c0.3,0.2,1,0.2,1.4-0.1l9.7-5.6
			c0.2-0.1,0.2-0.2,0.2-0.2l-7-4C183.3,166.6,183,166.5,182.8,166.5z"/>
		<path class="st4" d="M191.2,184.4c-0.4,0-0.8-0.1-1.2-0.3l-7-4c-0.4-0.2-0.6-0.6-0.6-1c0-0.5,0.3-0.9,0.8-1.2l9.7-5.6
			c0.8-0.5,1.9-0.5,2.6-0.1l7,4c0.4,0.2,0.6,0.6,0.6,1c0,0.5-0.3,0.9-0.8,1.2l-9.7,5.6C192.2,184.3,191.7,184.4,191.2,184.4z
			 M194.3,173.2c-0.3,0-0.6,0.1-0.8,0.2l-9.7,5.6c-0.2,0.1-0.2,0.2-0.2,0.2l7,4l0,0c0.3,0.2,1,0.2,1.4-0.1l9.7-5.6
			c0.2-0.1,0.2-0.2,0.2-0.2l-7-4C194.7,173.2,194.5,173.2,194.3,173.2z"/>
		<path class="st4" d="M219.3,200.7c-0.4,0-0.9-0.1-1.2-0.3l-12.2-7c-0.3-0.2-0.4-0.5-0.2-0.8c0.2-0.3,0.5-0.4,0.8-0.2l12.2,7
			c0.3,0.2,1,0.2,1.4-0.1l9.7-5.6c0.2-0.1,0.2-0.2,0.2-0.2l-3.8-2.1c-0.3-0.2-0.4-0.5-0.2-0.8c0.2-0.3,0.5-0.4,0.8-0.2l3.8,2.2
			c0.4,0.2,0.6,0.6,0.6,1c0,0.5-0.3,0.9-0.8,1.2l-9.7,5.6C220.4,200.6,219.8,200.7,219.3,200.7z"/>
		<path class="st4" d="M91.5,162.4c-0.4,0-0.8-0.1-1.2-0.3l0,0l-13-7.5c-0.4-0.2-0.6-0.6-0.6-1c0-0.5,0.3-0.9,0.8-1.2l9.7-5.6
			c0.8-0.5,1.9-0.5,2.6-0.1l13,7.5c0.4,0.2,0.6,0.6,0.6,1c0,0.5-0.3,0.9-0.8,1.2l-9.7,5.6C92.5,162.2,92,162.4,91.5,162.4z
			 M90.9,161c0.3,0.2,1,0.2,1.4-0.1l9.7-5.6c0.2-0.1,0.2-0.2,0.2-0.2l-13.1-7.5c-0.3-0.2-1-0.2-1.4,0.1l-9.7,5.6
			c-0.2,0.1-0.2,0.2-0.2,0.2L90.9,161z"/>
		<path class="st4" d="M103,169c-0.4,0-0.9-0.1-1.2-0.3l-7-4c-0.4-0.2-0.6-0.6-0.6-1c0-0.5,0.3-0.9,0.8-1.2l9.7-5.6
			c0.8-0.5,1.9-0.5,2.6-0.1l7,4c0.4,0.2,0.6,0.6,0.6,1c0,0.5-0.3,0.9-0.8,1.2l-9.7,5.6C104,168.9,103.5,169,103,169z M106.1,157.7
			c-0.3,0-0.6,0.1-0.8,0.2l-9.7,5.6c-0.2,0.1-0.2,0.2-0.2,0.2l7,4c0,0,0,0,0,0c0.3,0.2,1,0.2,1.4-0.1l9.7-5.6
			c0.2-0.1,0.2-0.2,0.2-0.2l-7-4C106.6,157.8,106.4,157.7,106.1,157.7z"/>
		<path class="st4" d="M114.5,175.6c-0.4,0-0.9-0.1-1.2-0.3l0,0l-7-4c-0.4-0.2-0.6-0.6-0.6-1c0-0.5,0.3-0.9,0.8-1.2l9.7-5.6
			c0.8-0.5,1.9-0.5,2.6-0.1l7,4c0.4,0.2,0.6,0.6,0.6,1c0,0.5-0.3,0.9-0.8,1.2l-9.7,5.6C115.5,175.5,115,175.6,114.5,175.6z
			 M113.9,174.3c0.3,0.2,1,0.2,1.4-0.1l9.7-5.6c0.2-0.1,0.2-0.2,0.2-0.2l-7-4c-0.3-0.2-1-0.2-1.4,0.1l-9.7,5.6
			c-0.2,0.1-0.2,0.2-0.2,0.2L113.9,174.3z"/>
		<path class="st4" d="M149.3,195.8c-0.4,0-0.8-0.1-1.2-0.3L117.8,178c-0.4-0.2-0.6-0.6-0.6-1c0-0.5,0.3-0.9,0.8-1.2l9.7-5.6
			c0.8-0.5,1.9-0.5,2.6-0.1l30.3,17.5c0.4,0.2,0.6,0.6,0.6,1c0,0.5-0.3,0.9-0.8,1.2l-9.7,5.6C150.4,195.6,149.8,195.8,149.3,195.8z
			 M129.1,171c-0.3,0-0.6,0.1-0.8,0.2l-9.7,5.6c-0.2,0.1-0.2,0.2-0.2,0.2l30.4,17.5l0,0c0.3,0.2,1,0.2,1.4-0.1l9.7-5.6
			c0.2-0.1,0.2-0.2,0.2-0.2l-30.4-17.5C129.6,171,129.3,171,129.1,171z"/>
		<path class="st4" d="M160.5,202.2c-0.4,0-0.8-0.1-1.2-0.3l-7-4c-0.4-0.2-0.6-0.6-0.6-1c0-0.5,0.3-0.9,0.8-1.2l9.7-5.6
			c0.8-0.5,1.9-0.5,2.6-0.1l7,4c0.4,0.2,0.6,0.6,0.6,1c0,0.5-0.3,0.9-0.8,1.2l-9.7,5.6C161.5,202,160.9,202.2,160.5,202.2z
			 M163.6,190.9c-0.3,0-0.6,0.1-0.8,0.2l-9.7,5.6c-0.2,0.1-0.2,0.2-0.2,0.2l7,4l0,0c0.3,0.2,1,0.2,1.4-0.1l9.7-5.6
			c0.2-0.1,0.2-0.2,0.2-0.2l-7-4C164,190.9,163.8,190.9,163.6,190.9z"/>
		<path class="st4" d="M171.9,208.8c-0.4,0-0.8-0.1-1.2-0.3c0,0,0,0,0,0l-7-4c-0.4-0.2-0.6-0.6-0.6-1c0-0.5,0.3-0.9,0.8-1.2l9.7-5.6
			c0.8-0.5,1.9-0.5,2.6-0.1l7,4c0.4,0.2,0.6,0.6,0.6,1c0,0.5-0.3,0.9-0.8,1.2l-9.7,5.6C173,208.7,172.4,208.8,171.9,208.8z
			 M171.4,207.5c0.3,0.2,1,0.2,1.4-0.1l9.7-5.6c0.2-0.1,0.2-0.2,0.2-0.2l-7-4c-0.3-0.2-1-0.2-1.4,0.1l-9.7,5.6
			c-0.2,0.1-0.2,0.2-0.2,0.2L171.4,207.5z"/>
		<path class="st4" d="M188.6,218.4c-0.4,0-0.8-0.1-1.2-0.3h0l-12.2-7c-0.4-0.2-0.6-0.6-0.6-1c0-0.5,0.3-0.9,0.8-1.2l9.7-5.6
			c0.8-0.5,1.9-0.5,2.6-0.1l12.2,7c0.4,0.2,0.6,0.6,0.6,1c0,0.5-0.3,0.9-0.8,1.2l-9.7,5.6C189.6,218.3,189.1,218.4,188.6,218.4z
			 M188.1,217.1c0.3,0.2,1,0.2,1.4-0.1l9.7-5.6c0.2-0.1,0.2-0.2,0.2-0.2l-12.2-7c-0.3-0.2-1-0.2-1.4,0.1L176,210
			c-0.2,0.1-0.2,0.2-0.2,0.2L188.1,217.1z"/>
		<path class="st4" d="M125.4,216.6c-0.4,0-0.9-0.1-1.2-0.3l-42.9-24.8c-0.4-0.2-0.6-0.6-0.6-1c0-0.5,0.3-0.9,0.8-1.2l22.8-13.2
			c0.8-0.5,1.9-0.5,2.6-0.1l42.9,24.8c0.4,0.2,0.6,0.6,0.6,1c0,0.5-0.3,0.9-0.8,1.2l-22.8,13.2C126.5,216.5,125.9,216.6,125.4,216.6
			z M105.8,177c-0.3,0-0.6,0.1-0.8,0.2l-22.8,13.2c-0.2,0.1-0.2,0.2-0.2,0.2l43,24.7c0,0,0,0,0,0c0.3,0.2,1,0.2,1.4-0.1l22.8-13.2
			c0.2-0.1,0.2-0.2,0.2-0.2l-43-24.7C106.2,177,106,177,105.8,177z"/>
	</g>
	<g>
		<polygon class="st5" points="240.8,98.6 238,100.2 112.8,28.1 115.7,26.5 		"/>
		<polygon class="st5" points="241.2,188.6 238.4,190.2 237.8,100.2 240.6,98.6 		"/>
		<polygon class="st6" points="235.4,187.9 110.3,115.7 109.8,26.6 234.9,98.8 		"/>
		<polygon class="st6" points="237.9,109.3 113,37.2 113,27.4 237.9,99.5 		"/>
		<path class="st4" d="M241.7,177.9c0-0.3-0.3-0.6-0.6-0.6c0,0,0,0,0,0c-0.3,0-0.6,0.3-0.6,0.6l0,10.6l-1.6,0.9l0-10.2
			c0-0.3-0.3-0.6-0.6-0.6c0,0,0,0,0,0c-0.3,0-0.6,0.3-0.6,0.6l0,10.2l-11.1-6.4c-0.3-0.2-0.7-0.1-0.8,0.2c-0.2,0.3-0.1,0.7,0.2,0.8
			l12,6.9c0,0,0,0,0,0c0.1,0,0.2,0.1,0.3,0.1c0,0,0,0,0,0c0,0,0,0,0,0s0,0,0,0c0.1,0,0.2,0,0.3-0.1l2.8-1.6c0.2-0.1,0.3-0.3,0.3-0.5
			L241.7,177.9z"/>
		<g>
			<path class="st4" d="M228.6,101.3c-0.1,0-0.2-0.1-0.3-0.2l-1.9-3.3c-0.1-0.2,0-0.4,0.1-0.5c0.2-0.1,0.4,0,0.5,0.1l1.9,3.3
				c0.1,0.2,0,0.4-0.1,0.5C228.7,101.2,228.6,101.3,228.6,101.3z"/>
			<path class="st4" d="M226.7,100.2c-0.1,0-0.2-0.1-0.3-0.2c-0.1-0.2,0-0.4,0.1-0.5l1.9-1.1c0.2-0.1,0.4,0,0.5,0.1
				c0.1,0.2,0,0.4-0.1,0.5l-1.9,1.1C226.8,100.2,226.8,100.2,226.7,100.2z"/>
			<path class="st4" d="M223.4,98.2c-0.1,0-0.1,0-0.2,0l-1.9-1.1c-0.1-0.1-0.2-0.2-0.2-0.3v-2.2c0-0.1,0.1-0.2,0.2-0.3
				c0.1-0.1,0.2-0.1,0.3,0l1.9,1.1c0.1,0.1,0.2,0.2,0.2,0.3v2.2c0,0.1-0.1,0.2-0.2,0.3C223.5,98.2,223.4,98.2,223.4,98.2z
				 M221.9,96.6l1.2,0.7v-1.4l-1.2-0.7V96.6z"/>
			<path class="st4" d="M218.8,95.6c-0.1,0-0.1,0-0.2,0l-1.8-1c-0.2-0.1-0.2-0.3-0.1-0.5c0.1-0.2,0.3-0.2,0.5-0.1l1.8,1
				c0.2,0.1,0.2,0.3,0.1,0.5C219,95.5,218.9,95.6,218.8,95.6z"/>
		</g>
		<path class="st4" d="M241.4,98.4C241.4,98.4,241.4,98.4,241.4,98.4c0-0.1,0-0.2-0.1-0.3c0,0,0,0,0,0c0,0,0,0,0,0
			c0-0.1-0.1-0.1-0.2-0.2c0,0,0,0,0,0L116,25.7c-0.2-0.1-0.4-0.1-0.6,0l-2.8,1.6c0,0,0,0,0,0c0,0,0,0,0,0c0,0,0,0,0,0
			c-0.1,0-0.1,0.1-0.2,0.2c0,0,0,0,0,0.1c0,0.1,0,0.1-0.1,0.2c0,0,0,0,0,0l0.4,90.5c0,0.3,0.3,0.6,0.6,0.6c0,0,0,0,0,0
			c0.3,0,0.6-0.3,0.6-0.6l-0.4-89.4l123.9,71.5l0,8.5l-11.9-6.9c-0.2-0.1-0.4,0-0.5,0.1c-0.1,0.2,0,0.4,0.1,0.5l12.3,7.1l0.3,59.2
			c0,0.3,0.3,0.6,0.6,0.6c0,0,0,0,0,0c0.3,0,0.6-0.3,0.6-0.6l-0.3-68.5l1.6-0.9l0.3,67.4c0,0.3,0.3,0.6,0.6,0.6c0,0,0,0,0,0
			c0.3,0,0.6-0.3,0.6-0.6L241.4,98.4z M114,27.8l1.6-0.9l123.9,71.5l-1.6,0.9L114,27.8z"/>
	</g>
	<g>
		<polygon class="st5" points="218.8,96.1 215.7,97.9 79.3,19.2 82.4,17.5 		"/>
		<polygon class="st5" points="219.2,194.3 216.1,196 215.5,97.8 218.6,96.1 		"/>
		<polygon class="st6" points="212.1,194.4 75.6,115.7 75,18.6 211.5,97.3 		"/>
		<polygon class="st6" points="215.7,108.2 79.4,29.6 79.4,18.9 215.7,97.5 		"/>
		<g>
			<line class="st6" x1="200.5" y1="99.4" x2="215.8" y2="108.2"/>
			<g>
				<line class="st6" x1="203.4" y1="95.1" x2="205.5" y2="98.6"/>
				<path class="st4" d="M205.5,99c-0.1,0-0.2-0.1-0.3-0.2l-2.1-3.6c-0.1-0.2,0-0.4,0.1-0.5c0.2-0.1,0.4,0,0.5,0.1l2.1,3.6
					c0.1,0.2,0,0.4-0.1,0.5C205.6,99,205.5,99,205.5,99z"/>
			</g>
			<g>
				<line class="st6" x1="205.5" y1="96.3" x2="203.4" y2="97.5"/>
				<path class="st4" d="M203.4,97.8c-0.1,0-0.2-0.1-0.3-0.2c-0.1-0.2,0-0.4,0.1-0.5l2.1-1.2c0.2-0.1,0.4,0,0.5,0.1
					c0.1,0.2,0,0.4-0.1,0.5l-2.1,1.2C203.5,97.8,203.5,97.8,203.4,97.8z"/>
			</g>
			<g>
				<polygon class="st6" points="197.8,94.2 199.8,95.4 199.8,93 197.8,91.8 				"/>
				<path class="st4" d="M199.8,95.7c-0.1,0-0.1,0-0.2,0l-2-1.2c-0.1-0.1-0.2-0.2-0.2-0.3v-2.4c0-0.1,0.1-0.2,0.2-0.3
					c0.1-0.1,0.2-0.1,0.3,0l2,1.2c0.1,0.1,0.2,0.2,0.2,0.3v2.4c0,0.1-0.1,0.2-0.2,0.3C199.9,95.7,199.9,95.7,199.8,95.7z M198.1,94
					l1.3,0.8v-1.5l-1.3-0.8V94z"/>
			</g>
			<g>
				<line class="st6" x1="194.8" y1="92.5" x2="192.8" y2="91.3"/>
				<path class="st4" d="M194.8,92.8c-0.1,0-0.1,0-0.2,0l-2-1.1c-0.2-0.1-0.2-0.3-0.1-0.5c0.1-0.2,0.3-0.2,0.5-0.1l2,1.1
					c0.2,0.1,0.2,0.3,0.1,0.5C195,92.8,194.9,92.8,194.8,92.8z"/>
			</g>
		</g>
		<path class="st4" d="M219.4,95.9C219.4,95.9,219.4,95.9,219.4,95.9c0-0.1,0-0.2-0.1-0.3c0,0,0,0,0,0c0,0,0,0,0,0
			c0-0.1-0.1-0.1-0.2-0.2c0,0,0,0,0,0L82.7,16.7c-0.2-0.1-0.4-0.1-0.6,0L79,18.5c0,0,0,0,0,0c0,0,0,0,0,0c0,0,0,0,0,0
			c-0.1,0-0.1,0.1-0.2,0.2c0,0,0,0,0,0.1c0,0.1,0,0.1-0.1,0.2c0,0,0,0,0,0l0.4,98.7c0,0.3,0.3,0.6,0.6,0.6c0,0,0,0,0,0
			c0.3,0,0.6-0.3,0.6-0.6L79.9,20l135.2,78l0,9.4l-14.5-8.4c-0.2-0.1-0.4,0-0.5,0.1c-0.1,0.2,0,0.4,0.1,0.5l14.8,8.6l0.4,87
			l-13.2-7.6c-0.3-0.2-0.7-0.1-0.8,0.2c-0.2,0.3-0.1,0.7,0.2,0.8l14.1,8.1c0,0,0,0,0,0c0.1,0,0.2,0.1,0.3,0.1c0,0,0,0,0,0
			c0,0,0,0,0,0s0,0,0,0c0.1,0,0.2,0,0.3-0.1l3.1-1.8c0.2-0.1,0.3-0.3,0.3-0.5L219.4,95.9z M80.5,19l1.9-1.1l135.2,78l-1.9,1.1
			L80.5,19z M216.7,195.3L216.3,98l1.9-1.1l0.4,97.3L216.7,195.3z"/>
	</g>
	<g>
		<polygon class="st5" points="195.3,95.9 192.2,97.7 52.2,17 55.4,15.2 		"/>
		<polygon class="st5" points="195.7,196.5 192.6,198.3 192,97.6 195.1,95.8 		"/>
		<linearGradient id="SVGID_4_" gradientUnits="userSpaceOnUse" x1="62.5126" y1="139.942" x2="175.2211" y2="74.8696">
			<stop  offset="0" style="stop-color:#72F2E0"/>
			<stop  offset="2.178049e-02" style="stop-color:#76F2DE"/>
			<stop  offset="0.337" style="stop-color:#A4F3C5"/>
			<stop  offset="0.6163" style="stop-color:#C6F3B2"/>
			<stop  offset="0.8469" style="stop-color:#DBF4A7"/>
			<stop  offset="1" style="stop-color:#E2F4A3"/>
		</linearGradient>
		<polygon class="st7" points="189.1,197.6 49.2,116.9 48.6,17.2 188.5,97.9 		"/>
		<polygon class="st6" points="192,108.4 52.2,27.8 52.2,16.9 192,97.5 		"/>
		<g>
			<path class="st4" d="M195.9,95.9c0-0.2-0.1-0.4-0.3-0.5L55.7,14.7c-0.2-0.1-0.4-0.1-0.6,0l-3.1,1.8c0,0,0,0,0,0c0,0,0,0,0,0
				c0,0,0,0,0,0c-0.1,0-0.1,0.1-0.2,0.2c0,0,0,0,0,0.1c0,0.1,0,0.1-0.1,0.2c0,0,0,0,0,0L52,118.2c0,0.2,0.1,0.4,0.3,0.5l139.9,80.7
				c0,0,0,0,0,0c0.1,0,0.2,0.1,0.3,0.1c0,0,0,0,0,0c0,0,0,0,0,0s0,0,0,0c0.1,0,0.2,0,0.3-0.1l3.1-1.8c0.2-0.1,0.3-0.3,0.3-0.5
				L195.9,95.9z M52.8,18l138.7,80l0,9.7L52.9,27.6L52.8,18z M53.2,117.8l-0.4-89.4l138.7,80.1l0.4,89.3L53.2,117.8z M193.2,197.8
				l-0.4-100.2c0-0.2-0.1-0.4-0.3-0.5L53.4,17l1.9-1.1l139.4,80.3l0.4,100.5L193.2,197.8z"/>
			<path class="st4" d="M181.6,99c-0.1,0-0.2-0.1-0.3-0.2l-2.1-3.7c-0.1-0.2,0-0.4,0.1-0.5c0.2-0.1,0.4,0,0.5,0.1l2.1,3.7
				c0.1,0.2,0,0.4-0.1,0.5C181.8,99,181.7,99,181.6,99z"/>
			<path class="st4" d="M179.5,97.8c-0.1,0-0.2-0.1-0.3-0.2c-0.1-0.2,0-0.4,0.1-0.5l2.1-1.2c0.2-0.1,0.4,0,0.5,0.1
				c0.1,0.2,0,0.4-0.1,0.5l-2.1,1.2C179.7,97.8,179.6,97.8,179.5,97.8z"/>
			<path class="st4" d="M175.8,95.7c-0.1,0-0.1,0-0.2,0l-2.1-1.2c-0.1-0.1-0.2-0.2-0.2-0.3v-2.4c0-0.1,0.1-0.2,0.2-0.3
				c0.1-0.1,0.2-0.1,0.3,0l2.1,1.2c0.1,0.1,0.2,0.2,0.2,0.3v2.4c0,0.1-0.1,0.2-0.2,0.3C176,95.7,175.9,95.7,175.8,95.7z M174.1,93.9
				l1.4,0.8v-1.6l-1.4-0.8V93.9z"/>
			<path class="st4" d="M170.7,92.7c-0.1,0-0.1,0-0.2,0l-2-1.2c-0.2-0.1-0.2-0.3-0.1-0.5c0.1-0.2,0.3-0.2,0.5-0.1l2,1.2
				c0.2,0.1,0.2,0.3,0.1,0.5C170.9,92.6,170.8,92.7,170.7,92.7z"/>
			<g>
				<polygon class="st8" points="177.5,130.7 153.4,116.8 153.4,93.6 177.5,107.5 				"/>
				<path class="st5" d="M177.5,157.1c-0.1,0-0.1,0-0.2,0l-7.1-4.1c-0.2-0.1-0.2-0.3-0.1-0.5c0.1-0.2,0.3-0.2,0.5-0.1l6.6,3.8v-21
					l-23.4-13.5v21l4,2.3c0.2,0.1,0.2,0.3,0.1,0.5c-0.1,0.2-0.3,0.2-0.5,0.1l-4.2-2.4c-0.1-0.1-0.2-0.2-0.2-0.3V121
					c0-0.1,0.1-0.2,0.2-0.3c0.1-0.1,0.2-0.1,0.3,0l24.1,13.9c0.1,0.1,0.2,0.2,0.2,0.3v21.9c0,0.1-0.1,0.2-0.2,0.3
					C177.6,157.1,177.5,157.1,177.5,157.1z"/>
				<path class="st5" d="M177.5,183c-0.1,0-0.1,0-0.2,0l-24.1-13.9c-0.1-0.1-0.2-0.2-0.2-0.3v-21.9c0-0.1,0.1-0.2,0.2-0.3
					c0.1-0.1,0.2-0.1,0.3,0l5.1,2.9c0.2,0.1,0.2,0.3,0.1,0.5c-0.1,0.2-0.3,0.2-0.5,0.1l-4.5-2.6v21l23.4,13.5v-21l-3.9-2.2
					c-0.2-0.1-0.2-0.3-0.1-0.5c0.1-0.2,0.3-0.2,0.5-0.1l4,2.3c0.1,0.1,0.2,0.2,0.2,0.3v21.9c0,0.1-0.1,0.2-0.2,0.3
					C177.6,183,177.5,183,177.5,183z"/>
				<path class="st8" d="M93.6,79.9c0,4.7-3.3,6.6-7.3,4.3c-4-2.3-7.3-8-7.3-12.6c0-4.7,3.3-6.6,7.3-4.3
					C90.4,69.6,93.6,75.2,93.6,79.9z"/>
				<path class="st5" d="M93.6,94.2c-0.1,0-0.1,0-0.2,0l-13.9-8c-0.2-0.1-0.2-0.3-0.1-0.5s0.3-0.2,0.5-0.1l13.9,8
					c0.2,0.1,0.2,0.3,0.1,0.5C93.8,94.2,93.7,94.2,93.6,94.2z"/>
				<path class="st5" d="M93.6,98.1c-0.1,0-0.1,0-0.2,0l-13.9-8c-0.2-0.1-0.2-0.3-0.1-0.5c0.1-0.2,0.3-0.2,0.5-0.1l13.9,8
					c0.2,0.1,0.2,0.3,0.1,0.5C93.8,98,93.7,98.1,93.6,98.1z"/>
				<path class="st5" d="M93.6,102c-0.1,0-0.1,0-0.2,0l-13.9-8c-0.2-0.1-0.2-0.3-0.1-0.5s0.3-0.2,0.5-0.1l13.9,8
					c0.2,0.1,0.2,0.3,0.1,0.5C93.8,101.9,93.7,102,93.6,102z"/>
				<path class="st8" d="M115.3,92.4c0,4.7-3.3,6.6-7.3,4.3c-4-2.3-7.3-8-7.3-12.6c0-4.7,3.3-6.6,7.3-4.3
					C112,82.1,115.3,87.7,115.3,92.4z"/>
				<path class="st5" d="M115.3,106.7c-0.1,0-0.1,0-0.2,0l-13.9-8c-0.2-0.1-0.2-0.3-0.1-0.5s0.3-0.2,0.5-0.1l13.9,8
					c0.2,0.1,0.2,0.3,0.1,0.5C115.5,106.7,115.4,106.7,115.3,106.7z"/>
				<path class="st5" d="M115.3,110.6c-0.1,0-0.1,0-0.2,0l-13.9-8c-0.2-0.1-0.2-0.3-0.1-0.5s0.3-0.2,0.5-0.1l13.9,8
					c0.2,0.1,0.2,0.3,0.1,0.5C115.5,110.5,115.4,110.6,115.3,110.6z"/>
				<path class="st5" d="M115.3,114.5c-0.1,0-0.1,0-0.2,0l-13.9-8c-0.2-0.1-0.2-0.3-0.1-0.5s0.3-0.2,0.5-0.1l13.9,8
					c0.2,0.1,0.2,0.3,0.1,0.5C115.5,114.4,115.4,114.5,115.3,114.5z"/>
				<path class="st8" d="M136.9,104.9c0,4.7-3.3,6.6-7.3,4.3c-4-2.3-7.3-8-7.3-12.6s3.3-6.6,7.3-4.3
					C133.7,94.6,136.9,100.2,136.9,104.9z"/>
				<path class="st5" d="M136.9,119.2c-0.1,0-0.1,0-0.2,0l-13.9-8c-0.2-0.1-0.2-0.3-0.1-0.5c0.1-0.2,0.3-0.2,0.5-0.1l13.9,8
					c0.2,0.1,0.2,0.3,0.1,0.5C137.2,119.2,137,119.2,136.9,119.2z"/>
				<path class="st5" d="M136.9,123.1c-0.1,0-0.1,0-0.2,0l-13.9-8c-0.2-0.1-0.2-0.3-0.1-0.5s0.3-0.2,0.5-0.1l13.9,8
					c0.2,0.1,0.2,0.3,0.1,0.5C137.2,123,137,123.1,136.9,123.1z"/>
				<path class="st5" d="M136.9,127c-0.1,0-0.1,0-0.2,0l-13.9-8c-0.2-0.1-0.2-0.3-0.1-0.5s0.3-0.2,0.5-0.1l13.9,8
					c0.2,0.1,0.2,0.3,0.1,0.5C137.2,126.9,137,127,136.9,127z"/>
				<path class="st5" d="M148.9,90.6L67.4,43.5c-0.1-0.1-0.2-0.1-0.3,0c-0.1,0.1-0.2,0.2-0.2,0.3V119c0,0,0,0,0,0c0,0.1,0,0.1,0,0.2
					c0,0,0,0,0,0c0,0,0.1,0.1,0.1,0.1c0,0,0,0,0,0l81.5,47.1c0.1,0,0.1,0,0.2,0c0.1,0,0.1,0,0.2,0c0,0,0,0,0,0c0,0,0,0,0,0
					c0,0,0,0,0.1,0c0,0,0,0,0,0c0-0.1,0.1-0.1,0.1-0.2V90.9C149,90.8,149,90.7,148.9,90.6z M67.5,97.8l38.9,32.9l-38.9-12V97.8z
					 M70.4,99.4l75.4,43.5l-37.7-11.6L70.4,99.4z M107.8,131.9l37.7,31.9l-75.4-43.5L107.8,131.9z M109.5,132.4l38.9,12v20.9
					L109.5,132.4z M148.3,91.1v52.4L67.5,96.9V44.4L148.3,91.1z"/>
			</g>
		</g>
		<path class="st4" d="M192.2,98.3c-0.2,0-0.4-0.1-0.5-0.3c-0.2-0.3-0.1-0.7,0.2-0.8l3.1-1.8c0.3-0.2,0.7-0.1,0.8,0.2
			c0.2,0.3,0.1,0.7-0.2,0.8l-3.1,1.8C192.4,98.3,192.3,98.3,192.2,98.3z"/>
	</g>
	<polygon class="st8" points="174.3,161.7 164.1,141.9 161.7,158.6 166,157.5 167.1,162.8 170,163.5 168.9,158.2 	"/>
	<path class="st9" d="M35.9,107.2C35.9,107.2,35.9,107.2,35.9,107.2c-0.4,0-0.8-0.3-0.8-0.8c0-1,0-2,0.1-3c0-0.4,0.4-0.7,0.8-0.7
		c0.4,0,0.7,0.4,0.7,0.8c-0.1,1-0.1,2-0.1,2.9C36.6,106.9,36.3,107.2,35.9,107.2z M36.5,100.3c0,0-0.1,0-0.1,0
		c-0.4-0.1-0.7-0.4-0.6-0.9c0.2-1,0.3-2,0.6-3c0.1-0.4,0.5-0.7,0.9-0.6c0.4,0.1,0.7,0.5,0.6,0.9c-0.2,1-0.4,1.9-0.5,2.9
		C37.1,100,36.8,100.3,36.5,100.3z M38,93.4c-0.1,0-0.1,0-0.2,0c-0.4-0.1-0.6-0.5-0.5-0.9c0.3-1,0.6-1.9,0.9-2.9
		c0.1-0.4,0.6-0.6,1-0.5c0.4,0.1,0.6,0.6,0.5,1C39.3,91,39,92,38.7,92.9C38.6,93.2,38.3,93.4,38,93.4z M40.4,86.9
		c-0.1,0-0.2,0-0.3-0.1c-0.4-0.2-0.6-0.6-0.4-1c0.4-0.9,0.8-1.9,1.3-2.8c0.2-0.4,0.6-0.5,1-0.3c0.4,0.2,0.5,0.6,0.3,1
		c-0.4,0.9-0.9,1.8-1.2,2.7C41,86.7,40.7,86.9,40.4,86.9z M43.5,80.6c-0.1,0-0.3,0-0.4-0.1c-0.4-0.2-0.5-0.7-0.3-1
		c0.5-0.9,1.1-1.8,1.6-2.6c0.2-0.3,0.7-0.4,1-0.2c0.3,0.2,0.4,0.7,0.2,1c-0.5,0.8-1,1.7-1.6,2.5C44,80.5,43.8,80.6,43.5,80.6z
		 M47.5,74.8c-0.2,0-0.3-0.1-0.5-0.2c-0.3-0.3-0.4-0.7-0.1-1.1c0.9-1.1,1.6-1.8,2.2-2.3c0.3-0.2,0.8-0.2,1,0.2
		c0.2,0.3,0.2,0.8-0.2,1c-0.3,0.2-0.9,0.8-1.9,2C47.9,74.7,47.7,74.8,47.5,74.8z"/>
	<path class="st9" d="M230.8,176.5c-0.3,0-0.6-0.2-0.7-0.6c-0.1-0.4,0.1-0.8,0.5-0.9c1-0.2,1.9-0.5,2.9-0.8c0.4-0.1,0.8,0.1,0.9,0.5
		c0.1,0.4-0.1,0.8-0.5,0.9c-1,0.3-1.9,0.5-2.9,0.8C230.9,176.5,230.8,176.5,230.8,176.5z M237.5,174.6c-0.3,0-0.6-0.2-0.7-0.5
		c-0.1-0.4,0.1-0.8,0.5-0.9c1-0.3,1.9-0.6,2.8-0.9c0.4-0.1,0.8,0.1,1,0.5c0.1,0.4-0.1,0.8-0.5,1c-0.9,0.3-1.9,0.7-2.9,1
		C237.7,174.6,237.6,174.6,237.5,174.6z M244.1,172.2c-0.3,0-0.6-0.2-0.7-0.5c-0.2-0.4,0-0.8,0.4-1c0.9-0.4,1.8-0.8,2.7-1.2
		c0.4-0.2,0.8,0,1,0.4s0,0.8-0.4,1c-0.9,0.4-1.8,0.8-2.8,1.2C244.3,172.2,244.2,172.2,244.1,172.2z M250.5,169.3
		c-0.3,0-0.5-0.1-0.7-0.4c-0.2-0.4,0-0.8,0.3-1c0.9-0.5,1.8-0.9,2.6-1.4c0.4-0.2,0.8-0.1,1,0.3c0.2,0.4,0.1,0.8-0.3,1
		c-0.9,0.5-1.8,1-2.7,1.4C250.7,169.3,250.6,169.3,250.5,169.3z M256.5,165.8c-0.2,0-0.5-0.1-0.6-0.3c-0.2-0.3-0.1-0.8,0.2-1
		c0.8-0.5,1.7-1.1,2.4-1.7c0.3-0.2,0.8-0.2,1,0.2c0.2,0.3,0.2,0.8-0.2,1c-0.8,0.6-1.6,1.2-2.5,1.7
		C256.8,165.8,256.7,165.8,256.5,165.8z M262.1,161.7c-0.2,0-0.4-0.1-0.6-0.3c-0.3-0.3-0.2-0.8,0.1-1.1c0.8-0.6,1.5-1.3,2.2-2
		c0.3-0.3,0.8-0.3,1.1,0c0.3,0.3,0.3,0.8,0,1.1c-0.7,0.7-1.5,1.4-2.3,2C262.5,161.6,262.3,161.7,262.1,161.7z M267.1,156.8
		c-0.2,0-0.3-0.1-0.5-0.2c-0.3-0.3-0.3-0.7-0.1-1.1c0.6-0.7,1.3-1.5,1.8-2.3c0.2-0.3,0.7-0.4,1-0.2c0.3,0.2,0.4,0.7,0.2,1
		c-0.6,0.8-1.2,1.6-1.9,2.4C267.5,156.7,267.3,156.8,267.1,156.8z M271.2,151.1c-0.1,0-0.3,0-0.4-0.1c-0.4-0.2-0.5-0.7-0.3-1
		c0.5-0.8,1-1.7,1.4-2.6c0.2-0.4,0.6-0.5,1-0.4c0.4,0.2,0.5,0.6,0.4,1c-0.4,0.9-0.9,1.8-1.4,2.7C271.7,151,271.4,151.1,271.2,151.1z
		 M274.1,144.7c-0.1,0-0.2,0-0.2,0c-0.4-0.1-0.6-0.6-0.5-0.9c0.3-0.9,0.6-1.9,0.8-2.8c0.1-0.4,0.5-0.7,0.9-0.6
		c0.4,0.1,0.7,0.5,0.6,0.9c-0.2,1-0.5,2-0.8,3C274.7,144.5,274.4,144.7,274.1,144.7z M275.5,137.9
		C275.5,137.9,275.5,137.9,275.5,137.9c-0.5,0-0.8-0.4-0.7-0.8c0.1-1,0.2-1.9,0.2-2.9c0-0.4,0.3-0.7,0.8-0.7c0,0,0,0,0,0
		c0.4,0,0.7,0.3,0.7,0.8c0,1-0.1,2.1-0.2,3.1C276.2,137.6,275.9,137.9,275.5,137.9z M275.5,130.9c-0.4,0-0.7-0.3-0.7-0.7
		c-0.1-1-0.2-1.9-0.4-2.9c-0.1-0.4,0.2-0.8,0.6-0.9c0.4-0.1,0.8,0.2,0.9,0.6c0.2,1,0.3,2,0.4,3C276.3,130.5,276,130.9,275.5,130.9
		C275.6,130.9,275.6,130.9,275.5,130.9z M274.2,124.1c-0.3,0-0.6-0.2-0.7-0.5c-0.3-0.9-0.6-1.9-0.9-2.8c-0.1-0.4,0.1-0.8,0.5-1
		c0.4-0.1,0.8,0.1,1,0.5c0.3,1,0.7,1.9,0.9,2.9c0.1,0.4-0.1,0.8-0.5,0.9C274.4,124,274.3,124.1,274.2,124.1z M271.8,117.5
		c-0.3,0-0.6-0.2-0.7-0.4c-0.4-0.9-0.8-1.8-1.3-2.7c-0.2-0.4,0-0.8,0.3-1c0.4-0.2,0.8,0,1,0.3c0.5,0.9,0.9,1.8,1.3,2.7
		c0.2,0.4,0,0.8-0.4,1C272,117.5,271.9,117.5,271.8,117.5z M268.5,111.3c-0.3,0-0.5-0.1-0.6-0.4c-0.5-0.8-1-1.7-1.6-2.5
		c-0.2-0.3-0.1-0.8,0.2-1c0.3-0.2,0.8-0.1,1,0.2c0.6,0.8,1.1,1.7,1.6,2.6c0.2,0.4,0.1,0.8-0.2,1
		C268.8,111.3,268.7,111.3,268.5,111.3z M264.6,105.5c-0.2,0-0.5-0.1-0.6-0.3c-0.6-0.8-1.2-1.6-1.8-2.3c-0.3-0.3-0.2-0.8,0.1-1.1
		c0.3-0.3,0.8-0.2,1.1,0.1c0.7,0.8,1.3,1.6,1.9,2.4c0.3,0.3,0.2,0.8-0.1,1.1C264.9,105.5,264.7,105.5,264.6,105.5z M260.1,100.2
		c-0.2,0-0.4-0.1-0.6-0.2c-0.7-0.7-1.3-1.4-2-2.2c-0.3-0.3-0.3-0.8,0-1.1c0.3-0.3,0.8-0.3,1.1,0c0.7,0.7,1.4,1.5,2.1,2.2
		c0.3,0.3,0.3,0.8,0,1.1C260.5,100.1,260.3,100.2,260.1,100.2z"/>
	<g>
		<polygon class="st6" points="171.7,164.4 161.5,144.5 159.2,161.3 163.4,160.2 164.5,165.4 167.4,166.1 166.3,160.9 		"/>
		<path class="st9" d="M167.4,166.7c0,0-0.1,0-0.1,0l-2.9-0.7c-0.2-0.1-0.4-0.2-0.4-0.5l-1-4.6l-3.7,0.9c-0.2,0-0.4,0-0.5-0.1
			c-0.1-0.1-0.2-0.3-0.2-0.5l2.4-16.7c0-0.3,0.2-0.5,0.5-0.5c0.3,0,0.5,0.1,0.6,0.3l10.2,19.9c0.1,0.2,0.1,0.5-0.1,0.7
			c-0.2,0.2-0.5,0.2-0.7,0.1l-4.2-2.7l0.8,3.8c0,0.2,0,0.4-0.2,0.6C167.7,166.7,167.6,166.7,167.4,166.7z M165,164.9l1.6,0.4
			l-0.9-4.3c-0.1-0.2,0-0.5,0.2-0.6c0.2-0.1,0.5-0.1,0.7,0l3.5,2.3l-8.3-16.2l-2,14l3.4-0.9c0.2,0,0.3,0,0.5,0.1
			c0.1,0.1,0.2,0.2,0.3,0.4L165,164.9z"/>
	</g>
	<path class="st4" d="M53.6,157l2.2-4.2l-10.6,1.5l-12,7c-2.4,1.4-3.8,3.5-4.3,5.9c0.8-0.4,1.4-1,1.7-1.6l1.3-2.4L53.6,157z"/>
	<g>
		<path class="st6" d="M91.6,81.9c0,4.7-3.3,6.6-7.3,4.3c-4-2.3-7.3-8-7.3-12.6c0-4.7,3.3-6.6,7.3-4.3
			C88.4,71.6,91.6,77.2,91.6,81.9z"/>
		<path class="st5" d="M87.6,87.5c-1.1,0-2.2-0.3-3.4-1c-4.1-2.4-7.4-8.2-7.4-12.9c0-2.4,0.8-4.2,2.3-5.1c1.5-0.9,3.4-0.7,5.5,0.5
			c4.1,2.4,7.4,8.2,7.4,12.9c0,2.4-0.8,4.2-2.3,5.1C89,87.3,88.3,87.5,87.6,87.5z M81.1,68.6c-0.6,0-1.2,0.1-1.7,0.4
			c-1.3,0.7-2,2.3-2,4.5c0,4.5,3.2,10.1,7.1,12.3c1.8,1,3.5,1.2,4.8,0.5c1.3-0.7,2-2.3,2-4.5c0-4.5-3.2-10.1-7.1-12.3
			C83.1,68.9,82,68.6,81.1,68.6z"/>
	</g>
	<g>
		<path class="st6" d="M113.3,94.4c0,4.7-3.3,6.6-7.3,4.3c-4-2.3-7.3-8-7.3-12.6c0-4.7,3.3-6.6,7.3-4.3
			C110,84.1,113.3,89.7,113.3,94.4z"/>
		<path class="st5" d="M109.2,100c-1.1,0-2.2-0.3-3.4-1c-4.1-2.4-7.4-8.2-7.4-12.9c0-2.4,0.8-4.2,2.3-5.1c1.5-0.9,3.4-0.7,5.5,0.5
			c4.1,2.4,7.4,8.2,7.4,12.9c0,2.4-0.8,4.2-2.3,5.1C110.7,99.8,110,100,109.2,100z M102.8,81.1c-0.6,0-1.2,0.1-1.7,0.4
			c-1.3,0.7-2,2.3-2,4.5c0,4.5,3.2,10.1,7.1,12.3c1.8,1.1,3.5,1.2,4.8,0.5c1.3-0.7,2-2.3,2-4.5c0-4.5-3.2-10.1-7.1-12.3
			C104.7,81.4,103.7,81.1,102.8,81.1z"/>
	</g>
	<g>
		<path class="st6" d="M134.9,106.9c0,4.7-3.3,6.6-7.3,4.3c-4-2.3-7.3-8-7.3-12.6s3.3-6.6,7.3-4.3S134.9,102.2,134.9,106.9z"/>
		<path class="st5" d="M130.9,112.5c-1.1,0-2.2-0.3-3.4-1c-4.1-2.4-7.4-8.2-7.4-12.9c0-2.4,0.8-4.2,2.3-5.1c1.5-0.9,3.4-0.7,5.5,0.5
			c4.1,2.4,7.4,8.2,7.4,12.9c0,2.4-0.8,4.2-2.3,5.1C132.3,112.3,131.6,112.5,130.9,112.5z M124.4,93.6c-0.6,0-1.2,0.1-1.7,0.4
			c-1.3,0.7-2,2.3-2,4.5c0,4.5,3.2,10.1,7.1,12.3c1.8,1.1,3.5,1.2,4.8,0.5c1.3-0.7,2-2.3,2-4.5c0-4.5-3.2-10.1-7.1-12.3
			C126.4,93.9,125.4,93.6,124.4,93.6z"/>
	</g>
	<g>
		<polygon class="st10" points="175.5,132.7 151.4,118.8 151.4,95.6 175.5,109.5 		"/>
		<path class="st5" d="M175.5,133c-0.1,0-0.1,0-0.2,0l-24.1-13.9c-0.1-0.1-0.2-0.2-0.2-0.3V95.6c0-0.1,0.1-0.2,0.2-0.3
			c0.1-0.1,0.2-0.1,0.3,0l24.1,13.9c0.1,0.1,0.2,0.2,0.2,0.3v23.2c0,0.1-0.1,0.2-0.2,0.3C175.6,133,175.5,133,175.5,133z
			 M151.8,118.6l23.4,13.5v-22.3l-23.4-13.5V118.6z"/>
	</g>
	<polygon class="st0" points="77.2,135.6 68,141.2 48.1,129.1 57.4,123.5 	"/>
	<path class="st9" d="M43.7,123.7l1-1.9l-7.3,0.6c-0.2-0.7-1-1.1-2.3-1.1c-1.3,0.1-2.7,0.6-3.6,1.3l-7.1,0.1l-1,1.9l5.8,1.6L25,134
		l-17.9-1.1l-2.2,4.2l16.1,4.5l-1.3,2.4c-0.7,1.3,0.3,2.2,2.2,2.1l0,0c1.9-0.1,3.9-1.2,4.6-2.4l1.3-2.4l21.8-6.2l2.2-4.2l-20,2.9
		l4.1-7.8L43.7,123.7z"/>
	<path class="st4" d="M57.1,131.8l-1.5-2.7c0,0,0,0,0,0c0,0,0,0,0,0c0,0,0,0,0,0c0-0.1-0.1-0.1-0.2-0.1c0,0,0,0-0.1,0
		c-0.1,0-0.2,0-0.3,0c0,0,0,0,0,0l-15.7,2.3l1.8-3.4l7.5-2.2c0.2,0,0.3-0.2,0.4-0.3l1-1.9c0.1-0.2,0.1-0.4,0-0.6l-1.5-2.7
		c0,0,0,0,0,0c0,0,0,0,0,0c0,0,0,0,0,0c0-0.1-0.1-0.1-0.2-0.1c0,0,0,0-0.1,0c-0.1,0-0.2,0-0.2,0c0,0,0,0,0,0l-6.9,0.6
		c-0.5-0.7-1.5-1.1-2.7-1c-1.3,0.1-2.7,0.6-3.8,1.4l-6.9,0.1c-0.2,0-0.4,0.1-0.5,0.3l-1,1.9c0,0,0,0,0,0.1c0,0,0,0.1,0,0.1
		c0,0,0,0.1,0,0.1c0,0.1,0,0.1,0,0.2c0,0,0,0,0,0.1c0,0,0,0,0,0c0,0,0,0,0,0l1.5,2.7c0.1,0.1,0.2,0.2,0.4,0.3l2.5,0.7l-2.5,4.8
		l-17.5-1.1c-0.2,0-0.5,0.1-0.6,0.3l-2.2,4.2c0,0,0,0,0,0.1c0,0,0,0.1,0,0.1c0,0,0,0.1,0,0.1c0,0.1,0,0.1,0,0.2c0,0,0,0,0,0.1
		c0,0,0,0,0,0c0,0,0,0,0,0l1.5,2.7c0.1,0.1,0.2,0.2,0.4,0.3l13,3.3l0,0.1c-0.3,0.5-0.3,1-0.2,1.4c0,0,0,0,0,0c0,0,0,0,0,0
		c0,0,0,0,0,0c0.5,2.6,2.1,4.2,4.3,4.2c0.1,0,0.1,0,0.2,0c2.1-0.1,4.3-1.3,5.1-2.8L33,143l21.5-6.2c0.2,0,0.3-0.2,0.4-0.3l2.2-4.2
		C57.2,132.2,57.2,132,57.1,131.8z M47.5,122.6l0.5-1l0.8,1.4l-0.8,1.4l-7.5,2.2c-0.2,0-0.3,0.2-0.4,0.3l-2.3,4.4l-1.7,0.2l3.5-6.5
		l7.5-2.2C47.3,122.8,47.4,122.7,47.5,122.6z M28.5,125.4l-0.7-1.2l3.7,1l-0.5,0.9L28.5,125.4z M10.8,132.1l17.5,1.1
		c0.2,0,0.5-0.1,0.6-0.3l4.1-7.8c0.1-0.2,0.1-0.4,0-0.5s-0.2-0.3-0.4-0.3l-5.1-1.4l0.5-1l6.7-0.1c0.1,0,0.3,0,0.4-0.1
		c0.9-0.7,2.2-1.2,3.3-1.2c0.9,0,1.6,0.2,1.7,0.6c0.1,0.3,0.3,0.5,0.6,0.4l6.2-0.5l-0.4,0.8l-7.5,2.2c-0.2,0-0.3,0.2-0.4,0.3
		l-4.1,7.8c-0.1,0.2-0.1,0.4,0,0.6c0.1,0.2,0.3,0.3,0.6,0.2l18.8-2.7l-1.5,2.9l-21.5,6.2c-0.2,0-0.3,0.2-0.4,0.3l-1.3,2.4
		c-0.6,1.1-2.4,2-4.1,2.1c-1,0.1-1.5-0.2-1.7-0.5c-0.1-0.2-0.1-0.4,0.1-0.7l1.3-2.4c0.1-0.2,0.1-0.4,0-0.5c-0.1-0.2-0.2-0.3-0.4-0.3
		l-15.4-4.3L10.8,132.1z M10.1,137.9l-0.7-1.2l14,3.9l-0.3,0.6L10.1,137.9z M32.4,141.9c-0.2,0-0.3,0.2-0.4,0.3l-1.3,2.4
		c-0.6,1.1-2.4,2-4.1,2.1c-1.1,0.1-2.1-0.5-2.7-1.6c0.3,0.1,0.6,0.1,1,0.1c0.1,0,0.2,0,0.3,0c2.1-0.1,4.3-1.3,5.1-2.8l1.1-2.2l21-6
		l0.6,1.6c0,0,0,0.1,0.1,0.1L32.4,141.9z M54.2,135.4l-0.6-1.8l1.6-3l0.8,1.4L54.2,135.4z"/>
</g>
</svg>
