<?xml version="1.0" encoding="UTF-8"?>
<svg width="21px" height="13px" viewBox="0 0 21 13" version="1.1" xmlns="http://www.w3.org/2000/svg" xmlns:xlink="http://www.w3.org/1999/xlink">
    <!-- Generator: Sketch 42 (36781) - http://www.bohemiancoding.com/sketch -->
    <title>angle-down</title>
    <desc>Created with Sketch.</desc>
    <defs></defs>
    <g id="Page-1" stroke="none" stroke-width="1" fill="none" fill-rule="evenodd">
        <g id="angle-down" transform="translate(11.000000, 6.500000) rotate(-270.000000) translate(-11.000000, -6.500000) translate(5.000000, -4.000000)" fill-rule="nonzero" fill="#FFFFFF">
            <g id="Page-1">
                <g id="Artboard">
                    <g id="angle-right">
                        <g id="Page-1">
                            <path d="M11.953125,10.9285714 C11.953125,11.1026794 11.8861614,11.2566958 11.7522321,11.390625 L2.390625,20.7522321 C2.25669576,20.8861614 2.10267944,20.953125 1.92857144,20.953125 C1.75446342,20.953125 1.6004471,20.8861614 1.46651786,20.7522321 L0.462053571,19.7477679 C0.328124331,19.6138386 0.261160715,19.4598224 0.261160715,19.2857144 C0.261160715,19.1116062 0.328124331,18.95759 0.462053571,18.8236607 L8.35714286,10.9285714 L0.462053571,3.03348215 C0.328124331,2.89955291 0.261160715,2.74553658 0.261160715,2.57142857 C0.261160715,2.39732057 0.328124331,2.24330424 0.462053571,2.109375 L1.46651786,1.10491071 C1.6004471,0.970981473 1.75446342,0.904017857 1.92857144,0.904017857 C2.10267944,0.904017857 2.25669576,0.970981473 2.390625,1.10491071 L11.7522321,10.4665179 C11.8861614,10.6004471 11.953125,10.7544634 11.953125,10.9285714 Z" id="angle-right"></path>
                        </g>
                    </g>
                </g>
            </g>
        </g>
    </g>
</svg>