<?xml version="1.0" encoding="UTF-8" standalone="no"?>
<svg width="8px" height="14px" viewBox="0 0 8 14" version="1.1" xmlns="http://www.w3.org/2000/svg" xmlns:xlink="http://www.w3.org/1999/xlink">
    <!-- Generator: Sketch 42 (36781) - http://www.bohemiancoding.com/sketch -->
    <title>angle-right</title>
    <desc>Created with Sketch.</desc>
    <defs></defs>
    <g id="Page-1" stroke="none" stroke-width="1" fill="none" fill-rule="evenodd">
        <path d="M7.96875,7.28571429 C7.96875,7.40178629 7.92410759,7.50446384 7.83482143,7.59375 L1.59375,13.8348214 C1.50446384,13.9241076 1.40178629,13.96875 1.28571429,13.96875 C1.16964228,13.96875 1.06696473,13.9241076 0.977678571,13.8348214 L0.308035714,13.1651786 C0.218749554,13.0758924 0.174107143,12.9732149 0.174107143,12.8571429 C0.174107143,12.7410708 0.218749554,12.6383933 0.308035714,12.5491071 L5.57142857,7.28571429 L0.308035714,2.02232143 C0.218749554,1.93303527 0.174107143,1.83035772 0.174107143,1.71428571 C0.174107143,1.59821371 0.218749554,1.49553616 0.308035714,1.40625 L0.977678571,0.736607143 C1.06696473,0.647320982 1.16964228,0.602678571 1.28571429,0.602678571 C1.40178629,0.602678571 1.50446384,0.647320982 1.59375,0.736607143 L7.83482143,6.97767857 C7.92410759,7.06696473 7.96875,7.16964228 7.96875,7.28571429 Z" id="angle-right" fill="#FFFFFF"></path>
    </g>
</svg>