<?xml version="1.0" encoding="UTF-8" standalone="no"?>
<svg width="40px" height="17px" viewBox="0 0 40 17" version="1.1" xmlns="http://www.w3.org/2000/svg" xmlns:xlink="http://www.w3.org/1999/xlink">
    <!-- Generator: Sketch 42 (36781) - http://www.bohemiancoding.com/sketch -->
    <title>Apps</title>
    <desc>Created with Sketch.</desc>
    <defs></defs>
    <g id="Page-1" stroke="none" stroke-width="1" fill="none" fill-rule="evenodd">
        <g id="Artboard" transform="translate(-35.000000, -57.000000)" fill="#FFFFFF">
            <path d="M46.536,70 L44.466,70 L43.584,67.426 L38.526,67.426 L37.644,70 L35.574,70 L40.272,57.184 L41.838,57.184 L46.536,70 Z M43.044,65.77 L41.1,60.082 L39.102,65.77 L43.044,65.77 Z M55.608,65.428 C55.608,66.814 55.5,68.38 54.582,69.298 C54.078,69.802 53.286,70.108 52.368,70.108 C51.396,70.108 50.64,69.856 49.974,69.064 L49.974,73.69 L48.138,73.69 L48.138,60.874 L49.938,60.874 L49.938,61.846 C50.622,61.018 51.36,60.766 52.35,60.766 C53.268,60.766 54.078,61.072 54.582,61.576 C55.5,62.494 55.608,64.042 55.608,65.428 Z M53.772,65.428 C53.772,63.808 53.538,62.404 51.882,62.404 C50.226,62.404 49.974,63.808 49.974,65.428 C49.974,67.048 50.226,68.47 51.882,68.47 C53.538,68.47 53.772,67.048 53.772,65.428 Z M65.562,65.428 C65.562,66.814 65.454,68.38 64.536,69.298 C64.032,69.802 63.24,70.108 62.322,70.108 C61.35,70.108 60.594,69.856 59.928,69.064 L59.928,73.69 L58.092,73.69 L58.092,60.874 L59.892,60.874 L59.892,61.846 C60.576,61.018 61.314,60.766 62.304,60.766 C63.222,60.766 64.032,61.072 64.536,61.576 C65.454,62.494 65.562,64.042 65.562,65.428 Z M63.726,65.428 C63.726,63.808 63.492,62.404 61.836,62.404 C60.18,62.404 59.928,63.808 59.928,65.428 C59.928,67.048 60.18,68.47 61.836,68.47 C63.492,68.47 63.726,67.048 63.726,65.428 Z M74.796,67.21 C74.796,65.59 73.788,64.78 72.078,64.636 L70.638,64.51 C69.666,64.42 69.378,64.006 69.378,63.466 C69.378,62.782 69.936,62.296 71.034,62.296 C71.898,62.296 72.708,62.476 73.284,62.962 L74.436,61.792 C73.59,61.054 72.42,60.766 71.052,60.766 C69.144,60.766 67.614,61.774 67.614,63.556 C67.614,65.158 68.604,65.932 70.314,66.076 L71.772,66.202 C72.654,66.274 72.996,66.67 72.996,67.282 C72.996,68.146 72.114,68.542 70.998,68.542 C70.098,68.542 69.108,68.344 68.37,67.588 L67.164,68.794 C68.244,69.856 69.504,70.108 70.998,70.108 C73.176,70.108 74.796,69.118 74.796,67.21 Z" id="Apps"></path>
        </g>
    </g>
</svg>