<?xml version="1.0" encoding="UTF-8" standalone="no"?>
<svg width="40px" height="17px" viewBox="0 0 40 17" version="1.1" xmlns="http://www.w3.org/2000/svg" xmlns:xlink="http://www.w3.org/1999/xlink">
    <!-- Generator: Sketch 42 (36781) - http://www.bohemiancoding.com/sketch -->
    <title>Apps</title>
    <desc>Created with Sketch.</desc>
    <defs></defs>
    <g id="Page-1" stroke="none" stroke-width="1" fill="none" fill-rule="evenodd">
        <g id="apps" fill-rule="nonzero" fill="#FFFFFF">
            <g id="Page-1">
                <g id="Artboard">
                    <path d="M11.536,13 L9.466,13 L8.584,10.426 L3.526,10.426 L2.644,13 L0.574,13 L5.272,0.184 L6.838,0.184 L11.536,13 Z M8.044,8.77 L6.1,3.082 L4.102,8.77 L8.044,8.77 Z M20.608,8.428 C20.608,9.814 20.5,11.38 19.582,12.298 C19.078,12.802 18.286,13.108 17.368,13.108 C16.396,13.108 15.64,12.856 14.974,12.064 L14.974,16.69 L13.138,16.69 L13.138,3.874 L14.938,3.874 L14.938,4.846 C15.622,4.018 16.36,3.766 17.35,3.766 C18.268,3.766 19.078,4.072 19.582,4.576 C20.5,5.494 20.608,7.042 20.608,8.428 Z M18.772,8.428 C18.772,6.808 18.538,5.404 16.882,5.404 C15.226,5.404 14.974,6.808 14.974,8.428 C14.974,10.048 15.226,11.47 16.882,11.47 C18.538,11.47 18.772,10.048 18.772,8.428 Z M30.562,8.428 C30.562,9.814 30.454,11.38 29.536,12.298 C29.032,12.802 28.24,13.108 27.322,13.108 C26.35,13.108 25.594,12.856 24.928,12.064 L24.928,16.69 L23.092,16.69 L23.092,3.874 L24.892,3.874 L24.892,4.846 C25.576,4.018 26.314,3.766 27.304,3.766 C28.222,3.766 29.032,4.072 29.536,4.576 C30.454,5.494 30.562,7.042 30.562,8.428 Z M28.726,8.428 C28.726,6.808 28.492,5.404 26.836,5.404 C25.18,5.404 24.928,6.808 24.928,8.428 C24.928,10.048 25.18,11.47 26.836,11.47 C28.492,11.47 28.726,10.048 28.726,8.428 Z M39.796,10.21 C39.796,8.59 38.788,7.78 37.078,7.636 L35.638,7.51 C34.666,7.42 34.378,7.006 34.378,6.466 C34.378,5.782 34.936,5.296 36.034,5.296 C36.898,5.296 37.708,5.476 38.284,5.962 L39.436,4.792 C38.59,4.054 37.42,3.766 36.052,3.766 C34.144,3.766 32.614,4.774 32.614,6.556 C32.614,8.158 33.604,8.932 35.314,9.076 L36.772,9.202 C37.654,9.274 37.996,9.67 37.996,10.282 C37.996,11.146 37.114,11.542 35.998,11.542 C35.098,11.542 34.108,11.344 33.37,10.588 L32.164,11.794 C33.244,12.856 34.504,13.108 35.998,13.108 C38.176,13.108 39.796,12.118 39.796,10.21 Z" id="Apps"></path>
                </g>
            </g>
        </g>
    </g>
</svg>