<?xml version="1.0" encoding="UTF-8" standalone="no"?>
<svg width="39px" height="44px" viewBox="0 0 39 44" version="1.1" xmlns="http://www.w3.org/2000/svg" xmlns:xlink="http://www.w3.org/1999/xlink">
    <!-- Generator: Sketch 42 (36781) - http://www.bohemiancoding.com/sketch -->
    <title>atom</title>
    <desc>Created with Sketch.</desc>
    <defs></defs>
    <g id="Page-1" stroke="none" stroke-width="1" fill="none" fill-rule="evenodd">
        <g id="Artboard" fill-rule="nonzero" fill="#FFFFFF">
            <g id="atom">
                <g id="Layer_1">
                    <g id="Group">
                        <path d="M34.056,36.705 C29.708,36.705 21.687,32.822 14.096,27.042 C6.019,20.892 0.362,14.154 0.018,10.276 C-0.065,9.339 0.157,8.578 0.676,8.013 C1.279,7.357 2.237,7.025 3.522,7.025 C7.87,7.025 15.891,10.908 23.482,16.689 C31.558,22.839 37.215,29.575 37.559,33.454 C37.642,34.392 37.42,35.153 36.901,35.718 C36.299,36.373 35.341,36.705 34.056,36.705 Z M3.522,8.076 C2.543,8.076 1.845,8.294 1.45,8.724 C1.138,9.062 1.009,9.554 1.065,10.183 C1.379,13.729 6.999,20.317 14.732,26.205 C22.154,31.856 29.92,35.653 34.056,35.653 C35.035,35.653 35.733,35.435 36.128,35.006 C36.439,34.667 36.568,34.177 36.513,33.547 C36.199,30.001 30.578,23.412 22.846,17.525 C15.423,11.873 7.657,8.076 3.522,8.076 Z" id="Shape"></path>
                        <path d="M18.758,43.377 L18.755,43.377 C16.687,43.377 14.801,41.078 13.444,36.869 C12.146,32.844 11.437,27.515 11.445,21.843 C11.454,16.174 12.181,10.843 13.491,6.821 C14.861,2.617 16.753,0.304 18.82,0.304 C20.891,0.306 22.778,2.628 24.134,6.836 C25.432,10.861 26.142,16.202 26.133,21.874 C26.123,27.544 25.398,32.858 24.087,36.88 C22.717,41.084 20.824,43.377 18.758,43.377 Z M18.822,1.358 C15.782,1.358 12.516,9.595 12.497,21.856 C12.488,27.419 12.992,32.645 14.256,36.568 C15.444,40.254 17.377,42.369 18.377,42.371 L18.377,42.897 L18.377,42.371 C21.377,42.371 24.871,34.135 24.892,21.873 C24.9,16.309 24.304,11.084 23.038,7.161 C21.85,3.475 20.374,1.361 18.822,1.358 Z" id="Shape"></path>
                        <path d="M3.563,36.765 C2.292,36.765 1.342,36.436 0.741,35.787 C0.219,35.225 -0.007,34.463 0.073,33.525 C0.4,29.645 6.025,22.886 14.072,16.706 C21.659,10.88 29.674,6.965 34.017,6.965 C35.288,6.965 36.237,7.294 36.837,7.942 C37.36,8.505 37.585,9.267 37.506,10.205 C37.18,14.085 31.554,20.844 23.508,27.024 C15.919,32.85 7.905,36.765 3.563,36.765 Z M34.016,8.017 C29.886,8.017 22.129,11.844 14.712,17.54 C7.008,23.458 1.419,30.067 1.121,33.613 C1.068,34.244 1.2,34.735 1.513,35.072 C1.907,35.497 2.597,35.713 3.564,35.713 C7.692,35.713 15.45,31.886 22.867,26.19 C30.57,20.273 36.159,13.664 36.458,10.117 C36.512,9.486 36.38,8.995 36.066,8.658 C35.671,8.232 34.981,8.017 34.016,8.017 Z" id="Shape"></path>
                        <circle id="Oval" cx="19.065" cy="22.029" r="3.416"></circle>
                        <circle id="Oval" cx="3.25" cy="36.26" r="2.603"></circle>
                        <circle id="Oval" cx="22.188" cy="3.474" r="2.603"></circle>
                        <circle id="Oval" cx="35.614" cy="36.062" r="2.603"></circle>
                    </g>
                </g>
            </g>
        </g>
    </g>
</svg>