<?xml version="1.0" encoding="utf-8"?>
<!-- Generator: Adobe Illustrator 16.0.4, SVG Export Plug-In . SVG Version: 6.00 Build 0)  -->
<!DOCTYPE svg PUBLIC "-//W3C//DTD SVG 1.1//EN" "http://www.w3.org/Graphics/SVG/1.1/DTD/svg11.dtd">
<svg version="1.1" id="Layer_1" xmlns="http://www.w3.org/2000/svg" xmlns:xlink="http://www.w3.org/1999/xlink" x="0px" y="0px"
	 width="65.754px" height="65.754px" viewBox="0 0 65.754 65.754" enable-background="new 0 0 65.754 65.754" xml:space="preserve">
<g>
	<g id="history">
		<path opacity="0.9" fill="#FFFFFF" enable-background="new    " d="M33.659,18.008c-5.478,0-10.33,2.975-12.833,7.513l-3.6-3.6
			v10.173h10.173l-4.382-4.382c2.035-3.912,5.948-6.573,10.643-6.573c6.417,0,11.739,5.321,11.739,11.738
			s-5.322,11.738-11.739,11.738c-5.165,0-9.39-3.287-11.112-7.826h-3.287c1.722,6.261,7.512,10.957,14.398,10.957
			c8.296,0,14.869-6.73,14.869-14.869S41.798,18.008,33.659,18.008z M31.312,25.834v7.982l7.356,4.382l1.252-2.034l-6.261-3.757
			v-6.573H31.312z"/>
	</g>
</g>
</svg>
