<?xml version="1.0" encoding="utf-8"?>
<!-- Generator: Adobe Illustrator 16.0.4, SVG Export Plug-In . SVG Version: 6.00 Build 0)  -->
<!DOCTYPE svg PUBLIC "-//W3C//DTD SVG 1.1//EN" "http://www.w3.org/Graphics/SVG/1.1/DTD/svg11.dtd">
<svg version="1.1" id="Layer_1" xmlns="http://www.w3.org/2000/svg" xmlns:xlink="http://www.w3.org/1999/xlink" x="0px" y="0px"
	 width="65.754px" height="65.754px" viewBox="0 0 65.754 65.754" enable-background="new 0 0 65.754 65.754" xml:space="preserve">
<g>
	<path fill="#FFFFFF" d="M15.992,37.257h23.447V40.5H22.716h-0.335c-0.509-1.396-1.85-2.398-3.422-2.398
		c-1.548,0-2.872,0.972-3.398,2.337c-0.647-0.187-1.121-0.782-1.121-1.491V38.81C14.439,37.952,15.134,37.257,15.992,37.257z
		 M21.548,41.38c0,1.494-1.216,2.709-2.71,2.709c-1.492,0-2.709-1.215-2.709-2.709c0-1.493,1.217-2.709,2.709-2.709
		C20.332,38.671,21.548,39.887,21.548,41.38z M20.719,41.38c0-1.036-0.844-1.881-1.881-1.881c-1.036,0-1.88,0.845-1.88,1.881
		c0,1.037,0.844,1.881,1.88,1.881C19.876,43.261,20.719,42.417,20.719,41.38z M48.93,41.38c0,1.494-1.216,2.709-2.709,2.709
		c-1.494,0-2.709-1.215-2.709-2.709c0-1.493,1.215-2.709,2.709-2.709C47.714,38.671,48.93,39.887,48.93,41.38z M48.102,41.38
		c0-1.036-0.845-1.881-1.881-1.881c-1.037,0-1.88,0.845-1.88,1.881c0,1.037,0.843,1.881,1.88,1.881
		C47.257,43.261,48.102,42.417,48.102,41.38z M52.881,33.599v6.125c0,0.286-0.232,0.518-0.519,0.518h-2.706
		c-0.573-1.261-1.842-2.14-3.315-2.14c-1.472,0-2.742,0.879-3.315,2.14h-1.826c-0.285,0-0.518-0.231-0.518-0.518V27.422
		c0-0.287,0.232-0.518,0.518-0.518h6.814c0.287,0,0.721,0.096,1.036,0.518L52.881,33.599z M50.466,32.253l-2.33-3.865
		c-0.18-0.333-0.4-0.517-1.191-0.517h-4.227c-0.285,0-0.518,0.231-0.518,0.517v3.865c0,0.287,0.232,0.518,0.518,0.518h7.229
		C50.232,32.771,50.466,32.54,50.466,32.253z M52.483,38.136c0-0.266-0.216-0.482-0.483-0.482c-0.267,0-0.482,0.217-0.482,0.482
		v0.915c0,0.268,0.216,0.483,0.482,0.483c0.268,0,0.483-0.216,0.483-0.483V38.136z M12.873,36.33h26.566V21.665H12.873V36.33z"/>
</g>
</svg>
