<?xml version="1.0" encoding="UTF-8" standalone="no"?>
<svg width="6px" height="11px" viewBox="0 0 6 11" version="1.1" xmlns="http://www.w3.org/2000/svg" xmlns:xlink="http://www.w3.org/1999/xlink">
    <!-- Generator: Sketch 42 (36781) - http://www.bohemiancoding.com/sketch -->
    <title></title>
    <desc>Created with Sketch.</desc>
    <defs></defs>
    <g id="Page-1" stroke="none" stroke-width="1" fill="none" fill-rule="evenodd">
        <g id="Artboard" fill="#000000">
            <path d="M5.9765625,5.21428571 C5.9765625,5.30133972 5.94308069,5.37834788 5.87611607,5.4453125 L1.1953125,10.1261161 C1.12834788,10.1930807 1.05133972,10.2265625 0.964285714,10.2265625 C0.877231708,10.2265625 0.800223549,10.1930807 0.733258929,10.1261161 L0.231026786,9.62388393 C0.164062165,9.55691931 0.130580357,9.47991115 0.130580357,9.39285714 C0.130580357,9.30580314 0.164062165,9.22879498 0.231026786,9.16183036 L4.17857143,5.21428571 L0.231026786,1.26674107 C0.164062165,1.19977645 0.130580357,1.12276829 0.130580357,1.03571429 C0.130580357,0.948660279 0.164062165,0.871652121 0.231026786,0.8046875 L0.733258929,0.302455357 C0.800223549,0.235490737 0.877231708,0.202008929 0.964285714,0.202008929 C1.05133972,0.202008929 1.12834788,0.235490737 1.1953125,0.302455357 L5.87611607,4.98325893 C5.94308069,5.05022355 5.9765625,5.12723171 5.9765625,5.21428571 Z" id=""></path>
        </g>
    </g>
</svg>