<?xml version="1.0" encoding="UTF-8" standalone="no"?>
<svg width="49px" height="13px" viewBox="0 0 49 13" version="1.1" xmlns="http://www.w3.org/2000/svg" xmlns:xlink="http://www.w3.org/1999/xlink">
    <!-- Generator: Sketch 42 (36781) - http://www.bohemiancoding.com/sketch -->
    <title>cPanel</title>
    <desc>Created with Sketch.</desc>
    <defs></defs>
    <g id="Page-1" stroke="none" stroke-width="1" fill="none" fill-rule="evenodd">
        <path d="M7.252,10.944 L6.132,9.872 C5.62,10.432 5.22,10.64 4.58,10.64 C3.956,10.64 3.428,10.384 3.076,9.92 C2.724,9.472 2.596,8.88 2.596,7.936 C2.596,6.992 2.724,6.416 3.076,5.968 C3.428,5.504 3.956,5.248 4.58,5.248 C5.22,5.248 5.62,5.456 6.132,6.016 L7.252,4.928 C6.484,4.112 5.7,3.792 4.58,3.792 C2.756,3.792 0.964,4.896 0.964,7.936 C0.964,10.976 2.756,12.096 4.58,12.096 C5.7,12.096 6.484,11.76 7.252,10.944 Z M17.3,4.064 C17.3,6.048 15.876,7.52 13.652,7.52 L11.06,7.52 L11.06,12 L9.332,12 L9.332,0.608 L13.652,0.608 C15.876,0.608 17.3,2.08 17.3,4.064 Z M15.572,4.064 C15.572,2.864 14.756,2.16 13.556,2.16 L11.06,2.16 L11.06,5.952 L13.556,5.952 C14.756,5.952 15.572,5.264 15.572,4.064 Z M25.012,12 L23.412,12 L23.412,11.264 C22.82,11.856 22.26,12.096 21.252,12.096 C20.244,12.096 19.572,11.856 19.076,11.36 C18.66,10.928 18.436,10.304 18.436,9.616 C18.436,8.256 19.38,7.28 21.236,7.28 L23.38,7.28 L23.38,6.704 C23.38,5.68 22.868,5.184 21.604,5.184 C20.708,5.184 20.276,5.392 19.828,5.968 L18.756,4.96 C19.524,4.064 20.324,3.792 21.668,3.792 C23.892,3.792 25.012,4.736 25.012,6.576 L25.012,12 Z M23.38,9.072 L23.38,8.416 L21.476,8.416 C20.516,8.416 20.02,8.848 20.02,9.584 C20.02,10.32 20.484,10.736 21.508,10.736 C22.132,10.736 22.596,10.688 23.028,10.272 C23.268,10.032 23.38,9.648 23.38,9.072 Z M34.1,12 L34.1,6.816 C34.1,5.904 33.908,5.136 33.284,4.528 C32.804,4.064 32.116,3.792 31.284,3.792 C30.468,3.792 29.684,4.096 29.124,4.704 L29.124,3.888 L27.524,3.888 L27.524,12 L29.156,12 L29.156,7.056 C29.156,5.808 29.924,5.248 30.836,5.248 C31.748,5.248 32.468,5.792 32.468,7.056 L32.468,12 L34.1,12 Z M43.076,8.416 L37.812,8.416 C37.812,9.808 38.548,10.688 39.876,10.688 C40.788,10.688 41.268,10.432 41.844,9.856 L42.884,10.832 C42.052,11.664 41.268,12.096 39.844,12.096 C37.812,12.096 36.196,11.024 36.196,7.936 C36.196,5.312 37.556,3.792 39.636,3.792 C41.812,3.792 43.076,5.392 43.076,7.696 L43.076,8.416 Z M41.46,7.28 C41.444,6.784 41.396,6.544 41.236,6.176 C40.98,5.568 40.404,5.152 39.636,5.152 C38.868,5.152 38.276,5.568 38.02,6.176 C37.86,6.544 37.828,6.784 37.812,7.28 L41.46,7.28 Z M48.42,12 L48.42,10.608 L47.7,10.608 C47.044,10.608 46.82,10.288 46.82,9.664 L46.82,0.608 L45.188,0.608 L45.188,9.76 C45.188,10.96 45.86,12 47.412,12 L48.42,12 Z" id="cPanel" fill="#FFFFFF"></path>
    </g>
</svg>