<?xml version="1.0" encoding="UTF-8" standalone="no"?>
<svg width="36px" height="20px" viewBox="0 0 36 20" version="1.1" xmlns="http://www.w3.org/2000/svg" xmlns:xlink="http://www.w3.org/1999/xlink">
    <!-- Generator: Sketch 42 (36781) - http://www.bohemiancoding.com/sketch -->
    <title>$$$</title>
    <desc>Created with Sketch.</desc>
    <defs></defs>
    <g id="Page-1" stroke="none" stroke-width="1" fill="none" fill-rule="evenodd">
        <g id="Artboard" transform="translate(-20.000000, -49.000000)" fill="#FFFFFF">
            <path d="M31.38,61.94 C31.38,64.32 29.64,65.82 27.06,66.06 L27.06,68.28 L25.42,68.28 L25.42,66.12 C23.52,66.04 22.12,65.52 20.86,64.24 L22.3,62.82 C23.26,63.78 24.32,64.12 25.6,64.18 L25.6,59.74 L25.08,59.68 C23.94,59.54 22.98,59.08 22.4,58.54 C21.7,57.88 21.34,56.98 21.34,55.82 C21.34,53.54 22.86,51.92 25.42,51.68 L25.42,49.88 L27.06,49.88 L27.06,51.66 C28.64,51.76 29.8,52.24 30.88,53.26 L29.5,54.62 C28.8,53.96 27.9,53.62 26.88,53.54 L26.88,57.86 L27.56,57.96 C28.88,58.16 29.62,58.48 30.22,59.02 C31,59.7 31.38,60.72 31.38,61.94 Z M25.6,57.72 L25.6,53.56 C24.2,53.7 23.44,54.58 23.44,55.74 C23.44,56.26 23.6,56.72 23.98,57.06 C24.4,57.44 24.98,57.64 25.6,57.72 Z M29.24,62 C29.24,61.38 29.06,60.86 28.68,60.52 C28.14,60.04 27.56,60 26.88,59.9 L26.88,64.14 C28.36,64 29.24,63.24 29.24,62 Z M43.54,61.94 C43.54,64.32 41.8,65.82 39.22,66.06 L39.22,68.28 L37.58,68.28 L37.58,66.12 C35.68,66.04 34.28,65.52 33.02,64.24 L34.46,62.82 C35.42,63.78 36.48,64.12 37.76,64.18 L37.76,59.74 L37.24,59.68 C36.1,59.54 35.14,59.08 34.56,58.54 C33.86,57.88 33.5,56.98 33.5,55.82 C33.5,53.54 35.02,51.92 37.58,51.68 L37.58,49.88 L39.22,49.88 L39.22,51.66 C40.8,51.76 41.96,52.24 43.04,53.26 L41.66,54.62 C40.96,53.96 40.06,53.62 39.04,53.54 L39.04,57.86 L39.72,57.96 C41.04,58.16 41.78,58.48 42.38,59.02 C43.16,59.7 43.54,60.72 43.54,61.94 Z M37.76,57.72 L37.76,53.56 C36.36,53.7 35.6,54.58 35.6,55.74 C35.6,56.26 35.76,56.72 36.14,57.06 C36.56,57.44 37.14,57.64 37.76,57.72 Z M41.4,62 C41.4,61.38 41.22,60.86 40.84,60.52 C40.3,60.04 39.72,60 39.04,59.9 L39.04,64.14 C40.52,64 41.4,63.24 41.4,62 Z M55.7,61.94 C55.7,64.32 53.96,65.82 51.38,66.06 L51.38,68.28 L49.74,68.28 L49.74,66.12 C47.84,66.04 46.44,65.52 45.18,64.24 L46.62,62.82 C47.58,63.78 48.64,64.12 49.92,64.18 L49.92,59.74 L49.4,59.68 C48.26,59.54 47.3,59.08 46.72,58.54 C46.02,57.88 45.66,56.98 45.66,55.82 C45.66,53.54 47.18,51.92 49.74,51.68 L49.74,49.88 L51.38,49.88 L51.38,51.66 C52.96,51.76 54.12,52.24 55.2,53.26 L53.82,54.62 C53.12,53.96 52.22,53.62 51.2,53.54 L51.2,57.86 L51.88,57.96 C53.2,58.16 53.94,58.48 54.54,59.02 C55.32,59.7 55.7,60.72 55.7,61.94 Z M49.92,57.72 L49.92,53.56 C48.52,53.7 47.76,54.58 47.76,55.74 C47.76,56.26 47.92,56.72 48.3,57.06 C48.72,57.44 49.3,57.64 49.92,57.72 Z M53.56,62 C53.56,61.38 53.38,60.86 53,60.52 C52.46,60.04 51.88,60 51.2,59.9 L51.2,64.14 C52.68,64 53.56,63.24 53.56,62 Z" id="$$$"></path>
        </g>
    </g>
</svg>