<?xml version="1.0" encoding="UTF-8" standalone="no"?>
<svg width="26px" height="18px" viewBox="0 0 26 18" version="1.1" xmlns="http://www.w3.org/2000/svg" xmlns:xlink="http://www.w3.org/1999/xlink">
    <!-- Generator: Sketch 42 (36781) - http://www.bohemiancoding.com/sketch -->
    <title></title>
    <desc>Created with Sketch.</desc>
    <defs></defs>
    <g id="Page-1" stroke="none" stroke-width="1" fill="none" fill-rule="evenodd">
        <g id="Results---New-Site-Test-@2x" transform="translate(-588.000000, -2657.000000)" fill="#FFFFFF">
            <path d="M604.180804,2666.04688 C604.180804,2667.5945 603.857146,2668.97284 603.209821,2670.18192 C602.562497,2671.391 601.639887,2672.33593 600.441964,2673.01674 C599.244042,2673.69755 597.871287,2674.03795 596.323661,2674.03795 C595.215024,2674.03795 594.154767,2673.82217 593.142857,2673.39062 C592.130947,2672.95908 591.26042,2672.37872 590.53125,2671.64955 C589.80208,2670.92038 589.221728,2670.04986 588.790179,2669.03795 C588.358629,2668.02604 588.142857,2666.96578 588.142857,2665.85714 C588.142857,2664.74851 588.358629,2663.68825 588.790179,2662.67634 C589.221728,2661.66443 589.80208,2660.7939 590.53125,2660.06473 C591.26042,2659.33556 592.130947,2658.75521 593.142857,2658.32366 C594.154767,2657.89211 595.215024,2657.67634 596.323661,2657.67634 C598.451648,2657.67634 600.278266,2658.39062 601.803571,2659.8192 L599.582589,2661.95089 C598.712049,2661.11011 597.625751,2660.68973 596.323661,2660.68973 C595.408478,2660.68973 594.562132,2660.92038 593.784598,2661.3817 C593.007065,2661.84301 592.391371,2662.46986 591.9375,2663.26228 C591.483629,2664.05469 591.256696,2664.91964 591.256696,2665.85714 C591.256696,2666.79465 591.483629,2667.65959 591.9375,2668.45201 C592.391371,2669.24442 593.007065,2669.87128 593.784598,2670.33259 C594.562132,2670.7939 595.408478,2671.02455 596.323661,2671.02455 C596.941223,2671.02455 597.508554,2670.93899 598.02567,2670.76786 C598.542785,2670.59673 598.968748,2670.38281 599.303571,2670.12612 C599.638395,2669.86942 599.93043,2669.57738 600.179688,2669.25 C600.428945,2668.92262 600.611235,2668.61384 600.726562,2668.32366 C600.84189,2668.03348 600.921875,2667.75819 600.966518,2667.49777 L596.323661,2667.49777 L596.323661,2664.68527 L604.046875,2664.68527 C604.136161,2665.15402 604.180804,2665.60788 604.180804,2666.04688 Z M613.857143,2664.68527 L613.857143,2667.02902 L611.524554,2667.02902 L611.524554,2669.36161 L609.180804,2669.36161 L609.180804,2667.02902 L606.848214,2667.02902 L606.848214,2664.68527 L609.180804,2664.68527 L609.180804,2662.35268 L611.524554,2662.35268 L611.524554,2664.68527 L613.857143,2664.68527 Z" id=""></path>
        </g>
    </g>
</svg>