<?xml version="1.0" encoding="utf-8"?>
<!-- Generator: Adobe Illustrator 16.0.4, SVG Export Plug-In . SVG Version: 6.00 Build 0)  -->
<!DOCTYPE svg PUBLIC "-//W3C//DTD SVG 1.1//EN" "http://www.w3.org/Graphics/SVG/1.1/DTD/svg11.dtd">
<svg version="1.1" id="Layer_1" xmlns="http://www.w3.org/2000/svg" xmlns:xlink="http://www.w3.org/1999/xlink" x="0px" y="0px"
	 width="65.754px" height="65.754px" viewBox="0 0 65.754 65.754" enable-background="new 0 0 65.754 65.754" xml:space="preserve">
<g>
	<g>
		<path fill="#FFFFFF" d="M43.812,23.094c-5.715,0-9.497,4.673-12.835,8.797c-2.851,3.522-5.542,6.85-8.822,6.85
			c-3.408,0-5.5-3.504-5.5-6.015c0-2.328,2.295-5.712,5.893-5.712c3.491,0,5.31,2.794,5.401,2.938
			c0.566,0.915,1.767,1.203,2.687,0.643c0.924-0.563,1.217-1.77,0.654-2.694c-0.12-0.195-2.995-4.805-8.742-4.805
			c-5.783,0-9.813,5.076-9.813,9.631c0,4.7,3.869,9.935,9.42,9.935c5.149,0,8.566-4.221,11.869-8.304
			c3.057-3.775,5.943-7.342,9.788-7.342c2.287,0,3.791,0.775,4.594,2.37c0.696,1.384,0.696,2.949,0.695,3.492
			c0,0.311-0.164,1.871-0.925,3.277c-0.868,1.6-2.101,2.344-3.881,2.344c-3.586,0-5.522-2.33-6.251-3.207
			c-0.19-0.229-0.327-0.393-0.51-0.549c-0.821-0.704-2.059-0.609-2.764,0.213c-0.679,0.793-0.613,1.971,0.129,2.686
			c0.035,0.039,0.078,0.094,0.129,0.154c0.95,1.145,3.842,4.623,9.266,4.623c6.593,0,8.726-6.429,8.726-9.567
			c0.001-2-0.374-3.759-1.113-5.229C50.866,25.557,48.618,23.094,43.812,23.094z"/>
	</g>
</g>
</svg>
