<?xml version="1.0" encoding="UTF-8" standalone="no"?>
<svg width="16px" height="17px" viewBox="0 0 16 17" version="1.1" xmlns="http://www.w3.org/2000/svg" xmlns:xlink="http://www.w3.org/1999/xlink">
    <!-- Generator: Sketch 42 (36781) - http://www.bohemiancoding.com/sketch -->
    <title></title>
    <desc>Created with Sketch.</desc>
    <defs></defs>
    <g id="Page-1" stroke="none" stroke-width="1" fill="none" fill-rule="evenodd">
        <g id="info" fill="#000000">
            <g id="Page-1">
                <g id="Artboard">
                    <path d="M10.2857143,13.3928571 L10.2857143,11.7857143 C10.2857143,11.6919638 10.2555807,11.6149557 10.1953125,11.5546875 C10.1350443,11.4944193 10.0580362,11.4642857 9.96428571,11.4642857 L9,11.4642857 L9,6.32142857 C9,6.2276781 8.96986637,6.15066994 8.90959821,6.09040179 C8.84933006,6.03013363 8.7723219,6 8.67857143,6 L5.46428571,6 C5.37053525,6 5.29352709,6.03013363 5.23325893,6.09040179 C5.17299077,6.15066994 5.14285714,6.2276781 5.14285714,6.32142857 L5.14285714,7.92857143 C5.14285714,8.0223219 5.17299077,8.09933006 5.23325893,8.15959821 C5.29352709,8.21986637 5.37053525,8.25 5.46428571,8.25 L6.42857143,8.25 L6.42857143,11.4642857 L5.46428571,11.4642857 C5.37053525,11.4642857 5.29352709,11.4944193 5.23325893,11.5546875 C5.17299077,11.6149557 5.14285714,11.6919638 5.14285714,11.7857143 L5.14285714,13.3928571 C5.14285714,13.4866076 5.17299077,13.5636158 5.23325893,13.6238839 C5.29352709,13.6841521 5.37053525,13.7142857 5.46428571,13.7142857 L9.96428571,13.7142857 C10.0580362,13.7142857 10.1350443,13.6841521 10.1953125,13.6238839 C10.2555807,13.5636158 10.2857143,13.4866076 10.2857143,13.3928571 Z M9,4.39285714 L9,2.78571429 C9,2.69196382 8.96986637,2.61495566 8.90959821,2.5546875 C8.84933006,2.49441934 8.7723219,2.46428571 8.67857143,2.46428571 L6.75,2.46428571 C6.65624953,2.46428571 6.57924137,2.49441934 6.51897321,2.5546875 C6.45870506,2.61495566 6.42857143,2.69196382 6.42857143,2.78571429 L6.42857143,4.39285714 C6.42857143,4.48660761 6.45870506,4.56361577 6.51897321,4.62388393 C6.57924137,4.68415209 6.65624953,4.71428571 6.75,4.71428571 L8.67857143,4.71428571 C8.7723219,4.71428571 8.84933006,4.68415209 8.90959821,4.62388393 C8.96986637,4.56361577 9,4.48660761 9,4.39285714 Z M15.4285714,8.57142857 C15.4285714,9.97098914 15.0837088,11.2617128 14.3939732,12.4436384 C13.7042376,13.6255639 12.7684211,14.5613805 11.5864955,15.2511161 C10.40457,15.9408517 9.11384628,16.2857143 7.71428571,16.2857143 C6.31472515,16.2857143 5.02400145,15.9408517 3.84207589,15.2511161 C2.66015034,14.5613805 1.72433381,13.6255639 1.03459821,12.4436384 C0.344862623,11.2617128 0,9.97098914 0,8.57142857 C0,7.171868 0.344862623,5.8811443 1.03459821,4.69921875 C1.72433381,3.5172932 2.66015034,2.58147666 3.84207589,1.89174107 C5.02400145,1.20200548 6.31472515,0.857142857 7.71428571,0.857142857 C9.11384628,0.857142857 10.40457,1.20200548 11.5864955,1.89174107 C12.7684211,2.58147666 13.7042376,3.5172932 14.3939732,4.69921875 C15.0837088,5.8811443 15.4285714,7.171868 15.4285714,8.57142857 Z" id=""></path>
                </g>
            </g>
        </g>
    </g>
</svg>