<?xml version="1.0" encoding="utf-8"?>
<!-- Generator: Adobe Illustrator 16.0.4, SVG Export Plug-In . SVG Version: 6.00 Build 0)  -->
<!DOCTYPE svg PUBLIC "-//W3C//DTD SVG 1.1//EN" "http://www.w3.org/Graphics/SVG/1.1/DTD/svg11.dtd">
<svg version="1.1" id="Layer_1" xmlns="http://www.w3.org/2000/svg" xmlns:xlink="http://www.w3.org/1999/xlink" x="0px" y="0px"
	 width="65.754px" height="65.754px" viewBox="0 0 65.754 65.754" enable-background="new 0 0 65.754 65.754" xml:space="preserve">
<g>
	<g>
		<path fill="#FFFFFF" d="M47.602,17.809H18.153c-1.124,0-2.042,0.919-2.042,2.04v21.173c0,1.119,0.918,2.04,2.042,2.04h29.448
			c1.123,0,2.041-0.921,2.041-2.04V19.849C49.643,18.728,48.725,17.809,47.602,17.809z M47.088,39.521H18.666V20.67h28.422V39.521z"
			/>
		<polygon fill="#FFFFFF" points="29.099,44.03 25.245,47.945 40.563,47.945 36.711,44.03 		"/>
		<path fill="#FFFFFF" d="M23.005,35.74c0.753,0,1.365-0.61,1.365-1.363c0-0.137-0.04-0.261-0.077-0.386
			c1.746-1.407,4.829-3.888,6.234-4.972c0.222,0.157,0.479,0.27,0.771,0.27c0.243,0,0.459-0.081,0.656-0.192
			c0.903,0.769,2.44,2.075,3.531,3.003c-0.015,0.079-0.046,0.15-0.046,0.233c0,0.754,0.612,1.366,1.366,1.366
			s1.368-0.612,1.368-1.366c0-0.133-0.041-0.256-0.077-0.378l3.531-3.188c0.189,0.099,0.395,0.169,0.625,0.169
			c0.754,0,1.365-0.611,1.365-1.365s-0.611-1.365-1.365-1.365s-1.365,0.611-1.365,1.366c0,0.18,0.04,0.352,0.104,0.508
			c-0.987,0.891-2.511,2.266-3.46,3.125c-0.211-0.137-0.45-0.238-0.724-0.238c-0.322,0-0.604,0.128-0.838,0.314
			c-0.901-0.768-2.36-2.008-3.398-2.89c0.055-0.147,0.094-0.3,0.094-0.467c0-0.754-0.611-1.366-1.365-1.366
			s-1.366,0.611-1.366,1.366c0,0.167,0.041,0.322,0.096,0.469l-6.269,4.876c-0.219-0.149-0.471-0.259-0.755-0.259
			c-0.754,0-1.365,0.612-1.365,1.366C21.64,35.13,22.251,35.74,23.005,35.74z"/>
	</g>
</g>
</svg>
