<?xml version="1.0" encoding="UTF-8" standalone="no"?>
<svg width="48px" height="14px" viewBox="0 0 48 14" version="1.1" xmlns="http://www.w3.org/2000/svg" xmlns:xlink="http://www.w3.org/1999/xlink">
    <!-- Generator: Sketch 42 (36781) - http://www.bohemiancoding.com/sketch -->
    <title>99.9%</title>
    <desc>Created with Sketch.</desc>
    <defs></defs>
    <g id="Page-1" stroke="none" stroke-width="1" fill="none" fill-rule="evenodd">
        <g id="Artboard" transform="translate(-9.000000, -44.000000)" fill="#FFFFFF">
            <path d="M17.115,47.91 C17.115,48.954 16.719,49.944 16.161,51.06 L13.245,57 L11.283,57 L14.037,51.492 C13.695,51.636 13.281,51.69 12.885,51.69 C11.031,51.69 9.537,50.232 9.537,47.982 C9.537,45.624 11.103,44.076 13.317,44.076 C15.531,44.076 17.115,45.534 17.115,47.91 Z M15.279,47.946 C15.279,46.578 14.469,45.714 13.317,45.714 C12.165,45.714 11.373,46.578 11.373,47.946 C11.373,49.206 12.093,50.16 13.317,50.16 C14.469,50.16 15.279,49.332 15.279,47.946 Z M26.709,47.91 C26.709,48.954 26.313,49.944 25.755,51.06 L22.839,57 L20.877,57 L23.631,51.492 C23.289,51.636 22.875,51.69 22.479,51.69 C20.625,51.69 19.131,50.232 19.131,47.982 C19.131,45.624 20.697,44.076 22.911,44.076 C25.125,44.076 26.709,45.534 26.709,47.91 Z M24.873,47.946 C24.873,46.578 24.063,45.714 22.911,45.714 C21.759,45.714 20.967,46.578 20.967,47.946 C20.967,49.206 21.687,50.16 22.911,50.16 C24.063,50.16 24.873,49.332 24.873,47.946 Z M31.317,57 L31.317,54.804 L29.121,54.804 L29.121,57 L31.317,57 Z M41.307,47.91 C41.307,48.954 40.911,49.944 40.353,51.06 L37.437,57 L35.475,57 L38.229,51.492 C37.887,51.636 37.473,51.69 37.077,51.69 C35.223,51.69 33.729,50.232 33.729,47.982 C33.729,45.624 35.295,44.076 37.509,44.076 C39.723,44.076 41.307,45.534 41.307,47.91 Z M39.471,47.946 C39.471,46.578 38.661,45.714 37.509,45.714 C36.357,45.714 35.565,46.578 35.565,47.946 C35.565,49.206 36.285,50.16 37.509,50.16 C38.661,50.16 39.471,49.332 39.471,47.946 Z M56.427,54.66 C56.427,56.208 55.311,57.126 53.907,57.126 C52.503,57.126 51.387,56.208 51.387,54.66 L51.387,52.842 C51.387,51.294 52.503,50.376 53.907,50.376 C55.311,50.376 56.427,51.294 56.427,52.842 L56.427,54.66 Z M53.637,44.184 L47.607,57 L46.131,57 L52.179,44.184 L53.637,44.184 Z M48.399,48.342 C48.399,49.89 47.283,50.79 45.879,50.79 C44.475,50.79 43.359,49.89 43.359,48.342 L43.359,46.524 C43.359,44.976 44.475,44.058 45.879,44.058 C47.283,44.058 48.399,44.976 48.399,46.524 L48.399,48.342 Z M55.041,54.606 L55.041,52.896 C55.041,52.086 54.681,51.6 53.907,51.6 C53.133,51.6 52.773,52.068 52.773,52.896 L52.773,54.606 C52.773,55.434 53.133,55.902 53.907,55.902 C54.681,55.902 55.041,55.416 55.041,54.606 Z M47.013,48.288 L47.013,46.578 C47.013,45.768 46.653,45.282 45.879,45.282 C45.105,45.282 44.745,45.75 44.745,46.578 L44.745,48.288 C44.745,49.116 45.105,49.566 45.879,49.566 C46.653,49.566 47.013,49.098 47.013,48.288 Z" id="99.9%"></path>
        </g>
    </g>
</svg>