<?xml version="1.0" encoding="utf-8"?>
<!-- Generator: Adobe Illustrator 16.0.4, SVG Export Plug-In . SVG Version: 6.00 Build 0)  -->
<!DOCTYPE svg PUBLIC "-//W3C//DTD SVG 1.1//EN" "http://www.w3.org/Graphics/SVG/1.1/DTD/svg11.dtd">
<svg version="1.1" id="Layer_1" xmlns="http://www.w3.org/2000/svg" xmlns:xlink="http://www.w3.org/1999/xlink" x="0px" y="0px"
	 width="65.754px" height="65.754px" viewBox="0 0 65.754 65.754" enable-background="new 0 0 65.754 65.754" xml:space="preserve">
<g>
	<path fill="#FFFFFF" d="M42.528,29.966h-1.45v-3.587c0-4.521-3.68-8.2-8.201-8.2s-8.2,3.679-8.2,8.2v3.587h-1.451
		c-0.469,0-0.849,0.38-0.849,0.849v15.911c0,0.469,0.38,0.848,0.849,0.848h19.303c0.468,0,0.848-0.379,0.848-0.848V30.815
		C43.377,30.347,42.997,29.966,42.528,29.966z M34.2,39.65v3.388c0,0.296-0.24,0.536-0.536,0.536H32.09
		c-0.295,0-0.536-0.24-0.536-0.536V39.65c-0.585-0.415-0.968-1.097-0.968-1.869c0-1.265,1.025-2.29,2.291-2.29
		c1.265,0,2.29,1.025,2.29,2.29C35.167,38.554,34.785,39.235,34.2,39.65z M37.162,29.966h-8.57v-3.587
		c0-2.363,1.922-4.285,4.285-4.285c2.363,0,4.285,1.922,4.285,4.285V29.966z"/>
</g>
</svg>
