<?xml version="1.0" encoding="UTF-8" standalone="no"?>
<svg width="21px" height="16px" viewBox="0 0 21 16" version="1.1" xmlns="http://www.w3.org/2000/svg" xmlns:xlink="http://www.w3.org/1999/xlink">
    <!-- Generator: Sketch 42 (36781) - http://www.bohemiancoding.com/sketch -->
    <title>583f9d32316b850d0aa3719d_1480585035_038_003_twitter_social_network_android_material</title>
    <desc>Created with Sketch.</desc>
    <defs></defs>
    <g id="Page-1" stroke="none" stroke-width="1" fill="none" fill-rule="evenodd">
        <g id="Homepage-Search-RPM-@2x" transform="translate(-689.000000, -6851.000000)" fill="#FFFFFF">
            <g id="Group-28" transform="translate(665.000000, 6850.000000)">
                <g id="583f9d32316b850d0aa3719d_1480585035_038_003_twitter_social_network_android_material" transform="translate(24.000000, 1.000000)">
                    <g id="Layer_21">
                        <circle id="Oval" cx="14" cy="4" r="4"></circle>
                        <path d="M10.6,4.8 C10.4,4.8 10,5.2 10,5.5 C10,10.2 6.2,14 1.5,14 C1.1,14 0.6,14 0.2,13.9 C5.4,17.4 12.5,16 16,10.8 C17.3,8.9 17.9,6.7 17.9,4.4 C18,3.7 13.3,4.8 10.6,4.8 Z" id="Shape"></path>
                        <path d="M10.6,4.8 C7.3,4.8 4.1,3.3 1.9,0.8 C1.6,1.4 1.4,2.1 1.4,2.8 C1.4,5 3.2,6.8 5.4,6.8 C7.5,6.8 11.3,6.8 11.5,4.8 L10.6,4.8 Z" id="Shape"></path>
                        <path d="M3.2,6 C2.5,6 1.9,5.8 1.3,5.5 C1.3,5.5 1.3,5.5 1.3,5.6 C1.3,7.8 3.1,9.6 5.3,9.6 C7.5,9.6 10.6,8 10.6,5.8 C10.6,4.3 5.4,6 3.2,6 Z" id="Shape"></path>
                        <path d="M5.7,9 C4.8,9.6 3.7,9.8 2.7,9.5 C3.2,11.2 4.7,12.4 6.5,12.4 C9,12.1 10.9,10.2 11.2,7.7 C11.2,5.8 6.8,8.3 5.7,9 Z" id="Shape"></path>
                        <path d="M15.6,1.4 C14.3,1.4 14,3.1 15.7,3.1 C17.4,3.1 18.9,2 19.5,0.4 C18.3,1 17,1.4 15.6,1.4 Z" id="Shape"></path>
                        <path d="M16.8,2.5 C15.8,2.5 14.8,2.3 13.9,1.9 C11.2,0.8 9.5,5.2 13.7,5.2 C16.3,5.2 18.7,3.9 20.1,1.7 C19,2.3 17.9,2.5 16.8,2.5 Z" id="Shape"></path>
                    </g>
                </g>
            </g>
        </g>
    </g>
</svg>