<?xml version="1.0" encoding="UTF-8"?>
<svg width="37px" height="12px" viewBox="0 0 37 12" version="1.1" xmlns="http://www.w3.org/2000/svg" xmlns:xlink="http://www.w3.org/1999/xlink">
    <!-- Generator: Sketch 44.1 (41455) - http://www.bohemiancoding.com/sketch -->
    <title>WHM</title>
    <desc>Created with Sketch.</desc>
    <defs></defs>
    <g id="Page-1" stroke="none" stroke-width="1" fill="none" fill-rule="evenodd">
        <path d="M13.76,0.608 L11.936,0.608 L9.952,8.752 L7.664,0.608 L6.272,0.608 L3.984,8.752 L2,0.608 L0.176,0.608 L3.152,12 L4.656,12 L6.96,4.016 L9.28,12 L10.784,12 L13.76,0.608 Z M23.504,12 L23.504,0.608 L21.776,0.608 L21.776,5.472 L17.152,5.472 L17.152,0.608 L15.424,0.608 L15.424,12 L17.152,12 L17.152,7.024 L21.776,7.024 L21.776,12 L23.504,12 Z M36.528,12 L36.528,0.608 L34.8,0.608 L31.536,7.696 L28.208,0.608 L26.48,0.608 L26.48,12 L28.208,12 L28.208,4.384 L30.896,9.936 L32.176,9.936 L34.8,4.384 L34.8,12 L36.528,12 Z" id="WHM" fill="#FFFFFF"></path>
    </g>
</svg>