<?xml version="1.0" encoding="utf-8"?>
<!-- Generator: Adobe Illustrator 16.0.4, SVG Export Plug-In . SVG Version: 6.00 Build 0)  -->
<!DOCTYPE svg PUBLIC "-//W3C//DTD SVG 1.1//EN" "http://www.w3.org/Graphics/SVG/1.1/DTD/svg11.dtd">
<svg version="1.1" id="Layer_1" xmlns="http://www.w3.org/2000/svg" xmlns:xlink="http://www.w3.org/1999/xlink" x="0px" y="0px"
	 width="65.754px" height="65.754px" viewBox="0 0 65.754 65.754" enable-background="new 0 0 65.754 65.754" xml:space="preserve">
<g>
	<g>
		<path fill="#FFFFFF" d="M33.192,34.449l-5.394,15.677c1.611,0.472,3.315,0.733,5.08,0.733c2.094,0,4.103-0.362,5.97-1.02
			c-0.047-0.077-0.091-0.159-0.127-0.248L33.192,34.449z"/>
		<path fill="#FFFFFF" d="M14.896,32.876c0,7.118,4.136,13.269,10.134,16.184l-8.577-23.501
			C15.456,27.794,14.896,30.27,14.896,32.876z"/>
		<path fill="#FFFFFF" d="M45.016,31.968c0-2.222-0.798-3.76-1.481-4.959c-0.911-1.481-1.767-2.734-1.767-4.216
			c0-1.653,1.253-3.191,3.02-3.191c0.08,0,0.154,0.009,0.233,0.014c-3.198-2.931-7.461-4.72-12.142-4.72
			c-6.283,0-11.81,3.223-15.024,8.104c0.422,0.013,0.818,0.022,1.157,0.022c1.881,0,4.793-0.228,4.793-0.228
			c0.97-0.059,1.083,1.366,0.115,1.48c0,0-0.974,0.113-2.058,0.171l6.547,19.477l3.935-11.801l-2.803-7.675
			c-0.969-0.058-1.885-0.172-1.885-0.172c-0.968-0.056-0.855-1.537,0.113-1.479c0,0,2.971,0.228,4.737,0.228
			c1.88,0,4.793-0.228,4.793-0.228c0.97-0.058,1.085,1.365,0.115,1.479c0,0-0.977,0.114-2.06,0.172l6.501,19.328l1.792-5.992
			C44.425,35.294,45.016,33.507,45.016,31.968z"/>
		<path fill="#FFFFFF" d="M48.656,24.249c0.075,0.572,0.121,1.188,0.121,1.849c0,1.825-0.341,3.876-1.368,6.442l-5.492,15.879
			c5.345-3.118,8.942-8.91,8.942-15.542C50.859,29.75,50.061,26.811,48.656,24.249z"/>
		<path fill="#FFFFFF" d="M32.877,10.062c-12.6,0-22.814,10.214-22.814,22.814c0,12.599,10.214,22.814,22.814,22.814
			c12.601,0,22.814-10.216,22.814-22.814C55.691,20.277,45.478,10.062,32.877,10.062z M32.878,52.875c-11.029,0-20-8.971-20-19.999
			c0-11.028,8.97-19.999,20-19.999c11.026,0,19.997,8.971,19.997,19.999C52.875,43.904,43.904,52.875,32.878,52.875z"/>
	</g>
</g>
</svg>
