<svg width="37" height="22" viewBox="0 0 37 22" xmlns="http://www.w3.org/2000/svg"><title>Fill 1 + Fill 2 + Fill 3</title><g fill="none" fill-rule="evenodd"><path d="M36.17 2.544c0-1.37-1.083-2.48-2.418-2.48H2.477C1.14.064.058 1.174.058 2.544v16.912c0 1.37 1.083 2.48 2.419 2.48h31.275c1.335 0 2.418-1.11 2.418-2.48V2.544" fill="#8CBAE2"/><path d="M.058 6.313H36.17v8.749H.058V6.313z" fill="#FFF"/><path d="M15.682 10.719c0 1.57 1.24 2.843 2.772 2.843 1.531 0 2.772-1.273 2.772-2.843s-1.24-2.844-2.772-2.844c-1.531 0-2.772 1.273-2.772 2.844" fill="#F7BB42"/></g></svg>