<svg id="Layer_1" xmlns="http://www.w3.org/2000/svg" width="280" height="280" viewBox="0 0 280 280"><style>.st0{fill:#f7f7f7}.st1{fill:url(#SVGID_1_)}.st2{fill:url(#SVGID_2_)}.st3{fill:#ff6c4e}.st4{fill:#2c39b0}.st5{fill:#fff}.st6{fill:#e2f4a3}.st7{fill:url(#SVGID_3_)}.st8{fill:url(#SVGID_4_)}.st9{opacity:.21;fill:#7a7f65}.st10{fill:url(#SVGID_5_)}.st11{fill:url(#SVGID_6_)}.st12{fill:#88f2d4}</style><path class="st0" d="M245 215.9l-97.5 58L50 213l96-55.1z"/><linearGradient id="SVGID_1_" gradientUnits="userSpaceOnUse" x1="49.352" y1="198.162" x2="234.714" y2="198.162"><stop offset="0" stop-color="#2c39b0"/><stop offset="1" stop-color="#72f2e0"/></linearGradient><path class="st1" d="M234.7 202.3l-86 49.6-99.3-57.3.1-2.4 86.8-47.8 84.1 48.6z"/><path class="st0" d="M234.7 198.7l-86 49.6-100-57.7 86.9-50.1 84.8 48.9z"/><linearGradient id="SVGID_2_" gradientUnits="userSpaceOnUse" x1="49.457" y1="192.419" x2="234.714" y2="192.419"><stop offset="0" stop-color="#2c39b0"/><stop offset="1" stop-color="#72f2e0"/></linearGradient><path class="st2" d="M234.7 196.3l-86 49.7-99-57-.2-3.3 87.1-46.9 83.8 48.2z"/><path class="st3" d="M50.1 186.5l-6.7-3.9c-7.3-4.2-8.8-10.2-3.4-13.3l79.2-45.7c5.4-3.1 15.8-2.2 23 1.9l6.7 3.9-98.8 57.1z"/><path class="st4" d="M148.6 255.2c-.1 0-.3 0-.4-.1l-99.1-57.2c-.2-.1-.4-.4-.4-.6V187c0-.4.3-.8.8-.8s.8.3.8.8v9.9l98.4 56.8 84.1-48.6 9.7-5.8-2.9-2c-.3-.2-.4-.7-.2-1s.7-.4 1-.2l3.8 2.7c.2.1.3.4.3.6 0 .3-.1.5-.4.6l-10.7 6.4-84.5 48.8c-.1-.1-.2 0-.3 0z"/><path class="st4" d="M148.6 250.2c-.1 0-.3 0-.4-.1l-99.1-57.2c-.2-.1-.4-.4-.4-.6v-6.5c0-.4.3-.8.8-.8s.8.3.8.8v6l98.4 56.8 84.1-48.6 9.7-5.8-13.1-9.2c-.3-.2-.4-.7-.2-1 .2-.3.7-.4 1-.2l14 9.9c.2.1.3.4.3.6 0 .3-.1.5-.4.6l-10.7 6.4-84.5 48.8c-.1 0-.2.1-.3.1zm-97.5-51.3c-.1 0-.3 0-.4-.1l-6.7-3.9c-1.6-.9-6.9-4.3-6.9-7.6 0-.4.3-.8.8-.8s.8.3.8.8c0 1.9 3.1 4.6 6.2 6.3l6.7 3.9c.4.2.5.7.3 1-.3.3-.5.4-.8.4z"/><path class="st4" d="M37.8 188c-.4 0-.8-.3-.8-.8v-12.4c0-.4.3-.8.8-.8s.8.3.8.8v12.4c0 .5-.3.8-.8.8z"/><path class="st5" d="M188 151.5l37.2 21.5 7.8 21.2-84.5 48.7-99.1-57.2 64.9-37.4"/><path class="st6" d="M210.5 181.1l9 5.4-74.2 42.8-83.4-48.2 86.9-50.1 73.6 42.9z"/><path class="st5" d="M61.3 168.2c1.8 1 2.2 2.5.8 3.3s-3.9.6-5.7-.5c-1.8-1-2.2-2.5-.8-3.3s3.9-.6 5.7.5zm20.5-11.9c1.8 1 2.2 2.5.8 3.3-1.3.8-3.9.6-5.7-.5-1.8-1-2.2-2.5-.8-3.3s3.9-.5 5.7.5zm20.5-11.8c1.8 1 2.2 2.5.8 3.3-1.3.8-3.9.6-5.7-.5-1.8-1-2.2-2.5-.8-3.3s3.9-.5 5.7.5z"/><path class="st4" d="M233.7 193.9l-7.8-21.1c-.1-.2-.2-.3-.3-.4l-37.2-21.5c-.4-.2-.8-.1-1 .3-.2.4-.1.8.3 1l35.8 20.7-4.7 2.7c-.1-.2-.2-.3-.3-.4l-30.6-17.7c-.4-.2-.8-.1-1 .3-.2.4-.1.8.3 1l25.4 14.7-15.5 8.9-14.1-8.1c-.4-.2-.8-.1-1 .3-.2.4-.1.8.3 1l13.3 7.7-16.5 9.5-20-11.5 9.9-5.7c.4-.2.5-.7.3-1-.2-.4-.7-.5-1-.3l-10.7 6.2-15.8-9.1c-.4-.2-.8-.1-1 .3-.2.4-.1.8.3 1l15 8.7-34.6 20-7.2-4.1c-.4-.2-.8-.1-1 .3s-.1.8.3 1l6.4 3.7-14.3 8.3-20-11.5 14.7-8.5 4.2-2.4c.4-.2.5-.7.3-1s-.7-.5-1-.3l-3.8 2.2-19.8-11.4 16.5-9.5 8.6 5c.1.1.2.1.4.1.3 0 .5-.1.6-.4.2-.4.1-.8-.3-1l-7.9-4.6 14.4-8.3c.4-.2.5-.7.3-1s-.7-.5-1-.3l-49.4 28.5c-.2.1-.4.4-.4.6s.1.5.4.6l21.3 12.3 62.2 35.9c.1.1.2.1.4.1s.3 0 .4-.1l15.8-9.1 18-10.4 44.3-25.6 1.2.7-3.7 2.1c-.4.2-.5.7-.3 1 .1.2.4.4.7.4.1 0 .3 0 .4-.1l4.5-2.6 1.2.7-5.3 3.1c-.4.2-.5.7-.3 1 .1.2.4.4.7.4.1 0 .3 0 .4-.1l6-3.5 1.2.7-83 47.9L51 185.8l63.7-36.8c.4-.2.5-.7.3-1-.2-.4-.7-.5-1-.3l-64.5 37.2-4.7-2.7c-3.9-2.3-6.2-5.2-6.2-7.8 0-1.7 1-3.1 2.9-4.2l8.5-4.9 4.5 2.6c-.2.3-.3.7-.3 1.1 0 1 .7 2 2 2.7 1.2.7 2.7 1 4 1 1 0 1.8-.2 2.5-.6.8-.4 1.2-1.1 1.2-1.9 0-1-.7-2-2-2.7-1.9-1.1-4.4-1.3-6-.7l-4.3-2.5 19-11 4.5 2.6c-.2.3-.3.7-.3 1.1 0 1 .7 2 2 2.7 1.2.7 2.7 1 4 1 1 0 1.8-.2 2.5-.6.8-.4 1.2-1.1 1.2-1.9 0-1-.7-2-2-2.7-1.9-1.1-4.4-1.3-6-.7l-4.3-2.5 19-11 4.5 2.6c-.2.3-.3.7-.3 1.1 0 1 .7 2 2 2.7 1.2.7 2.7 1 4 1 .9 0 1.8-.2 2.5-.6.8-.4 1.2-1.1 1.2-1.9 0-1-.7-2-2-2.7-1.9-1.1-4.4-1.3-6-.7l-4.3-2.5 13.7-7.9c.4-.2.5-.7.3-1-.2-.4-.7-.5-1-.3l-14.5 8.4-1.1-.6c-.4-.2-.8-.1-1 .3-.2.4-.1.8.3 1l.3.2-19 11-1.1-.6c-.4-.2-.8-.1-1 .3s-.1.8.3 1l.3.2-19 11-1.1-.6c-.4-.2-.8-.1-1 .3-.2.4-.1.8.3 1l.3.2-7.8 4.5c-2.3 1.3-3.6 3.3-3.6 5.5 0 3.2 2.5 6.5 7 9.1l6.7 3.9 97.4 56.3c.1.1.2.1.4.1s.3 0 .4-.1l84.5-48.8c-.1-.1.1-.5-.1-.8zm-169.4-7.3l14.3-8.3 19.8 11.4-14.3 8.3-19.8-11.4zm-6.6-18.7c1.1 0 2.3.3 3.3.9.9.5 1.3 1.1 1.3 1.4 0 .2-.1.4-.4.6-1.1.6-3.4.4-5-.5-.9-.5-1.3-1.1-1.3-1.4 0-.1 0-.2.1-.3l.8.4c.1.1.2.1.4.1.3 0 .5-.1.6-.4.1-.3.1-.5 0-.8 0 .1.1 0 .2 0zm20.5-11.8c1.1 0 2.3.3 3.3.9.9.5 1.3 1.1 1.3 1.4 0 .2-.1.4-.4.6-1.1.6-3.4.4-5-.5-.9-.5-1.3-1.1-1.3-1.4 0-.1 0-.2.1-.3l.8.4c.1.1.2.1.4.1.3 0 .5-.1.6-.4.1-.3.1-.5 0-.8h.2zm20.5-11.8c1.1 0 2.3.3 3.3.9.9.5 1.3 1.1 1.3 1.4 0 .2-.1.4-.4.6-1.1.6-3.4.4-5-.5-.9-.5-1.3-1.1-1.3-1.4 0-.1 0-.2.1-.3l.8.4c.1.1.2.1.4.1.3 0 .5-.1.6-.4.1-.3.1-.5 0-.8h.2zm58.7 37.8l20 11.5-16.5 9.5-20-11.5 16.5-9.5zm-18 10.4l20 11.5-16.5 9.5-20-11.5 16.5-9.5zm-32.3 18.7l14.3-8.3 20 11.5-14.3 8.3-20-11.5zm39.2 22.7l-17.8-10.3 14.3-8.3 17.8 10.3-14.3 8.3zm15.8-9.2l-17.8-10.3 16.5-9.5 17.8 10.3-16.5 9.5zm18.1-10.4L162.4 204l16.5-9.5 17.8 10.3-16.5 9.5zm18-10.4l-17.8-10.3 16.5-9.5 17.8 10.3-16.5 9.5zm18-10.4l-17.8-10.3 15.5-8.9 3.4 2-7.3 4.2c-.2.1-.4.4-.4.6s.1.5.4.6l13.2 7.6-7 4.2zm-4.2-12.4l12.7-7.3 6.9 18.7-19.6-11.4z"/><path class="st4" d="M77.8 181.4l.4-.2 3.3 1.9-.5.3-2.4-1.4-.1.6-.7-.2v-1zm19.3-8l-.2-1c0-.2-.2-.4-.4-.6-.3-.2-.6-.2-.8-.1-.2.1-.1.3.3.6l-.6.2c-.7-.4-.9-.9-.3-1.2.5-.3 1.3-.2 1.9.1.4.2.6.5.7.9l.1.6.9-.5.6.4-1.6.9-.6-.3zm37.7-21.8l.6.3-.5.3-.6-.3-1.1.6-.5-.3-1.3-1.8.7-.4 2.1 1.2.3-.2.5.3-.2.3zm-1.1 0l-1.4-.8.8 1.1.6-.3zm15.7-9.5l-1.7-1.1 1.3-.8.6.4-.9.5.6.4.1-.1c.5-.3 1.1-.3 1.8 0 .8.4.8.9.2 1.2-.3.2-.8.3-.9.3l-.5-.4c.2 0 .5-.1.7-.2s.3-.3-.1-.5c-.3-.2-.6-.1-.8 0l-.4.3zm-48.3 53.3c-.1-.1-.1-.3.2-.5.5-.3 1.1-.2 1.8.2s.8.9.3 1.2c-.6.4-1.6.2-2.6-.4-1-.6-1.3-1.2-.7-1.5.3-.2.8-.3 1-.3l.4.4c-.2 0-.5.1-.7.2-.4.1-.1.4.3.7zm.7.4c.4.2.8.3 1 .2.2-.1.1-.3-.2-.5-.3-.2-.6-.2-.8-.1-.2 0-.1.2 0 .4zm16.6-11.3l-1 .6-.6-.4 1.6-.9.5.3 2 2.1-.6.3h-.1l-1.8-2zm18.3-8.5c-.5-.3-.6-.5-.4-.7-.3.1-.7 0-1-.2-.6-.3-.6-.7-.1-1 .5-.3 1.1-.3 1.7 0 .3.2.5.4.4.6.4-.1.8 0 1.2.2.6.3.6.7 0 1.1-.5.3-1.2.3-1.8 0zm-.8-1.2c.2.1.5.2.7.1.2-.1.1-.3-.1-.4-.3-.1-.5-.2-.7-.1-.2.1-.2.3.1.4zm1.2.8c.3.2.6.2.9.1.2-.1.2-.3-.1-.5-.2-.1-.6-.2-.8 0-.3.1-.2.3 0 .4zm19-11.4c.1.1.1.3-.2.5-.5.3-1.2.2-1.8-.2-.7-.4-.8-.9-.3-1.2.6-.4 1.6-.2 2.6.4 1 .6 1.3 1.2.7 1.5-.3.2-.8.3-1 .3l-.4-.4c.2 0 .5-.1.7-.2.4-.1.2-.4-.3-.7zm-.6-.3c-.4-.2-.8-.3-1-.2-.2.1-.1.3.2.5.3.2.6.2.8.1.1-.1.1-.3 0-.4zm14.3-9.7l.4-.2 3.3 1.9-.5.3-2.4-1.4-.1.6-.7-.2v-1zm1.7-1.1c.6-.4 1.6-.2 2.6.4 1 .6 1.4 1.1.8 1.5-.6.3-1.6.1-2.6-.4-1.1-.6-1.4-1.1-.8-1.5zm2.7 1.6c.3-.2 0-.5-.6-.8-.6-.4-1.1-.5-1.5-.4-.3.2 0 .5.6.8.7.4 1.2.5 1.5.4zM120.6 207l.4-.2 3.3 1.9-.5.3-2.4-1.4-.1.6-.7-.2v-1zm1.6-.9l.4-.2 3.3 1.9-.5.3-2.4-1.4-.1.6-.7-.2v-1zm15.7-9.1l.4-.2 3.3 1.9-.5.3-2.4-1.4-.1.6-.7-.2v-1zm3.6 1.1l-.2-1c0-.2-.2-.4-.4-.6-.3-.2-.6-.2-.8-.1-.2.1-.1.3.3.6l-.6.2c-.7-.4-.9-.9-.3-1.2.5-.3 1.3-.2 1.9.1.4.2.6.5.7.9l.1.6.9-.5.6.4-1.6.9-.6-.3zm14.1-11.3l.4-.2 3.3 1.9-.5.3-2.4-1.4-.1.6-.7-.2v-1zm2.9-.1c.2-.1.2-.3 0-.4-.3-.2-.5-.1-.8 0s-.3.3-.3.4l-.7-.3c0-.1.2-.4.5-.5.6-.3 1.2-.3 1.8 0 .3.2.5.4.4.6.4-.1.8 0 1.2.2.6.3.6.7 0 1.1-.3.2-.7.3-.9.3l-.5-.4c.2 0 .5-.1.7-.2.2-.1.3-.3 0-.5s-.5-.1-.7 0l-.5.3-.6-.3.4-.3zm15.7-10.6l.4-.2 3.3 1.9-.5.3-2.4-1.4-.1.6-.7-.2v-1zm5 .2l.6.3-.5.3-.6-.3-1.1.6-.5-.3-1.3-1.8.7-.4 2.1 1.2.3-.2.5.3-.2.3zm-1.1 0l-1.4-.8.8 1.1.6-.3zm13-10l.4-.2 3.3 1.9-.5.3-2.4-1.4-.1.6-.7-.2v-1zm2.7.5l-1.7-1.1 1.3-.8.6.4-.9.5.6.4.1-.1c.5-.3 1.1-.3 1.8 0 .8.4.8.9.2 1.2-.3.2-.8.3-.9.3l-.5-.4c.2 0 .5-.1.7-.2.2-.1.3-.3-.1-.5-.3-.2-.6-.1-.8 0l-.4.3zm-51.6 53l.4-.2 3.3 1.9-.5.3-2.4-1.4-.1.6-.7-.2v-1zm2.7 0c-.1-.1-.1-.3.2-.5.5-.3 1.1-.2 1.8.2s.8.9.3 1.2c-.6.4-1.6.2-2.6-.4-1-.6-1.3-1.2-.7-1.5.3-.2.8-.3 1-.3l.4.4c-.2 0-.5.1-.7.2-.4.1-.1.4.3.7zm.7.3c.4.2.8.3 1 .2.2-.1.1-.3-.2-.5-.3-.2-.6-.2-.8-.1-.2.1-.1.3 0 .4zm14.2-10.6l.4-.2 3.3 1.9-.5.3-2.4-1.4-.1.6-.7-.2v-1zm2.4-.6l-1 .6-.6-.4 1.6-.9.5.3 2 2.1-.6.3h-.1l-1.8-2zm15.1-9.4l.4-.2 3.3 1.9-.5.3-2.5-1.5-.1.6-.7-.2.1-.9zm3.2.8c-.5-.3-.6-.5-.4-.7-.3.1-.7 0-1-.2-.6-.3-.6-.7-.1-1 .5-.3 1.1-.3 1.7 0 .3.2.5.4.4.6.4-.1.8 0 1.2.2.6.3.6.7 0 1.1-.5.4-1.2.4-1.8 0zm-.8-1.1c.2.1.5.2.7.1.2-.1.1-.3-.1-.4-.3-.1-.5-.2-.7-.1-.2.1-.2.2.1.4zm1.2.8c.3.2.6.2.9.1.2-.1.2-.3-.1-.5-.2-.1-.6-.2-.8 0-.3 0-.2.2 0 .4zm15.1-11.3l.4-.2 3.3 1.9-.5.3-2.4-1.4-.1.6-.7-.2v-1zm3.9-.1c.1.1.1.3-.2.5-.5.3-1.1.2-1.8-.2s-.8-.9-.3-1.2c.6-.4 1.6-.2 2.6.4 1 .6 1.3 1.2.7 1.5-.3.2-.8.3-1 .3l-.4-.4c.2 0 .5-.1.7-.2.4-.2.2-.4-.3-.7zm-.6-.4c-.4-.2-.8-.3-1-.2-.2.1-.1.3.2.5.3.2.6.2.8.1.1-.1.1-.3 0-.4z"/><linearGradient id="SVGID_3_" gradientUnits="userSpaceOnUse" x1="45.429" y1="70.007" x2="80.968" y2="70.007"><stop offset="0" stop-color="#72f2e0"/><stop offset="1" stop-color="#e2f4a3"/></linearGradient><path class="st7" d="M79.9 58.4c-1.5-1.8-4.2-1.9-5.9-.4L57.8 73.3 52 68.6c-1.9-1.3-4.6-.8-5.8 1.2-1.3 1.9-.8 4.6 1.2 5.8l8 6.4.2.2.1.1c.1.1.2.1.3.1.1.1.2.1.3.2.1.1.3.1.4.2.1 0 .2.1.3.1.1 0 .3.1.4.1h1.2c.1 0 .2 0 .3-.1.2 0 .3-.1.5-.1.1 0 .2-.1.3-.1.2-.1.3-.2.5-.2.1-.1.2-.1.3-.2.1-.1.2-.1.3-.2l18.8-17.6c1.7-1.6 1.9-4.3.3-6.1z"/><linearGradient id="SVGID_4_" gradientUnits="userSpaceOnUse" x1="45.429" y1="100.682" x2="80.968" y2="100.682"><stop offset="0" stop-color="#72f2e0"/><stop offset="1" stop-color="#e2f4a3"/></linearGradient><path class="st8" d="M79.9 89.1c-1.5-1.8-4.2-1.9-5.9-.4l-16.2 15.2-5.8-4.6c-1.9-1.3-4.6-.8-5.8 1.2-1.3 1.9-.8 4.6 1.2 5.8l8 6.4.2.2.1.1c.1.1.2.1.3.1.1.1.2.1.3.2.1.1.3.1.4.2.1 0 .2.1.3.1.1 0 .3.1.4.1h1.2c.1 0 .2 0 .3-.1.2 0 .3-.1.5-.1.1 0 .2-.1.3-.1.2-.1.3-.2.5-.2.1-.1.2-.1.3-.2.1-.1.2-.1.3-.2l18.8-17.6c1.7-1.7 1.9-4.3.3-6.1z"/><path class="st9" d="M142.8 197l-10.2-5.8c-1.4-.8-3.2-.8-4.6 0L108.1 203c-1.4.8-2.2 2.3-2.2 4 0 1.6.9 3.1 2.3 3.9l10.2 5.8c.7.4 1.5.6 2.3.6.8 0 1.6-.2 2.3-.6l19.9-11.8c1.4-.8 2.2-2.3 2.2-4 0-1.6-.9-3.1-2.3-3.9zm49-27.8l-10.2-5.8c-1.4-.8-3.2-.8-4.6 0l-19.9 11.8c-1.4.8-2.2 2.3-2.2 4 0 1.6.9 3.1 2.3 3.9l10.2 5.8c.7.4 1.5.6 2.3.6.8 0 1.6-.2 2.3-.6l19.9-11.8c1.4-.8 2.2-2.3 2.2-4 0-1.6-.9-3.1-2.3-3.9z"/><path class="st5" d="M122.8 149.4l-12.2 46.3 12.6-7.2 7.2 11.9 12.1-42.9-2.9-1.3-9 2.5-5.3-8.1zm59.3-29.8l11.4 28.7-12.6 7.3-7.2 20.2-10.9-26.3"/><path class="st4" d="M176.9 174.7c-.1 0-.2 0-.3-.1l-7.4-3.3c-.2-.1-.3-.2-.4-.4l-8.4-20.1c-.2-.4 0-.8.4-1 .4-.2.8 0 1 .4L170 170l7.1 3.2c.4.2.5.6.4 1 0 .4-.3.5-.6.5zm-43.4 25.1c-.1 0-.2 0-.3-.1l-7.4-3.3c-.1-.1-.3-.2-.3-.3l-3.8-6.3c-.2-.4-.1-.8.3-1 .4-.2.8-.1 1 .3l3.7 6.1 7.2 3.2c.4.2.5.6.4 1-.2.2-.5.4-.8.4zm-19.7-4.7c-.1 0-.2 0-.3-.1l-7.4-3.3c-.3-.2-.5-.5-.4-.9l11.9-43.8c.1-.4.5-.6.9-.5.4.1.6.5.5.9l-11.8 43.2 6.8 3.1c.4.2.5.6.4 1-.1.2-.3.4-.6.4zm34.5-176.7c-.2 0-.4-.1-.6-.3-.3-.3-.2-.8.1-1.1l8.5-7.5c.2-.2.5-.2.8-.1l7.6 3.2c.4.2.6.6.4 1-.2.4-.6.6-1 .4l-7.1-3-8.1 7.2c-.3.2-.5.2-.6.2z"/><path class="st4" d="M175.8 16.5c-.3 0-.5-.1-.6-.4l-2.6-4.1-8 2.2c-.4.1-.8-.1-.9-.5-.1-.4.1-.8.5-.9l8.5-2.4c.3-.1.7 0 .8.3l2.9 4.6c.2.4.1.8-.2 1-.1.2-.3.2-.4.2zm-58 131.2c-.1 0-.2 0-.3-.1l-7.4-3.3c-.2-.1-.4-.3-.4-.6l-1.8-12.6c-.1-.4.2-.8.6-.8.4-.1.8.2.8.6l1.8 12.2 7 3.2c.4.2.5.6.4 1-.2.2-.4.4-.7.4z"/><path class="st4" d="M108.4 131.7c-.3 0-.5-.1-.7-.4l-4.6-8.8c-.1-.1-.1-.3-.1-.4l1.9-14.7c.1-.4.4-.7.8-.6.4.1.7.4.6.8l-1.9 14.5 4.4 8.6c.2.4 0 .8-.3 1h-.1z"/><path class="st4" d="M105.7 108.1c-.4 0-.7-.3-.7-.6l-1.7-12.2V95l4.8-14.6c.1-.4.6-.6.9-.5.4.1.6.6.5.9l-4.8 14.4 1.7 12c.1.4-.2.8-.6.8l-.1.1z"/><path class="st4" d="M108.9 80.9c-.5-.1-.8-.4-.7-.8l1.9-14.7c0-.1 0-.2.1-.3l7.2-11.6c.2-.4.7-.5 1-.2.4.2.5.7.2 1l-7.1 11.5-1.9 14.6c0 .2-.3.5-.7.5z"/><path class="st4" d="M118 54.4h-.3c-.4-.1-.6-.6-.5-1l5.1-14.4c0-.1.1-.2.2-.3l8.5-7.6c.3-.3.8-.2 1.1.1.3.3.2.8-.1 1.1l-8.3 7.4-5.1 14.2c0 .3-.3.5-.6.5z"/><path class="st4" d="M131.9 32.5c-.1 0-.3 0-.4-.1-.3-.2-.4-.7-.2-1l7.7-11.7c.1-.2.3-.3.5-.3l8.5-2c.4-.1.8.2.9.6.1.4-.2.8-.6.9l-8.2 2-7.5 11.5c-.2 0-.4.1-.7.1z"/><linearGradient id="SVGID_5_" gradientUnits="userSpaceOnUse" x1="113.849" y1="88.982" x2="202.61" y2="88.982"><stop offset="0" stop-color="#2c39b0"/><stop offset="1" stop-color="#72f2e0"/></linearGradient><path class="st10" d="M202.6 76.8l-1.5-12.3-.1-.6 1.3-14.6-4.9-8.1h-.2l-1.8-12.6-7.1-3.5-.2.1-5.2-8.4-8.5 2.4-.1-.2-7.6-3.2-8.5 7.5-.2.4-8.4 2-7.7 11.8-.3-.2-8.5 7.6-5.1 14.4v.2l-7.2 11.6-1.9 14.7-.1.5-4.8 14.6 1.7 12.1v.2l-1.9 14.7 4.6 8.8h.2l1.8 12.6 7.1 3.4.4.2 5.3 8.2 8.5-2.7.4.5 7.2 3.2 8.9-7.5v-.2l8.5-2.3 7.6-11.9.2-.3 8.8-8.1 4.8-13.9.1-.2 7.5-12 2-14.2v-.2z"/><path class="st4" d="M200.7 74.4l-1.6-12.3c0-.1-.1-.2-.1-.3v-.1l1.4-14.6c0-.2 0-.3-.1-.5l-5-8.1-.1-.1-1.8-12.3c0-.2-.2-.5-.4-.6l-7.1-3.5h-.2l-4.9-7.9c-.2-.3-.5-.4-.8-.3l-8 2.3h-.2l-7.6-3.2c-.3-.1-.6-.1-.8.1l-8.5 7.5-.1.1-.1.1-8.1 1.9c-.2 0-.3.2-.5.3L139 34.3c-.2 0-.4.1-.5.2L130 42c-.1.1-.2.2-.2.3l-5.1 14.4v.2l-7.1 11.4c-.1.1-.1.2-.1.3l-1.9 14.7v.2l-.1.1-4.8 14.6v.3l1.7 12.2v.1l-1.9 14.5c0 .2 0 .3.1.4l4.6 8.8c0 .1.1.1.2.2L117 147c0 .2.2.5.4.6l6.9 3.4-11.3 43.2c-.1.3 0 .6.3.8s.6.2.8.1l11.9-6.9 6.8 11.3c.1.2.4.4.6.4h.1c.3 0 .5-.3.6-.5l11-39.2 1.1.5c.1 0 .2.1.3.1.2 0 .3-.1.5-.2l8.9-7.6.1-.1 8.2-2.2c.2 0 .3-.2.4-.3l.9-1.4 10.6 25.5c.1.3.4.5.7.5.3 0 .6-.2.7-.5l7.1-19.9 12.3-7.2c.3-.2.5-.6.3-.9L186 117.4c0-.1-.1-.2-.2-.3l.5-1.4v-.2l7.5-11.8c.1-.1.1-.2.1-.3l2-14.2v-.3l4.9-14.3s0-.1-.1-.2zM199 47.2l-1.3 14.2c-.1 0-.1 0-.2.1l-7.7 4.4c-.1-6.4-.9-12.1-2.5-17l7.2-8.9 4.5 7.2zM180.1 129l-7.8 7.2-2.9-9.3c3.8-4.7 7.2-10.2 10.1-16.3l5.2 5.1-4.6 13.3zm-11.3-3.7l-11.5-36.2 21.1 20.5c-2.8 5.8-6.1 11.1-9.6 15.7zM139 155.4s-.1 0 0 0l-8.1 2.5-4.7-7.3.3-.3 5.8-12.3c1 .8 2 1.6 3.1 2.2 2.1 1.2 4.3 1.9 6.7 2.2l-3.1 13zm15.9-73.8L145.1 51c3-3.7 6.3-6.7 9.8-8.9v39.5zm-.9 2.2L135.7 66c2.4-5 5.2-9.6 8.3-13.6l10 31.4zm-.3 1.8l-24.4-1.5c1.4-5.8 3.3-11.4 5.7-16.7l18.7 18.2zm-.6 1.4l-26.2 15.1c.1-5.5.8-11.1 2-16.6l24.2 1.5zm26.4-49.5c2.6 2.8 4.7 6.6 6.1 11.1l-26.7 32.7 20.6-43.8zm-21.6 42.3l11-47.8c2.2.2 4.3.9 6.3 2 1.1.6 2.2 1.4 3.1 2.4l-20.4 43.4zm-1.5 0V35.1c3.8-2.1 7.5-3.2 10.9-3.2h.1l-11 47.9zm-1.5-39.5c-3.6 2.2-7.1 5.2-10.3 9l-1-3.1c3.5-4.2 7.3-7.7 11.3-10.2v4.3zm-11.5 10.4c-3.3 4.1-6.3 9-8.9 14.2l-1.7-1.6c2.8-5.8 6-11.1 9.6-15.7l1 3.1zm-9.5 15.7c-2.6 5.5-4.7 11.5-6.1 17.7l-2.1-.1c1.6-6.6 3.8-13.1 6.6-19.1l1.6 1.5zm-6.4 19.1c-1.3 5.8-2 11.7-2 17.5l-2.4 1.4c.1-6.3.9-12.7 2.3-19.1l2.1.2zm25 3.6l-27.3 33.4c-1.4-4.8-2.1-10.3-2.1-16.4l29.4-17zm-.1 2.5l-20.6 43.8c-2.6-2.8-4.7-6.6-6.1-11.1l26.7-32.7zm-16.3 47.3c-1.1-.6-2.2-1.4-3.1-2.4l20.4-43.4-11 47.8c-2.3-.2-4.4-.9-6.3-2zM154.9 93v44.7c-3.8 2.1-7.5 3.2-11 3.2l11-47.9zm1.5-1.7l11.3 35.4c-3.5 4.2-7.3 7.7-11.3 10.2V91.3zm1.2-4l24.3 1.5c-.7 2.8-1.5 5.6-2.4 8.3-.1.4.1.8.5 1h.2c.3 0 .6-.2.7-.5 1-2.9 1.8-5.8 2.5-8.7l2.1.1c-1.6 6.6-3.8 13.1-6.6 19.1l-21.3-20.8zm.6-1.5l26.2-15.1c-.1 5.4-.8 11-2 16.6l-24.2-1.5zm25.6 1.6c1.3-5.9 2-11.9 2-17.5l2.4-1.4c-.1 6.3-.9 12.7-2.3 19.1l-2.1-.2zm-25-3.7l27.3-33.4c1.4 4.8 2.1 10.3 2.1 16.4l-29.4 17zm35-45.2l-7.1 8.7c-1.6-4.6-3.8-8.3-6.6-11.1l5.8-12.3 6.2 3 1.7 11.7zm-9.1-15.6l-5.6 12c-1-.8-2-1.6-3.1-2.2-2.1-1.2-4.3-1.9-6.7-2.2l3-12.9 7.7-2.2 4.7 7.5zm-20.4-8.5l6.6 2.7-3.1 13.3c-3.6-.1-7.4.9-11.4 3V21.3l7.9-6.9zm-16.9 9.7l7.4-1.8v12c-4.2 2.5-8.1 6-11.8 10.3l-3-9.3 7.4-11.2zM131.1 43l7.7-6.9 3.1 9.8c-3.8 4.7-7.2 10.2-10.1 16.3l-5.5-5.4s-.1 0-.1-.1l4.9-13.7zm-12.2 26l6.7-10.8 5.6 5.4c-2.9 6.3-5.3 13.1-7 20.1l-7.1-.4 1.8-14.3zm-6.8 29.6l4.6-13.7 7.1.4c-1.5 6.6-2.3 13.4-2.3 20l-7.8 4.5-1.6-11.2zm-.1 26.8l1.8-13.9 7.7-4.4c.1 6.4.9 12.1 2.5 17l-7.7 9.5-4.3-8.2zm4.8 9.5c.2 0 .3-.1.4-.2l7.3-8.9c1.6 4.6 3.8 8.3 6.6 11.1l-6 12.8-6.6-3.2-1.7-11.6zm16.5 62.3l-6.3-10.4c-.2-.3-.7-.5-1-.3l-11 6.3 10.6-40.4 4.4 6.7c.1.2.4.3.6.3h.2l8.1-2.5c.1.1.2.2.3.2l4.7 2.1-10.6 38zm13.3-38.3l-6.2-2.8 3.1-13.6h.5c3.5 0 7.1-1 10.9-3v12.3l-8.3 7.1zm17-9.8l-7.3 2v-12.4c4.2-2.5 8.1-6 11.8-10.3l2.9 9.1-7.4 11.6zm32.1-2.9l-12 7c-.2.1-.3.2-.3.4l-6.5 18.3-10.2-24.5c0-.1-.1-.1-.1-.1l5.7-9v-.1s.1 0 .1-.1l8.8-8.1c.1-.1.2-.2.2-.3l3.6-10.5 10.7 27zm-3.3-43.1l-7.1 11.2-5.2-5.1c2.9-6.3 5.3-13.1 7-20.1l7.2.4-1.9 13.6zm2.2-15.1l-7.1-.4c1.5-6.6 2.3-13.4 2.3-20l8-4.6 1.5 11.4-4.7 13.6z"/><linearGradient id="SVGID_6_" gradientUnits="userSpaceOnUse" x1="116.93" y1="118.915" x2="194.318" y2="53.978"><stop offset="0" stop-color="#72f2e0"/><stop offset="1" stop-color="#e2f4a3"/></linearGradient><path class="st11" d="M189 67.2c0 28.6-15 60.4-33.4 71.1s-33.4-3.9-33.4-32.5 15-60.4 33.4-71.1S189 38.6 189 67.2z"/><path class="st4" d="M144 142.7c-3.1 0-6.1-.8-8.8-2.4-8.9-5.1-14-17.8-14-34.7 0-28.9 15.2-61.2 33.9-71.9 7.6-4.4 14.8-4.8 20.9-1.3 8.9 5.1 14 17.8 14 34.7 0 28.9-15.2 61.2-33.9 71.9-4.2 2.5-8.3 3.7-12.1 3.7zm23.3-110.5c-3.5 0-7.3 1.1-11.2 3.4-18.1 10.5-32.9 42-32.9 70.2 0 15.9 4.8 28.2 13 32.9 5.5 3.2 12 2.7 18.9-1.3 18.1-10.5 32.9-42 32.9-70.2 0-15.9-4.8-28.2-13-32.9-2.3-1.4-5-2.1-7.7-2.1z"/><path class="st4" d="M147.9 110c-.1 0-.3 0-.4-.1l-2.5-1.4c-.3-.1-.4-.4-.4-.7l1.4-13.7-5.9-5.6c-.2-.1-.2-.4-.2-.6 0-.2.1-.4.3-.6l8.4-6.7 3.8-14c.1-.2.2-.4.4-.5.2-.1.5-.1.7 0l2.5 1.4c.4.2.5.7.3 1-.2.4-.7.5-1 .3l-1.6-.9-3.7 13.3c0 .2-.1.3-.3.4l-7.9 6.4 5.6 5.2c.2.2.3.4.2.6l-1.4 13.6 2 1.2c.4.2.5.7.3 1 0 .2-.3.4-.6.4zm11.2-33.5c-.3 0-.6-.2-.7-.5-.1-.4.1-.8.5-1l6.5-2.3c.2-.1.4-.1.6.1l2.5 1.4c.4.2.5.7.3 1-.2.4-.7.5-1 .3l-2.2-1.3-6.1 2.2c-.2.1-.3.1-.4.1z"/><path class="st12" d="M155.6 98.5l-7.7 10.7 1.5-14.1-6.2-5.8 8.6-6.9 3.8-14.3 3.9 9.9 8.6-3.1-6.3 13 1.5 12.4z"/><path class="st4" d="M147.9 110h-.3c-.3-.1-.5-.4-.5-.8l1.4-13.7-5.9-5.6c-.2-.1-.2-.4-.2-.6 0-.2.1-.4.3-.6l8.4-6.7 3.8-14c.1-.3.4-.5.7-.6.3 0 .6.2.7.5l3.6 9.2 7.9-2.8c.3-.1.6 0 .8.2.2.2.2.6.1.8l-6.1 12.8 1.4 12.2c0 .2-.1.5-.2.6-.2.2-.4.2-.7.2l-7.2-1.7-7.4 10.3c-.1.2-.3.3-.6.3zm-3.6-20.7l5.6 5.2c.2.2.3.4.2.6l-1.2 11.3 6-8.4c.2-.2.5-.4.8-.3l6.6 1.6-1.2-11.3c0-.1 0-.3.1-.4l5.4-11.4-6.9 2.4c-.4.1-.8-.1-.9-.4l-3-7.7-3.2 12.1c0 .2-.1.3-.3.4l-8 6.3zm-27.2 103.9h-.2c-.4-.1-.6-.5-.5-.9l5.1-16.6c.1-.4.5-.6.9-.5.4.1.6.5.5.9l-5.1 16.6c0 .3-.3.5-.7.5zm3.6-2.1h-.2c-.4-.1-.6-.5-.5-.9l2.9-9.4c.1-.4.5-.6.9-.5.4.1.6.5.5.9l-2.9 9.4c-.1.3-.4.5-.7.5zm3.8-2.2h-.2c-.4-.1-.6-.5-.5-.9l3.2-10.4c.1-.4.5-.6.9-.5.4.1.6.5.5.9l-3.2 10.4c-.1.3-.4.5-.7.5zm68.8-39.7c-.3 0-.5-.2-.7-.4l-5.1-10.7c-.2-.4 0-.8.4-1 .4-.2.8 0 1 .4l5.1 10.7c.2.4 0 .8-.4 1h-.3zm-3.5 2c-.3 0-.5-.2-.7-.4l-2.9-6.1c-.2-.4 0-.8.4-1 .4-.2.8 0 1 .4l2.9 6.1c.2.4 0 .8-.4 1h-.3zm-3.9 2.2c-.3 0-.5-.2-.7-.4l-3.2-6.7c-.2-.4 0-.8.4-1 .4-.2.8 0 1 .4l3.2 6.7c.2.4 0 .8-.4 1h-.3zM155.6 21.8c-.1 0-.2 0-.3-.1l-7.4-3.3c-.4-.2-.5-.6-.4-1 .2-.4.6-.5 1-.4l7.4 3.3c.4.2.5.6.4 1-.1.3-.4.5-.7.5zm-16.2 14.4c-.1 0-.2 0-.3-.1l-7.8-3.7c-.4-.2-.5-.6-.4-1 .2-.4.6-.5 1-.4l7.8 3.7c.4.2.5.6.4 1-.2.3-.4.5-.7.5zm-8.9 7.1c-.1 0-.2 0-.3-.1l-7.4-3.3c-.4-.2-.5-.6-.4-1 .2-.4.6-.5 1-.4l7.4 3.3c.4.2.5.6.4 1-.2.4-.4.5-.7.5zm-4.7 14.9c-.1 0-.2 0-.3-.1l-7.8-3.6c-.4-.2-.5-.6-.4-1 .2-.4.6-.5 1-.4l7.8 3.6c.4.2.5.6.4 1-.2.3-.4.5-.7.5zm-7.6 11.3c-.1 0-.2 0-.3-.1l-7.4-3.3c-.4-.2-.5-.6-.4-1 .2-.4.6-.5 1-.4l7.4 3.3c.4.2.5.6.4 1-.1.4-.4.5-.7.5zm-1.9 14.8h-.3l-7.5-2.9c-.4-.1-.6-.6-.4-1 .1-.4.6-.6 1-.4l7.5 2.9c.4.1.6.6.4 1-.1.2-.4.4-.7.4zm-4.9 15c-.1 0-.2 0-.3-.1l-7.4-3.3c-.4-.2-.5-.6-.4-1 .2-.4.6-.5 1-.4l7.4 3.3c.4.2.5.6.4 1-.2.3-.5.5-.7.5zm2 12.3c-.1 0-.2 0-.3-.1l-7.7-3.3c-.4-.2-.6-.6-.4-1 .2-.4.6-.6 1-.4l7.7 3.3c.4.2.6.6.4 1-.1.3-.4.5-.7.5zm-2.2 14.7c-.1 0-.2 0-.3-.1l-7.4-3.3c-.4-.2-.5-.6-.4-1 .2-.4.6-.5 1-.4l7.4 3.3c.4.2.5.6.4 1-.1.3-.4.5-.7.5zm5.5 8.6c-.1 0-.2 0-.3-.1l-8.1-3.1c-.4-.1-.6-.6-.4-1 .1-.4.6-.6 1-.4l8.1 3.1c.4.1.6.6.4 1-.2.3-.4.5-.7.5z"/><path class="st4" d="M154.6 71.2c-.1 0-.3 0-.4-.1l-2-1.2c-.4-.2-.5-.7-.3-1 .2-.4.7-.5 1-.3l2 1.2c.4.2.5.7.3 1-.1.3-.3.4-.6.4zm-.8 2.8c-.1 0-.3 0-.4-.1l-2-1.2c-.4-.2-.5-.7-.3-1 .2-.4.7-.5 1-.3l2 1.2c.4.2.5.7.3 1-.1.3-.3.4-.6.4zm-.8 2.8c-.1 0-.3 0-.4-.1l-2-1.2c-.4-.2-.5-.7-.3-1 .2-.4.7-.5 1-.3l2 1.2c.4.2.5.7.3 1-.1.3-.3.4-.6.4zm-.8 2.8c-.1 0-.3 0-.4-.1l-2-1.2c-.4-.2-.5-.7-.3-1 .2-.4.7-.5 1-.3l2 1.2c.4.2.5.7.3 1-.1.3-.3.4-.6.4zm-.6 2.9c-.1 0-.3 0-.4-.1l-2-1.2c-.4-.2-.5-.7-.3-1 .2-.4.7-.5 1-.3l2 1.2c.4.2.5.7.3 1-.1.3-.3.4-.6.4zm12-5.6c-.1 0-.3 0-.4-.1l-2-1.2c-.4-.2-.5-.7-.3-1 .2-.4.7-.5 1-.3l2 1.2c.4.2.5.7.3 1-.1.3-.4.4-.6.4zm-14 7.7c-.1 0-.3 0-.4-.1l-2-1.2c-.4-.2-.5-.7-.3-1 .2-.4.7-.5 1-.3l2 1.2c.4.2.5.7.3 1-.1.3-.4.4-.6.4zm-2.3 2c-.1 0-.3 0-.4-.1l-2-1.2c-.4-.2-.5-.7-.3-1 .2-.4.7-.5 1-.3l2 1.2c.4.2.5.7.3 1-.1.3-.3.4-.6.4zm-2.4 1.8c-.1 0-.3 0-.4-.1l-2-1.2c-.4-.2-.5-.7-.3-1 .2-.4.7-.5 1-.3l2 1.2c.4.2.5.7.3 1-.1.2-.3.4-.6.4zm3.1 18.3c-.1 0-.3 0-.4-.1l-2-1.2c-.4-.2-.5-.7-.3-1 .2-.4.7-.5 1-.3l2 1.2c.4.2.5.7.3 1-.1.2-.4.4-.6.4zm.2-2.9c-.1 0-.3 0-.4-.1l-2-1.2c-.4-.2-.5-.7-.3-1 .2-.4.7-.5 1-.3l2 1.2c.4.2.5.7.3 1-.1.3-.4.4-.6.4zm.3-2.8c-.1 0-.3 0-.4-.1l-2-1.2c-.4-.2-.5-.7-.3-1 .2-.4.7-.5 1-.3l2 1.2c.4.2.5.7.3 1-.1.2-.4.4-.6.4zm.2-2.9c-.1 0-.3 0-.4-.1l-2-1.2c-.4-.2-.5-.7-.3-1s.7-.5 1-.3l2 1.2c.4.2.5.7.3 1-.1.2-.4.4-.6.4z"/><ellipse class="st0" cx="224.6" cy="133.8" rx="4.5" ry="2.4"/><path class="st3" d="M229.1 119.5c0 2.9-2 4.1-4.5 2.7-2.5-1.4-4.5-4.9-4.5-7.8 0-2.9 2-4.1 4.5-2.7 2.5 1.4 4.5 4.9 4.5 7.8z"/></svg>