<svg width="63" height="63" viewBox="0 0 63 63" xmlns="http://www.w3.org/2000/svg"><title>icon-marketing</title><g fill="none"><path d="M27.41 26.696l5.46-10.756 8.634-7.75 13.034-5.904s6.681-.443 6.681-.221c0 .221-.7 8.023-.7 8.023l-5.608 12.934-8.964 9.482-6.588 2.529h-4.446l-7.502-8.337z" fill="#FFF"/><path d="M17.223 42.056l-6.479 6.43a1.143 1.143 0 0 1-1.606 0 1.12 1.12 0 0 1 0-1.592l6.479-6.428a1.142 1.142 0 0 1 1.606 0 1.12 1.12 0 0 1 0 1.59zm6.343-.709l-8.575 8.5c-.22.22-.51.33-.802.33-.29 0-.58-.11-.801-.33a1.116 1.116 0 0 1 0-1.59l8.575-8.5a1.14 1.14 0 0 1 1.603 0 1.12 1.12 0 0 1 0 1.59zm1.785 3.8l-3.452 3.424a1.138 1.138 0 0 1-1.603 0 1.116 1.116 0 0 1 0-1.591l3.448-3.423a1.143 1.143 0 0 1 1.607 0 1.12 1.12 0 0 1 0 1.59zm5.012.579l-8.142 8.101c-.22.222-.513.33-.803.33-.29 0-.582-.108-.802-.33a1.12 1.12 0 0 1 0-1.59l8.142-8.102a1.14 1.14 0 0 1 1.605 0 1.12 1.12 0 0 1 0 1.59zM12.79 62.606a1.019 1.019 0 0 1-1.021-1.015c0-.558.458-1.013 1.02-1.013.566 0 1.023.455 1.023 1.013 0 .56-.457 1.015-1.022 1.015zm5.903-11.432c-.566 0-1.02-.452-1.02-1.013 0-.557.454-1.01 1.02-1.01.563 0 1.02.453 1.02 1.01 0 .561-.457 1.013-1.02 1.013zm-6.607 6.554c-.563 0-1.02-.454-1.02-1.013 0-.56.457-1.012 1.02-1.012s1.02.452 1.02 1.012c0 .559-.457 1.013-1.02 1.013zm-3.847-1.342a1.028 1.028 0 0 1-1.443 0 1.008 1.008 0 0 1-.003-1.432 1.03 1.03 0 0 1 1.446 0c.4.395.4 1.037 0 1.432zm3.543-3.933c-.563 0-1.02-.455-1.02-1.013 0-.56.457-1.012 1.02-1.012.565 0 1.02.452 1.02 1.012 0 .558-.455 1.013-1.02 1.013zm-4.247-1.364c-.563 0-1.02-.453-1.02-1.01 0-.561.457-1.013 1.02-1.013s1.02.452 1.02 1.012c0 .558-.457 1.01-1.02 1.01zm12.199 5.046a1.03 1.03 0 0 1-1.446.003 1.011 1.011 0 0 1 0-1.433 1.028 1.028 0 0 1 1.446 0c.4.394.4 1.038 0 1.43zm-17.947.656c-.563 0-1.02-.453-1.02-1.013 0-.558.457-1.01 1.02-1.01.564 0 1.02.452 1.02 1.01 0 .56-.456 1.013-1.02 1.013zm29.791-36.45a17.92 17.92 0 0 0-2.593 6.418 24.67 24.67 0 0 0 1.296 1.782c3.53-4.378 7.64-7.873 7.911-8.105a1.32 1.32 0 0 1 1.164-.272c.168.04 1.663.425 2.737 1.463 1.02.986 1.488 2.476 1.538 2.642.125.412.035.856-.236 1.188-.224.277-3.644 4.426-7.975 8.033a26.2 26.2 0 0 0 1.827 1.243 18.343 18.343 0 0 0 6.414-2.73A36.578 36.578 0 0 0 60.116 3.32c-4.67.31-19.12 2.461-28.538 17.022zm21.1 7.512c-.093.432-2.377 10.728-12.36 19.237a1.322 1.322 0 0 1-1.776-.057 1.296 1.296 0 0 1-.287-1.46c1.098-2.456 2.571-6.628 2.747-9.256a20.819 20.819 0 0 1-3.75 1.072c-.311.055-.636 0-.91-.16a28.378 28.378 0 0 1-3.056-2.074c-2.003 1.458-4.108 2.675-6.127 3.275a1.323 1.323 0 0 1-1.296-.317 1.297 1.297 0 0 1-.355-1.274c.556-2.013 1.73-4.126 3.147-6.144a27.718 27.718 0 0 1-2.166-2.978 1.312 1.312 0 0 1-.186-.897c.205-1.265.535-2.502.975-3.703-2.654.257-6.79 1.81-9.229 2.951a1.325 1.325 0 0 1-1.597-.375 1.287 1.287 0 0 1 .014-1.626c8.334-10.1 18.67-12.625 19.105-12.726C46.647 1.047 59.72.665 61.443.663a1.31 1.31 0 0 1 1.32 1.271c.04 1.705-.01 14.622-10.063 25.715-.004.068-.007.133-.022.204zm-3.687-16.29a2.12 2.12 0 0 0 .045 3.012 2.17 2.17 0 0 0 3.041-.035 2.122 2.122 0 0 0-.043-3.013 2.173 2.173 0 0 0-3.043.035zm4.97 4.797c-1.836 1.865-4.869 1.9-6.759.075a4.704 4.704 0 0 1-.093-6.692c1.837-1.868 4.867-1.9 6.758-.076a4.705 4.705 0 0 1 .095 6.693z" fill="#E4744E"/></g></svg>