<svg width="59" height="51" viewBox="0 0 59 51" xmlns="http://www.w3.org/2000/svg" xmlns:xlink="http://www.w3.org/1999/xlink"><title>icon-presencia</title><defs><path id="a" d="M.895 50.72h57.248V.721H.895z"/><path id="c" d="M.895 50.72h57.248V.721H.895z"/><path id="e" d="M.895 50.72h57.248V.721H.895z"/></defs><g fill="none" fill-rule="evenodd"><mask id="b" fill="#fff"><use xlink:href="#a"/></mask><path fill="#FFF" fill-rule="nonzero" mask="url(#b)" d="M3 11h54v39H3z"/><mask id="d" fill="#fff"><use xlink:href="#c"/></mask><path d="M2.883 11.449l53.617.264s.623-6.664.311-7.098c-.31-.434-2.847-3.064-3.668-3.064-.821 0-29.113.072-29.113.072L8.52 1.551l-3.57.724-2.53 3.158-.185 5.826.648.19z" fill="#FFF" fill-rule="nonzero" mask="url(#d)"/><mask id="f" fill="#fff"><use xlink:href="#e"/></mask><path d="M38.717 29.052a11.94 11.94 0 0 1 2.493 6.191h3.563c-.237-3.45-1.663-6.547-3.8-9.047l-2.256 2.856zm3.74-4.7c2.97 3.153 4.751 7.44 4.751 12.082 0 .654-.535 1.191-1.189 1.191h-5.937a1.194 1.194 0 0 1-1.188-1.19 9.67 9.67 0 0 0-1.72-5.478l-5.583 6.966c.12.237.18.535.18.833a2.384 2.384 0 0 1-2.375 2.38 2.385 2.385 0 0 1-2.377-2.38c0-1.31 1.07-2.382 2.377-2.382.118 0 .237.06.356.06l5.818-7.263c-1.663-1.368-3.8-2.26-6.174-2.26-5.226 0-9.5 4.286-9.5 9.523 0 .654-.535 1.191-1.189 1.191a1.193 1.193 0 0 1-1.188-1.19c0-6.548 5.344-11.907 11.877-11.907 2.91 0 5.58 1.072 7.658 2.798l2.256-2.798c-2.672-2.203-6.117-3.57-9.856-3.57-8.49 0-15.438 6.964-15.438 15.476 0 .654-.535 1.191-1.186 1.191a1.194 1.194 0 0 1-1.188-1.19c0-9.823 8.016-17.859 17.812-17.859 4.274 0 8.254 1.55 11.34 4.108l1.96-2.44c.417-.477 1.128-.596 1.663-.179.474.416.593 1.13.177 1.665l-2.137 2.621zM3.27 48.337h52.25V12.624H3.27v35.714zM55.52 6.672A3.578 3.578 0 0 0 51.957 3.1H6.832A3.578 3.578 0 0 0 3.27 6.672v3.571h52.25v-3.57zm2.623 42.857c0 .654-.532 1.191-1.186 1.191H2.083a1.194 1.194 0 0 1-1.188-1.19V6.671c0-3.274 2.672-5.95 5.937-5.95h45.125c3.265 0 5.937 2.676 5.937 5.95v42.162c.145.2.25.431.25.695zM19.394 7.704c-.827 0-1.5-.666-1.5-1.487 0-.818.673-1.483 1.5-1.483.828 0 1.501.665 1.501 1.483 0 .821-.673 1.487-1.5 1.487zm-6 0a1.492 1.492 0 0 1-1.498-1.487c0-.818.67-1.483 1.498-1.483s1.501.665 1.501 1.483c0 .821-.673 1.487-1.5 1.487zm-6 0a1.492 1.492 0 0 1-1.498-1.487c0-.818.67-1.483 1.498-1.483.83 0 1.5.665 1.5 1.483 0 .821-.67 1.487-1.5 1.487z" fill="#E4744E" fill-rule="nonzero" mask="url(#f)"/></g></svg>