<svg width="249" height="44" viewBox="0 0 249 44" xmlns="http://www.w3.org/2000/svg"><title>logo</title><g fill="none"><path d="M37.645 28.985c0-8.19 6.083-14.799 14.623-14.799 8.482 0 14.156 6.318 14.156 15.501v1.755h-21c.527 3.451 3.335 6.318 8.131 6.318 2.399 0 5.674-.995 7.487-2.75l3.335 4.914c-2.808 2.573-7.253 3.92-11.64 3.92-8.6 0-15.092-5.792-15.092-14.86zm14.623-8.715c-4.62 0-6.61 3.217-6.901 6.025h13.921c-.234-2.692-2.106-6.025-7.02-6.025zm14.799 8.715c0-8.013 5.616-14.799 14.916-14.799 9.36 0 14.975 6.786 14.975 14.799 0 8.014-5.615 14.858-14.975 14.858-9.3 0-14.916-6.844-14.916-14.858zm22.17 0c0-4.387-2.574-8.19-7.254-8.19-4.62 0-7.195 3.803-7.195 8.19 0 4.446 2.574 8.248 7.195 8.248 4.68 0 7.253-3.802 7.253-8.248zM99.59 4.125h7.43v39.016h-7.43zm10.06 24.86c0-8.013 5.616-14.799 14.917-14.799 9.36 0 14.974 6.786 14.974 14.799 0 8.014-5.615 14.858-14.974 14.858-9.3 0-14.917-6.844-14.917-14.858zm22.17 0c0-4.387-2.574-8.19-7.253-8.19-4.622 0-7.195 3.803-7.195 8.19 0 4.446 2.573 8.248 7.195 8.248 4.679 0 7.253-3.802 7.253-8.248z" fill="#B3DC1F"/><path d="M141.997 40.509c0-1.755 1.462-3.218 3.217-3.218 1.755 0 3.218 1.463 3.218 3.218 0 1.754-1.463 3.217-3.218 3.217s-3.217-1.463-3.217-3.217m9.417-11.524c0-8.365 5.674-14.799 14.098-14.799 5.147 0 8.19 2.106 10.353 4.914l-2.924 2.631c-1.873-2.572-4.27-3.626-7.195-3.626-5.967 0-9.77 4.621-9.77 10.88s3.803 10.94 9.77 10.94c2.925 0 5.322-1.17 7.195-3.686l2.924 2.691c-2.164 2.807-5.206 4.913-10.353 4.913-8.424 0-14.098-6.493-14.098-14.858m26.088 0c0-8.19 5.381-14.799 13.98-14.799s13.98 6.61 13.98 14.799c0 8.19-5.381 14.858-13.98 14.858s-13.98-6.668-13.98-14.858zm23.339 0c0-5.733-3.334-10.88-9.359-10.88s-9.36 5.147-9.36 10.88c0 5.79 3.335 10.94 9.36 10.94 6.025 0 9.359-5.15 9.359-10.94zm42.935 14.155V23.955c0-3.567-1.522-5.85-5.206-5.85-2.925 0-6.026 2.05-7.488 4.33V43.14h-4.387V23.954c0-3.567-1.462-5.85-5.206-5.85-2.866 0-5.908 2.107-7.428 4.387v20.65h-4.388V14.888h4.388v4.095c1.227-1.814 4.97-4.797 9.183-4.797 4.27 0 6.727 2.34 7.546 5.265 1.579-2.574 5.381-5.265 9.476-5.265 5.147 0 7.897 2.866 7.897 8.54v20.415h-4.387" fill="#4C4C4C"/><path d="M33.537 15.69c-.05-.38-.463-3.822-2.633-7.293C27.82 3.46 22.876.742 16.893.742 10.91.742 5.942 3.46 2.856 8.397.687 11.867.136 15.309.084 15.69L0 16.018V42.94h10.271V16.794s.154-6.196 6.867-6.196c6.89 0 6.828 6.196 6.828 6.196V42.94h9.415V16.018l.156-.328m48.975 8.721a4.3 4.3 0 0 0 4.301 4.3 4.3 4.3 0 0 0 0-8.6 4.3 4.3 0 0 0-4.3 4.3m42.042 0a4.3 4.3 0 1 0 8.6 0 4.3 4.3 0 0 0-8.6 0" fill="#B3DC1F"/></g></svg>