<svg width="150" height="32" viewBox="0 0 150 32" xmlns="http://www.w3.org/2000/svg"><title>logo</title><path d="M12.186.338c1.688 0 3.405.14 5.094.422 1.688.281 3.236.9 4.587 1.83 1.379.928 2.476 2.25 3.349 3.995.872 1.745 1.294 4.025 1.294 6.895v17.28c-1.013.197-1.913.31-2.73.366-.816.056-1.52.084-2.138.084a32.23 32.23 0 0 1-2.195-.084c-.817-.057-1.717-.197-2.73-.366V14.522c0-2.055-.394-3.518-1.154-4.39-.76-.873-1.942-1.323-3.518-1.323a7.74 7.74 0 0 0-1.35.112c-.48.085-.789.17-.901.225v21.642c-1.014.197-1.914.31-2.73.366-.816.056-1.52.084-2.139.084a32.23 32.23 0 0 1-2.195-.084c-.816-.056-1.717-.197-2.73-.366V2.364c1.35-.45 2.983-.929 4.925-1.35C6.867.562 9.287.337 12.185.337zm28.902 18.63c.422 1.576 1.154 2.702 2.223 3.35 1.07.646 2.449.984 4.194.984 1.125 0 2.364-.14 3.77-.394a24.419 24.419 0 0 0 4.11-1.21c.534 1.013 1.013 2.195 1.407 3.574.394 1.379.619 2.842.675 4.334-3.433 1.266-6.951 1.914-10.525 1.914-2.786 0-5.15-.394-7.148-1.154-1.999-.76-3.603-1.83-4.869-3.208-1.266-1.38-2.167-3.012-2.786-4.897-.591-1.886-.9-3.94-.9-6.192 0-2.195.309-4.25.928-6.191.62-1.942 1.548-3.602 2.786-5.037 1.238-1.436 2.786-2.561 4.615-3.378C41.426.647 43.565.225 46.041.225c2.055 0 3.856.338 5.46 1.041 1.604.704 2.955 1.66 4.08 2.871 1.126 1.21 1.97 2.674 2.562 4.39.59 1.717.9 3.574.9 5.572 0 1.042-.056 1.97-.14 2.815-.085.816-.198 1.52-.254 2.054H41.09zM45.732 7.57c-1.239 0-2.308.394-3.18 1.154-.901.76-1.408 1.97-1.548 3.574h9.259c-.085-1.35-.479-2.476-1.239-3.377-.788-.9-1.885-1.35-3.292-1.35zm61.238 15.113h10.92c.196.76.309 1.491.365 2.139a22.25 22.25 0 0 1 0 3.855c-.056.676-.197 1.407-.366 2.167H99.062a1.856 1.856 0 0 1-1.857-1.857L97.26.957a15.939 15.939 0 0 1 2.504-.394 23.409 23.409 0 0 1 2.393-.113c.731 0 1.52.028 2.364.113.844.084 1.688.225 2.476.394l-.028 21.726zM91.266 9.006c-1.547-3.124-4.305-3.012-6.022-2.477-2.195.676-3.602 2.702-3.096 5.403.225 1.126.479 2.702.479 4.11 0 2.42-.422 4.305-1.239 5.6-.816 1.322-2.082 1.97-3.799 1.97-1.688 0-2.955-.648-3.771-1.97-.816-1.323-1.21-3.18-1.21-5.6 0-2.477.394-4.166 1.21-5.46.732-1.182 1.801-1.914 3.265-2.027 2.87-.225 3.94-2.195 3.94-4.587 0-1.52-1.239-3.687-3.969-3.743-2.42-.084-4.024.422-5.881 1.182-1.858.76-3.406 1.83-4.644 3.208-1.266 1.38-2.195 3.068-2.842 5.01-.648 1.942-.957 4.109-.957 6.444 0 2.308.31 4.419.957 6.333.647 1.913 1.576 3.545 2.842 4.924 1.266 1.38 2.814 2.42 4.644 3.152 1.857.732 3.996 1.098 6.416 1.098 2.477 0 4.616-.366 6.473-1.098 1.857-.731 3.405-1.773 4.643-3.152 1.239-1.379 2.196-3.01 2.843-4.924.647-1.914.957-4.025.957-6.333 0-2.392-.479-5.516-1.239-7.063zm57.355 0c-1.548-3.124-4.306-3.012-6.023-2.477-2.195.676-3.602 2.702-3.095 5.403.225 1.126.478 2.702.478 4.11 0 2.42-.422 4.305-1.238 5.6-.816 1.322-2.083 1.97-3.8 1.97-1.688 0-2.954-.648-3.77-1.97-.817-1.323-1.21-3.18-1.21-5.6 0-2.477.393-4.166 1.21-5.46.731-1.182 1.8-1.914 3.264-2.027 2.87-.225 3.94-2.195 3.94-4.587 0-1.52-1.238-3.687-3.968-3.743-2.42-.084-4.024.422-5.882 1.182-1.857.76-3.405 1.83-4.643 3.208-1.267 1.38-2.195 3.068-2.843 5.01-.647 1.942-.957 4.109-.957 6.444 0 2.308.31 4.419.957 6.333.648 1.913 1.576 3.545 2.843 4.924 1.266 1.38 2.814 2.42 4.643 3.152 1.858.732 3.996 1.098 6.417 1.098 2.476 0 4.615-.366 6.473-1.098 1.857-.731 3.405-1.773 4.643-3.152 1.238-1.379 2.195-3.01 2.842-4.924.648-1.914.957-4.025.957-6.333.028-2.392-.45-5.516-1.238-7.063z" fill="#B3DC20"/></svg>