<svg width="185" height="39" viewBox="0 0 185 39" xmlns="http://www.w3.org/2000/svg"><title>Artboard</title><path d="M15.03.417c2.082 0 4.199.173 6.281.52 2.083.347 3.992 1.11 5.658 2.256 1.7 1.146 3.054 2.777 4.13 4.929s1.597 4.963 1.597 8.504v21.311a27.37 27.37 0 0 1-3.367.451c-1.006.07-1.874.104-2.638.104-.798 0-1.7-.034-2.707-.104-1.007-.07-2.117-.243-3.367-.45V17.91c0-2.534-.486-4.339-1.423-5.415-.937-1.076-2.395-1.631-4.338-1.631-.521 0-1.076.035-1.667.139-.59.104-.971.208-1.11.277v26.692a27.37 27.37 0 0 1-3.367.451c-1.007.07-1.874.104-2.638.104-.798 0-1.7-.035-2.707-.104-1.007-.07-2.117-.243-3.367-.451V2.916A58.084 58.084 0 0 1 6.074 1.25C8.47.694 11.454.417 15.03.417zm35.645 22.977c.521 1.944 1.423 3.332 2.742 4.13 1.32.799 3.02 1.215 5.172 1.215 1.388 0 2.916-.173 4.651-.486 1.7-.347 3.402-.833 5.068-1.492.66 1.25 1.25 2.707 1.735 4.408.486 1.7.764 3.505.833 5.345-4.234 1.562-8.573 2.36-12.981 2.36-3.436 0-6.352-.486-8.816-1.423-2.465-.937-4.443-2.256-6.005-3.957-1.562-1.7-2.672-3.714-3.436-6.039-.729-2.326-1.11-4.86-1.11-7.636 0-2.707.381-5.241 1.145-7.636.763-2.395 1.909-4.443 3.436-6.213 1.527-1.77 3.436-3.159 5.692-4.165C51.091.798 53.73.278 56.784.278c2.534 0 4.755.416 6.734 1.284 1.978.868 3.644 2.048 5.033 3.54 1.388 1.493 2.43 3.298 3.158 5.415.73 2.117 1.11 4.408 1.11 6.872 0 1.285-.069 2.43-.173 3.471-.104 1.007-.243 1.875-.312 2.534H50.675zm5.727-14.057c-1.527 0-2.846.486-3.922 1.423-1.11.937-1.735 2.43-1.909 4.408h11.42c-.105-1.666-.59-3.054-1.528-4.165-.971-1.11-2.325-1.666-4.06-1.666zm75.528 18.639h13.467c.243.937.382 1.84.451 2.638a27.19 27.19 0 0 1 0 4.755c-.07.833-.243 1.735-.451 2.672h-23.22a2.289 2.289 0 0 1-2.291-2.29l.069-34.57a19.658 19.658 0 0 1 3.09-.487 28.87 28.87 0 0 1 2.95-.139c.902 0 1.874.035 2.915.14a28.05 28.05 0 0 1 3.054.485l-.034 26.796zm-19.368-16.869c-1.91-3.853-5.31-3.714-7.428-3.054-2.707.833-4.443 3.332-3.818 6.664.278 1.388.59 3.332.59 5.067 0 2.985-.52 5.31-1.527 6.907-1.007 1.632-2.568 2.43-4.686 2.43-2.082 0-3.644-.798-4.65-2.43-1.007-1.631-1.493-3.922-1.493-6.907 0-3.054.486-5.137 1.492-6.733.903-1.458 2.222-2.36 4.026-2.5 3.54-.277 4.86-2.707 4.86-5.657 0-1.874-1.527-4.547-4.894-4.616-2.985-.104-4.964.52-7.254 1.457-2.291.938-4.2 2.257-5.727 3.957-1.562 1.701-2.708 3.784-3.506 6.179-.798 2.394-1.18 5.067-1.18 7.948 0 2.846.382 5.45 1.18 7.81.798 2.36 1.944 4.373 3.506 6.074 1.561 1.7 3.47 2.985 5.727 3.887 2.29.902 4.928 1.354 7.913 1.354 3.055 0 5.693-.452 7.983-1.354 2.291-.902 4.2-2.187 5.727-3.887 1.528-1.701 2.708-3.714 3.506-6.074.798-2.36 1.18-4.964 1.18-7.81 0-2.95-.59-6.803-1.527-8.712zm70.738 0c-1.91-3.853-5.311-3.714-7.429-3.054-2.707.833-4.442 3.332-3.818 6.664.278 1.388.59 3.332.59 5.067 0 2.985-.52 5.31-1.527 6.907-1.006 1.632-2.568 2.43-4.685 2.43-2.083 0-3.645-.798-4.651-2.43-1.007-1.631-1.493-3.922-1.493-6.907 0-3.054.486-5.137 1.493-6.733.902-1.458 2.22-2.36 4.026-2.5 3.54-.277 4.86-2.707 4.86-5.657 0-1.874-1.528-4.547-4.895-4.616-2.985-.104-4.963.52-7.254 1.457-2.29.938-4.2 2.257-5.727 3.957-1.562 1.701-2.707 3.784-3.506 6.179-.798 2.394-1.18 5.067-1.18 7.948 0 2.846.382 5.45 1.18 7.81.799 2.36 1.944 4.373 3.506 6.074 1.562 1.7 3.47 2.985 5.727 3.887 2.29.902 4.929 1.354 7.914 1.354 3.054 0 5.692-.452 7.983-1.354 2.29-.902 4.2-2.187 5.727-3.887 1.527-1.701 2.707-3.714 3.505-6.074.799-2.36 1.18-4.964 1.18-7.81.035-2.95-.555-6.803-1.527-8.712z" fill="#B3DC20"/></svg>