<svg width="246" height="44" viewBox="0 0 246 44" xmlns="http://www.w3.org/2000/svg"><title>Imported Layers</title><g fill="none" fill-rule="evenodd"><path d="M37.308 28.665c0-8.095 6.03-14.63 14.493-14.63 8.406 0 14.029 6.246 14.029 15.325v1.734H45.018c.522 3.412 3.305 6.246 8.059 6.246 2.376 0 5.623-.983 7.42-2.718L63.8 39.48c-2.782 2.543-7.188 3.874-11.536 3.874-8.522 0-14.957-5.725-14.957-14.689zm14.493-8.615c-4.58 0-6.55 3.18-6.84 5.956h13.797c-.232-2.66-2.087-5.956-6.957-5.956zm14.667 8.615c0-7.92 5.565-14.63 14.782-14.63 9.276 0 14.841 6.71 14.841 14.63 0 7.923-5.565 14.69-14.84 14.69-9.218 0-14.783-6.767-14.783-14.69zm21.97 0c0-4.337-2.55-8.095-7.188-8.095-4.58 0-7.13 3.758-7.13 8.095 0 4.396 2.55 8.154 7.13 8.154 4.638 0 7.189-3.758 7.189-8.154zM98.7 4.09h7.362v38.57H98.7V4.09zm9.97 24.575c0-7.92 5.566-14.63 14.783-14.63 9.276 0 14.84 6.71 14.84 14.63 0 7.923-5.564 14.69-14.84 14.69-9.217 0-14.783-6.767-14.783-14.69zm21.971 0c0-4.337-2.55-8.095-7.188-8.095-4.58 0-7.13 3.758-7.13 8.095 0 4.396 2.55 8.154 7.13 8.154 4.638 0 7.188-3.758 7.188-8.154z" fill="#FFF"/><path d="M140.727 40.058c0-1.735 1.45-3.181 3.189-3.181s3.189 1.446 3.189 3.18c0 1.735-1.45 3.181-3.19 3.181-1.739 0-3.188-1.446-3.188-3.18m9.333-11.393c0-8.269 5.624-14.63 13.972-14.63 5.101 0 8.115 2.082 10.26 4.859l-2.897 2.6c-1.856-2.543-4.232-3.584-7.131-3.584-5.913 0-9.682 4.568-9.682 10.755 0 6.188 3.769 10.815 9.682 10.815 2.899 0 5.275-1.157 7.131-3.644l2.898 2.661c-2.146 2.775-5.16 4.857-10.261 4.857-8.348 0-13.971-6.419-13.971-14.689m25.854 0c0-8.095 5.334-14.63 13.855-14.63 8.522 0 13.856 6.535 13.856 14.63 0 8.097-5.334 14.69-13.856 14.69-8.521 0-13.855-6.593-13.855-14.69zm23.131 0c0-5.667-3.305-10.755-9.276-10.755-5.97 0-9.276 5.088-9.276 10.755 0 5.725 3.305 10.815 9.276 10.815s9.276-5.09 9.276-10.815zm42.551 13.995V23.692c0-3.527-1.509-5.782-5.16-5.782-2.898 0-5.971 2.024-7.42 4.279v20.47h-4.349V23.693c0-3.527-1.45-5.782-5.159-5.782-2.84 0-5.855 2.082-7.362 4.336V42.66h-4.348V14.73h4.348v4.048c1.216-1.793 4.927-4.742 9.101-4.742 4.232 0 6.667 2.312 7.479 5.205 1.565-2.546 5.333-5.205 9.39-5.205 5.102 0 7.828 2.833 7.828 8.442V42.66h-4.348" fill="#4C4C4C"/><path d="M33.237 15.523c-.05-.377-.459-3.78-2.61-7.21-3.055-4.882-7.955-7.57-13.884-7.57C10.813.744 5.889 3.432 2.83 8.312.68 11.744.134 15.146.083 15.522L0 15.848v26.615h10.18V16.614s.152-6.125 6.805-6.125c6.828 0 6.767 6.125 6.767 6.125v25.848h9.33V15.847l.155-.324m48.538 8.621a4.256 4.256 0 0 0 4.262 4.25 4.256 4.256 0 0 0 4.261-4.25 4.256 4.256 0 0 0-4.26-4.251 4.256 4.256 0 0 0-4.263 4.251m41.667 0a4.255 4.255 0 0 0 4.262 4.25 4.256 4.256 0 0 0 4.26-4.25 4.256 4.256 0 0 0-4.26-4.251 4.256 4.256 0 0 0-4.262 4.251" fill="#FFF"/></g></svg>