<svg xmlns="http://www.w3.org/2000/svg" width="249" height="65.917" viewBox="0 0 249 65.917"><title>Imported Layers</title><path fill="#B3DC20" d="M38.33 28.336c0-8.193 6.085-14.806 14.63-14.806 8.484 0 14.162 6.32 14.162 15.508v1.757H46.111c.527 3.451 3.337 6.32 8.137 6.32 2.398 0 5.676-.995 7.488-2.751l3.337 4.917c-2.81 2.573-7.257 3.92-11.645 3.92-8.602 0-15.098-5.793-15.098-14.865zm14.63-8.72c-4.625 0-6.615 3.22-6.905 6.029h13.928c-.234-2.692-2.108-6.029-7.023-6.029zm14.804 8.72c0-8.018 5.62-14.806 14.925-14.806 9.362 0 14.981 6.788 14.981 14.806s-5.619 14.865-14.981 14.865c-9.305 0-14.925-6.847-14.925-14.865zm22.18 0c0-4.388-2.574-8.193-7.255-8.193-4.625 0-7.2 3.805-7.2 8.193 0 4.447 2.576 8.252 7.2 8.252 4.681 0 7.255-3.805 7.255-8.252zm10.359 14.163V3.464h7.432v39.035h-7.432zm10.067-14.163c0-8.018 5.618-14.806 14.923-14.806 9.361 0 14.98 6.788 14.98 14.806s-5.619 14.865-14.98 14.865c-9.306 0-14.923-6.847-14.923-14.865zm22.178 0c0-4.388-2.575-8.193-7.255-8.193-4.625 0-7.2 3.805-7.2 8.193 0 4.447 2.575 8.252 7.2 8.252 4.68 0 7.255-3.805 7.255-8.252z"/><path fill="#FFF" d="M142.73 39.866c0-1.756 1.462-3.22 3.218-3.22s3.22 1.464 3.22 3.22c0 1.755-1.464 3.218-3.22 3.218s-3.218-1.463-3.218-3.218zm9.423-11.53c0-8.369 5.676-14.806 14.104-14.806 5.149 0 8.19 2.107 10.356 4.915l-2.924 2.634c-1.873-2.576-4.273-3.629-7.199-3.629-5.97 0-9.772 4.625-9.772 10.886 0 6.262 3.803 10.945 9.772 10.945 2.926 0 5.326-1.171 7.199-3.688l2.924 2.693c-2.166 2.808-5.207 4.915-10.356 4.915-8.428 0-14.104-6.495-14.104-14.865zm26.1 0c0-8.193 5.384-14.806 13.987-14.806 8.601 0 13.985 6.613 13.985 14.806 0 8.194-5.385 14.865-13.985 14.865-8.603 0-13.987-6.671-13.987-14.865zm23.349 0c0-5.734-3.335-10.886-9.361-10.886-6.03 0-9.365 5.151-9.365 10.886 0 5.793 3.335 10.945 9.365 10.945 6.026 0 9.361-5.152 9.361-10.945zm42.954 14.163V23.305c0-3.572-1.521-5.854-5.208-5.854-2.924 0-6.026 2.049-7.49 4.332V42.5h-4.389V23.305c0-3.572-1.464-5.854-5.21-5.854-2.866 0-5.91 2.107-7.433 4.39V42.5h-4.388V14.232h4.388v4.096c1.23-1.815 4.977-4.798 9.189-4.798 4.273 0 6.729 2.339 7.549 5.266 1.581-2.575 5.384-5.266 9.481-5.266 5.149 0 7.9 2.866 7.9 8.544v20.424h-4.389z"/><path fill="#B3DC20" d="M34.189 15.036c-.05-.381-.449-3.826-2.619-7.298C28.484 2.8 23.546.08 17.559.08 11.575.08 6.607 2.8 3.521 7.738 1.351 11.211.468 14.655.413 15.036L0 15.364V43.5h11V16.14s.803-6.199 7.519-6.199C25.412 9.941 26 16.14 26 16.14V43.5h8V15.364l.189-.328z"/><circle fill="#B3DC20" cx="87.52" cy="23.76" r="4.302"/><circle fill="#B3DC20" cx="129.583" cy="23.76" r="4.303"/><path fill="#B3DC20" d="M38.33 28.336c0-8.193 6.085-14.806 14.63-14.806 8.484 0 14.162 6.32 14.162 15.508v1.757H46.111c.527 3.451 3.337 6.32 8.137 6.32 2.398 0 5.676-.995 7.488-2.751l3.337 4.917c-2.81 2.573-7.257 3.92-11.645 3.92-8.602 0-15.098-5.793-15.098-14.865zm14.63-8.72c-4.625 0-6.615 3.22-6.905 6.029h13.928c-.234-2.692-2.108-6.029-7.023-6.029zm14.804 8.72c0-8.018 5.62-14.806 14.925-14.806 9.362 0 14.981 6.788 14.981 14.806s-5.619 14.865-14.981 14.865c-9.305 0-14.925-6.847-14.925-14.865zm22.18 0c0-4.388-2.574-8.193-7.255-8.193-4.625 0-7.2 3.805-7.2 8.193 0 4.447 2.576 8.252 7.2 8.252 4.681 0 7.255-3.805 7.255-8.252zm10.359 14.163V3.464h7.432v39.035h-7.432zm10.067-14.163c0-8.018 5.618-14.806 14.923-14.806 9.361 0 14.98 6.788 14.98 14.806s-5.619 14.865-14.98 14.865c-9.306 0-14.923-6.847-14.923-14.865zm22.178 0c0-4.388-2.575-8.193-7.255-8.193-4.625 0-7.2 3.805-7.2 8.193 0 4.447 2.575 8.252 7.2 8.252 4.68 0 7.255-3.805 7.255-8.252z"/><path fill="#FFF" d="M142.73 39.866c0-1.756 1.462-3.22 3.218-3.22s3.22 1.464 3.22 3.22c0 1.755-1.464 3.218-3.22 3.218s-3.218-1.463-3.218-3.218zm9.423-11.53c0-8.369 5.676-14.806 14.104-14.806 5.149 0 8.19 2.107 10.356 4.915l-2.924 2.634c-1.873-2.576-4.273-3.629-7.199-3.629-5.97 0-9.772 4.625-9.772 10.886 0 6.262 3.803 10.945 9.772 10.945 2.926 0 5.326-1.171 7.199-3.688l2.924 2.693c-2.166 2.808-5.207 4.915-10.356 4.915-8.428 0-14.104-6.495-14.104-14.865zm26.1 0c0-8.193 5.384-14.806 13.987-14.806 8.601 0 13.985 6.613 13.985 14.806 0 8.194-5.385 14.865-13.985 14.865-8.603 0-13.987-6.671-13.987-14.865zm23.349 0c0-5.734-3.335-10.886-9.361-10.886-6.03 0-9.365 5.151-9.365 10.886 0 5.793 3.335 10.945 9.365 10.945 6.026 0 9.361-5.152 9.361-10.945zm42.954 14.163V23.305c0-3.572-1.521-5.854-5.208-5.854-2.924 0-6.026 2.049-7.49 4.332V42.5h-4.389V23.305c0-3.572-1.464-5.854-5.21-5.854-2.866 0-5.91 2.107-7.433 4.39V42.5h-4.388V14.232h4.388v4.096c1.23-1.815 4.977-4.798 9.189-4.798 4.273 0 6.729 2.339 7.549 5.266 1.581-2.575 5.384-5.266 9.481-5.266 5.149 0 7.9 2.866 7.9 8.544v20.424h-4.389z"/><path fill="#B3DC20" d="M34.189 15.036c-.05-.381-.449-3.826-2.619-7.298C28.484 2.8 23.546.08 17.559.08 11.575.08 6.607 2.8 3.521 7.738 1.351 11.211.468 14.655.413 15.036L0 15.364V43.5h11V16.14s.803-6.199 7.519-6.199C25.412 9.941 26 16.14 26 16.14V43.5h8V15.364l.189-.328z"/><circle fill="#B3DC20" cx="87.52" cy="23.76" r="4.302"/><circle fill="#B3DC20" cx="129.583" cy="23.76" r="4.303"/><path d="M11.723 64.779l-2.382-9.32-2.36 9.32H3.907L.021 51.204h3.235l2.382 9.81 2.583-9.81h2.259l2.565 9.81 2.38-9.81h3.237l-3.867 13.575h-3.072zm8.291 0V51.204h9.605v2.544h-6.716v2.85h6.573v2.545h-6.573v3.093h6.716v2.544h-9.605zm11.856 0V51.204h7.144c2.584 0 3.908 1.649 3.908 3.461 0 1.688-1.059 2.85-2.341 3.114 1.464.223 2.605 1.627 2.605 3.316 0 2.057-1.343 3.684-3.948 3.684H31.87zm8.1-9.604c0-.836-.611-1.427-1.588-1.427H34.76v2.85h3.622c.977 0 1.588-.549 1.588-1.423zm.265 5.514c0-.857-.61-1.547-1.73-1.547H34.76v3.093h3.744c1.079 0 1.731-.571 1.731-1.546zm19.646 4.09v-5.72H53.47v5.72h-2.889V51.204h2.889v5.334h6.411v-5.334h2.911v13.575h-2.911zm4.914-6.777c0-4.091 2.992-7.021 7.103-7.021 4.091 0 7.082 2.931 7.082 7.021s-2.991 7.021-7.082 7.021c-4.11 0-7.103-2.93-7.103-7.021zm11.215 0c0-2.543-1.607-4.458-4.111-4.458-2.523 0-4.131 1.915-4.131 4.458 0 2.525 1.608 4.457 4.131 4.457 2.503 0 4.111-1.932 4.111-4.457zm4.06 4.864l1.587-2.26a5.959 5.959 0 0 0 4.315 1.853c1.608 0 2.361-.711 2.361-1.506 0-2.362-7.815-.713-7.815-5.82 0-2.258 1.954-4.131 5.149-4.131 2.157 0 3.948.652 5.292 1.892l-1.607 2.157c-1.1-1.018-2.566-1.486-3.95-1.486-1.221 0-1.913.531-1.913 1.345 0 2.137 7.795.691 7.795 5.76 0 2.483-1.791 4.354-5.434 4.354-2.626-.001-4.498-.877-5.78-2.158zm16.008 1.913V53.748H92.11v-2.544h10.826v2.544h-3.948v11.031h-2.91zm8.702 0V51.204h2.89v13.575h-2.89zm14.935 0l-6.473-8.853v8.853h-2.889V51.204h2.971l6.289 8.528v-8.528h2.891v13.575h-2.789zm4.813-6.777c0-4.295 3.257-7.021 7.246-7.021 2.809 0 4.578 1.426 5.595 3.032l-2.379 1.305c-.632-.958-1.791-1.773-3.216-1.773-2.484 0-4.275 1.894-4.275 4.458s1.791 4.457 4.275 4.457c1.2 0 2.319-.529 2.868-1.037v-1.629h-3.581V57.27h6.471v5.21c-1.384 1.547-3.315 2.544-5.758 2.544-3.989-.001-7.246-2.75-7.246-7.022zm14.908 5.352c0-.895.753-1.648 1.647-1.648.897 0 1.649.754 1.649 1.648 0 .897-.752 1.649-1.649 1.649a1.666 1.666 0 0 1-1.647-1.649zm10.84 1.425V51.204h2.89v13.575h-2.89zm8.705 0V53.748h-3.968v-2.544h10.825v2.544h-3.947v11.031h-2.91zm24.309 0l-2.382-9.32-2.36 9.32h-3.073l-3.886-13.575h3.233l2.382 9.81 2.583-9.81h2.26l2.566 9.81 2.379-9.81h3.236l-3.866 13.575h-3.072zm7.233-6.777c0-4.091 2.991-7.021 7.103-7.021 4.091 0 7.082 2.931 7.082 7.021s-2.991 7.021-7.082 7.021c-4.111 0-7.103-2.93-7.103-7.021zm11.212 0c0-2.543-1.608-4.458-4.109-4.458-2.524 0-4.132 1.915-4.132 4.458 0 2.525 1.607 4.457 4.132 4.457 2.501 0 4.109-1.932 4.109-4.457zm12.669 6.777l-2.665-4.823h-2.118v4.823h-2.89V51.204h6.35c2.829 0 4.581 1.853 4.581 4.376 0 2.381-1.528 3.684-2.994 4.031l3.074 5.168h-3.338zm.284-9.219c0-1.118-.874-1.812-2.015-1.812h-3.053v3.663h3.053c1.141 0 2.015-.691 2.015-1.851zm13.18 9.219l-4.11-5.455-1.06 1.282v4.173h-2.889V51.204h2.889v6.044l4.804-6.044h3.561l-5.392 6.37 5.758 7.205h-3.561zm3.94-1.913l1.589-2.26a5.951 5.951 0 0 0 4.312 1.853c1.607 0 2.361-.711 2.361-1.506 0-2.362-7.816-.713-7.816-5.82 0-2.258 1.956-4.131 5.15-4.131 2.156 0 3.948.652 5.291 1.892l-1.607 2.157c-1.1-1.018-2.566-1.486-3.947-1.486-1.224 0-1.913.531-1.913 1.345 0 2.137 7.794.691 7.794 5.76 0 2.483-1.792 4.354-5.434 4.354-2.626-.001-4.497-.877-5.78-2.158zm12.753.488c0-.895.752-1.648 1.647-1.648a1.67 1.67 0 0 1 1.649 1.648c0 .897-.755 1.649-1.649 1.649a1.666 1.666 0 0 1-1.647-1.649z" fill="#FFF"/></svg>