<svg id="Layer_1" xmlns="http://www.w3.org/2000/svg" width="280" height="280" viewBox="0 0 280 280"><style>.st0{fill:#f7f7f7}.st1{fill:#ff6c4e}.st2{fill:#e2f4a3}.st3{fill:#66d4d8}.st4{fill:url(#SVGID_1_)}.st5{fill:url(#SVGID_2_)}.st6{fill:url(#SVGID_3_)}.st7{fill:url(#SVGID_4_)}.st8{fill:#2c39b0}.st9{fill:#fff}.st10{fill:url(#SVGID_5_)}.st11{fill:#4170be}</style><ellipse class="st0" cx="54" cy="161.1" rx="7.5" ry="4"/><ellipse class="st0" cx="231" cy="163.4" rx="4.2" ry="2.2"/><path class="st1" d="M56.3 137.4c0-2.4-1.7-3.4-3.7-2.2s-3.7 4.1-3.7 6.5 1.7 3.4 3.7 2.2c2-1.1 3.7-4 3.7-6.5z"/><path class="st2" d="M235.2 149.9c0 2.7-1.9 3.9-4.2 2.5-2.3-1.3-4.2-4.7-4.2-7.4s1.9-3.9 4.2-2.5c2.3 1.3 4.2 4.6 4.2 7.4z"/><ellipse class="st0" cx="83.2" cy="215.5" rx="2.8" ry="1.5"/><path class="st3" d="M87.4 183c0 2.7-1.9 3.9-4.2 2.5-2.3-1.3-4.2-4.7-4.2-7.4s1.9-3.9 4.2-2.5c2.3 1.3 4.2 4.6 4.2 7.4z"/><ellipse class="st0" cx="145.9" cy="203.1" rx="51.7" ry="27.4"/><linearGradient id="SVGID_1_" gradientUnits="userSpaceOnUse" x1="73.9" y1="174.3" x2="217.9" y2="174.3" gradientTransform="matrix(1 0 0 -1 0 280)"><stop offset="0" stop-color="#2c39b0"/><stop offset="1" stop-color="#72f2e0"/></linearGradient><circle class="st4" cx="145.9" cy="105.7" r="72"/><linearGradient id="SVGID_2_" gradientUnits="userSpaceOnUse" x1="117.894" y1="95.726" x2="175.068" y2="143.701" gradientTransform="matrix(1 0 0 -1 0 280)"><stop offset="0" stop-color="#2c39b0"/><stop offset="1" stop-color="#72f2e0"/></linearGradient><path class="st5" d="M143.8 167.3c-16 0-31.5-.9-45.1-5.9 12.5 10.6 28.7 17 46.4 17 19 0 36.2-7.3 49.1-19.3-15.1 6.5-32.1 8.2-50.4 8.2z"/><linearGradient id="SVGID_3_" gradientUnits="userSpaceOnUse" x1="92.85" y1="226.044" x2="205.386" y2="161.071" gradientTransform="matrix(1 0 0 -1 0 280)"><stop offset="0" stop-color="#2c39b0"/><stop offset="1" stop-color="#72f2e0"/></linearGradient><path class="st6" d="M74.1 103.6c16.9 14.5 41.4 23.7 68.7 23.7 30.8 0 58.1-11.7 74.9-29.7-4-36-34.5-63.9-71.6-63.9-39 0-70.8 31.1-72 69.9z"/><linearGradient id="SVGID_4_" gradientUnits="userSpaceOnUse" x1="106.562" y1="246.61" x2="182.285" y2="202.892" gradientTransform="matrix(1 0 0 -1 0 280)"><stop offset="0" stop-color="#2c39b0"/><stop offset="1" stop-color="#72f2e0"/></linearGradient><path class="st7" d="M146.1 33.7c-21.2 0-40.2 9.1-53.4 23.7 9.2 9.6 28.1 16.3 50.1 16.3 24.7 0 45.6-8.4 53-20-12.9-12.4-30.4-20-49.7-20z"/><path class="st2" d="M103.8 111.6c0-7.2-5.9-16.5-13.1-20.7-2.5-1.4-4.8-2.1-6.8-2-2.7-7.3-8.6-14.7-15.4-18.6-8.9-5.2-16.3-2.5-17 5.9-1.1-1.1-2.3-2-3.5-2.7-5.3-3-9.5-1.2-9.5 4s4.3 12 9.5 15c.2.1.3.2.5.3.2.1.3.2.5.3l41.8 24.1c.3.2.5.3.8.4 6.8 3.5 12.2 1 12.2-6z"/><path class="st8" d="M100.9 80.4c-2.3-1.3-4.6-2.1-6.6-2.1-3-7.6-8.9-14.7-15.5-18.5-4.5-2.6-8.8-3.4-12.2-2.2-2.3.8-4.1 2.6-5.1 5-1.1 0-2.1.1-3.1.4l-.1-.1c-2.5-1.5-5-1.9-6.9-1.3h-.3l-8.3 5.5c-.3.1-.6.2-.9.4-1.7 1-2.7 3-2.7 5.5 0 5.5 4.4 12.5 9.9 15.7.1.1.2.1.4.2l.2.1c.1.1.3.2.4.3l1 .6c.1 0 .1.1.2.1l40.6 23.4c.3.2.6.3.8.4 2.1 1.1 4.2 1.6 6 1.6 1.4 0 2.8-.3 3.9-1 .4-.2.7-.5 1-.8.4-.2 9.6-4 10.8-11.9 1.1-7.4-6-17-13.5-21.3zM56.7 63.8c-2.2 1.3-3.7 3.6-4.3 6.6-.8-.7-1.7-1.3-2.6-1.9-1.4-.8-2.8-1.3-4-1.5l6-4c1.4-.4 3.1-.1 4.9.8zm45.1 49.5c-2.1 1.3-5.1 1-8.4-.7-.2-.1-.5-.2-.7-.4L63 95.2v-5c0-.4-.3-.8-.8-.8s-.8.3-.8.8v4.2l-3.7-2.2V84c0-.4-.3-.8-.8-.8s-.8.3-.8.8v7.4L52.2 89v-4.6c0-.4-.3-.8-.8-.8s-.8.3-.8.8v3.8c-.1-.1-.2-.1-.3-.2l-.3-.2c-.1 0-.2-.1-.3-.2-5-2.9-9.2-9.4-9.2-14.4 0-1.5.4-2.6 1-3.5l1.7-1.1c.4-.1.8-.2 1.3-.2 1.3 0 2.8.5 4.4 1.4 1.2.7 2.3 1.5 3.4 2.6.2.2.5.3.8.2.3-.1.5-.4.5-.6.3-3.3 1.6-5.8 4-7 3-1.6 7.3-1 11.9 1.7 6.4 3.7 12.3 10.8 15 18.2.1.3.4.5.7.5 1.9-.1 4.1.6 6.4 1.9 7 4.1 12.7 13 12.7 20 .2 2.8-.8 4.9-2.5 6zm11.1-11.7c-.7 4.8-5 8-7.7 9.6.5-1.1.7-2.5.7-3.9 0-7.5-6.1-17-13.5-21.3-2.3-1.3-4.6-2.1-6.6-2.1-3-7.6-8.9-14.7-15.5-18.5-2.5-1.4-4.9-2.3-7.2-2.6.8-1.8 2.2-3.1 4-3.7 2.9-1 6.8-.3 11 2.1 6.4 3.7 12.3 10.8 15 18.2.1.3.4.5.7.5 1.9 0 4.1.6 6.4 1.9 8.6 4.9 13.6 14.2 12.7 19.8zm56.8-32.8c-.1-.4-.6-.6-1-.5-8.4 3-18.2 4.5-28.3 4.5-22.1 0-42.2-7.8-48.7-18.9 0-.1-.1-.1-.2-.2 13.2-12.4 30.7-19.4 48.8-19.4 8 0 15.9 1.3 23.5 4 .4.1.8-.1 1-.5.1-.4-.1-.8-.5-1-7.7-2.7-15.7-4-24-4-20.3 0-39.8 8.6-53.6 23.5-.3.3-.3.8 0 1.1.1.1.3.2.5.2s.4-.1.6-.2c.8-.9 1.7-1.8 2.5-2.6 6.9 11.7 27 19.6 49.9 19.6 10.3 0 20.3-1.6 28.8-4.6.6-.2.8-.6.7-1zm43.3 31.8c-.8-10.9-4-21.4-9.3-30.9-.2-.4-.7-.5-1-.3-.4.2-.5.7-.3 1 5.2 9.2 8.4 19.5 9.1 30.1-7.3 10.4-22.5 18.8-41.9 23.1-.4.1-.7.5-.6.9.1.4.4.6.7.6h.2c18.8-4.2 33.9-12.2 41.7-22.2 0 1 .1 1.9.1 2.9 0 26.2-14.4 50.3-37.5 62.8-.4.2-.5.7-.3 1 .1.3.4.4.7.4.1 0 .2 0 .4-.1 23.6-12.7 38.2-37.3 38.2-64.1 0-1.8-.1-3.5-.2-5.2zM137.5 177c-15.8-.6-30.9-6.5-42.9-16.7 10.9 4.3 23.7 7 37.3 7.8.4 0 .7-.3.7-.7s-.3-.8-.7-.8c-15.1-.9-29.2-4.1-40.8-9.4-.3-.3-.5-.5-.8-.7-12.6-12.5-20.1-29.1-21.1-46.8 0-.4-.4-.7-.8-.7s-.7.4-.7.8c1 18.1 8.7 35 21.6 47.8l.5.5c.1.2.2.3.4.4h.1c12.8 12.2 29.5 19.3 47.1 20 .4 0 .7-.3.7-.7.1-.5-.2-.8-.6-.8z"/><path class="st1" d="M193.6 31c-9.2 5.3-16.6 18.3-16.6 28.9 0 12.5 16.6 21.8 16.6 21.8s16.6-28.9 16.6-41c.1-10.7-7.4-15-16.6-9.7zm0 25.3c-3 1.7-5.4.3-5.4-3.2s2.4-7.7 5.4-9.4 5.4-.3 5.4 3.2-2.4 7.7-5.4 9.4z"/><path class="st8" d="M184.4 53.2c0 2 .7 3.4 2 4.2.5.3 1.1.5 1.8.5.9 0 1.8-.3 2.8-.8 3.2-1.9 5.8-6.3 5.8-10 0-2-.7-3.4-2-4.2-1.3-.7-2.9-.6-4.5.4-3.4 1.7-5.9 6.1-5.9 9.9zm8.5-9.4c.4 0 .7.1 1 .3.8.5 1.2 1.5 1.2 2.9 0 3.2-2.2 7.1-5 8.7-1.2.7-2.3.8-3 .4-.8-.5-1.2-1.5-1.2-2.9 0-3.2 2.2-7.1 5-8.7.7-.5 1.4-.7 2-.7z"/><path class="st8" d="M207.9 40.7c0-5.5-1.9-9.6-5.3-11.5-2-1.2-4.4-1.5-7-1 0-.1 0-.3-.1-.4-3.3-4.3-9.1-4.8-15.2-1.2-9.4 5.4-17 18.7-17 29.6 0 12.8 16.3 22 17 22.4h.1l9.8 3.7h.3c.1 0 .2 0 .3-.1.1-.1.2-.1.2-.2.9-1.1 16.9-29.1 16.9-41.3zm-6-10.2c2.9 1.7 4.5 5.3 4.5 10.2 0 10.7-13.7 35.6-16.2 39.9-3-1.8-15.6-10.2-15.6-20.7 0-10.4 7.3-23.1 16.3-28.3 2.5-1.4 4.9-2.2 7-2.2 1.5.1 2.8.4 4 1.1zm-37 25.7c0-10.4 7.3-23.1 16.3-28.3 5.4-3.1 10.2-2.8 13.1.7-1.3.4-2.6 1-4 1.8-9.4 5.4-17 18.7-17 29.6 0 8.2 6.6 14.9 11.6 18.8l-3.7-1.4c-1.1-.7-16.3-9.6-16.3-21.2z"/><path class="st9" d="M160.2 169.1v-37.2l4-11.6-3.8-12.8-7.9 4.6-4.3 17.8 4.1 6.6v37.2z"/><linearGradient id="SVGID_5_" gradientUnits="userSpaceOnUse" x1="140.224" y1="79.728" x2="172.233" y2="79.728" gradientTransform="matrix(1 0 0 -1 0 280)"><stop offset="0" stop-color="#72f2e0"/><stop offset="1" stop-color="#e2f4a3"/></linearGradient><path class="st10" d="M172.2 205.5c-.6-7.7-4.7-27.5-5.5-31.4l.7-.4V165l-7.1 4.1-7.9 4.6-7.1 4.1v8.7l.9-.5c-.9 4.9-5.3 29.6-5.8 38-.7 10.6 7.1 14.4 16 9.3 8.6-5.1 16.6-18.1 15.8-27.8z"/><path class="st8" d="M148.1 235.2c-.1 0-.2 0-.3-.1l-12-6.2c-.4-.2-.5-.6-.3-1s.6-.5 1-.3l12 6.2c.4.2.5.6.3 1-.2.2-.4.4-.7.4z"/><path class="st8" d="M175.3 204.9c-.7-7.9-4.8-28.1-5.6-31.7l.4-.2c.2-.1.4-.4.4-.6v-8.7c0-.3-.1-.5-.4-.6-.1-.1-.2-.1-.3-.1l-6.4-3.1v-29l4-11.5c.1-.1.1-.3 0-.5l-3.8-12.7c0-.1-.1-.2-.2-.3h-.1c-.1 0-.1-.1-.2-.1l-9.3-4.6c-.2-.1-.5-.1-.7 0l-7.9 4.6c-.2.1-.3.3-.4.5l-4.3 17.8v.5l3.9 6.4v36.5l-6.8 3.9-.2.2-.1.1c0 .1-.1.2-.1.3v9s0 .1.1.1c0 0 0 .1.1.1l.1.1.1.1.4.2c-.7 4-5.1 28.8-5.7 37.3-.2 3.7-.1 8.2 3.2 10.1.1.1.2.1.4.1.3 0 .5-.1.7-.4.2-.4.1-.8-.3-1-2.6-1.5-2.7-5.4-2.5-8.7.5-8.2 4.7-31.7 5.6-36.7l7.5 3.7c.1.1.2.1.3.1h.1c-1.1 6.1-5.2 29.4-5.7 37.4-.3 5.1 1.2 9.1 4.4 11 1.4.9 3.1 1.3 4.9 1.3 2.4 0 5.1-.8 7.8-2.3 9.8-5.6 17.4-18.9 16.6-28.6zm-36.4-24.7v-7l7.8 3.8v7l-7.8-3.8zm15-44.5v35.5l-7.8-3.8v-35.5l7.8 3.8zm-8.6 33l7.7 3.8-5.6 3.2-7.7-3.8 5.6-3.2zm23.2 3.5l-.8.4v-3.1c0-.4-.3-.8-.8-.8s-.8.3-.8.8v3.9l-1.8 1.1v-3.1c0-.4-.3-.8-.8-.8s-.8.3-.8.8v3.9l-1.8 1.1v-3.1c0-.4-.3-.8-.8-.8s-.8.3-.8.8v3.9l-1.8 1.1v-3.1c0-.4-.3-.8-.8-.8s-.8.3-.8.8v3.9l-1.8 1.1v-3.1c0-.4-.3-.8-.8-.8s-.8.3-.8.8v3.9l-1.8 1.1V179c0-.4-.3-.8-.8-.8s-.8.3-.8.8v3.9l-1.2.7v-7l6.7-3.9 7.9-4.6 6-3.5v7.6zm-.5-8.4l-4.7 2.7v-5l4.7 2.3zm-6.2-33.4v36.9l-1.2.7v-19c0-.4-.3-.8-.8-.8s-.8.3-.8.8v20l-1 .6v-11.8c0-.4-.3-.8-.8-.8s-.8.3-.8.8v12.6l-1.2.7V135s0-.1-.1-.1l-3.9-6.3 4.1-17.2 6.8-3.9 3.5 11.6-3.8 11.3zm-15.6-23.7l7.3-4.2 7.7 3.8-6.7 3.9c-.2.1-.3.3-.4.5l-4 16.9-7.9-3.9 4-17zm-2.9 19.2l6.8 3.3 2.6 4.2-6.8-3.3-2.6-4.2zm14.9 106.2c-4.2 2.4-8.3 2.8-11.1 1-2.7-1.7-4-5.1-3.7-9.7.6-8.6 5.3-35.1 5.9-38.4l11.5-6.7 7.5-4.3c1 4.6 4.8 23.6 5.5 31 .7 9.1-6.7 22-15.6 27.1z"/><path class="st8" d="M161.5 213.1c-.9-.5-2.1-.4-3.3.3-2.3 1.3-4 4.4-4 7 0 1.4.5 2.5 1.5 3 .4.2.8.3 1.3.3.6 0 1.3-.2 2-.6 2.3-1.3 4-4.4 4-7 0-1.3-.5-2.4-1.5-3zm-3.3 8.8c-.7.4-1.4.5-1.8.3-.4-.3-.7-.9-.7-1.7 0-2.1 1.5-4.7 3.3-5.7.5-.3.9-.4 1.2-.4.2 0 .4 0 .6.1.4.3.7.9.7 1.7 0 2.1-1.5 4.7-3.3 5.7z"/><path class="st0" d="M167 252l-8.5-4.9a3.7 3.7 0 0 0-3.8 0L138 257c-1.2.7-1.9 1.9-1.9 3.3s.7 2.6 1.9 3.3l8.5 4.9c.6.3 1.2.5 1.9.5s1.3-.2 1.9-.5l16.6-9.8c1.2-.7 1.9-1.9 1.9-3.3.1-1.5-.7-2.7-1.8-3.4z"/><ellipse class="st11" cx="132.7" cy="64" rx="2.8" ry="1.5"/><path class="st3" d="M136.9 53.9c0 2.7-1.9 3.9-4.2 2.5-2.3-1.3-4.2-4.7-4.2-7.4s1.9-3.9 4.2-2.5 4.2 4.7 4.2 7.4z"/></svg>