<svg width="139" height="206" viewBox="0 0 139 206" xmlns="http://www.w3.org/2000/svg"><title>Group Copy</title><g fill="none" fill-rule="evenodd"><path d="M.565 1.051a.993.993 0 0 0-.369.887c.003.077.015.15.035.225l14.757 58.251a1 1 0 0 0 1.914.084l7.321-21.093 15.147 2.163a1 1 0 0 0 .945-1.584l-5.81-7.868 9.843-6.636a.999.999 0 0 0-.087-1.71L1.653.96a.992.992 0 0 0-1.088.091zm3.222 7.003l18.661 30.364-6.34 18.269L3.786 8.054zm33.5 31.196L26.26 37.675l6.586-4.44 4.442 6.015zm4.567-14.503l-18 12.138L3.909 4.432l37.945 20.315z" fill-rule="nonzero" fill="#FFF"/><path d="M137.696 205.249c-7.866-74.997-31.943-117.632-72.232-127.906-33.89-1.903-47.622 8.912-41.194 32.445 20.885 27.038 38.677 17.612 53.375-28.277.187-13.704-11.273-23.937-34.381-30.696" stroke="#FFF" stroke-width="2" stroke-dasharray="9"/></g></svg>