<svg width="136" height="208" viewBox="0 0 136 208" xmlns="http://www.w3.org/2000/svg"><title>Group Copy 2</title><g fill="none" fill-rule="evenodd"><path d="M.895 207.181a.993.993 0 0 0 .96-.007.957.957 0 0 0 .194-.12l47.855-36.344c.351-.267.486-.734.332-1.147a1.002 1.002 0 0 0-1.003-.647l-22.277 1.502-3.927-14.788a1 1 0 0 0-1.828-.252L16.23 163.8l-9.954-6.467a.999.999 0 0 0-1.54.749L.387 206.216a.992.992 0 0 0 .508.965zm5.187-5.702l20.66-29.042 19.293-1.301-39.953 30.343zm15.627-43.027l2.859 10.766-6.661-4.327 3.802-6.439zm-15.134 1.463l18.206 11.827-22.08 31.04 3.874-42.867z" fill-rule="nonzero" fill="#FFF"/><path d="M135.279 1.165C69.318 37.709 39.479 76.53 45.764 117.63c11.49 31.94 26.811 40.355 45.962 25.243 16.728-29.79 1.1-42.484-46.884-38.083-12.689 5.182-17.63 19.73-14.823 43.641" stroke="#FFF" stroke-width="2" stroke-dasharray="9"/></g></svg>