<svg width="225" height="115" viewBox="0 0 225 115" xmlns="http://www.w3.org/2000/svg"><title>Group</title><g fill="none" fill-rule="evenodd"><path d="M224.312 111.358a.993.993 0 0 0-.141-.95.957.957 0 0 0-.146-.175l-42.65-42.33a1.002 1.002 0 0 0-1.183-.17 1.002 1.002 0 0 0-.5 1.084l4.587 21.85-14.097 5.947a1 1 0 0 0 .005 1.845l9.032 3.752-5.019 10.757a.999.999 0 0 0 .956 1.42l48.27-2.392a.992.992 0 0 0 .886-.638zm-6.369-4.343L186.31 90.6l-3.974-18.926 35.608 35.342zM173.16 97.53l10.263-4.33-3.357 7.198-6.906-2.868zm3.555 14.783l9.178-19.675 33.81 17.545-42.988 2.13z" fill-rule="nonzero" fill="#FFF"/><path d="M1.617 6.73C26.033 50.35 58.154 66.19 97.98 54.246c30.03-15.823 36.23-32.166 18.6-49.027C84.752-7.2 74.356 10.043 85.392 56.947c27.85 28.456 53.42 39.63 76.709 33.522" stroke="#FFF" stroke-width="2" stroke-dasharray="9"/></g></svg>