<svg width="119" height="204" viewBox="0 0 119 204" xmlns="http://www.w3.org/2000/svg"><title>Group 2</title><g fill="none" fill-rule="evenodd"><path d="M117.84.897a.993.993 0 0 0-.893-.353.957.957 0 0 0-.224.039L58.738 16.354a1.002 1.002 0 0 0-.738.939c-.011.441.269.838.688.976l21.217 6.952-1.898 15.182a1 1 0 0 0 1.6.918l7.765-5.946 6.807 9.725a.999.999 0 0 0 1.708-.117l22.063-43a.992.992 0 0 0-.11-1.086zm-6.945 3.344L80.861 23.429l-18.377-6.021 48.411-13.167zm-30.607 34.04l1.382-11.053 4.555 6.507-5.937 4.546zm14.58 4.313l-12.45-17.786 32.1-20.508-19.65 38.294z" fill-rule="nonzero" fill="#FFF"/><path d="M4.762 203.615c-11.044-48.755 2.228-82.018 39.816-99.79 32.905-8.336 48.448-.34 46.628 23.988-15.342 30.526-34.606 24.668-57.79-17.573C35.074 70.458 46.599 45.044 67.993 34" stroke="#FFF" stroke-width="2" stroke-dasharray="9"/></g></svg>