<svg id="Layer_1" xmlns="http://www.w3.org/2000/svg" width="280" height="280" viewBox="0 0 280 280"><style>.st0{fill:#f7f7f7}.st1{fill:url(#SVGID_1_)}.st2{fill:url(#SVGID_2_)}.st3{fill:url(#SVGID_3_)}.st4{fill:#2c39b0}.st5{fill:#5dbed2}.st6{fill:#fff}.st7{fill:url(#SVGID_4_)}.st8{opacity:.21;fill:#7a7f65}.st9{fill:#ff6c4e}.st10{fill:#dbf4a7}</style><path class="st0" d="M47.7 145.7l1-1.9-7.3.6c-.2-.7-1-1.1-2.3-1.1-1.3.1-2.7.6-3.6 1.3l-7.1.1-1 1.9 5.8 1.6-4.1 7.8-17.9-1-2.2 4.2 16.1 4.5-1.3 2.4c-.7 1.3.3 2.2 2.2 2.1 1.9-.1 3.9-1.2 4.6-2.4l1.3-2.4 21.8-6.2 2.2-4.2-20 2.9 4.1-7.8 7.7-2.4zm112.8 130.1l-121-69.9c-5.9-3.4-5.9-12 0-15.4l70.9-40.9c2.8-1.6 6.2-1.6 8.9 0l121 69.9c5.9 3.4 5.9 12 0 15.4l-70.9 40.9c-2.7 1.6-6.1 1.6-8.9 0z"/><linearGradient id="SVGID_1_" gradientUnits="userSpaceOnUse" x1="28.684" y1="183.575" x2="238.38" y2="183.575"><stop offset="0" stop-color="#2c39b0"/><stop offset="1" stop-color="#72f2e0"/></linearGradient><path class="st1" d="M154.1 246.7l-121-69.9c-5.9-3.4-5.9-12 0-15.4l70.9-40.9c2.8-1.6 6.2-1.6 8.9 0l121 69.9c5.9 3.4 5.9 12 0 15.4L163 246.7c-2.7 1.6-6.1 1.6-8.9 0z"/><linearGradient id="SVGID_2_" gradientUnits="userSpaceOnUse" x1="66.876" y1="173.132" x2="197.345" y2="173.132"><stop offset="0" stop-color="#2c39b0"/><stop offset=".999" stop-color="#55a6cc"/></linearGradient><path class="st2" d="M197.3 204.2l-9.2 5.6L66.9 142l9.3-5.5z"/><linearGradient id="SVGID_3_" gradientUnits="userSpaceOnUse" x1="94.506" y1="165.939" x2="220.628" y2="165.939"><stop offset="0" stop-color="#2c39b0"/><stop offset=".999" stop-color="#55a6cc"/></linearGradient><path class="st3" d="M220.6 198.4l-4.9 2.9-121.2-67.8 4.9-2.9z"/><path class="st4" d="M254 162.3c-.3 0-.6-.3-.6-.6V95.2c0-2.6-1.4-4.9-3.6-6.2L126.1 17.6c-2.3-1.3-4.9-1.3-7.2 0s-3.6 3.6-3.6 6.2c0 .3-.3.6-.6.6s-.6-.3-.6-.6c0-3 1.6-5.8 4.2-7.3s5.8-1.5 8.4 0L250.4 88c2.6 1.5 4.2 4.3 4.2 7.3v66.5c0 .2-.3.5-.6.5zm-7.8 30.7c-1.4 0-2.9-.4-4.2-1.1l-123.7-71.4a8.44 8.44 0 0 1-4.2-7.3c0-.3.3-.6.6-.6s.6.3.6.6c0 2.6 1.4 4.9 3.6 6.2l123.7 71.4c2.3 1.3 4.9 1.3 7.2 0s3.6-3.6 3.6-6.2v-13c0-.3.3-.6.6-.6s.6.3.6.6v13c0 3-1.6 5.8-4.2 7.3-1.3.7-2.8 1.1-4.2 1.1z"/><path class="st4" d="M247.4 165.5c-.3 0-.6-.3-.6-.6l-.3-69.3-123.9-71.4v3.2c0 .3-.3.6-.6.6s-.6-.3-.6-.6v-4.2c0-.2.1-.4.3-.5.2-.1.4-.1.6 0l125.1 72.2c.2.1.3.3.3.5l.3 69.6c0 .3-.2.5-.6.5zm.1 20.9c-.1 0-.2 0-.3-.1l-125.1-72.2c-.3-.2-.4-.5-.2-.8.2-.3.5-.4.8-.2l124.2 71.6v-8.8c0-.3.3-.6.6-.6s.6.3.6.6v9.9c0 .2-.1.4-.3.5-.1.1-.2.1-.3.1zm-2.1 10.8c-.2-3.2-2-6-4.7-7.6l-121-69.9c-.3-.2-.7-.1-.8.2-.2.3-.1.7.2.8l121 69.9c2.6 1.5 4.2 4.2 4.2 7.2s-1.6 5.7-4.2 7.2l-70.9 41c-2.6 1.5-5.8 1.5-8.3 0l-121-69.9c-2.6-1.5-4.2-4.2-4.2-7.2s1.6-5.7 4.2-7.2l49.3-28.5c.3-.2.4-.5.2-.8-.2-.3-.5-.4-.8-.2l-49.3 28.5c-2 1.2-3.5 3-4.2 5-2.8 7 .1 12.5 4.2 14.9l121 69.9c1.5.8 3.1 1.3 4.8 1.3 1.6 0 3.3-.4 4.8-1.3l70.9-40.9c4-2.4 5.7-8.5 4.6-12.4zm-5.4 11.4l-70.9 40.9c-2.6 1.5-5.8 1.5-8.3 0l-121-69.9c-2.2-1.3-4.3-3.7-4.7-7.2.8 1.9 2.2 3.6 4.1 4.7l121 69.9c1.5.8 3.1 1.3 4.8 1.3 1.6 0 3.3-.4 4.8-1.3l70.9-40.9c1.5-.9 2.7-2.1 3.5-3.5-.7 2.4-2.1 4.8-4.2 6z"/><path class="st4" d="M100.8 150c-.4 0-.8-.1-1.2-.3l-7-4c-.4-.2-.6-.6-.6-1 0-.5.3-.9.8-1.2.3-.2.7-.1.8.2.2.3.1.7-.2.8-.2.1-.2.2-.2.2l7 4c.3.2 1 .2 1.4-.1.3-.2.7-.1.8.2.2.3.1.7-.2.8-.4.3-.9.4-1.4.4zm11.5 6.6c-.4 0-.9-.1-1.2-.3l-7-4c-.4-.2-.6-.6-.6-1 0-.5.3-.9.8-1.2.3-.2.7-.1.8.2.2.3.1.7-.2.8-.2.1-.2.2-.2.2l7 4c.3.2 1 .2 1.4-.1.3-.2.7-.1.8.2.2.3.1.7-.2.8-.4.3-.9.4-1.4.4zm11.5 6.7c-.4 0-.9-.1-1.2-.3l-7-4c-.4-.2-.6-.6-.6-1 0-.5.3-.9.8-1.2.3-.2.7-.1.8.2.2.3.1.7-.2.8-.2.1-.2.2-.2.2l7 4c.3.2 1 .2 1.4-.1.3-.2.7-.1.8.2.2.3.1.7-.2.8-.4.2-.9.4-1.4.4zm11.5 6.6c-.4 0-.8-.1-1.2-.3l-7-4c-.4-.2-.6-.6-.6-1 0-.5.3-.9.8-1.2.3-.2.7-.1.8.2.2.3.1.7-.2.8-.2.1-.2.2-.2.2l7 4c.3.2 1 .2 1.4-.1.3-.2.7-.1.8.2.2.3.1.7-.2.8-.4.3-.9.4-1.4.4zm11.5 6.6c-.4 0-.9-.1-1.2-.3l-7-4c-.4-.2-.6-.6-.6-1 0-.5.3-.9.8-1.2.3-.2.7-.1.8.2.2.3.1.7-.2.8-.2.1-.2.2-.2.2l7 4c.3.2 1 .2 1.4-.1.3-.2.7-.1.8.2.2.3.1.7-.2.8-.4.3-.9.4-1.4.4zm11.5 6.7c-.4 0-.8-.1-1.2-.3l-7-4c-.4-.2-.6-.6-.6-1 0-.5.3-.9.8-1.2.3-.2.7-.1.8.2.2.3.1.7-.2.8-.2.1-.2.2-.2.2l7 4c.3.2 1 .2 1.4-.1.3-.2.7-.1.8.2.2.3.1.7-.2.8-.4.2-.9.4-1.4.4zm11.5 6.6c-.4 0-.8-.1-1.2-.3l-7-4c-.4-.2-.6-.6-.6-1 0-.5.3-.9.8-1.2.3-.2.7-.1.8.2.2.3.1.7-.2.8-.2.1-.2.2-.2.2l7 4c.3.2 1 .2 1.4-.1.3-.2.7-.1.8.2.2.3.1.7-.2.8-.4.3-1 .4-1.4.4zm11.4 6.6c-.4 0-.9-.1-1.2-.3l-7-4c-.4-.2-.6-.6-.6-1 0-.5.3-.9.8-1.2.3-.2.7-.1.8.2.2.3.1.7-.2.8-.2.1-.2.2-.2.2l7 4c.3.2 1 .2 1.4-.1.3-.2.7-.1.8.2.2.3.1.7-.2.8-.3.3-.9.4-1.4.4zm11.5 6.7c-.4 0-.8-.1-1.2-.3l-7-4c-.4-.2-.6-.6-.6-1 0-.5.3-.9.8-1.2.3-.2.7-.1.8.2.2.3.1.7-.2.8-.2.1-.2.2-.2.2l7 4c.3.2 1 .2 1.4-.1l9.7-5.6c.3-.2.7-.1.8.2.2.3.1.7-.2.8l-9.7 5.6c-.4.3-.9.4-1.4.4zm11.5 6.6c-.4 0-.9-.1-1.2-.3l-7-4c-.4-.2-.6-.6-.6-1 0-.5.3-.9.8-1.2l9.7-5.6c.8-.5 1.9-.5 2.6-.1l7 4c.4.2.6.6.6 1 0 .5-.3.9-.8 1.2l-9.7 5.6c-.4.3-.9.4-1.4.4zm3.2-11.3c-.3 0-.6.1-.8.2l-9.7 5.6c-.2.1-.2.2-.2.2l7 4c.3.2 1 .2 1.4-.1l9.7-5.6c.2-.1.2-.2.2-.2l-7-4c-.2 0-.4-.1-.6-.1zm-85.2-53.8c-.4 0-.9-.1-1.2-.3l-13-7.5c-.4-.2-.6-.6-.6-1 0-.5.3-.9.8-1.2l9.7-5.6c.8-.5 1.9-.5 2.6-.1l13 7.5c.4.2.6.6.6 1 0 .5-.3.9-.8 1.2l-9.7 5.6c-.4.3-.9.4-1.4.4zm-2.9-14.7c-.3 0-.6.1-.8.2l-9.7 5.6c-.2.1-.2.2-.2.2l13.1 7.5c.3.2 1 .2 1.4-.1l9.7-5.6c.2-.1.2-.2.2-.2l-13.1-7.5c-.2-.1-.4-.1-.6-.1zm14.4 21.4c-.4 0-.9-.1-1.2-.3l-7-4c-.4-.2-.6-.6-.6-1 0-.5.3-.9.8-1.2l9.7-5.6c.8-.5 1.9-.5 2.6-.1l7 4c.4.2.6.6.6 1 0 .5-.3.9-.8 1.2l-9.7 5.6c-.4.2-.9.4-1.4.4zm-.6-1.4c.3.2 1 .2 1.4-.1l9.7-5.6c.2-.1.2-.2.2-.2l-7-4c-.3-.2-1-.2-1.4.1l-9.7 5.6c-.2.1-.2.2-.2.2l7 4zm12.1 8c-.4 0-.8-.1-1.2-.3l-7-4c-.4-.2-.6-.6-.6-1 0-.5.3-.9.8-1.2l9.7-5.6c.8-.5 1.9-.5 2.6-.1l7 4c.4.2.6.6.6 1 0 .5-.3.9-.8 1.2l-9.7 5.6c-.4.3-.9.4-1.4.4zm-.6-1.3c.3.2 1 .2 1.4-.1l9.7-5.6c.2-.1.2-.2.2-.2l-7-4c-.3-.2-1-.2-1.4.1l-9.7 5.6c-.2.1-.2.2-.2.2l7 4zm12.1 7.9c-.4 0-.8-.1-1.2-.3l-7-4c-.4-.2-.6-.6-.6-1 0-.5.3-.9.8-1.2l9.7-5.6c.8-.5 1.9-.5 2.6-.1l7 4c.4.2.6.6.6 1 0 .5-.3.9-.8 1.2l-9.7 5.6c-.4.3-.9.4-1.4.4zm3.1-11.2c-.3 0-.6.1-.8.2l-9.7 5.6c-.2.1-.2.2-.2.2l7 4c.3.2 1 .2 1.4-.1l9.7-5.6c.2-.1.2-.2.2-.2l-7-4c-.1-.1-.3-.1-.6-.1zm8.4 17.9c-.4 0-.8-.1-1.2-.3l-7-4c-.4-.2-.6-.6-.6-1 0-.5.3-.9.8-1.2l9.7-5.6c.8-.5 1.9-.5 2.6-.1l7 4c.4.2.6.6.6 1 0 .5-.3.9-.8 1.2l-9.7 5.6c-.4.2-.9.4-1.4.4zm-.6-1.4c.3.2 1 .2 1.4-.1l9.7-5.6c.2-.1.2-.2.2-.2l-7-4c-.3-.2-1-.2-1.4.1l-9.7 5.6c-.2.1-.2.2-.2.2l7 4zm12.1 8c-.4 0-.9-.1-1.2-.3l-7-4c-.4-.2-.6-.6-.6-1 0-.5.3-.9.8-1.2l9.7-5.6c.8-.5 1.9-.5 2.6-.1l7 4c.4.2.6.6.6 1 0 .5-.3.9-.8 1.2l-9.7 5.6c-.4.3-.9.4-1.4.4zm3.1-11.3c-.3 0-.6.1-.8.2l-9.7 5.6c-.2.1-.2.2-.2.2l7 4c.3.2 1 .2 1.4-.1l9.7-5.6c.2-.1.2-.2.2-.2l-7-4c-.1 0-.4-.1-.6-.1zm8.4 17.9c-.4 0-.8-.1-1.2-.3l-7-4c-.4-.2-.6-.6-.6-1 0-.5.3-.9.8-1.2l9.7-5.6c.8-.5 1.9-.5 2.6-.1l7 4c.4.2.6.6.6 1 0 .5-.3.9-.8 1.2l-9.7 5.6c-.4.3-.9.4-1.4.4zm3.1-11.2c-.3 0-.6.1-.8.2l-9.7 5.6c-.2.1-.2.2-.2.2l7 4c.3.2 1 .2 1.4-.1l9.7-5.6c.2-.1.2-.2.2-.2l-7-4c-.2-.1-.4-.1-.6-.1zm25 27.5c-.4 0-.9-.1-1.2-.3l-12.2-7c-.3-.2-.4-.5-.2-.8.2-.3.5-.4.8-.2l12.2 7c.3.2 1 .2 1.4-.1l9.7-5.6c.2-.1.2-.2.2-.2l-3.8-2.1c-.3-.2-.4-.5-.2-.8.2-.3.5-.4.8-.2l3.8 2.2c.4.2.6.6.6 1 0 .5-.3.9-.8 1.2l-9.7 5.6c-.3.2-.9.3-1.4.3zM91.5 162.4c-.4 0-.8-.1-1.2-.3l-13-7.5c-.4-.2-.6-.6-.6-1 0-.5.3-.9.8-1.2l9.7-5.6c.8-.5 1.9-.5 2.6-.1l13 7.5c.4.2.6.6.6 1 0 .5-.3.9-.8 1.2l-9.7 5.6c-.4.2-.9.4-1.4.4zm-.6-1.4c.3.2 1 .2 1.4-.1l9.7-5.6c.2-.1.2-.2.2-.2l-13.1-7.5c-.3-.2-1-.2-1.4.1l-9.7 5.6c-.2.1-.2.2-.2.2l13.1 7.5zm12.1 8c-.4 0-.9-.1-1.2-.3l-7-4c-.4-.2-.6-.6-.6-1 0-.5.3-.9.8-1.2l9.7-5.6c.8-.5 1.9-.5 2.6-.1l7 4c.4.2.6.6.6 1 0 .5-.3.9-.8 1.2l-9.7 5.6c-.4.3-.9.4-1.4.4zm3.1-11.3c-.3 0-.6.1-.8.2l-9.7 5.6c-.2.1-.2.2-.2.2l7 4c.3.2 1 .2 1.4-.1l9.7-5.6c.2-.1.2-.2.2-.2l-7-4c-.1 0-.3-.1-.6-.1zm8.4 17.9c-.4 0-.9-.1-1.2-.3l-7-4c-.4-.2-.6-.6-.6-1 0-.5.3-.9.8-1.2l9.7-5.6c.8-.5 1.9-.5 2.6-.1l7 4c.4.2.6.6.6 1 0 .5-.3.9-.8 1.2l-9.7 5.6c-.4.3-.9.4-1.4.4zm-.6-1.3c.3.2 1 .2 1.4-.1l9.7-5.6c.2-.1.2-.2.2-.2l-7-4c-.3-.2-1-.2-1.4.1l-9.7 5.6c-.2.1-.2.2-.2.2l7 4zm35.4 21.5c-.4 0-.8-.1-1.2-.3L117.8 178c-.4-.2-.6-.6-.6-1 0-.5.3-.9.8-1.2l9.7-5.6c.8-.5 1.9-.5 2.6-.1l30.3 17.5c.4.2.6.6.6 1 0 .5-.3.9-.8 1.2l-9.7 5.6c-.3.2-.9.4-1.4.4zM129.1 171c-.3 0-.6.1-.8.2l-9.7 5.6c-.2.1-.2.2-.2.2l30.4 17.5c.3.2 1 .2 1.4-.1l9.7-5.6c.2-.1.2-.2.2-.2l-30.4-17.5c-.1-.1-.4-.1-.6-.1zm31.4 31.2c-.4 0-.8-.1-1.2-.3l-7-4c-.4-.2-.6-.6-.6-1 0-.5.3-.9.8-1.2l9.7-5.6c.8-.5 1.9-.5 2.6-.1l7 4c.4.2.6.6.6 1 0 .5-.3.9-.8 1.2l-9.7 5.6c-.4.2-1 .4-1.4.4zm3.1-11.3c-.3 0-.6.1-.8.2l-9.7 5.6c-.2.1-.2.2-.2.2l7 4c.3.2 1 .2 1.4-.1l9.7-5.6c.2-.1.2-.2.2-.2l-7-4c-.2-.1-.4-.1-.6-.1zm8.3 17.9c-.4 0-.8-.1-1.2-.3l-7-4c-.4-.2-.6-.6-.6-1 0-.5.3-.9.8-1.2l9.7-5.6c.8-.5 1.9-.5 2.6-.1l7 4c.4.2.6.6.6 1 0 .5-.3.9-.8 1.2l-9.7 5.6c-.3.3-.9.4-1.4.4zm-.5-1.3c.3.2 1 .2 1.4-.1l9.7-5.6c.2-.1.2-.2.2-.2l-7-4c-.3-.2-1-.2-1.4.1l-9.7 5.6c-.2.1-.2.2-.2.2l7 4zm17.2 10.9c-.4 0-.8-.1-1.2-.3l-12.2-7c-.4-.2-.6-.6-.6-1 0-.5.3-.9.8-1.2l9.7-5.6c.8-.5 1.9-.5 2.6-.1l12.2 7c.4.2.6.6.6 1 0 .5-.3.9-.8 1.2L190 218c-.4.3-.9.4-1.4.4zm-.5-1.3c.3.2 1 .2 1.4-.1l9.7-5.6c.2-.1.2-.2.2-.2l-12.2-7c-.3-.2-1-.2-1.4.1L176 210c-.2.1-.2.2-.2.2l12.3 6.9zm-62.7-.5c-.4 0-.9-.1-1.2-.3l-42.9-24.8c-.4-.2-.6-.6-.6-1 0-.5.3-.9.8-1.2l22.8-13.2c.8-.5 1.9-.5 2.6-.1l42.9 24.8c.4.2.6.6.6 1 0 .5-.3.9-.8 1.2l-22.8 13.2c-.3.3-.9.4-1.4.4zM105.8 177c-.3 0-.6.1-.8.2l-22.8 13.2c-.2.1-.2.2-.2.2l43 24.7c.3.2 1 .2 1.4-.1l22.8-13.2c.2-.1.2-.2.2-.2l-43-24.7c-.2-.1-.4-.1-.6-.1z"/><path class="st5" d="M240.8 98.6l-2.8 1.6-125.2-72.1 2.9-1.6z"/><path class="st5" d="M241.2 188.6l-2.8 1.6-.6-90 2.8-1.6z"/><path class="st6" d="M235.4 187.9l-125.1-72.2-.5-89.1 125.1 72.2z"/><path class="st6" d="M237.9 109.3L113 37.2v-9.8l124.9 72.1z"/><path class="st4" d="M241.7 177.9c0-.3-.3-.6-.6-.6s-.6.3-.6.6v10.6l-1.6.9v-10.2c0-.3-.3-.6-.6-.6s-.6.3-.6.6v10.2l-11.1-6.4c-.3-.2-.7-.1-.8.2-.2.3-.1.7.2.8l12 6.9c.1 0 .2.1.3.1.1 0 .2 0 .3-.1l2.8-1.6c.2-.1.3-.3.3-.5v-10.9zm-13.1-76.6c-.1 0-.2-.1-.3-.2l-1.9-3.3c-.1-.2 0-.4.1-.5.2-.1.4 0 .5.1l1.9 3.3c.1.2 0 .4-.1.5-.1 0-.2.1-.2.1z"/><path class="st4" d="M226.7 100.2c-.1 0-.2-.1-.3-.2-.1-.2 0-.4.1-.5l1.9-1.1c.2-.1.4 0 .5.1.1.2 0 .4-.1.5l-1.9 1.1c-.1.1-.1.1-.2.1zm-3.3-2h-.2l-1.9-1.1c-.1-.1-.2-.2-.2-.3v-2.2c0-.1.1-.2.2-.3.1-.1.2-.1.3 0l1.9 1.1c.1.1.2.2.2.3v2.2c0 .1-.1.2-.2.3h-.1zm-1.5-1.6l1.2.7v-1.4l-1.2-.7v1.4zm-3.1-1h-.2l-1.8-1c-.2-.1-.2-.3-.1-.5s.3-.2.5-.1l1.8 1c.2.1.2.3.1.5-.1 0-.2.1-.3.1z"/><path class="st4" d="M241.4 98.4c0-.1 0-.2-.1-.3 0-.1-.1-.1-.2-.2L116 25.7c-.2-.1-.4-.1-.6 0l-2.8 1.6c-.1 0-.1.1-.2.2v.1c0 .1 0 .1-.1.2l.4 90.5c0 .3.3.6.6.6s.6-.3.6-.6l-.4-89.4 123.9 71.5v8.5l-11.9-6.9c-.2-.1-.4 0-.5.1-.1.2 0 .4.1.5l12.3 7.1.3 59.2c0 .3.3.6.6.6s.6-.3.6-.6l-.3-68.5 1.6-.9.3 67.4c0 .3.3.6.6.6s.6-.3.6-.6l-.3-68.5zM114 27.8l1.6-.9 123.9 71.5-1.6.9L114 27.8z"/><path class="st5" d="M218.8 96.1l-3.1 1.8L79.3 19.2l3.1-1.7z"/><path class="st5" d="M219.2 194.3l-3.1 1.7-.6-98.2 3.1-1.7z"/><path class="st6" d="M212.1 194.4L75.6 115.7 75 18.6l136.5 78.7z"/><path class="st6" d="M215.7 108.2L79.4 29.6V18.9l136.3 78.6zm-15.2-8.8l15.3 8.8m-12.4-13.1l2.1 3.5"/><path class="st4" d="M205.5 99c-.1 0-.2-.1-.3-.2l-2.1-3.6c-.1-.2 0-.4.1-.5.2-.1.4 0 .5.1l2.1 3.6c.1.2 0 .4-.1.5-.1.1-.2.1-.2.1z"/><path class="st6" d="M205.5 96.3l-2.1 1.2"/><path class="st4" d="M203.4 97.8c-.1 0-.2-.1-.3-.2-.1-.2 0-.4.1-.5l2.1-1.2c.2-.1.4 0 .5.1.1.2 0 .4-.1.5l-2.1 1.2c-.1.1-.1.1-.2.1z"/><path class="st6" d="M197.8 94.2l2 1.2V93l-2-1.2z"/><path class="st4" d="M199.8 95.7h-.2l-2-1.2c-.1-.1-.2-.2-.2-.3v-2.4c0-.1.1-.2.2-.3.1-.1.2-.1.3 0l2 1.2c.1.1.2.2.2.3v2.4c0 .1-.1.2-.2.3h-.1zm-1.7-1.7l1.3.8v-1.5l-1.3-.8V94z"/><path class="st6" d="M194.8 92.5l-2-1.2"/><path class="st4" d="M194.8 92.8h-.2l-2-1.1c-.2-.1-.2-.3-.1-.5s.3-.2.5-.1l2 1.1c.2.1.2.3.1.5-.1.1-.2.1-.3.1z"/><path class="st4" d="M219.4 95.9c0-.1 0-.2-.1-.3 0-.1-.1-.1-.2-.2L82.7 16.7c-.2-.1-.4-.1-.6 0L79 18.5c-.1 0-.1.1-.2.2v.1c0 .1 0 .1-.1.2l.4 98.7c0 .3.3.6.6.6s.6-.3.6-.6L79.9 20l135.2 78v9.4L200.6 99c-.2-.1-.4 0-.5.1-.1.2 0 .4.1.5l14.8 8.6.4 87-13.2-7.6c-.3-.2-.7-.1-.8.2-.2.3-.1.7.2.8l14.1 8.1c.1 0 .2.1.3.1.1 0 .2 0 .3-.1l3.1-1.8c.2-.1.3-.3.3-.5l-.3-98.5zM80.5 19l1.9-1.1 135.2 78-1.9 1.1L80.5 19zm136.2 176.3l-.4-97.3 1.9-1.1.4 97.3-1.9 1.1z"/><path class="st5" d="M195.3 95.9l-3.1 1.8L52.2 17l3.2-1.8z"/><path class="st5" d="M195.7 196.5l-3.1 1.8-.6-100.7 3.1-1.8z"/><linearGradient id="SVGID_4_" gradientUnits="userSpaceOnUse" x1="62.513" y1="139.942" x2="175.221" y2="74.87"><stop offset="0" stop-color="#72f2e0"/><stop offset=".022" stop-color="#76f2de"/><stop offset=".337" stop-color="#a4f3c5"/><stop offset=".616" stop-color="#c6f3b2"/><stop offset=".847" stop-color="#dbf4a7"/><stop offset="1" stop-color="#e2f4a3"/></linearGradient><path class="st7" d="M189.1 197.6L49.2 116.9l-.6-99.7 139.9 80.7z"/><path class="st6" d="M192 108.4L52.2 27.8V16.9L192 97.5z"/><path class="st4" d="M195.9 95.9c0-.2-.1-.4-.3-.5L55.7 14.7c-.2-.1-.4-.1-.6 0L52 16.5c-.1 0-.1.1-.2.2v.1c0 .1 0 .1-.1.2l.3 101.2c0 .2.1.4.3.5l139.9 80.7c.1 0 .2.1.3.1.1 0 .2 0 .3-.1l3.1-1.8c.2-.1.3-.3.3-.5l-.3-101.2zM52.8 18l138.7 80v9.7L52.9 27.6l-.1-9.6zm.4 99.8l-.4-89.4 138.7 80.1.4 89.3-138.7-80zm140 80l-.4-100.2c0-.2-.1-.4-.3-.5L53.4 17l1.9-1.1 139.4 80.3.4 100.5-1.9 1.1z"/><path class="st4" d="M181.6 99c-.1 0-.2-.1-.3-.2l-2.1-3.7c-.1-.2 0-.4.1-.5.2-.1.4 0 .5.1l2.1 3.7c.1.2 0 .4-.1.5 0 .1-.1.1-.2.1z"/><path class="st4" d="M179.5 97.8c-.1 0-.2-.1-.3-.2-.1-.2 0-.4.1-.5l2.1-1.2c.2-.1.4 0 .5.1.1.2 0 .4-.1.5l-2.1 1.2c0 .1-.1.1-.2.1zm-3.7-2.1h-.2l-2.1-1.2c-.1-.1-.2-.2-.2-.3v-2.4c0-.1.1-.2.2-.3.1-.1.2-.1.3 0l2.1 1.2c.1.1.2.2.2.3v2.4c0 .1-.1.2-.2.3h-.1zm-1.7-1.8l1.4.8v-1.6l-1.4-.8v1.6zm-3.4-1.2h-.2l-2-1.2c-.2-.1-.2-.3-.1-.5s.3-.2.5-.1l2 1.2c.2.1.2.3.1.5-.1 0-.2.1-.3.1z"/><path class="st8" d="M177.5 130.7l-24.1-13.9V93.6l24.1 13.9z"/><path class="st5" d="M177.5 157.1h-.2l-7.1-4.1c-.2-.1-.2-.3-.1-.5s.3-.2.5-.1l6.6 3.8v-21l-23.4-13.5v21l4 2.3c.2.1.2.3.1.5s-.3.2-.5.1l-4.2-2.4c-.1-.1-.2-.2-.2-.3V121c0-.1.1-.2.2-.3.1-.1.2-.1.3 0l24.1 13.9c.1.1.2.2.2.3v21.9c0 .1-.1.2-.2.3h-.1zm0 25.9h-.2l-24.1-13.9c-.1-.1-.2-.2-.2-.3v-21.9c0-.1.1-.2.2-.3.1-.1.2-.1.3 0l5.1 2.9c.2.1.2.3.1.5s-.3.2-.5.1l-4.5-2.6v21l23.4 13.5v-21l-3.9-2.2c-.2-.1-.2-.3-.1-.5s.3-.2.5-.1l4 2.3c.1.1.2.2.2.3v21.9c0 .1-.1.2-.2.3h-.1z"/><path class="st8" d="M93.6 79.9c0 4.7-3.3 6.6-7.3 4.3s-7.3-8-7.3-12.6c0-4.7 3.3-6.6 7.3-4.3 4.1 2.3 7.3 7.9 7.3 12.6z"/><path class="st5" d="M93.6 94.2h-.2l-13.9-8c-.2-.1-.2-.3-.1-.5s.3-.2.5-.1l13.9 8c.2.1.2.3.1.5-.1.1-.2.1-.3.1zm0 3.9h-.2l-13.9-8c-.2-.1-.2-.3-.1-.5s.3-.2.5-.1l13.9 8c.2.1.2.3.1.5-.1 0-.2.1-.3.1zm0 3.9h-.2l-13.9-8c-.2-.1-.2-.3-.1-.5s.3-.2.5-.1l13.9 8c.2.1.2.3.1.5-.1 0-.2.1-.3.1z"/><path class="st8" d="M115.3 92.4c0 4.7-3.3 6.6-7.3 4.3s-7.3-8-7.3-12.6c0-4.7 3.3-6.6 7.3-4.3s7.3 7.9 7.3 12.6z"/><path class="st5" d="M115.3 106.7h-.2l-13.9-8c-.2-.1-.2-.3-.1-.5s.3-.2.5-.1l13.9 8c.2.1.2.3.1.5-.1.1-.2.1-.3.1zm0 3.9h-.2l-13.9-8c-.2-.1-.2-.3-.1-.5s.3-.2.5-.1l13.9 8c.2.1.2.3.1.5-.1 0-.2.1-.3.1zm0 3.9h-.2l-13.9-8c-.2-.1-.2-.3-.1-.5s.3-.2.5-.1l13.9 8c.2.1.2.3.1.5-.1 0-.2.1-.3.1z"/><path class="st8" d="M136.9 104.9c0 4.7-3.3 6.6-7.3 4.3s-7.3-8-7.3-12.6 3.3-6.6 7.3-4.3c4.1 2.3 7.3 7.9 7.3 12.6z"/><path class="st5" d="M136.9 119.2h-.2l-13.9-8c-.2-.1-.2-.3-.1-.5s.3-.2.5-.1l13.9 8c.2.1.2.3.1.5 0 .1-.2.1-.3.1zm0 3.9h-.2l-13.9-8c-.2-.1-.2-.3-.1-.5s.3-.2.5-.1l13.9 8c.2.1.2.3.1.5 0 0-.2.1-.3.1zm0 3.9h-.2l-13.9-8c-.2-.1-.2-.3-.1-.5s.3-.2.5-.1l13.9 8c.2.1.2.3.1.5 0 0-.2.1-.3.1z"/><path class="st5" d="M148.9 90.6L67.4 43.5c-.1-.1-.2-.1-.3 0-.1.1-.2.2-.2.3v75.4l.1.1 81.5 47.1h.5c0-.1.1-.1.1-.2V90.9c-.1-.1-.1-.2-.2-.3zm-81.4 7.2l38.9 32.9-38.9-12V97.8zm2.9 1.6l75.4 43.5-37.7-11.6-37.7-31.9zm37.4 32.5l37.7 31.9-75.4-43.5 37.7 11.6zm1.7.5l38.9 12v20.9l-38.9-32.9zm38.8-41.3v52.4L67.5 96.9V44.4l80.8 46.7z"/><path class="st4" d="M192.2 98.3c-.2 0-.4-.1-.5-.3-.2-.3-.1-.7.2-.8l3.1-1.8c.3-.2.7-.1.8.2.2.3.1.7-.2.8l-3.1 1.8c-.1.1-.2.1-.3.1z"/><path class="st8" d="M174.3 161.7l-10.2-19.8-2.4 16.7 4.3-1.1 1.1 5.3 2.9.7-1.1-5.3z"/><path class="st9" d="M35.9 107.2c-.4 0-.8-.3-.8-.8 0-1 0-2 .1-3 0-.4.4-.7.8-.7s.7.4.7.8c-.1 1-.1 2-.1 2.9 0 .5-.3.8-.7.8zm.6-6.9h-.1c-.4-.1-.7-.4-.6-.9.2-1 .3-2 .6-3 .1-.4.5-.7.9-.6.4.1.7.5.6.9-.2 1-.4 1.9-.5 2.9-.3.4-.6.7-.9.7zm1.5-6.9h-.2c-.4-.1-.6-.5-.5-.9.3-1 .6-1.9.9-2.9.1-.4.6-.6 1-.5.4.1.6.6.5 1-.4.9-.7 1.9-1 2.8-.1.3-.4.5-.7.5zm2.4-6.5c-.1 0-.2 0-.3-.1-.4-.2-.6-.6-.4-1 .4-.9.8-1.9 1.3-2.8.2-.4.6-.5 1-.3s.5.6.3 1c-.4.9-.9 1.8-1.2 2.7-.1.3-.4.5-.7.5zm3.1-6.3c-.1 0-.3 0-.4-.1-.4-.2-.5-.7-.3-1 .5-.9 1.1-1.8 1.6-2.6.2-.3.7-.4 1-.2.3.2.4.7.2 1-.5.8-1 1.7-1.6 2.5 0 .3-.2.4-.5.4zm4-5.8c-.2 0-.3-.1-.5-.2-.3-.3-.4-.7-.1-1.1.9-1.1 1.6-1.8 2.2-2.3.3-.2.8-.2 1 .2.2.3.2.8-.2 1-.3.2-.9.8-1.9 2-.1.3-.3.4-.5.4zm183.3 101.7c-.3 0-.6-.2-.7-.6-.1-.4.1-.8.5-.9 1-.2 1.9-.5 2.9-.8.4-.1.8.1.9.5.1.4-.1.8-.5.9-1 .3-1.9.5-2.9.8-.1.1-.2.1-.2.1zm6.7-1.9c-.3 0-.6-.2-.7-.5-.1-.4.1-.8.5-.9 1-.3 1.9-.6 2.8-.9.4-.1.8.1 1 .5.1.4-.1.8-.5 1-.9.3-1.9.7-2.9 1 0-.2-.1-.2-.2-.2zm6.6-2.4c-.3 0-.6-.2-.7-.5-.2-.4 0-.8.4-1l2.7-1.2c.4-.2.8 0 1 .4s0 .8-.4 1c-.9.4-1.8.8-2.8 1.2 0 .1-.1.1-.2.1zm6.4-2.9c-.3 0-.5-.1-.7-.4-.2-.4 0-.8.3-1 .9-.5 1.8-.9 2.6-1.4.4-.2.8-.1 1 .3.2.4.1.8-.3 1-.9.5-1.8 1-2.7 1.4 0 .1-.1.1-.2.1zm6-3.5c-.2 0-.5-.1-.6-.3-.2-.3-.1-.8.2-1 .8-.5 1.7-1.1 2.4-1.7.3-.2.8-.2 1 .2.2.3.2.8-.2 1-.8.6-1.6 1.2-2.5 1.7 0 .1-.1.1-.3.1zm5.6-4.1c-.2 0-.4-.1-.6-.3-.3-.3-.2-.8.1-1.1.8-.6 1.5-1.3 2.2-2 .3-.3.8-.3 1.1 0 .3.3.3.8 0 1.1-.7.7-1.5 1.4-2.3 2-.1.2-.3.3-.5.3zm5-4.9c-.2 0-.3-.1-.5-.2-.3-.3-.3-.7-.1-1.1.6-.7 1.3-1.5 1.8-2.3.2-.3.7-.4 1-.2.3.2.4.7.2 1-.6.8-1.2 1.6-1.9 2.4-.1.3-.3.4-.5.4zm4.1-5.7c-.1 0-.3 0-.4-.1-.4-.2-.5-.7-.3-1 .5-.8 1-1.7 1.4-2.6.2-.4.6-.5 1-.4.4.2.5.6.4 1-.4.9-.9 1.8-1.4 2.7-.2.3-.5.4-.7.4zm2.9-6.4h-.2c-.4-.1-.6-.6-.5-.9.3-.9.6-1.9.8-2.8.1-.4.5-.7.9-.6.4.1.7.5.6.9-.2 1-.5 2-.8 3-.2.2-.5.4-.8.4zm1.4-6.8c-.5 0-.8-.4-.7-.8.1-1 .2-1.9.2-2.9 0-.4.3-.7.8-.7.4 0 .7.3.7.8 0 1-.1 2.1-.2 3.1-.1.2-.4.5-.8.5zm0-7c-.4 0-.7-.3-.7-.7-.1-1-.2-1.9-.4-2.9-.1-.4.2-.8.6-.9.4-.1.8.2.9.6.2 1 .3 2 .4 3 0 .5-.3.9-.8.9.1 0 .1 0 0 0zm-1.3-6.8c-.3 0-.6-.2-.7-.5-.3-.9-.6-1.9-.9-2.8-.1-.4.1-.8.5-1 .4-.1.8.1 1 .5.3 1 .7 1.9.9 2.9.1.4-.1.8-.5.9-.1-.1-.2 0-.3 0zm-2.4-6.6c-.3 0-.6-.2-.7-.4-.4-.9-.8-1.8-1.3-2.7-.2-.4 0-.8.3-1 .4-.2.8 0 1 .3.5.9.9 1.8 1.3 2.7.2.4 0 .8-.4 1 0 .1-.1.1-.2.1zm-3.3-6.2c-.3 0-.5-.1-.6-.4-.5-.8-1-1.7-1.6-2.5-.2-.3-.1-.8.2-1 .3-.2.8-.1 1 .2.6.8 1.1 1.7 1.6 2.6.2.4.1.8-.2 1-.1.1-.2.1-.4.1zm-3.9-5.8c-.2 0-.5-.1-.6-.3-.6-.8-1.2-1.6-1.8-2.3-.3-.3-.2-.8.1-1.1.3-.3.8-.2 1.1.1.7.8 1.3 1.6 1.9 2.4.3.3.2.8-.1 1.1-.3.1-.5.1-.6.1zm-4.5-5.3c-.2 0-.4-.1-.6-.2-.7-.7-1.3-1.4-2-2.2-.3-.3-.3-.8 0-1.1.3-.3.8-.3 1.1 0 .7.7 1.4 1.5 2.1 2.2.3.3.3.8 0 1.1-.2.1-.4.2-.6.2z"/><path class="st6" d="M171.7 164.4l-10.2-19.9-2.3 16.8 4.2-1.1 1.1 5.2 2.9.7-1.1-5.2z"/><path class="st9" d="M167.4 166.7h-.1l-2.9-.7c-.2-.1-.4-.2-.4-.5l-1-4.6-3.7.9c-.2 0-.4 0-.5-.1-.1-.1-.2-.3-.2-.5l2.4-16.7c0-.3.2-.5.5-.5s.5.1.6.3l10.2 19.9c.1.2.1.5-.1.7-.2.2-.5.2-.7.1l-4.2-2.7.8 3.8c0 .2 0 .4-.2.6h-.5zm-2.4-1.8l1.6.4-.9-4.3c-.1-.2 0-.5.2-.6.2-.1.5-.1.7 0l3.5 2.3-8.3-16.2-2 14 3.4-.9c.2 0 .3 0 .5.1.1.1.2.2.3.4l1 4.8z"/><path class="st4" d="M53.6 157l2.2-4.2-10.6 1.5-12 7c-2.4 1.4-3.8 3.5-4.3 5.9.8-.4 1.4-1 1.7-1.6l1.3-2.4 21.7-6.2z"/><path class="st6" d="M91.6 81.9c0 4.7-3.3 6.6-7.3 4.3s-7.3-8-7.3-12.6c0-4.7 3.3-6.6 7.3-4.3 4.1 2.3 7.3 7.9 7.3 12.6z"/><path class="st5" d="M87.6 87.5c-1.1 0-2.2-.3-3.4-1-4.1-2.4-7.4-8.2-7.4-12.9 0-2.4.8-4.2 2.3-5.1 1.5-.9 3.4-.7 5.5.5 4.1 2.4 7.4 8.2 7.4 12.9 0 2.4-.8 4.2-2.3 5.1-.7.3-1.4.5-2.1.5zm-6.5-18.9c-.6 0-1.2.1-1.7.4-1.3.7-2 2.3-2 4.5 0 4.5 3.2 10.1 7.1 12.3 1.8 1 3.5 1.2 4.8.5 1.3-.7 2-2.3 2-4.5 0-4.5-3.2-10.1-7.1-12.3-1.1-.6-2.2-.9-3.1-.9z"/><path class="st6" d="M113.3 94.4c0 4.7-3.3 6.6-7.3 4.3s-7.3-8-7.3-12.6c0-4.7 3.3-6.6 7.3-4.3s7.3 7.9 7.3 12.6z"/><path class="st5" d="M109.2 100c-1.1 0-2.2-.3-3.4-1-4.1-2.4-7.4-8.2-7.4-12.9 0-2.4.8-4.2 2.3-5.1 1.5-.9 3.4-.7 5.5.5 4.1 2.4 7.4 8.2 7.4 12.9 0 2.4-.8 4.2-2.3 5.1-.6.3-1.3.5-2.1.5zm-6.4-18.9c-.6 0-1.2.1-1.7.4-1.3.7-2 2.3-2 4.5 0 4.5 3.2 10.1 7.1 12.3 1.8 1.1 3.5 1.2 4.8.5 1.3-.7 2-2.3 2-4.5 0-4.5-3.2-10.1-7.1-12.3-1.2-.6-2.2-.9-3.1-.9z"/><path class="st6" d="M134.9 106.9c0 4.7-3.3 6.6-7.3 4.3s-7.3-8-7.3-12.6 3.3-6.6 7.3-4.3 7.3 7.9 7.3 12.6z"/><path class="st5" d="M130.9 112.5c-1.1 0-2.2-.3-3.4-1-4.1-2.4-7.4-8.2-7.4-12.9 0-2.4.8-4.2 2.3-5.1 1.5-.9 3.4-.7 5.5.5 4.1 2.4 7.4 8.2 7.4 12.9 0 2.4-.8 4.2-2.3 5.1-.7.3-1.4.5-2.1.5zm-6.5-18.9c-.6 0-1.2.1-1.7.4-1.3.7-2 2.3-2 4.5 0 4.5 3.2 10.1 7.1 12.3 1.8 1.1 3.5 1.2 4.8.5 1.3-.7 2-2.3 2-4.5 0-4.5-3.2-10.1-7.1-12.3-1.1-.6-2.1-.9-3.1-.9z"/><path class="st10" d="M175.5 132.7l-24.1-13.9V95.6l24.1 13.9z"/><path class="st5" d="M175.5 133h-.2l-24.1-13.9c-.1-.1-.2-.2-.2-.3V95.6c0-.1.1-.2.2-.3.1-.1.2-.1.3 0l24.1 13.9c.1.1.2.2.2.3v23.2c0 .1-.1.2-.2.3h-.1zm-23.7-14.4l23.4 13.5v-22.3l-23.4-13.5v22.3z"/><path class="st0" d="M77.2 135.6l-9.2 5.6-19.9-12.1 9.3-5.6z"/><path class="st9" d="M43.7 123.7l1-1.9-7.3.6c-.2-.7-1-1.1-2.3-1.1-1.3.1-2.7.6-3.6 1.3l-7.1.1-1 1.9 5.8 1.6L25 134l-17.9-1.1-2.2 4.2 16.1 4.5-1.3 2.4c-.7 1.3.3 2.2 2.2 2.1 1.9-.1 3.9-1.2 4.6-2.4l1.3-2.4 21.8-6.2 2.2-4.2-20 2.9 4.1-7.8 7.8-2.3z"/><path class="st4" d="M57.1 131.8l-1.5-2.7c0-.1-.1-.1-.2-.1H55l-15.7 2.3 1.8-3.4 7.5-2.2c.2 0 .3-.2.4-.3l1-1.9c.1-.2.1-.4 0-.6l-1.5-2.7c0-.1-.1-.1-.2-.1H48l-6.9.6c-.5-.7-1.5-1.1-2.7-1-1.3.1-2.7.6-3.8 1.4l-6.9.1c-.2 0-.4.1-.5.3l-1 1.9v.6l1.5 2.7c.1.1.2.2.4.3l2.5.7-2.5 4.8-17.5-1.1c-.2 0-.5.1-.6.3l-2.2 4.2v.6l1.5 2.7c.1.1.2.2.4.3l13 3.3v.1c-.3.5-.3 1-.2 1.4.5 2.6 2.1 4.2 4.3 4.2h.2c2.1-.1 4.3-1.3 5.1-2.8l.9-2.7 21.5-6.2c.2 0 .3-.2.4-.3l2.2-4.2c.1-.1.1-.3 0-.5zm-9.6-9.2l.5-1 .8 1.4-.8 1.4-7.5 2.2c-.2 0-.3.2-.4.3l-2.3 4.4-1.7.2 3.5-6.5 7.5-2.2c.2 0 .3-.1.4-.2zm-19 2.8l-.7-1.2 3.7 1-.5.9-2.5-.7zm-17.7 6.7l17.5 1.1c.2 0 .5-.1.6-.3l4.1-7.8c.1-.2.1-.4 0-.5s-.2-.3-.4-.3l-5.1-1.4.5-1 6.7-.1c.1 0 .3 0 .4-.1.9-.7 2.2-1.2 3.3-1.2.9 0 1.6.2 1.7.6.1.3.3.5.6.4l6.2-.5-.4.8L39 124c-.2 0-.3.2-.4.3l-4.1 7.8c-.1.2-.1.4 0 .6.1.2.3.3.6.2l18.8-2.7-1.5 2.9-21.5 6.2c-.2 0-.3.2-.4.3l-1.3 2.4c-.6 1.1-2.4 2-4.1 2.1-1 .1-1.5-.2-1.7-.5-.1-.2-.1-.4.1-.7l1.3-2.4c.1-.2.1-.4 0-.5-.1-.2-.2-.3-.4-.3L9 135.4l1.8-3.3zm-.7 5.8l-.7-1.2 14 3.9-.3.6-13-3.3zm22.3 4c-.2 0-.3.2-.4.3l-1.3 2.4c-.6 1.1-2.4 2-4.1 2.1-1.1.1-2.1-.5-2.7-1.6.3.1.6.1 1 .1h.3c2.1-.1 4.3-1.3 5.1-2.8l1.1-2.2 21-6 .6 1.6s0 .1.1.1l-20.7 6zm21.8-6.5l-.6-1.8 1.6-3 .8 1.4-1.8 3.4z"/></svg>